<svg width="30" height="30" fill="none" xmlns="http://www.w3.org/2000/svg"><path d="M1 5a4 4 0 0 1 4-4h20a4 4 0 0 1 4 4v20c0 1.48-.804 2.773-2 3.465L25.554 28a4 4 0 0 0-3.014.23L21 29h-3l-3-1.5-3 1.5H9l-1.54-.77A4 4 0 0 0 4.446 28L3 28.465A3.998 3.998 0 0 1 1 25Z" fill="#e1d8ec"/><path d="M9 10v10H1v1h8v8h1v-8h10v8h1v-8h8v-1h-8V10h8V9h-8V1h-1v8H10V1H9v8H1v1zm1 0h10v10H10Z" fill="#b4acbc"/><path d="M6 30h4V10.213C10 9.543 9.453 9 8.774 9H5.226C4.547 9 4 9.542 4 10.213v19.252c.588.34 1.271.535 2 .535Z" fill="#00d26a" style="fill:#fccd13;fill-opacity:1" transform="translate(-1 -1)"/><path d="M17.774 17h-3.548c-.679 0-1.226.542-1.226 1.214V30h6V18.214c0-.672-.547-1.214-1.226-1.214Z" fill="#f70a8d" style="fill:#f7322f;fill-opacity:1" transform="translate(-1 -1)"/><path d="M21 29h4c.729 0 1.412-.195 2-.535V6.209C27 5.539 26.453 5 25.774 5h-3.548C21.547 5 21 5.54 21 6.209Z" fill="#00a6ed"/></svg>