<svg width="30" height="30" fill="none" xmlns="http://www.w3.org/2000/svg"><path d="M11 7.14a4.5 4.5 0 1 1-9 0 4.5 4.5 0 0 1 9 0ZM28 7.14a4.5 4.5 0 1 1-9 0 4.5 4.5 0 0 1 9 0Z" fill="#8c5543"/><path d="M29 17.71v-.027a8.772 8.772 0 0 0-.149-1.585c-.309-2.07-1.256-5.755-4.163-8.737-4.172-4.28-9.688-4-9.688-4s-5.516-.28-9.688 4c-2.907 2.982-3.854 6.666-4.163 8.737a8.783 8.783 0 0 0-.15 1.612 8.705 8.705 0 0 0 4.876 7.819S9 27.36 15 27.36s9.125-1.831 9.125-1.831A8.703 8.703 0 0 0 29 17.71z" fill="#a56953"/><path d="M5.312 7.36a12.813 12.813 0 0 1 2.772-2.154 2.5 2.5 0 0 0-3.72 3.235c.29-.368.605-.729.948-1.08ZM24.688 7.36c.342.352.657.712.947 1.079a2.5 2.5 0 0 0-3.72-3.234 12.814 12.814 0 0 1 2.773 2.156zM10 18.693c0-.754.372-1.455.987-1.855a7.316 7.316 0 0 1 8.025 0c.614.4.987 1.1.987 1.855v.74c0 2.875-2.239 5.207-5 5.207s-5-2.332-5-5.207Z" fill="#f3ad61"/><path d="M10 13.608a1 1 0 0 1 2 0v1a1 1 0 0 1-2 0zM18 13.608a1 1 0 0 1 2 0v1a1 1 0 0 1-2 0zM14.525 18.46l-1.014-.835a.715.715 0 0 1 .453-1.263h2.074a.713.713 0 0 1 .453 1.263l-1.013.834a.75.75 0 0 1-.953 0zM15 19.64a.498.498 0 0 1 .487.388c.084.337.196.746.427 1.074.212.301.526.538 1.085.538.654 0 1-.535 1-1a.5.5 0 0 1 1 0c0 .867-.654 2-2 2-.925 0-1.528-.43-1.903-.962A2.744 2.744 0 0 1 15 21.53c-.03.05-.063.1-.097.148-.375.532-.978.962-1.903.962-1.346 0-2-1.133-2-2a.5.5 0 0 1 1 0c0 .465.346 1 1 1 .56 0 .873-.237 1.085-.538.231-.328.343-.737.427-1.074a.505.505 0 0 1 .313-.356.498.498 0 0 1 .175-.032Z" fill="#402a32"/></svg>