<svg width="30" height="30" fill="none" xmlns="http://www.w3.org/2000/svg"><path d="M22.869 1.555c.18.728 1.208.745 1.413.024a.731.731 0 0 1 .994-.47l.585.254c.406.176.564.67.335 1.048-.386.642.328 1.38.982 1.016a.731.731 0 0 1 1.036.37l.235.594a.731.731 0 0 1-.504.978c-.728.18-.745 1.208-.024 1.413a.731.731 0 0 1 .47.994l-.254.585a.731.731 0 0 1-1.048.335c-.642-.386-1.38.328-1.016.983a.731.731 0 0 1-.37 1.035l-.594.235a.731.731 0 0 1-.978-.504c-.18-.728-1.208-.745-1.413-.024a.731.731 0 0 1-.994.47l-.585-.254a.731.731 0 0 1-.336-1.048c.387-.642-.327-1.38-.982-1.016a.731.731 0 0 1-1.035-.37l-.235-.594a.731.731 0 0 1 .504-.978c.728-.18.745-1.208.024-1.413a.731.731 0 0 1-.47-.994l.254-.585a.731.731 0 0 1 1.048-.335c.642.386 1.38-.328 1.016-.983a.731.731 0 0 1 .37-1.035l.594-.235a.731.731 0 0 1 .978.504z" fill="#ff822d"/><path d="M24.707 4.793a1 1 0 0 1 0 1.414l-3 3a1 1 0 0 1-1.414-1.414l3-3a1 1 0 0 1 1.414 0z" fill="#f4f4f4"/><path d="M25.5 17c0 6.627-5.373 12-12 12s-12-5.373-12-12 5.373-12 12-12 12 5.373 12 12z" fill="#533566"/><path d="M11.5 26c6.075 0 11-4.925 11-11a11 11 0 0 0-.489-3.252A9.954 9.954 0 0 1 23.5 17c0 5.523-4.477 10-10 10a9.953 9.953 0 0 1-5.252-1.489c1.028.318 2.12.489 3.252.489z" fill="#6b438b"/></svg>