<svg width="30" height="30" fill="none" xmlns="http://www.w3.org/2000/svg"><path d="M1.652 2.348a.658.658 0 0 1 .889-.277l1.598.84c1.28.664 2.084 2 2.084 3.443v1.31a.658.658 0 0 1-1.317 0v-1.31a2.57 2.57 0 0 0-1.375-2.276l-.002-.001-1.6-.84a.658.658 0 0 1-.277-.889ZM11.827 2.348a.658.658 0 0 1-.276.889l-1.603.841a2.57 2.57 0 0 0-1.375 2.276v1.31a.658.658 0 1 1-1.317 0v-1.31c0-1.443.805-2.779 2.084-3.443l1.599-.84a.658.658 0 0 1 .888.277zM11.255 19.554a1.33 1.33 0 1 0 0-2.66 1.33 1.33 0 0 0 0 2.66zM13.915 22.214a1.33 1.33 0 1 1-2.66 0 1.33 1.33 0 0 1 2.66 0zM15.245 26.814a1.33 1.33 0 1 0 0-2.66 1.33 1.33 0 0 0 0 2.66zM21.005 26.674a1.33 1.33 0 1 1-2.66 0 1.33 1.33 0 0 1 2.66 0zM25.605 26.674a1.33 1.33 0 1 1-2.66 0 1.33 1.33 0 0 1 2.66 0z" fill="#008463"/><path d="M19.385 26.674h5.89c2.03 0 3.74-1.66 3.7-3.7a3.635 3.635 0 0 0-3.63-3.56h-4.44c-.96 0-1.8-.64-2.05-1.57l-1.59-5.78a7.384 7.384 0 0 0-7.12-5.43h-4.65a3.73 3.73 0 0 0-3.457 2.341l-.693 1.36.693 1.236a3.634 3.634 0 0 0 3.387 2.323h3.2c.96 0 1.8.64 2.05 1.57l1.59 5.78c.88 3.21 3.8 5.43 7.12 5.43z" fill="#00d26a"/><path d="M1.795 10.334c-.01-.484.08-.946.248-1.37a.839.839 0 0 0-1.018.82v.98a.845.845 0 0 0 1.018.82 3.622 3.622 0 0 1-.248-1.25ZM5.065 9.784c0-.46-.38-.84-.84-.84-.47 0-.84.37-.84.84v.98c0 .46.38.84.84.84.46 0 .84-.38.84-.84z" fill="#212121"/></svg>