<svg width="30" height="30" fill="none" xmlns="http://www.w3.org/2000/svg"><path d="M8.103 10.232 4.728 1.336c-.088-.232.181-.437.382-.29l7.899 5.807c.108.08.26.059.344-.046l2.963-3.725a.25.25 0 0 1 .444.133l.416 4.492a.25.25 0 0 0 .308.22l7.97-1.937a.25.25 0 0 1 .242.412L20.77 11.77a.25.25 0 0 0 .054.382l7.345 4.457a.25.25 0 0 1-.104.462l-8.556.891a.25.25 0 0 0-.212.325l1.398 4.386a.25.25 0 0 1-.39.276l-3.842-2.909a.25.25 0 0 0-.382.105l-3.57 8.702a.25.25 0 0 1-.477-.042l-2.276-10.61a.25.25 0 0 0-.303-.191L2.02 19.787c-.246.059-.414-.243-.234-.42l5.144-5.103a.25.25 0 0 0-.084-.41l-3.969-1.572a.25.25 0 0 1 .032-.475l5.02-1.244a.25.25 0 0 0 .173-.331z" fill="#f8312f"/><path d="m10.979 14.222-1.201 1.212a.25.25 0 0 0 .222.422l2.054-.366a.25.25 0 0 1 .29.204l.692 4.092c.044.264.412.296.501.043l1.296-3.665a.25.25 0 0 1 .396-.108l1.064.888a.25.25 0 0 0 .41-.192v-1.486a.25.25 0 0 1 .27-.249l4.511.37c.229.019.304-.3.091-.385l-4.712-1.893a.25.25 0 0 1-.116-.37l.889-1.34a.25.25 0 0 0-.217-.388l-1.475.047a.25.25 0 0 1-.257-.234l-.177-2.672c-.017-.25-.35-.323-.47-.104l-1.196 2.189a.25.25 0 0 1-.373.077l-2.35-1.835a.25.25 0 0 0-.392.269l.892 2.975a.25.25 0 0 1-.198.319l-2.05.342a.25.25 0 0 0-.088.46l1.645.987a.25.25 0 0 1 .049.39z" fill="#fcd53f"/></svg>