<svg width="30" height="30" fill="none" xmlns="http://www.w3.org/2000/svg"><path d="M13.51 29.5c-6.63 0-12-5.37-12-12V3.58c0-1.15.93-2.08 2.08-2.08h19.84c1.15 0 2.08.93 2.08 2.08V17.5c0 6.63-5.37 12-12 12z" fill="#f8312f"/><path d="M16.375 25.588a4.024 4.024 0 0 0-5.687.177 1 1 0 0 1-1.457-1.37 6.024 6.024 0 0 1 8.514-.263 1 1 0 1 1-1.37 1.456z" fill="#fff478"/><path d="M12.51 10a4.5 4.5 0 1 1-9 0 4.5 4.5 0 0 1 9 0ZM23.51 10a4.5 4.5 0 1 1-9 0 4.5 4.5 0 0 1 9 0Z" fill="#fff"/><path d="M5.51.5a1 1 0 0 1 1 1 4.44 4.44 0 0 0 4.44 4.44 1 1 0 1 1 0 2A6.44 6.44 0 0 1 4.51 1.5a1 1 0 0 1 1-1ZM21.51.5a1 1 0 0 1 1 1 6.44 6.44 0 0 1-6.44 6.44 1 1 0 1 1 0-2 4.44 4.44 0 0 0 4.44-4.44 1 1 0 0 1 1-1zM11.51 11.5a2 2 0 1 1-4 0 2 2 0 0 1 4 0zM19.51 11.5a2 2 0 1 1-4 0 2 2 0 0 1 4 0zM16.4 22.5h5.395c.737 0 .992-.976.343-1.317L13.51 16.5v.121a.123.123 0 0 0-.177-.108l-8.46 4.653c-.637.356-.382 1.334.344 1.334h5.29a3.013 3.013 0 0 0 3.003-3.023v.155A2.877 2.877 0 0 0 16.4 22.5Z" fill="#533566"/><path d="M25.99 19.5H14.97a2.5 2.5 0 0 1 0-5h11.02a2.5 2.5 0 0 1 0 5z" fill="#ca0b4a"/></svg>