<svg width="30" height="30" fill="none" xmlns="http://www.w3.org/2000/svg"><path d="M15 28.999c9.334 0 13.999-6.268 13.999-13.999 0-7.731-4.665-13.999-13.999-13.999S1.001 7.27 1.001 15c0 7.731 4.665 13.999 13.999 13.999Z" fill="#ffb02e"/><path d="M7.983 10.192c.048-.247.158-.55.367-.778C8.53 9.218 8.848 9 9.501 9c.642 0 .969.222 1.157.429.218.24.323.545.358.742a1 1 0 0 0 1.97-.342 3.544 3.544 0 0 0-.85-1.747c-.573-.63-1.44-1.082-2.635-1.082-1.184 0-2.047.431-2.624 1.06-.548.596-.769 1.293-.858 1.75a1 1 0 1 0 1.964.381ZM18.983 10.192c.048-.247.158-.55.367-.778.18-.196.498-.413 1.151-.413.642 0 .969.222 1.157.429.219.24.324.545.358.742a1 1 0 0 0 1.97-.342 3.543 3.543 0 0 0-.849-1.747c-.574-.63-1.44-1.082-2.636-1.082-1.184 0-2.047.431-2.624 1.06-.547.596-.769 1.293-.857 1.75a1 1 0 1 0 1.963.381z" fill="#402a32"/><path d="M15.001 24.001c-9 0-9-9-9-9h18s0 9-9 9z" fill="#bb1d80"/><path d="M7.001 15.501v-.5h16v.5a1 1 0 0 1-1 1h-14a1 1 0 0 1-1-1z" fill="#fff"/></svg>