<svg width="30" height="30" fill="none" xmlns="http://www.w3.org/2000/svg"><path d="M24 5.4V2.9l-9-.4-9 .4v2.5c0 4 2.8 7.3 6.5 8.2.3.1.5.4.5.7v1.2c0 .3-.2.6-.5.6C8.8 17 6 20.3 6 24.3V27l9 1 9-1v-2.7c0-4-2.8-7.3-6.5-8.2-.3-.1-.5-.3-.5-.6v-1.2c0-.3.2-.6.5-.6 3.7-1 6.5-4.3 6.5-8.3z" fill="#83cbff"/><path d="M6 3h18c.6 0 1-.4 1-1s-.4-1-1-1H6c-.6 0-1 .4-1 1s.4 1 1 1Zm0 26h18c.6 0 1-.4 1-1s-.4-1-1-1H6c-.6 0-1 .4-1 1s.4 1 1 1z" fill="#9b9b9b"/><path d="M16 18.4v-4.3c0-.7.5-1.2 1.1-1.4 1.7-.4 3.2-1.4 4.3-2.7.7-.8.1-2-.9-2h-11c-1 0-1.6 1.2-.9 2 1.1 1.3 2.6 2.2 4.3 2.7.7.2 1.1.7 1.1 1.4V18c0 .7-.3 1-.6 1.1-3.7.7-6.4 3.5-6.4 6.8V27h16v-1.1c0-3.3-2.7-6.1-6.4-6.8-.3 0-.6-.3-.6-.7z" fill="#ffb02e"/><path d="M20.5 4.8c0-.5.4-.9.9-.9.6.1 1 .5.9.9-.1 1.6-.5 3-1.3 4.2-.8 1.4-2 2.4-3.4 2.9-.5.2-1 0-1.2-.5-.2-.5 0-1 .5-1.2 2.4-.9 3.4-3.5 3.6-5.4zm0 20.1c0 .5.4.9.9.9.6 0 1-.5.9-.9-.1-1.6-.5-3-1.3-4.2-.8-1.4-2-2.4-3.4-2.9-.5-.2-1 0-1.2.5-.2.5 0 1 .5 1.2 2.4.9 3.4 3.5 3.6 5.4z" fill="#fff"/></svg>