<svg xmlns="http://www.w3.org/2000/svg" width="30" height="30" fill="none"><g fill="#321b41"><path d="M6.781 2.73c.66 0 1.844.203 1.844 1.828s-1.172 2.25-1.844 2.25c-.672 0-1.703-.637-1.703-2.25 0-1.612 1.133-1.827 1.703-1.828zM3.156 4.77C3.816 4.77 5 4.973 5 6.598s-1.172 2.25-1.844 2.25c-.672 0-1.703-.638-1.703-2.25 0-1.613 1.133-1.828 1.703-1.828ZM13 4.558c0-1.625-1.184-1.828-1.844-1.828-.57 0-1.703.216-1.703 1.828 0 1.613 1.031 2.25 1.703 2.25.672 0 1.844-.625 1.844-2.25zM14.703 4.77c.66 0 1.844.203 1.844 1.828s-1.172 2.25-1.844 2.25c-.672 0-1.703-.638-1.703-2.25 0-1.613 1.133-1.828 1.703-1.828ZM13.984 12.738c0-2.922-1.89-5.453-4.984-5.453-3.094 0-4.953 2.469-4.953 5.453 0 2.485 2.961 2.485 4.946 2.485H9c2.203 0 4.984-.078 4.984-2.485zM15.156 16.816c.66 0 1.844.203 1.844 1.828s-1.172 2.25-1.844 2.25c-.672 0-1.703-.637-1.703-2.25 0-1.612 1.133-1.828 1.703-1.828zM20.625 16.605c0-1.625-1.184-1.828-1.844-1.828-.57 0-1.703.216-1.703 1.828 0 1.613 1.031 2.25 1.703 2.25.672 0 1.844-.625 1.844-2.25zM23.156 14.777c.66 0 1.844.203 1.844 1.828s-1.172 2.25-1.844 2.25c-.672 0-1.703-.637-1.703-2.25 0-1.612 1.133-1.828 1.703-1.828zM28.547 18.644c0-1.625-1.184-1.828-1.844-1.828-.57 0-1.703.216-1.703 1.828 0 1.613 1.031 2.25 1.703 2.25.672 0 1.844-.625 1.844-2.25zM21 19.332c3.094 0 4.984 2.531 4.984 5.453 0 2.406-2.78 2.485-4.984 2.485h-.008c-1.984 0-4.945 0-4.945-2.485 0-2.984 1.86-5.453 4.953-5.453z"/></g></svg>