<svg xmlns="http://www.w3.org/2000/svg" width="30" height="30" fill="none"><path fill="#ffb02e" d="M15 28.999c9.334 0 13.999-6.268 13.999-13.999 0-7.731-4.665-13.999-13.999-13.999S1.001 7.27 1.001 15c0 7.731 4.665 13.999 13.999 13.999Z"/><path fill="#402a32" d="M9.986 7.622a.5.5 0 0 0-.97-.242c-.225.9-.665 1.544-1.246 1.967C7.184 9.772 6.418 10 5.5 10a.5.5 0 0 0 0 1c1.083 0 2.067-.271 2.857-.845.793-.578 1.353-1.434 1.628-2.534ZM5.294 15.294a1 1 0 0 1 1.414 0c.142.142.953.707 2.293.707 1.34 0 2.151-.565 2.293-.707a1 1 0 0 1 1.414 1.414c-.525.525-1.847 1.293-3.707 1.293-1.86 0-3.182-.768-3.707-1.293a1 1 0 0 1 0-1.414zM17.294 15.294a1 1 0 0 1 1.414 0c.142.142.953.707 2.293.707 1.34 0 2.151-.565 2.293-.707a1 1 0 0 1 1.414 1.414c-.524.525-1.847 1.293-3.707 1.293-1.86 0-3.182-.768-3.707-1.293a1 1 0 0 1 0-1.414zM20.38 7.016a.5.5 0 0 0-.364.606c.275 1.1.835 1.956 1.629 2.534.79.574 1.774.845 2.856.845a.5.5 0 1 0 0-1c-.917 0-1.683-.229-2.268-.654-.582-.423-1.022-1.067-1.247-1.967a.5.5 0 0 0-.606-.364ZM12.001 23.001a1 1 0 1 0 0 2h6a1 1 0 1 0 0-2z"/></svg>