<svg xmlns="http://www.w3.org/2000/svg" width="30" height="30" fill="none"><path fill="#9b9b9b" d="M25 2.002c0-.59-.5-1.05-1.09-1-2.002.185-4.011.864-5.613 1.873-.29-.022-.582-.033-.877-.033h-1.61c-5.54 0-11.12 2.61-14.45 7.04-.44.58-.48 1.38-.1 2 .47.78 1.081 1.48 1.79 2.071H16v1.849c0 1.3.73 2.49 1.89 3.08l.09.05a.7.7 0 0 0 1.02-.63v-4.349h2.447c1.155.34 2.368.529 3.553.529v-.529h.033v5.885l-7.583 3.636-.4-.76a9.804 9.804 0 0 1-.63.128.796.796 0 0 1-.75-.28l-1.76-2.2a6.278 6.278 0 0 0-4.89-2.36H7.77c-.31 0-.49.35-.3.6l5.23 6.97c.19.25.2.6.02.87l-1.32 1.98c-.15.25.03.58.32.58h1.62c1.04 0 2.02-.52 2.6-1.39l.85-1.26a.79.79 0 0 1 .66-.35c.13 0 .26 0 .39-.01 6.2-.22 11.16-5.31 11.16-11.57 0-3.5-1.55-6.635-4-8.758Z"/><path fill="#d3d3d3" d="M22 12.922v-2.42c0-.19.18-.33.39-.28 2.7.73 4.67 3.21 4.64 6.15-.02 2.13-1.15 4.1-2.94 5.26l-.95.62c-1.85 1.2-3.94 1.99-6.11 2.32v-1.85c.1-.02.19-.05.29-.07 1.856-.7 5.681-2.065 5.681-4.64 0-1.553-1.52-1.987-2.281-2.01H8.15c-1.85-.09-3.68-.85-5.12-2.05l1.41-1.21c2.06-1.77 4.69-2.74 7.4-2.74h6.89c.15 0 .27.12.27.27 0 1.22.61 2.37 1.63 3.06l.28.18c.46.31 1.09-.03 1.09-.59Z"/><path fill="#636363" d="M14 11.002c0 .28.22.5.5.5.27 0 .5-.22.5-.5v-2.01c0-.27-.22-.5-.5-.5s-.5.22-.5.5zM16 11.002c0 .28.22.5.5.5.27 0 .5-.22.5-.5v-2.01c0-.28-.22-.5-.5-.5s-.5.22-.5.5z"/><path fill="#1c1c1c" d="M9.51 11.002a1 1 0 1 0 0-2 1 1 0 0 0 0 2z"/></svg>