<?xml version="1.0" encoding="UTF-8"?>
<svg id="svg3" width="32" height="32" version="1.1" viewBox="0 0 32 32" xmlns="http://www.w3.org/2000/svg">
 <path id="path1" d="m7.8028 23h4.2094l1-7-1-7h-4.2094c-0.99575 0-1.8028 0.84705-1.8028 1.8921v10.216c0 1.0451 0.80707 1.8921 1.8028 1.8921zm18.197-6.9768c0 1.6872-1.3678 3.0549-3.055 3.0549-1.6871 0-3.0549-1.3677-3.0549-3.0549s1.3678-3.0549 3.0549-3.0549c1.6872 0 3.055 1.3677 3.055 3.0549z" fill="#b4acbc"/>
 <path id="path2" d="m20.611 26.831-8.613-3.8298v-13.982l8.0498-3.7879c1.123-0.52804 2.9882 0.02367 2.9882 1.265v18.808c0 1.2467-1.3013 2.066-2.425 1.5264z" fill="#cdc4d6"/>
</svg>
