<svg xmlns="http://www.w3.org/2000/svg" width="30" height="30" fill="none"><path fill="#00d26a" d="m4.117 3.54.084-.816.798-.102 2.3 1.635-.214 1.1-1.21.38Z"/><path fill="#468cfb" d="M7.423 7.673 5.874 5.737l1.424-1.48 2.027 1.441-.587 1.259Z"/><path fill="#f9c23c" d="m5.011 2.63-.885.92-1.537-1.92c-.217-.271.125-.633.409-.431Z"/><path fill="#8d65c5" d="m9.272 5.661 2.656 1.888c1.082 2.647-1.064 3.045-2.273 2.913L7.384 7.623Z"/><path fill="#5092ff" d="M10.218 5.641c1.219-1.603 6.658-2.529 3.608.431-1.81 1.76-1.053 3.632-3.373 4.632-3.907 1.484-5.047-1.719-4.64-2.125.405-.407 1.316.463 2.42 0C8.922 8.29 9 7.244 10.219 5.64Z"/><path fill="#efd5ff" d="m4.502 22.21 8.62-1.88c.149-.036.3-.077.45-.123-3.559 4.081-4.006 8.637-4.006 8.637h15.33c2.14 0 3.82-2.082 3.62-4.222-.598-6.319-2.785-17.952-10.828-18.03-1.608-1.224-3.468-1.52-4.586-.402-3.418 3.418-6.626 6.976-8.795 9.38-.674.748-1.247 1.384-1.695 1.87-1.89 2.049-1.45 3.73.22 4.58.51.26 1.11.31 1.67.19z"/><path fill="#ff6dc6" d="M28.625 15.829c0-3.657-2.323-4.209-3.22-4.188.199.792.282 3.3-.968 7s-.219 8.469.469 10.219c2.672 0 3.719-.344 3.719-2.281z"/><path fill="#c790f1" d="M26.093 16.141c1.063-4-1.875-8.156-4.187-8.156.812 1.854 1.312 6.219 0 8.344-1.496 2.421-1.735 9.03-.985 12.53h4.75c-1.7-4.824-.64-8.718.422-12.718z"/><path fill="#bca4eb" d="M13.625 20.141c7.718-6.406 3.656-11.969-1.438-13.031 7.188-5.469 8.865 5.417 7.594 9.125-2.156 2.312-6.156 3.906-6.156 3.906z"/><path fill="#5092ff" d="M21.515 28.844H14.89c-1.59-6.76 3.796-11.262 4.156-16.302.4-5.73-3.74-6.79-3.74-6.79-1.32.33 1.01 1.25-1.58 1.25l-.68-1.45-.687-1.13c1.64-.45 3.842-.827 6.36.407 3.099 1.518 5.752 5.488 4.687 9.562-1.063 4.063-3.578 6.992-1.89 14.453z"/><path fill="#8d65c5" d="M21.515 28.844h-1.413c-.331-1-.608-2.608-.571-4.484.057-2.898.682-4.505 2.157-8.296l.468-1.204c1.45-3.75-.708-7.5-1.688-8.75l.165.023c2.158 1.935 3.608 5.065 2.773 8.258-.257.981-.598 1.896-.944 2.824-1.088 2.917-2.227 5.97-.947 11.63zM26.093 16.141c.53-1.993.066-4.025-.819-5.562h-.056c.05.282.116.581.184.895.305 1.39.672 3.07.035 4.855l-.004.01c-.824 2.308-2.464 6.9-2.058 9.49.214 1.37.623 2.48.866 3.03h1.43c-1.685-4.784-.657-8.653.396-12.618z"/><path fill="#efd5ff" d="M14.296 7.876c-1.859.25-2.384-.704-2.5-2.454-.115-1.75-.087-2.26-.087-2.26 0-.34.41-.51.65-.27 0 0 3.281 2.593 3.422 3.53.14.938-.71 1.35-1.485 1.454Z"/><path fill="#1c1c1c" d="M10.718 10.86a1 1 0 0 0-1 1v1a1 1 0 1 0 2 0v-1a1 1 0 0 0-1-1zM3.629 19.161c-.3.3-.8.3-1.1 0l1.1-1.1c.3.31.3.8 0 1.1zM7.405 21.577l-1.864.406a1.794 1.794 0 0 0 1.114-1.972.512.512 0 1 1 1.009-.173c.106.615.002 1.22-.259 1.739z"/></svg>