<svg xmlns="http://www.w3.org/2000/svg" width="30" height="30" fill="none"><path fill="#26c9fc" d="M17.731 7.274V4.73H6.033V25.63h18.98v-6.581c-.519.51-1.592 1.425-3.308 2-.928.31-2.08.486-3.329.544a7.176 7.176 0 1 1-.645-14.32z"/><path fill="#00a6ed" d="M1.005 13.819v13.838a1 1 0 0 0 1 1h25.99a1 1 0 0 0 1-1V16.509c-2.488.92-4.011 2.663-5.88 4.185-1.773 1.442-3.962 2.69-7.11 2.69-4.25 0-9.197-3.822-9.197-8.833 0-6.02 5.182-8.585 8.035-8.585 1.148 0 1.639.244 1.834.367l1.21 1.65h4.183V7.03c-.672-1.896-3.544-5.687-9.649-5.687-5.613 0-11.416 5.687-11.416 12.476Z"/><path fill="#b4f6fc" d="M21.195 4.527a1.138 1.138 0 1 1-2.275 0 1.138 1.138 0 0 1 2.275 0zM26.926 8.94a1.138 1.138 0 1 0 0-2.274 1.138 1.138 0 0 0 0 2.275zM26.926 14.778a1.138 1.138 0 1 0 0-2.275 1.138 1.138 0 0 0 0 2.275zM18.187 12.802a1.138 1.138 0 1 1-2.276 0 1.138 1.138 0 0 1 2.276 0z"/><path fill="#b4f6fc" d="M24.024 11.86a1.138 1.138 0 0 0 .513-2.154 2.66 2.66 0 1 0-4.396-2.996 2.657 2.657 0 0 0-4.214-.244 2.66 2.66 0 1 0 0 3.477 2.657 2.657 0 0 0 4.214-.243 2.657 2.657 0 0 0 2.749 1.108 1.138 1.138 0 0 0 1.134 1.051z"/></svg>