<svg width="30" height="30" fill="none" xmlns="http://www.w3.org/2000/svg"><path d="M28 7H2v1h26zm0 5H2v1h26ZM2 17h26v1H2Zm26 5H2v1h26z" fill="#d3d3d3"/><path d="M7 1a6 6 0 0 0-6 6v16a6 6 0 0 0 6 6h16a6 6 0 0 0 6-6V7a6 6 0 0 0-6-6Zm0 2h16a4 4 0 0 1 4 4v16a4 4 0 0 1-4 4H7a4 4 0 0 1-4-4V7a4 4 0 0 1 4-4Z" fill="#ff6723"/><path d="M5 7a1.5 1.5 0 1 1 3 0 1.5 1.5 0 1 1 3 0 1.5 1.5 0 0 1 3 0 1.5 1.5 0 0 1 3 0v1a1.5 1.5 0 0 1-3 0 1.5 1.5 0 0 1-3 0 1.5 1.5 0 0 1-3 0 1.5 1.5 0 1 1-3 0Zm18.5-1.5A1.5 1.5 0 0 0 22 7v1a1.5 1.5 0 0 0 3 0V7a1.5 1.5 0 0 0-1.5-1.5Z" fill="#f70a8d"/><path d="M5 12a1.5 1.5 0 0 1 3 0 1.5 1.5 0 0 1 3 0 1.5 1.5 0 0 1 3 0 1.5 1.5 0 0 1 3 0v1a1.5 1.5 0 0 1-3 0 1.5 1.5 0 0 1-3 0 1.5 1.5 0 0 1-3 0 1.5 1.5 0 0 1-3 0Zm18.5-1.5A1.5 1.5 0 0 0 22 12v1a1.5 1.5 0 0 0 3 0v-1a1.5 1.5 0 0 0-1.5-1.5z" fill="#00a6ed"/><path d="M5 17a1.5 1.5 0 0 1 3 0 1.5 1.5 0 0 1 3 0 1.5 1.5 0 0 1 3 0 1.5 1.5 0 0 1 3 0v1a1.5 1.5 0 0 1-3 0 1.5 1.5 0 0 1-3 0 1.5 1.5 0 0 1-3 0 1.5 1.5 0 0 1-3 0Zm18.5-1.5A1.5 1.5 0 0 0 22 17v1a1.5 1.5 0 0 0 3 0v-1a1.5 1.5 0 0 0-1.5-1.5z" fill="#fcd53f"/><path d="M5 22a1.5 1.5 0 0 1 3 0 1.5 1.5 0 0 1 3 0 1.5 1.5 0 0 1 3 0 1.5 1.5 0 0 1 3 0v1a1.5 1.5 0 0 1-3 0 1.5 1.5 0 0 1-3 0 1.5 1.5 0 0 1-3 0 1.5 1.5 0 0 1-3 0Zm18.5-1.5A1.5 1.5 0 0 0 22 22v1a1.5 1.5 0 0 0 3 0v-1a1.5 1.5 0 0 0-1.5-1.5z" fill="#00d26a"/></svg>