<?xml version="1.0" encoding="UTF-8" standalone="no"?>
<svg
   width="30"
   height="30"
   viewBox="0 0 30 30"
   fill="none"
   version="1.1"
   id="svg6"
   sodipodi:docname="abacus_flat.svg"
   inkscape:version="1.3.2 (091e20e, 2023-11-25)"
   inkscape:export-filename="abacus_flat.png"
   inkscape:export-xdpi="819.20001"
   inkscape:export-ydpi="819.20001"
   xmlns:inkscape="http://www.inkscape.org/namespaces/inkscape"
   xmlns:sodipodi="http://sodipodi.sourceforge.net/DTD/sodipodi-0.dtd"
   xmlns="http://www.w3.org/2000/svg"
   xmlns:svg="http://www.w3.org/2000/svg">
  <defs
     id="defs6" />
  <sodipodi:namedview
     id="namedview6"
     pagecolor="#ffffff"
     bordercolor="#000000"
     borderopacity="0.25"
     inkscape:showpageshadow="2"
     inkscape:pageopacity="0.0"
     inkscape:pagecheckerboard="0"
     inkscape:deskcolor="#d1d1d1"
     inkscape:zoom="7.375"
     inkscape:cx="16"
     inkscape:cy="16"
     inkscape:window-width="1312"
     inkscape:window-height="449"
     inkscape:window-x="0"
     inkscape:window-y="25"
     inkscape:window-maximized="0"
     inkscape:current-layer="svg6"
     showguides="false" />
  <g
     id="g6"
     transform="translate(-1,-1)">
    <path
       d="M 29,8 H 3 v 1 h 26 z m 0,5 H 3 v 1 H 29 Z M 3,18 h 26 v 1 H 3 Z m 26,5 H 3 v 1 h 26 z"
       fill="#d3d3d3"
       id="path1" />
    <path
       d="M 8,2 C 4.68629,2 2,4.68629 2,8 v 16 c 0,3.3137 2.68629,6 6,6 h 16 c 3.3137,0 6,-2.6863 6,-6 V 8 C 30,4.68629 27.3137,2 24,2 Z m 0,2 h 16 c 2.2091,0 4,1.79086 4,4 v 16 c 0,2.2091 -1.7909,4 -4,4 H 8 C 5.79086,28 4,26.2091 4,24 V 8 C 4,5.79086 5.79086,4 8,4 Z"
       fill="#ff6723"
       id="path2" />
    <path
       d="M 6,8 C 6,7.17157 6.67157,6.5 7.5,6.5 8.32843,6.5 9,7.17157 9,8 9,7.17157 9.67157,6.5 10.5,6.5 11.3284,6.5 12,7.17157 12,8 12,7.17157 12.6716,6.5 13.5,6.5 14.3284,6.5 15,7.17157 15,8 15,7.17157 15.6716,6.5 16.5,6.5 17.3284,6.5 18,7.17157 18,8 v 1 c 0,0.82843 -0.6716,1.5 -1.5,1.5 C 15.6716,10.5 15,9.82843 15,9 15,9.82843 14.3284,10.5 13.5,10.5 12.6716,10.5 12,9.82843 12,9 12,9.82843 11.3284,10.5 10.5,10.5 9.67157,10.5 9,9.82843 9,9 9,9.82843 8.32843,10.5 7.5,10.5 6.67157,10.5 6,9.82843 6,9 Z M 24.5,6.5 C 23.6716,6.5 23,7.17157 23,8 v 1 c 0,0.82843 0.6716,1.5 1.5,1.5 C 25.3284,10.5 26,9.82843 26,9 V 8 C 26,7.17157 25.3284,6.5 24.5,6.5 Z"
       fill="#f70a8d"
       id="path3" />
    <path
       d="m 6,13 c 0,-0.8284 0.67157,-1.5 1.5,-1.5 0.82843,0 1.5,0.6716 1.5,1.5 0,-0.8284 0.67157,-1.5 1.5,-1.5 0.8284,0 1.5,0.6716 1.5,1.5 0,-0.8284 0.6716,-1.5 1.5,-1.5 0.8284,0 1.5,0.6716 1.5,1.5 0,-0.8284 0.6716,-1.5 1.5,-1.5 0.8284,0 1.5,0.6716 1.5,1.5 v 1 c 0,0.8284 -0.6716,1.5 -1.5,1.5 -0.8284,0 -1.5,-0.6716 -1.5,-1.5 0,0.8284 -0.6716,1.5 -1.5,1.5 -0.8284,0 -1.5,-0.6716 -1.5,-1.5 0,0.8284 -0.6716,1.5 -1.5,1.5 C 9.67157,15.5 9,14.8284 9,14 9,14.8284 8.32843,15.5 7.5,15.5 6.67157,15.5 6,14.8284 6,14 Z M 24.5,11.5 C 23.6716,11.5 23,12.1716 23,13 v 1 c 0,0.8284 0.6716,1.5 1.5,1.5 0.8284,0 1.5,-0.6716 1.5,-1.5 v -1 c 0,-0.8284 -0.6716,-1.5 -1.5,-1.5 z"
       fill="#00a6ed"
       id="path4" />
    <path
       d="m 6,18 c 0,-0.8284 0.67157,-1.5 1.5,-1.5 0.82843,0 1.5,0.6716 1.5,1.5 0,-0.8284 0.67157,-1.5 1.5,-1.5 0.8284,0 1.5,0.6716 1.5,1.5 0,-0.8284 0.6716,-1.5 1.5,-1.5 0.8284,0 1.5,0.6716 1.5,1.5 0,-0.8284 0.6716,-1.5 1.5,-1.5 0.8284,0 1.5,0.6716 1.5,1.5 v 1 c 0,0.8284 -0.6716,1.5 -1.5,1.5 -0.8284,0 -1.5,-0.6716 -1.5,-1.5 0,0.8284 -0.6716,1.5 -1.5,1.5 -0.8284,0 -1.5,-0.6716 -1.5,-1.5 0,0.8284 -0.6716,1.5 -1.5,1.5 C 9.67157,20.5 9,19.8284 9,19 9,19.8284 8.32843,20.5 7.5,20.5 6.67157,20.5 6,19.8284 6,19 Z M 24.5,16.5 C 23.6716,16.5 23,17.1716 23,18 v 1 c 0,0.8284 0.6716,1.5 1.5,1.5 0.8284,0 1.5,-0.6716 1.5,-1.5 v -1 c 0,-0.8284 -0.6716,-1.5 -1.5,-1.5 z"
       fill="#fcd53f"
       id="path5" />
    <path
       d="m 6,23 c 0,-0.8284 0.67157,-1.5 1.5,-1.5 0.82843,0 1.5,0.6716 1.5,1.5 0,-0.8284 0.67157,-1.5 1.5,-1.5 0.8284,0 1.5,0.6716 1.5,1.5 0,-0.8284 0.6716,-1.5 1.5,-1.5 0.8284,0 1.5,0.6716 1.5,1.5 0,-0.8284 0.6716,-1.5 1.5,-1.5 0.8284,0 1.5,0.6716 1.5,1.5 v 1 c 0,0.8284 -0.6716,1.5 -1.5,1.5 -0.8284,0 -1.5,-0.6716 -1.5,-1.5 0,0.8284 -0.6716,1.5 -1.5,1.5 -0.8284,0 -1.5,-0.6716 -1.5,-1.5 0,0.8284 -0.6716,1.5 -1.5,1.5 C 9.67157,25.5 9,24.8284 9,24 9,24.8284 8.32843,25.5 7.5,25.5 6.67157,25.5 6,24.8284 6,24 Z M 24.5,21.5 C 23.6716,21.5 23,22.1716 23,23 v 1 c 0,0.8284 0.6716,1.5 1.5,1.5 0.8284,0 1.5,-0.6716 1.5,-1.5 v -1 c 0,-0.8284 -0.6716,-1.5 -1.5,-1.5 z"
       fill="#00d26a"
       id="path6" />
  </g>
</svg>
