<?xml version="1.0" encoding="UTF-8" standalone="no"?>
<svg
   width="30"
   height="30"
   viewBox="0 0 30 30"
   fill="none"
   version="1.1"
   id="svg10"
   sodipodi:docname="bear_flat.svg"
   inkscape:version="1.3.2 (091e20e, 2023-11-25)"
   inkscape:export-filename="bear_flat.png"
   inkscape:export-xdpi="819.20001"
   inkscape:export-ydpi="819.20001"
   xmlns:inkscape="http://www.inkscape.org/namespaces/inkscape"
   xmlns:sodipodi="http://sodipodi.sourceforge.net/DTD/sodipodi-0.dtd"
   xmlns="http://www.w3.org/2000/svg"
   xmlns:svg="http://www.w3.org/2000/svg">
  <defs
     id="defs10" />
  <sodipodi:namedview
     id="namedview10"
     pagecolor="#ffffff"
     bordercolor="#000000"
     borderopacity="0.25"
     inkscape:showpageshadow="2"
     inkscape:pageopacity="0.0"
     inkscape:pagecheckerboard="0"
     inkscape:deskcolor="#d1d1d1"
     inkscape:zoom="7.375"
     inkscape:cx="16"
     inkscape:cy="16"
     inkscape:window-width="1312"
     inkscape:window-height="449"
     inkscape:window-x="0"
     inkscape:window-y="25"
     inkscape:window-maximized="0"
     inkscape:current-layer="svg10" />
  <g
     id="g10"
     transform="translate(-1.00095,-2.36035)">
    <path
       d="M 12,9.5 C 12,11.9853 9.98528,14 7.5,14 5.01472,14 3,11.9853 3,9.5 3,7.01472 5.01472,5 7.5,5 9.98528,5 12,7.01472 12,9.5 Z"
       fill="#8c5543"
       id="path1" />
    <path
       d="M 29,9.5 C 29,11.9853 26.9853,14 24.5,14 22.0147,14 20,11.9853 20,9.5 20,7.01472 22.0147,5 24.5,5 26.9853,5 29,7.01472 29,9.5 Z"
       fill="#8c5543"
       id="path2" />
    <path
       d="m 30.0019,20.0707 c 0,0 0,-0.01 -7e-4,-0.0269 -0.0018,-0.5413 -0.0531,-1.0706 -0.1493,-1.585 -0.3088,-2.0713 -1.2556,-5.7556 -4.1625,-8.7375 -4.1725,-4.28062 -9.6881,-4 -9.6881,-4 0,0 -5.5163,-0.28062 -9.6888,4 C 3.40625,12.7032 2.45875,16.3875 2.15,18.4588 2.05375,18.9732 2.0025,19.5032 2.00062,20.045 2.00062,20.0613 2,20.07 2,20.07 c 0,3.4338 1.98813,6.4025 4.87563,7.8194 0,0 3.12497,1.8313 9.12497,1.8313 6,0 9.125,-1.8313 9.125,-1.8313 2.8882,-1.4162 4.8763,-4.385 4.8763,-7.8187 z"
       fill="#a56953"
       id="path3" />
    <path
       d="M 6.3125,9.7213 C 7.19787,8.81299 8.14374,8.11005 9.08457,7.56622 8.65325,7.21237 8.10143,7 7.5,7 6.11929,7 5,8.11929 5,9.5 5,9.97648 5.1333,10.4218 5.36464,10.8008 5.65484,10.4337 5.97007,10.0726 6.3125,9.7213 Z"
       fill="#f3ad61"
       id="path4" />
    <path
       d="m 25.6894,9.7213 c 0.342,0.3509 0.6569,0.7115 0.9469,1.078 C 26.867,10.4207 27,9.97587 27,9.5 27,8.11929 25.8807,7 24.5,7 c -0.6011,0 -1.1526,0.21211 -1.5838,0.56556 0.9412,0.54392 1.8874,1.24706 2.7732,2.15574 z"
       fill="#f3ad61"
       id="path5" />
    <path
       d="m 11,21.0533 c 0,-0.7544 0.3731,-1.4553 0.9875,-1.8549 2.455,-1.5979 5.57,-1.5979 8.025,0 C 20.6269,19.598 21,20.2989 21,21.0533 v 0.74 C 21,24.6687 18.7612,27 16,27 13.2388,27 11,24.6687 11,21.7933 Z"
       fill="#f3ad61"
       id="path6" />
    <path
       d="m 11,15.9687 c 0,-0.5522 0.4477,-0.9999 1,-0.9999 0.5523,0 1,0.4477 1,1 v 1 c 0,0.5522 -0.4477,1 -1,1 -0.5523,0 -1,-0.4478 -1,-1 z"
       fill="#402a32"
       id="path7" />
    <path
       d="m 19,15.9687 c 0,-0.5522 0.4477,-0.9999 1,-0.9999 0.5523,0 1,0.4477 1,1 v 1 c 0,0.5522 -0.4477,1 -1,1 -0.5523,0 -1,-0.4478 -1,-1 z"
       fill="#402a32"
       id="path8" />
    <path
       d="m 15.5256,20.8194 -1.0138,-0.8337 c -0.1643,-0.1357 -0.26,-0.3375 -0.26,-0.5507 0,-0.3937 0.3194,-0.7131 0.7132,-0.7131 h 2.0737 c 0.3938,0 0.7131,0.3194 0.7131,0.7131 0,0.2132 -0.0956,0.415 -0.26,0.5507 l -1.0131,0.8337 c -0.2769,0.2275 -0.6769,0.2275 -0.9531,0 z"
       fill="#402a32"
       id="path9" />
    <path
       d="m 16,22 c 0.0608,0 0.1202,0.0111 0.1755,0.0319 0.0686,0.0256 0.1288,0.0652 0.1781,0.1146 0.0496,0.0495 0.0893,0.11 0.1149,0.1788 0.0077,0.0207 0.0141,0.0419 0.0191,0.0635 0.0843,0.3369 0.196,0.7455 0.427,1.0733 0.2124,0.3015 0.5263,0.538 1.0854,0.538 0.6543,0 1,-0.5344 1,-1 0,-0.2761 0.2239,-0.5 0.5,-0.5 0.2761,0 0.5,0.2239 0.5,0.5 0,0.8677 -0.6543,2 -2,2 -0.9253,0 -1.5281,-0.4301 -1.9029,-0.962 C 16.0629,23.9895 16.0305,23.94 16,23.8901 c -0.0305,0.0499 -0.0629,0.0994 -0.0971,0.148 -0.3748,0.5319 -0.9776,0.962 -1.9029,0.962 -1.3457,0 -2,-1.1323 -2,-2 0,-0.2761 0.2239,-0.5 0.5,-0.5 0.2761,0 0.5,0.2239 0.5,0.5 0,0.4656 0.3457,1 1,1 0.5591,0 0.873,-0.2365 1.0854,-0.538 0.231,-0.3278 0.3427,-0.7364 0.427,-1.0733 0.0051,-0.0219 0.0115,-0.0433 0.0194,-0.0642 0.0256,-0.0685 0.0652,-0.1287 0.1146,-0.1781 0.0493,-0.0494 0.1095,-0.089 0.1781,-0.1146 C 15.8798,22.0111 15.9392,22 16,22 Z"
       fill="#402a32"
       id="path10" />
  </g>
</svg>
