<?xml version="1.0" encoding="UTF-8" standalone="no"?>
<svg
   width="30"
   height="30"
   viewBox="0 0 30 30"
   fill="none"
   version="1.1"
   id="svg4"
   sodipodi:docname="bomb_flat.svg"
   inkscape:version="1.3.2 (091e20e, 2023-11-25)"
   inkscape:export-filename="bomb_flat.png"
   inkscape:export-xdpi="819.20001"
   inkscape:export-ydpi="819.20001"
   xmlns:inkscape="http://www.inkscape.org/namespaces/inkscape"
   xmlns:sodipodi="http://sodipodi.sourceforge.net/DTD/sodipodi-0.dtd"
   xmlns="http://www.w3.org/2000/svg"
   xmlns:svg="http://www.w3.org/2000/svg">
  <defs
     id="defs4" />
  <sodipodi:namedview
     id="namedview4"
     pagecolor="#ffffff"
     bordercolor="#000000"
     borderopacity="0.25"
     inkscape:showpageshadow="2"
     inkscape:pageopacity="0.0"
     inkscape:pagecheckerboard="0"
     inkscape:deskcolor="#d1d1d1"
     inkscape:zoom="7.375"
     inkscape:cx="16"
     inkscape:cy="-3.9322034"
     inkscape:window-width="1568"
     inkscape:window-height="823"
     inkscape:window-x="0"
     inkscape:window-y="25"
     inkscape:window-maximized="0"
     inkscape:current-layer="svg4" />
  <g
     id="g4"
     transform="translate(-0.50000316,-0.99999962)">
    <path
       d="m 23.3688,2.55538 c 0.1804,0.72723 1.2078,0.74464 1.4128,0.02394 0.1209,-0.4253 0.5888,-0.64673 0.9944,-0.47062 l 0.5855,0.25423 c 0.4056,0.17611 0.5632,0.66913 0.335,1.04786 -0.3866,0.64178 0.3275,1.38057 0.982,1.01592 0.3863,-0.21518 0.8737,-0.04093 1.0359,0.37037 l 0.2343,0.59384 c 0.1622,0.41129 -0.0749,0.87136 -0.504,0.97783 -0.7272,0.18042 -0.7446,1.20778 -0.024,1.41275 0.4253,0.12096 0.6467,0.58881 0.4706,0.99438 L 28.6371,9.36137 C 28.461,9.76696 27.968,9.9246 27.5892,9.69643 26.9474,9.30978 26.2086,10.0239 26.5733,10.6785 c 0.2152,0.3863 0.0409,0.8737 -0.3704,1.0359 l -0.5938,0.2343 c -0.4113,0.1622 -0.8714,-0.0749 -0.9779,-0.5041 -0.1804,-0.7272 -1.2078,-0.7446 -1.4127,-0.0239 -0.121,0.4253 -0.5888,0.6467 -0.9944,0.4706 L 21.6386,11.637 C 21.233,11.4609 21.0754,10.9679 21.3035,10.5892 21.6902,9.94739 20.976,9.20861 20.3215,9.57327 19.9352,9.78846 19.4478,9.6142 19.2856,9.20289 L 19.0513,8.6091 C 18.8891,8.19779 19.1262,7.73771 19.5554,7.63123 20.2826,7.45081 20.3,6.42343 19.5793,6.21846 19.154,6.0975 18.9326,5.62965 19.1087,5.22408 L 19.363,4.63856 C 19.5391,4.23299 20.0321,4.07535 20.4108,4.30351 21.0526,4.69015 21.7914,3.976 21.4267,3.32147 21.2115,2.93521 21.3858,2.44783 21.7971,2.28557 l 0.5938,-0.23424 c 0.4113,-0.16226 0.8714,0.07489 0.9779,0.50405 z"
       fill="#ff822d"
       id="path1" />
    <path
       d="m 25.2071,5.79289 c 0.3905,0.39053 0.3905,1.02369 0,1.41422 l -3,2.99999 c -0.3905,0.3905 -1.0237,0.3905 -1.4142,0 -0.3905,-0.39052 -0.3905,-1.02368 0,-1.41421 l 3,-3 c 0.3905,-0.39052 1.0237,-0.39052 1.4142,0 z"
       fill="#f4f4f4"
       id="path2" />
    <path
       d="M 26,18 C 26,24.6274 20.6274,30 14,30 7.37258,30 2,24.6274 2,18 2,11.3726 7.37258,6 14,6 c 6.6274,0 12,5.3726 12,12 z"
       fill="#533566"
       id="path3" />
    <path
       d="m 12,26.9999 c 6.0751,0 11,-4.9249 11,-11 0,-1.1322 -0.1711,-2.2245 -0.4887,-3.2523 C 23.4552,14.274 24,16.0733 24,17.9998 c 0,5.5229 -4.4771,10 -10,10 -1.9264,0 -3.7256,-0.5447 -5.25192,-1.4885 1.02775,0.3176 2.11982,0.4886 3.25192,0.4886 z"
       fill="#6b438b"
       id="path4" />
  </g>
</svg>
