<?xml version="1.0" encoding="UTF-8" standalone="no"?>
<svg
   width="30"
   height="30"
   viewBox="0 0 30 30"
   fill="none"
   version="1.1"
   id="svg10"
   sodipodi:docname="bug_flat.svg"
   inkscape:version="1.3.2 (091e20e, 2023-11-25)"
   inkscape:export-filename="bug_flat.png"
   inkscape:export-xdpi="819.20001"
   inkscape:export-ydpi="819.20001"
   xmlns:inkscape="http://www.inkscape.org/namespaces/inkscape"
   xmlns:sodipodi="http://sodipodi.sourceforge.net/DTD/sodipodi-0.dtd"
   xmlns="http://www.w3.org/2000/svg"
   xmlns:svg="http://www.w3.org/2000/svg">
  <defs
     id="defs10" />
  <sodipodi:namedview
     id="namedview10"
     pagecolor="#ffffff"
     bordercolor="#000000"
     borderopacity="0.25"
     inkscape:showpageshadow="2"
     inkscape:pageopacity="0.0"
     inkscape:pagecheckerboard="0"
     inkscape:deskcolor="#d1d1d1"
     inkscape:zoom="7.375"
     inkscape:cx="16"
     inkscape:cy="16"
     inkscape:window-width="1312"
     inkscape:window-height="449"
     inkscape:window-x="0"
     inkscape:window-y="25"
     inkscape:window-maximized="0"
     inkscape:current-layer="svg10" />
  <g
     id="g10"
     transform="translate(-0.97534393,-1.3457751)">
    <path
       d="M 2.6272,3.69393 C 2.79618,3.37207 3.19408,3.24814 3.51593,3.41712 L 5.11458,4.25644 C 6.39399,4.92099 7.19817,6.25709 7.19817,7.6999 v 1.31 c 0,0.36351 -0.29469,0.6582 -0.6582,0.6582 -0.36351,0 -0.6582,-0.29469 -0.6582,-0.6582 v -1.31 c 0,-0.95664 -0.53521,-1.84004 -1.37494,-2.27575 L 4.504,5.42268 2.90401,4.58265 C 2.58216,4.41367 2.45823,4.01578 2.6272,3.69393 Z"
       fill="#008463"
       id="path1" />
    <path
       d="m 12.8028,3.69393 c 0.169,0.32185 0.045,0.71974 -0.2768,0.88872 L 10.9232,5.42416 C 10.0834,5.85987 9.54822,6.74326 9.54822,7.6999 v 1.31 c 0,0.36351 -0.29468,0.6582 -0.6582,0.6582 -0.36351,0 -0.6582,-0.29469 -0.6582,-0.6582 v -1.31 c 0,-1.44281 0.80418,-2.77891 2.08358,-3.44346 l 1.5987,-0.83932 c 0.3218,-0.16898 0.7197,-0.04505 0.8887,0.27681 z"
       fill="#008463"
       id="path2" />
    <path
       d="m 12.23,20.9 c 0.7346,0 1.33,-0.5955 1.33,-1.3301 0,-0.7345 -0.5954,-1.3299 -1.33,-1.3299 -0.7345,0 -1.33,0.5954 -1.33,1.3299 0,0.7346 0.5955,1.3301 1.33,1.3301 z"
       fill="#008463"
       id="path3" />
    <path
       d="m 14.89,23.56 c 0,0.7345 -0.5955,1.33 -1.33,1.33 -0.7346,0 -1.33,-0.5955 -1.33,-1.33 0,-0.7345 0.5954,-1.33 1.33,-1.33 0.7345,0 1.33,0.5955 1.33,1.33 z"
       fill="#008463"
       id="path4" />
    <path
       d="m 16.22,28.16 c 0.7346,0 1.33,-0.5954 1.33,-1.33 0,-0.7345 -0.5954,-1.33 -1.33,-1.33 -0.7345,0 -1.33,0.5955 -1.33,1.33 0,0.7346 0.5955,1.33 1.33,1.33 z"
       fill="#008463"
       id="path5" />
    <path
       d="m 21.9799,28.02 c 0,0.7345 -0.5954,1.33 -1.33,1.33 -0.7345,0 -1.33,-0.5955 -1.33,-1.33 0,-0.7346 0.5955,-1.3301 1.33,-1.3301 0.7346,0 1.33,0.5955 1.33,1.3301 z"
       fill="#008463"
       id="path6" />
    <path
       d="m 26.58,28.02 c 0,0.7345 -0.5954,1.33 -1.33,1.33 -0.7345,0 -1.33,-0.5955 -1.33,-1.33 0,-0.7346 0.5955,-1.3301 1.33,-1.3301 0.7346,0 1.33,0.5955 1.33,1.3301 z"
       fill="#008463"
       id="path7" />
    <path
       d="m 20.36,28.02 h 5.89 c 2.03,0 3.74,-1.6601 3.7,-3.7001 -0.04,-1.97 -1.65,-3.56 -3.63,-3.56 h -4.44 c -0.96,0 -1.8,-0.64 -2.05,-1.57 L 18.24,13.41 C 17.36,10.2 14.44,7.97998 11.12,7.97998 H 6.46997 c -1.55283,0 -2.91843,0.97134 -3.45671,2.34112 L 2.32031,11.68 3.01326,12.9165 C 3.53913,14.2747 4.85724,15.24 6.39997,15.24 h 3.2 C 10.56,15.24 11.4,15.88 11.65,16.81 l 1.59,5.78 c 0.88,3.21 3.8,5.43 7.12,5.43 z"
       fill="#00d26a"
       id="path8" />
    <path
       d="M 2.76997,11.68 C 2.76049,11.196 2.84949,10.7334 3.01789,10.3093 2.96046,10.2967 2.90093,10.29 2.84,10.29 2.38,10.29 2,10.66 2,11.13 v 0.98 c 0,0.46 0.38,0.84 0.84,0.84 0.06122,0 0.12103,-0.0067 0.17871,-0.0195 C 2.8663,12.5417 2.77892,12.1203 2.76997,11.68 Z"
       fill="#212121"
       id="path9" />
    <path
       d="m 6.03999,11.13 c 0,-0.46 -0.38,-0.84 -0.84,-0.84 -0.47,0 -0.84,0.37 -0.84,0.84 v 0.98 c 0,0.46 0.38,0.84 0.84,0.84 0.46,0 0.84,-0.38 0.84,-0.84 z"
       fill="#212121"
       id="path10" />
  </g>
</svg>
