<?xml version="1.0" encoding="UTF-8" standalone="no"?>
<svg
   width="30"
   height="30"
   viewBox="0 0 30 30"
   fill="none"
   version="1.1"
   id="svg2"
   sodipodi:docname="cherry_blossom_flat.svg"
   inkscape:export-filename="cherry_blossom_flat.png"
   inkscape:export-xdpi="819.20001"
   inkscape:export-ydpi="819.20001"
   inkscape:version="1.3.2 (091e20e, 2023-11-25)"
   xmlns:inkscape="http://www.inkscape.org/namespaces/inkscape"
   xmlns:sodipodi="http://sodipodi.sourceforge.net/DTD/sodipodi-0.dtd"
   xmlns="http://www.w3.org/2000/svg"
   xmlns:svg="http://www.w3.org/2000/svg">
  <defs
     id="defs2" />
  <sodipodi:namedview
     id="namedview2"
     pagecolor="#ffffff"
     bordercolor="#000000"
     borderopacity="0.25"
     inkscape:showpageshadow="2"
     inkscape:pageopacity="0.0"
     inkscape:pagecheckerboard="0"
     inkscape:deskcolor="#d1d1d1"
     inkscape:zoom="7.375"
     inkscape:cx="16"
     inkscape:cy="16"
     inkscape:window-width="1312"
     inkscape:window-height="777"
     inkscape:window-x="0"
     inkscape:window-y="25"
     inkscape:window-maximized="0"
     inkscape:current-layer="svg2" />
  <path
     d="m 25.225848,18.249175 c 2.47,-0.8 3.96,-3.19 3.76,-5.68 -0.02,-0.23 -0.2,-0.43 -0.43,-0.47 0,0 -0.89,-0.19 -1.09,-0.23 -0.1,-0.02 -0.14,-0.15 -0.08,-0.22 0.13,-0.14 0.75,-0.84 0.75,-0.84 0.16,-0.17 0.19,-0.44 0.07,-0.64 -1.29,-2.13 -3.9,-3.19 -6.38,-2.38 -0.71,0.23 -1.33,0.65 -1.87,1.18 0.34,-0.68 0.54,-1.39 0.54,-2.14 0,-2.6 -1.81,-4.76 -4.24,-5.33 -0.23,-0.05 -0.47,0.06 -0.59,0.26 0,0 -0.46,0.79 -0.56,0.97 -0.05,0.09 -0.19,0.08 -0.23,0.01 -0.1,-0.17 -0.56,-0.98 -0.56,-0.98 -0.12,-0.2 -0.36,-0.32 -0.58,-0.26 -2.42,0.56 -4.2400004,2.72 -4.2400004,5.32 0,0.75 0.21,1.46 0.5400004,2.14 -0.5400004,-0.53 -1.1499704,-0.94 -1.8599704,-1.17 -2.48,-0.81 -5.09,0.25 -6.38,2.38 -0.12,0.2 -0.09,0.46 0.07,0.64 0,0 0.61,0.68 0.75,0.83 0.07,0.07 0.02,0.21 -0.07,0.23 -0.19,0.04 -1.1,0.23 -1.1,0.23 -0.23,0.05 -0.41,0.24 -0.43,0.47 -0.21000004,2.48 1.28,4.87 3.76,5.68 0.72,0.23 1.46,0.26 2.22,0.14 -0.68,0.35 -1.28,0.81 -1.72,1.42 -1.53,2.1 -1.33,4.91 0.3,6.8 0.15,0.18 0.41,0.23 0.63,0.13 0,0 0.83,-0.37 1.02,-0.46 0.09,-0.04 0.2,0.04 0.19,0.13 -0.02,0.19 -0.12,1.12 -0.12,1.12 -0.02,0.23 0.1,0.47 0.32,0.56 2.29997,0.96 5.0299704,0.28 6.5599704,-1.82 0.44,-0.61 0.69,-1.3 0.82,-2.05 0.13,0.75 0.38,1.45 0.82,2.05 1.53,2.1 4.26,2.78 6.56,1.82 0.22,-0.09 0.34,-0.32 0.32,-0.56 0,0 -0.1,-0.91 -0.12,-1.11 -0.01,-0.1 0.1,-0.18 0.19,-0.14 0.18,0.08 1.03,0.46 1.03,0.46 0.21,0.1 0.48,0.05 0.63,-0.13 1.63,-1.89 1.83,-4.7 0.3,-6.8 -0.44,-0.61 -1.04,-1.06 -1.72,-1.42 0.76,0.12 1.5,0.09 2.22,-0.14 z"
     fill="#ff6dc6"
     id="path1" />
  <path
     d="m 15.505,11.7312 c 0.2989,-0.1729 0.5,-0.4961 0.5,-0.8662 0,-0.5523 -0.4477,-1 -1,-1 -0.5523,0 -1,0.4477 -1,1 0,0.3701 0.2011,0.6933 0.5,0.8662 v 1.2844 c -0.7055,0.1451 -1.3013,0.591 -1.6472,1.1978 L 11.6332,13.8165 C 11.5373,13.3643 11.1358,13.025 10.655,13.025 c -0.5523,0 -1,0.4477 -1,1 0,0.5523 0.4477,1 1,1 0.2576,0 0.4924,-0.0974 0.6697,-0.2573 l 1.2249,0.397 c -0.0096,0.0888 -0.0146,0.179 -0.0146,0.2703 0,0.6403 0.2436,1.2236 0.6432,1.6624 l -0.7583,1.043 C 12.3854,18.1368 12.3504,18.135 12.315,18.135 c -0.5523,0 -1,0.4477 -1,1 0,0.5523 0.4477,1 1,1 0.5523,0 1,-0.4477 1,-1 0,-0.1448 -0.0308,-0.2824 -0.0861,-0.4067 l 0.7578,-1.0423 c 0.3105,0.1407 0.6552,0.219 1.0183,0.219 0.3615,0 0.7049,-0.0777 1.0144,-0.2172 l 0.7525,1.0389 c -0.0558,0.1247 -0.0869,0.2628 -0.0869,0.4083 0,0.5523 0.4477,1 1,1 0.5523,0 1,-0.4477 1,-1 0,-0.5523 -0.4477,-1 -1,-1 -0.0348,0 -0.0692,0.0018 -0.1031,0.0052 l -0.753,-1.0395 c 0.4013,-0.4392 0.6461,-1.0239 0.6461,-1.6657 0,-0.0919 -0.005,-0.1826 -0.0148,-0.2719 l 1.2156,-0.395 c 0.1773,0.1597 0.4119,0.2569 0.6692,0.2569 0.5523,0 1,-0.4477 1,-1 0,-0.5523 -0.4477,-1 -1,-1 -0.481,0 -0.8827,0.3396 -0.9784,0.7921 l -1.2152,0.3948 C 16.8053,13.6059 16.21,13.1606 15.505,13.0156 Z"
     fill="#ffffff"
     id="path2" />
</svg>
