<?xml version="1.0" encoding="UTF-8" standalone="no"?>
<svg
   width="30"
   height="30"
   viewBox="0 0 30 30"
   fill="none"
   version="1.1"
   id="svg2"
   sodipodi:docname="collision_flat.svg"
   inkscape:version="1.3.2 (091e20e, 2023-11-25)"
   inkscape:export-filename="collision_flat.png"
   inkscape:export-xdpi="819.20001"
   inkscape:export-ydpi="819.20001"
   xmlns:inkscape="http://www.inkscape.org/namespaces/inkscape"
   xmlns:sodipodi="http://sodipodi.sourceforge.net/DTD/sodipodi-0.dtd"
   xmlns="http://www.w3.org/2000/svg"
   xmlns:svg="http://www.w3.org/2000/svg">
  <defs
     id="defs2" />
  <sodipodi:namedview
     id="namedview2"
     pagecolor="#ffffff"
     bordercolor="#000000"
     borderopacity="0.25"
     inkscape:showpageshadow="2"
     inkscape:pageopacity="0.0"
     inkscape:pagecheckerboard="0"
     inkscape:deskcolor="#d1d1d1"
     inkscape:zoom="7.375"
     inkscape:cx="16"
     inkscape:cy="16"
     inkscape:window-width="1312"
     inkscape:window-height="585"
     inkscape:window-x="1"
     inkscape:window-y="25"
     inkscape:window-maximized="0"
     inkscape:current-layer="svg2" />
  <g
     id="g2"
     transform="translate(-1.2971823,-1.0047517)">
    <path
       d="M 9.40002,11.2363 6.02529,2.3412 C 5.93692,2.10827 6.20637,1.90353 6.4071,2.05108 l 7.899,5.80619 c 0.1083,0.07958 0.2601,0.05936 0.3437,-0.0458 l 2.963,-3.72477 c 0.1402,-0.1763 0.4238,-0.09174 0.4446,0.13258 l 0.4159,4.49227 c 0.0141,0.15191 0.1597,0.25591 0.308,0.21987 l 7.969,-1.93712 c 0.2401,-0.05837 0.4103,0.2299 0.2432,0.41197 l -4.9274,5.36903 c -0.1066,0.1162 -0.0803,0.3009 0.0545,0.3828 l 7.3442,4.4563 c 0.2048,0.1242 0.1345,0.4376 -0.1038,0.4624 l -8.5554,0.8912 c -0.1577,0.0164 -0.2605,0.1735 -0.2123,0.3245 l 1.3975,4.3867 c 0.0741,0.2324 -0.1945,0.4224 -0.3891,0.2752 l -3.8428,-2.9085 c -0.1308,-0.099 -0.3199,-0.0473 -0.3821,0.1044 l -3.5704,8.7028 c -0.0933,0.2274 -0.4242,0.1978 -0.4758,-0.0424 L 11.0537,19.2002 C 11.0243,19.0629 10.8875,18.9768 10.751,19.0095 L 3.3184,20.7916 C 3.07254,20.8505 2.90455,20.549 3.08407,20.371 l 5.1445,-5.102 C 8.35659,15.142 8.31221,14.9254 8.14458,14.859 L 4.17547,13.2871 C 3.94933,13.1976 3.97128,12.8706 4.20736,12.812 l 5.01908,-1.2444 c 0.1455,-0.036 0.22676,-0.1912 0.17358,-0.3313 z"
       fill="#f8312f"
       id="path1" />
    <path
       d="m 12.2759,15.2263 -1.2008,1.2129 c -0.1717,0.1735 -0.0187,0.4649 0.2216,0.422 l 2.0549,-0.3669 c 0.1368,-0.0245 0.2673,0.0674 0.2904,0.2045 l 0.6909,4.0918 c 0.0447,0.2645 0.4121,0.2963 0.5015,0.0433 l 1.2957,-3.6648 c 0.0581,-0.1643 0.2622,-0.2202 0.396,-0.1085 l 1.0636,0.8883 C 17.7525,18.0848 18,17.969 18,17.757 v -1.4858 c 0,-0.1461 0.1248,-0.2611 0.2704,-0.2491 l 4.5112,0.3697 c 0.2286,0.0188 0.3037,-0.2994 0.0908,-0.3849 l -4.7127,-1.8927 c -0.147,-0.059 -0.2027,-0.238 -0.1153,-0.37 l 0.8884,-1.3409 c 0.1121,-0.1692 -0.0135,-0.3944 -0.2164,-0.3879 l -1.475,0.0469 C 17.1068,12.0666 16.9929,11.9634 16.984,11.829 L 16.8068,9.15659 C 16.7903,8.90701 16.458,8.83373 16.338,9.05318 l -1.1967,2.18842 c -0.0741,0.1353 -0.2518,0.172 -0.3733,0.0771 L 12.4191,9.48361 C 12.2271,9.33355 11.9557,9.519 12.0258,9.75245 l 0.8927,2.97565 c 0.0432,0.1442 -0.0499,0.2937 -0.1984,0.3185 l -2.0503,0.3417 c -0.2294,0.0382 -0.2869,0.3413 -0.0876,0.461 l 1.6446,0.9867 c 0.1391,0.0834 0.1631,0.2751 0.0491,0.3903 z"
       fill="#fcd53f"
       id="path2" />
  </g>
</svg>
