<?xml version="1.0" encoding="UTF-8" standalone="no"?>
<svg
   width="30"
   height="30"
   viewBox="0 0 30 30"
   fill="none"
   version="1.1"
   id="svg4"
   sodipodi:docname="confounded_face_flat.svg"
   inkscape:export-filename="confounded_face_flat.png"
   inkscape:export-xdpi="819.20001"
   inkscape:export-ydpi="819.20001"
   inkscape:version="1.3.2 (091e20e, 2023-11-25)"
   xmlns:inkscape="http://www.inkscape.org/namespaces/inkscape"
   xmlns:sodipodi="http://sodipodi.sourceforge.net/DTD/sodipodi-0.dtd"
   xmlns="http://www.w3.org/2000/svg"
   xmlns:svg="http://www.w3.org/2000/svg">
  <defs
     id="defs4" />
  <sodipodi:namedview
     id="namedview4"
     pagecolor="#ffffff"
     bordercolor="#000000"
     borderopacity="0.25"
     inkscape:showpageshadow="2"
     inkscape:pageopacity="0.0"
     inkscape:pagecheckerboard="0"
     inkscape:deskcolor="#d1d1d1"
     inkscape:zoom="7.375"
     inkscape:cx="16"
     inkscape:cy="16"
     inkscape:window-width="1312"
     inkscape:window-height="449"
     inkscape:window-x="0"
     inkscape:window-y="25"
     inkscape:window-maximized="0"
     inkscape:current-layer="svg4" />
  <g
     id="g4"
     transform="translate(-0.9989,-0.9989)">
    <path
       d="m 15.9989,29.9978 c 9.3344,0 13.9989,-6.2675 13.9989,-13.9989 C 29.9978,8.26751 25.3333,2 15.9989,2 6.66443,2 2,8.26751 2,15.9989 2,23.7303 6.66443,29.9978 15.9989,29.9978 Z"
       fill="#ffb02e"
       id="path1" />
    <path
       d="m 8.10555,13.5528 c 0.24699,-0.494 0.84766,-0.6942 1.34164,-0.4473 l 4.00001,2 C 13.786,15.2749 14,15.6212 14,16 c 0,0.3787 -0.214,0.725 -0.5528,0.8944 l -4.00001,2 C 8.95321,19.1414 8.35254,18.9412 8.10555,18.4472 7.85856,17.9532 8.05878,17.3525 8.55276,17.1055 L 10.7639,16 8.55276,14.8944 C 8.05878,14.6474 7.85856,14.0467 8.10555,13.5528 Z"
       fill="#402a32"
       id="path2" />
    <path
       d="m 23.8945,13.5528 c -0.247,-0.494 -0.8477,-0.6942 -1.3417,-0.4473 l -4,2 C 18.214,15.2749 18,15.6212 18,16 c 0,0.3787 0.214,0.725 0.5528,0.8944 l 4,2 c 0.494,0.247 1.0947,0.0468 1.3417,-0.4472 0.2469,-0.494 0.0467,-1.0947 -0.4473,-1.3417 L 21.2361,16 23.4472,14.8944 c 0.494,-0.247 0.6942,-0.8477 0.4473,-1.3416 z"
       fill="#402a32"
       id="path3" />
    <path
       d="m 13.7071,20.2929 c -0.3905,-0.3905 -1.0237,-0.3905 -1.4142,0 L 10,22.5858 8.70711,21.2929 c -0.39053,-0.3905 -1.02369,-0.3905 -1.41422,0 -0.39052,0.3905 -0.39052,1.0237 0,1.4142 l 2,2 c 0.39053,0.3905 1.02371,0.3905 1.41421,0 L 13,22.4142 l 2.2929,2.2929 c 0.3905,0.3905 1.0237,0.3905 1.4142,0 L 19,22.4142 l 2.2929,2.2929 c 0.3905,0.3905 1.0237,0.3905 1.4142,0 l 2,-2 c 0.3905,-0.3905 0.3905,-1.0237 0,-1.4142 -0.3905,-0.3905 -1.0237,-0.3905 -1.4142,0 L 22,22.5858 19.7071,20.2929 c -0.3905,-0.3905 -1.0237,-0.3905 -1.4142,0 L 16,22.5858 Z"
       fill="#402a32"
       id="path4" />
  </g>
</svg>
