<svg width="30" height="30" fill="none" xmlns="http://www.w3.org/2000/svg"><path d="M15 28.999c9.334 0 13.999-6.268 13.999-13.999 0-7.731-4.665-13.999-13.999-13.999S1.001 7.27 1.001 15c0 7.731 4.665 13.999 13.999 13.999Z" fill="#ffb02e"/><path d="M7.107 12.554a1 1 0 0 1 1.341-.447l4 2a1 1 0 0 1 0 1.788l-4 2a1 1 0 1 1-.894-1.788L9.765 15l-2.211-1.106a1 1 0 0 1-.447-1.341ZM22.896 12.554a1 1 0 0 0-1.342-.447l-4 2a1 1 0 0 0 0 1.788l4 2a1 1 0 1 0 .894-1.788L20.238 15l2.21-1.106a1 1 0 0 0 .448-1.341zM12.708 19.294a1 1 0 0 0-1.414 0l-2.293 2.293-1.293-1.293a1 1 0 0 0-1.414 1.414l2 2a1 1 0 0 0 1.414 0l2.293-2.293 2.293 2.293a1 1 0 0 0 1.414 0l2.293-2.293 2.293 2.293a1 1 0 0 0 1.414 0l2-2a1 1 0 0 0-1.414-1.414l-1.293 1.293-2.293-2.293a1 1 0 0 0-1.414 0l-2.293 2.293Z" fill="#402a32"/></svg>