<?xml version="1.0" encoding="UTF-8" standalone="no"?>
<svg
   width="30"
   height="30"
   viewBox="0 0 30 30"
   fill="none"
   version="1.1"
   id="svg1"
   sodipodi:docname="cross_mark_flat.svg"
   inkscape:version="1.3.2 (091e20e, 2023-11-25)"
   inkscape:export-filename="cross_mark_flat.png"
   inkscape:export-xdpi="819.20001"
   inkscape:export-ydpi="819.20001"
   xmlns:inkscape="http://www.inkscape.org/namespaces/inkscape"
   xmlns:sodipodi="http://sodipodi.sourceforge.net/DTD/sodipodi-0.dtd"
   xmlns="http://www.w3.org/2000/svg"
   xmlns:svg="http://www.w3.org/2000/svg">
  <defs
     id="defs1" />
  <sodipodi:namedview
     id="namedview1"
     pagecolor="#ffffff"
     bordercolor="#000000"
     borderopacity="0.25"
     inkscape:showpageshadow="2"
     inkscape:pageopacity="0.0"
     inkscape:pagecheckerboard="0"
     inkscape:deskcolor="#d1d1d1"
     inkscape:zoom="7.375"
     inkscape:cx="16"
     inkscape:cy="16"
     inkscape:window-width="1312"
     inkscape:window-height="449"
     inkscape:window-x="0"
     inkscape:window-y="25"
     inkscape:window-maximized="0"
     inkscape:current-layer="svg1" />
  <path
     d="m 23.878699,1.8786787 c 1.1716,-1.17156995 3.071,-1.17156995 4.2426,0 1.1716,1.17157 1.1716,3.07107 0,4.24264 l -8.7903,8.7902803 c -0.0488,0.0488 -0.0488,0.128 0,0.1768 l 8.7903,8.7903 c 1.1716,1.1716 1.1716,3.071 0,4.2426 -1.1716,1.1716 -3.071,1.1716 -4.2426,0 l -8.7903,-8.7903 c -0.0488,-0.0488 -0.128,-0.0488 -0.1768,0 l -8.7902802,8.7903 c -1.17157,1.1716 -3.07107,1.1716 -4.24264,0 -1.17157005,-1.1716 -1.17157005,-3.071 0,-4.2426 l 8.7903202,-8.7903 c 0.0488,-0.0488 0.0488,-0.128 0,-0.1768 L 1.8786788,6.1213187 c -1.17157005,-1.17157 -1.17157005,-3.07107 0,-4.24264 1.17157,-1.17156995 3.07107,-1.17156995 4.24264,0 l 8.7902802,8.7903203 c 0.0488,0.0488 0.128,0.0488 0.1768,0 z"
     fill="#f92f60"
     id="path1" />
</svg>
