<?xml version="1.0" encoding="UTF-8" standalone="no"?>
<svg
   width="30"
   height="30"
   viewBox="0 0 30 30"
   fill="none"
   version="1.1"
   id="svg2"
   sodipodi:docname="deciduous_tree_flat.svg"
   inkscape:export-filename="deciduous_tree_flat.png"
   inkscape:export-xdpi="819.20001"
   inkscape:export-ydpi="819.20001"
   inkscape:version="1.3.2 (091e20e, 2023-11-25)"
   xmlns:inkscape="http://www.inkscape.org/namespaces/inkscape"
   xmlns:sodipodi="http://sodipodi.sourceforge.net/DTD/sodipodi-0.dtd"
   xmlns="http://www.w3.org/2000/svg"
   xmlns:svg="http://www.w3.org/2000/svg">
  <defs
     id="defs2" />
  <sodipodi:namedview
     id="namedview2"
     pagecolor="#ffffff"
     bordercolor="#000000"
     borderopacity="0.25"
     inkscape:showpageshadow="2"
     inkscape:pageopacity="0.0"
     inkscape:pagecheckerboard="0"
     inkscape:deskcolor="#d1d1d1"
     inkscape:zoom="7.375"
     inkscape:cx="16"
     inkscape:cy="11.525424"
     inkscape:window-width="1312"
     inkscape:window-height="449"
     inkscape:window-x="0"
     inkscape:window-y="25"
     inkscape:window-maximized="0"
     inkscape:current-layer="svg2" />
  <g
     id="g2"
     transform="translate(-1.5,-1.01)">
    <path
       d="m 18,22.24 h -4 v 7.78 h 4 z"
       fill="#6d4534"
       id="path1" />
    <path
       d="m 25.9,15.2 c 0.38,-0.76 0.6,-1.62 0.6,-2.53 0,-2.91 -2.19,-5.3 -5,-5.63 0,-0.01 0,-0.03 0,-0.04 0,-2.76 -2.24,-5 -5,-5 -2.76,0 -5,2.24 -5,5 0,0.01 0,0.03 0,0.04 -2.82,0.33 -5,2.72 -5,5.63 0,0.91 0.22,1.77 0.6,2.53 -1.26,0.94 -2.1,2.43 -2.1,4.12 0,2.84 2.32,5.16 5.16,5.16 h 12.68 c 2.84,0 5.16,-2.32 5.16,-5.16 0,-1.69 -0.84,-3.18 -2.1,-4.12 z"
       fill="#44911b"
       id="path2" />
  </g>
</svg>
