<svg width="30" height="30" fill="none" xmlns="http://www.w3.org/2000/svg"><path d="M15 28.999c9.334 0 13.999-6.268 13.999-13.999 0-7.731-4.665-13.999-13.999-13.999S1.001 7.27 1.001 15c0 7.731 4.665 13.999 13.999 13.999Z" fill="#ffb02e"/><path d="M9.488 9.058c-2.193-.478-4.186 1.241-4.53 3.419a1 1 0 1 1-1.975-.312c.477-3.022 3.345-5.843 6.931-5.061a5.283 5.283 0 0 1 4.045 6.278 4.42 4.42 0 0 1-5.26 3.387 3.742 3.742 0 0 1-2.865-4.45v-.003c.18-.811.62-1.506 1.286-1.946.669-.44 1.484-.572 2.308-.397 1.003.211 1.53 1.112 1.67 1.821.074.381.068.828-.107 1.249a1.713 1.713 0 0 1-1.102.996 1 1 0 0 1-.751-1.844l-.003-.017a.513.513 0 0 0-.098-.217.19.19 0 0 0-.033-.034c-.351-.072-.607-.003-.782.112-.179.118-.352.338-.434.705a1.742 1.742 0 0 0 1.334 2.07 2.42 2.42 0 0 0 2.882-1.854 3.284 3.284 0 0 0-2.515-3.902zm-.49 2.866.003.001zM10.94 20.648a1.5 1.5 0 0 1 2.122 0l1.94 1.939 1.938-1.94a1.5 1.5 0 0 1 2.122 0l1.94 1.94 1.792-1.793a1 1 0 0 1 1.414 1.414l-2.146 2.147a1.5 1.5 0 0 1-2.122 0l-1.939-1.94-1.94 1.94a1.5 1.5 0 0 1-2.12 0L12 22.415l-1.94 1.94a1.5 1.5 0 0 1-2.12 0l-2.147-2.147a1 1 0 1 1 1.414-1.414l1.793 1.793ZM25.013 12.477c-.343-2.178-2.336-3.897-4.53-3.419a3.283 3.283 0 0 0-2.515 3.901 2.42 2.42 0 0 0 2.882 1.855 1.742 1.742 0 0 0 1.334-2.07c-.082-.367-.255-.587-.434-.705-.175-.115-.43-.184-.782-.112a.19.19 0 0 0-.033.034.514.514 0 0 0-.098.217l-.003.017a1 1 0 0 1-.751 1.844 1.712 1.712 0 0 1-1.102-.996 2.175 2.175 0 0 1-.106-1.249c.138-.71.666-1.61 1.67-1.821.823-.175 1.638-.044 2.307.397.666.44 1.107 1.135 1.286 1.946v.004a3.742 3.742 0 0 1-2.866 4.448 4.42 4.42 0 0 1-5.258-3.386 5.283 5.283 0 0 1 4.044-6.278c3.587-.782 6.454 2.039 6.93 5.061a1 1 0 1 1-1.975.312zm-4.04-.553z" fill="#402a32"/></svg>