<?xml version="1.0" encoding="UTF-8" standalone="no"?>
<svg
   width="30"
   height="30"
   viewBox="0 0 30 30"
   fill="none"
   version="1.1"
   id="svg4"
   sodipodi:docname="face_with_spiral_eyes_flat.svg"
   inkscape:export-filename="face_with_spiral_eyes_flat.png"
   inkscape:export-xdpi="819.20001"
   inkscape:export-ydpi="819.20001"
   inkscape:version="1.3.2 (091e20e, 2023-11-25)"
   xmlns:inkscape="http://www.inkscape.org/namespaces/inkscape"
   xmlns:sodipodi="http://sodipodi.sourceforge.net/DTD/sodipodi-0.dtd"
   xmlns="http://www.w3.org/2000/svg"
   xmlns:svg="http://www.w3.org/2000/svg">
  <defs
     id="defs4" />
  <sodipodi:namedview
     id="namedview4"
     pagecolor="#ffffff"
     bordercolor="#000000"
     borderopacity="0.25"
     inkscape:showpageshadow="2"
     inkscape:pageopacity="0.0"
     inkscape:pagecheckerboard="0"
     inkscape:deskcolor="#d1d1d1"
     inkscape:zoom="7.375"
     inkscape:cx="16"
     inkscape:cy="15.932203"
     inkscape:window-width="1312"
     inkscape:window-height="860"
     inkscape:window-x="0"
     inkscape:window-y="25"
     inkscape:window-maximized="0"
     inkscape:current-layer="svg4" />
  <g
     id="g4"
     transform="translate(-0.9989,-0.9989)">
    <path
       d="m 15.9989,29.9978 c 9.3344,0 13.9989,-6.2675 13.9989,-13.9989 C 29.9978,8.26751 25.3333,2 15.9989,2 6.66443,2 2,8.26751 2,15.9989 2,23.7303 6.66443,29.9978 15.9989,29.9978 Z"
       fill="#ffb02e"
       id="path1" />
    <path
       d="M 10.487,10.057 C 8.29357,9.57888 6.3012,11.298 5.95779,13.4757 5.87176,14.0213 5.35977,14.3938 4.81423,14.3078 4.26868,14.2217 3.89617,13.7098 3.9822,13.1642 4.45879,10.1419 7.32642,7.32107 10.913,8.10292 c 2.8484,0.61735 4.6611,3.42868 4.0444,6.27838 -0.517,2.3911 -2.8702,3.9025 -5.25874,3.3861 C 7.67836,17.3306 6.39597,15.338 6.83258,13.3186 l 8.3e-4,-0.0038 c 0.17876,-0.8113 0.61977,-1.5063 1.28588,-1.9458 0.66842,-0.441 1.48388,-0.5718 2.30741,-0.3974 1.0035,0.2116 1.5308,1.1121 1.6697,1.8213 0.0746,0.381 0.0686,0.8282 -0.1068,1.249 -0.1871,0.4488 -0.5575,0.8319 -1.1013,0.9956 C 10.3595,15.1967 9.80167,14.8971 9.64245,14.3683 9.50178,13.901 9.71928,13.4112 10.1366,13.1936 l -0.003,-0.0165 c -0.0169,-0.0865 -0.0559,-0.1662 -0.0973,-0.2169 -0.0161,-0.0198 -0.0277,-0.0297 -0.0338,-0.0341 -0.35104,-0.072 -0.60708,-0.003 -0.7818,0.1123 -0.17858,0.1178 -0.35228,0.3373 -0.43371,0.7048 -0.20216,0.9401 0.39528,1.8663 1.33431,2.0694 1.3115,0.2835 2.5983,-0.545 2.8813,-1.854 0.383,-1.7697 -0.7435,-3.518 -2.5142,-3.9013 z m -0.48931,2.8661 c 10e-6,0 6.3e-4,3e-4 0.00182,10e-4 z"
       fill="#402a32"
       id="path2" />
    <path
       d="m 11.9393,21.6465 c 0.5858,-0.5858 1.5356,-0.5858 2.1214,0 L 16,23.5858 17.9393,21.6465 c 0.5858,-0.5858 1.5356,-0.5858 2.1214,0 L 22,23.5858 23.7929,21.7929 c 0.3905,-0.3905 1.0237,-0.3905 1.4142,0 0.3905,0.3905 0.3905,1.0237 0,1.4142 l -2.1464,2.1465 c -0.5858,0.5858 -1.5356,0.5858 -2.1214,0 L 19,23.4142 17.0607,25.3536 c -0.5858,0.5858 -1.5356,0.5858 -2.1214,0 L 13,23.4142 11.0607,25.3536 c -0.5858,0.5858 -1.53557,0.5858 -2.12136,0 L 6.79289,23.2071 c -0.39052,-0.3905 -0.39052,-1.0237 0,-1.4142 0.39053,-0.3905 1.02369,-0.3905 1.41422,0 L 10,23.5858 Z"
       fill="#402a32"
       id="path3" />
    <path
       d="M 26.0121,13.4757 C 25.6687,11.298 23.6763,9.57888 21.4828,10.057 l -0.0014,3e-4 c -1.7707,0.3833 -2.8972,2.1314 -2.5142,3.9011 0.283,1.3089 1.5699,2.1377 2.8813,1.8542 0.9391,-0.2031 1.5365,-1.1293 1.3344,-2.0694 -0.0815,-0.3675 -0.2552,-0.587 -0.4338,-0.7048 -0.1747,-0.1153 -0.4307,-0.1843 -0.7817,-0.1123 -0.0061,0.0044 -0.0177,0.0143 -0.0338,0.0341 -0.0414,0.0507 -0.0805,0.1304 -0.0974,0.2169 l -0.0029,0.0165 c 0.4173,0.2176 0.6348,0.7074 0.4941,1.1747 -0.1592,0.5288 -0.717,0.8284 -1.2458,0.6692 -0.5439,-0.1637 -0.9143,-0.5468 -1.1013,-0.9956 -0.1754,-0.4208 -0.1814,-0.868 -0.1068,-1.249 0.1388,-0.7092 0.6662,-1.6097 1.6697,-1.8213 0.8235,-0.1744 1.6389,-0.0436 2.3074,0.3974 0.6661,0.4395 1.1071,1.1345 1.2858,1.9458 l 9e-4,0.0038 c 0.4366,2.0194 -0.8458,4.012 -2.8661,4.4488 -2.3885,0.5164 -4.7418,-0.995 -5.2588,-3.3861 -0.6167,-2.8497 1.1961,-5.66103 4.0445,-6.27838 3.5865,-0.78185 6.4542,2.03898 6.9307,5.06128 0.0861,0.5456 -0.2864,1.0575 -0.832,1.1436 -0.5455,0.086 -1.0575,-0.2865 -1.1435,-0.8321 z m -4.0404,-0.5524 c 0,0 3e-4,-10e-5 0,0 z"
       fill="#402a32"
       id="path4" />
  </g>
</svg>
