<?xml version="1.0" encoding="UTF-8" standalone="no"?>
<svg
   width="30"
   height="30"
   viewBox="0 0 30 30"
   fill="none"
   version="1.1"
   id="svg10"
   sodipodi:docname="goblin_flat.svg"
   inkscape:export-filename="goblin_flat.png"
   inkscape:export-xdpi="819.20001"
   inkscape:export-ydpi="819.20001"
   inkscape:version="1.3.2 (091e20e, 2023-11-25)"
   xmlns:inkscape="http://www.inkscape.org/namespaces/inkscape"
   xmlns:sodipodi="http://sodipodi.sourceforge.net/DTD/sodipodi-0.dtd"
   xmlns="http://www.w3.org/2000/svg"
   xmlns:svg="http://www.w3.org/2000/svg">
  <defs
     id="defs10" />
  <sodipodi:namedview
     id="namedview10"
     pagecolor="#ffffff"
     bordercolor="#000000"
     borderopacity="0.25"
     inkscape:showpageshadow="2"
     inkscape:pageopacity="0.0"
     inkscape:pagecheckerboard="0"
     inkscape:deskcolor="#d1d1d1"
     inkscape:zoom="7.375"
     inkscape:cx="16"
     inkscape:cy="15.932203"
     inkscape:window-width="1312"
     inkscape:window-height="784"
     inkscape:window-x="0"
     inkscape:window-y="25"
     inkscape:window-maximized="0"
     inkscape:current-layer="svg10" />
  <g
     id="g10"
     transform="translate(-2.49,-0.5)">
    <path
       d="M 16,30 C 9.37,30 4,24.63 4,18 V 4.08 C 4,2.93 4.93,2 6.08,2 H 25.92 C 27.07,2 28,2.93 28,4.08 V 18 c 0,6.63 -5.37,12 -12,12 z"
       fill="#f8312f"
       id="path1" />
    <path
       d="m 18.8648,26.0884 c -1.617,-1.5209 -4.1642,-1.4417 -5.6864,0.1768 -0.3784,0.4022 -1.0113,0.4216 -1.4136,0.0432 -0.4023,-0.3784 -0.4216,-1.0112 -0.0433,-1.4135 2.2778,-2.4216 6.0906,-2.5424 8.5136,-0.2633 0.4023,0.3784 0.4217,1.0113 0.0433,1.4136 -0.3784,0.4022 -1.0113,0.4216 -1.4136,0.0432 z"
       fill="#fff478"
       id="path2" />
    <path
       d="M 15,10.5 C 15,12.9853 12.9853,15 10.5,15 8.01472,15 6,12.9853 6,10.5 6,8.01472 8.01472,6 10.5,6 12.9853,6 15,8.01472 15,10.5 Z"
       fill="#ffffff"
       id="path3" />
    <path
       d="M 26,10.5 C 26,12.9853 23.9853,15 21.5,15 19.0147,15 17,12.9853 17,10.5 17,8.01472 19.0147,6 21.5,6 23.9853,6 26,8.01472 26,10.5 Z"
       fill="#ffffff"
       id="path4" />
    <path
       d="m 8,1 c 0.55228,0 1,0.44772 1,1 0,2.44891 1.9835,4.44 4.44,4.44 0.5523,0 1,0.44772 1,1 0,0.55228 -0.4477,1 -1,1 C 9.87652,8.44 7,5.55109 7,2 7,1.44772 7.44772,1 8,1 Z"
       fill="#533566"
       id="path5" />
    <path
       d="m 24.0001,1 c 0.5522,0 1,0.44772 1,1 0,3.55109 -2.8766,6.44 -6.44,6.44 -0.5523,0 -1,-0.44772 -1,-1 0,-0.55228 0.4477,-1 1,-1 2.4565,0 4.44,-1.99109 4.44,-4.44 0,-0.55228 0.4477,-1 1,-1 z"
       fill="#533566"
       id="path6" />
    <path
       d="m 14,12 c 0,1.1046 -0.8954,2 -2,2 -1.1046,0 -2,-0.8954 -2,-2 0,-1.1046 0.8954,-2 2,-2 1.1046,0 2,0.8954 2,2 z"
       fill="#533566"
       id="path7" />
    <path
       d="m 22,12 c 0,1.1046 -0.8954,2 -2,2 -1.1046,0 -2,-0.8954 -2,-2 0,-1.1046 0.8954,-2 2,-2 1.1046,0 2,0.8954 2,2 z"
       fill="#533566"
       id="path8" />
    <path
       d="m 18.8893,23 h 5.3953 c 0.737,0 0.9926,-0.9756 0.3439,-1.3171 L 16,17 v 0.1212 c 0,-0.089 -0.0981,-0.1482 -0.1766,-0.1087 L 7.3639,21.6661 C 6.72601,22.0218 6.98116,23 7.70738,23 H 12.997 C 14.6555,23 16,21.6464 16,19.9766 v 0.1551 C 16,21.7122 17.2874,23 18.8893,23 Z"
       fill="#533566"
       id="path9" />
    <path
       d="M 28.48,20 H 17.46 c -1.38,0 -2.5,-1.12 -2.5,-2.5 0,-1.38 1.12,-2.5 2.5,-2.5 h 11.02 c 1.38,0 2.5,1.12 2.5,2.5 0,1.38 -1.12,2.5 -2.5,2.5 z"
       fill="#ca0b4a"
       id="path10" />
  </g>
</svg>
