<?xml version="1.0" encoding="UTF-8" standalone="no"?>
<svg
   width="30"
   height="30"
   viewBox="0 0 30 30"
   fill="none"
   version="1.1"
   id="svg5"
   sodipodi:docname="grinning_face_with_smiling_eyes_flat.svg"
   inkscape:version="1.3.2 (091e20e, 2023-11-25)"
   inkscape:export-filename="grinning_face_with_smiling_eyes_flat.png"
   inkscape:export-xdpi="819.20001"
   inkscape:export-ydpi="819.20001"
   xmlns:inkscape="http://www.inkscape.org/namespaces/inkscape"
   xmlns:sodipodi="http://sodipodi.sourceforge.net/DTD/sodipodi-0.dtd"
   xmlns="http://www.w3.org/2000/svg"
   xmlns:svg="http://www.w3.org/2000/svg">
  <defs
     id="defs5" />
  <sodipodi:namedview
     id="namedview5"
     pagecolor="#ffffff"
     bordercolor="#000000"
     borderopacity="0.25"
     inkscape:showpageshadow="2"
     inkscape:pageopacity="0.0"
     inkscape:pagecheckerboard="0"
     inkscape:deskcolor="#d1d1d1"
     inkscape:zoom="7.375"
     inkscape:cx="10.847458"
     inkscape:cy="16"
     inkscape:window-width="1312"
     inkscape:window-height="727"
     inkscape:window-x="0"
     inkscape:window-y="25"
     inkscape:window-maximized="0"
     inkscape:current-layer="svg5" />
  <g
     id="g5"
     transform="translate(-0.9989,-0.9989)">
    <path
       d="m 15.9989,29.9978 c 9.3344,0 13.9989,-6.2675 13.9989,-13.9989 C 29.9978,8.26751 25.3333,2 15.9989,2 6.66443,2 2,8.26751 2,15.9989 2,23.7303 6.66443,29.9978 15.9989,29.9978 Z"
       fill="#ffb02e"
       id="path1" />
    <path
       d="M 8.98156,11.1909 C 9.02964,10.9436 9.13971,10.6405 9.34896,10.4125 9.52829,10.2171 9.84698,10 10.4999,10 c 0.6418,0 0.9686,0.2216 1.1573,0.4288 0.2181,0.2395 0.3232,0.5449 0.3575,0.7423 0.0945,0.5441 0.6122,0.9086 1.1563,0.8142 0.5442,-0.0945 0.9087,-0.6123 0.8142,-1.1564 C 13.9062,10.374 13.6799,9.6794 13.1357,9.08196 12.562,8.45218 11.6955,8 10.4999,8 9.31564,8 8.45269,8.4313 7.87551,9.06013 7.32826,9.65637 7.10696,10.3533 7.01833,10.8091 6.91291,11.3513 7.26694,11.8762 7.80907,11.9816 8.3512,12.087 8.87614,11.733 8.98156,11.1909 Z"
       fill="#402a32"
       id="path2" />
    <path
       d="M 19.9818,11.1909 C 20.0299,10.9436 20.14,10.6405 20.3492,10.4125 20.5285,10.2171 20.8472,10 21.5002,10 c 0.6417,0 0.9685,0.2216 1.1572,0.4288 0.2182,0.2395 0.3233,0.5449 0.3575,0.7423 0.0945,0.5441 0.6122,0.9086 1.1564,0.8142 0.5441,-0.0945 0.9086,-0.6123 0.8141,-1.1564 C 24.9064,10.374 24.6802,9.6794 24.1359,9.08196 23.5623,8.45218 22.6957,8 21.5002,8 c -1.1843,0 -2.0473,0.4313 -2.6244,1.06013 -0.5473,0.59624 -0.7686,1.29317 -0.8572,1.74897 -0.1054,0.5422 0.2486,1.0671 0.7907,1.1725 0.5421,0.1054 1.0671,-0.2486 1.1725,-0.7907 z"
       fill="#402a32"
       id="path3" />
    <path
       d="M 16,25 C 7,25 7,16 7,16 h 18 c 0,0 0,9 -9,9 z"
       fill="#bb1d80"
       id="path4" />
    <path
       d="M 8,16.5 V 16 h 16 v 0.5 c 0,0.5523 -0.4477,1 -1,1 H 9 c -0.55228,0 -1,-0.4477 -1,-1 z"
       fill="#ffffff"
       id="path5" />
  </g>
</svg>
