<?xml version="1.0" encoding="UTF-8" standalone="no"?>
<svg
   width="30"
   height="30"
   viewBox="0 0 30 30"
   fill="none"
   version="1.1"
   id="svg10"
   sodipodi:docname="hibiscus_flat.svg"
   inkscape:export-filename="hibiscus_flat.png"
   inkscape:export-xdpi="819.20001"
   inkscape:export-ydpi="819.20001"
   inkscape:version="1.3.2 (091e20e, 2023-11-25)"
   xmlns:inkscape="http://www.inkscape.org/namespaces/inkscape"
   xmlns:sodipodi="http://sodipodi.sourceforge.net/DTD/sodipodi-0.dtd"
   xmlns="http://www.w3.org/2000/svg"
   xmlns:svg="http://www.w3.org/2000/svg">
  <defs
     id="defs10" />
  <sodipodi:namedview
     id="namedview10"
     pagecolor="#ffffff"
     bordercolor="#000000"
     borderopacity="0.25"
     inkscape:showpageshadow="2"
     inkscape:pageopacity="0.0"
     inkscape:pagecheckerboard="0"
     inkscape:deskcolor="#d1d1d1"
     inkscape:zoom="7.375"
     inkscape:cx="16"
     inkscape:cy="16"
     inkscape:window-width="1496"
     inkscape:window-height="803"
     inkscape:window-x="0"
     inkscape:window-y="25"
     inkscape:window-maximized="0"
     inkscape:current-layer="svg10" />
  <g
     id="g10"
     transform="translate(-1.0416309,-0.59264932)">
    <path
       d="m 25.251,15.4953 c -3.7,-1.85 -8.39,-0.31 -10.33,3.51 l -0.35,0.68 c -0.0867,0.1667 -0.0711,0.3556 0.023,0.5015 -0.1353,0.0887 -0.223,0.2416 -0.223,0.4185 v 0.76 c 0,4.28 3.48,7.78 7.61,7.81 l 5.15,0.01 c 0.26,0 0.46,-0.22 0.45,-0.48 -0.1252,-2.3831 -1.1752,-4.5356 -2.7976,-6.0911 2.1445,-0.6548 4.049,-2.0963 5.2376,-4.1589 0.13,-0.23 0.05,-0.51 -0.18,-0.63 z"
       fill="#86d72f"
       id="path1" />
    <path
       d="m 24.911,8.10535 c -1.57,-0.84 -3.35,-0.83 -4.85,-0.14 0.15,-1.62 -0.4,-3.29 -1.68,-4.49 -2.2,-2.06 -5.66,-1.95 -7.73,0.25 -1.18,1.26 -1.63,2.93 -1.4,4.52 -1.5,-0.52 -3.22,-0.38 -4.67,0.52 -2.56,1.59005 -3.35,4.96005 -1.76,7.53005 0.81,1.31 2.09,2.15 3.48,2.45 -0.71,1.16 -0.99,2.59 -0.67,4.02 0.65,2.95 3.57,4.81 6.52,4.15 1.33,-0.29 2.44,-1.05 3.19,-2.07 0.84,0.96 2.02,1.64 3.39,1.83 2.99,0.4 5.74,-1.7 6.15,-4.69 0.19,-1.41 -0.18,-2.77 -0.94,-3.85 1.33,-0.41 2.51,-1.32 3.22,-2.65 1.42,-2.65 0.41,-5.96005 -2.25,-7.38005 z"
       fill="#ff6dc6"
       id="path2" />
    <path
       d="m 20.841,10.7153 c -0.93,-0.5 -1.99,-0.49 -2.88,-0.08 0.11,-1.18004 -0.41,-2.41004 -1.59,-3.11004 -1.05,-0.62 -2.41,-0.58 -3.42,0.11 -1.13,0.76 -1.57,2 -1.4,3.17004 -1.04,-0.36 -2.26001,-0.19 -3.20001,0.62 -1.01,0.87 -1.38,2.36 -0.89,3.6 0.43,1.09 1.33,1.79 2.34,2.01 -0.52,0.86 -0.65,1.96 -0.19,3.02 0.51001,1.14 1.69001,1.91 2.94001,1.91 1.11,-0.01 2.03,-0.53 2.61,-1.3 0.94,1.08 2.6,1.56 4.38,0.59 0.83,-0.45 1.3,-1.35 1.27,-2.29 0.11,-0.84 -0.11,-1.64 -0.56,-2.28 0.79,-0.24 1.49,-0.78 1.91,-1.57 0.85,-1.59 0.26,-3.56 -1.32,-4.4 z"
       fill="#f70a8d"
       id="path3" />
    <path
       d="m 14.901,16.4754 c 1.0769,0 1.95,-0.873 1.95,-1.95 0,-1.0769 -0.8731,-1.95 -1.95,-1.95 -1.077,0 -1.95,0.8731 -1.95,1.95 0,1.077 0.873,1.95 1.95,1.95 z"
       fill="#fff478"
       id="path4" />
    <path
       d="m 14.851,15.0753 c -0.14,0 -0.28,-0.06 -0.38,-0.17 l -3.78,-4.33 c -0.18,-0.21 -0.16,-0.53 0.05,-0.70995 0.21,-0.18 0.52,-0.16 0.71,0.05 l 3.79,4.32995 c 0.18,0.21 0.16,0.52 -0.05,0.71 -0.1,0.07 -0.22,0.12 -0.34,0.12 z"
       fill="#f9c23c"
       id="path5" />
    <path
       d="m 10.4118,9.77028 c 0.2706,0 0.49,-0.21938 0.49,-0.49 0,-0.27062 -0.2194,-0.49 -0.49,-0.49 -0.2706,0 -0.49001,0.21938 -0.49001,0.49 0,0.27062 0.21941,0.49 0.49001,0.49 z"
       fill="#fff478"
       id="path6" />
    <path
       d="m 11.5218,9.86028 c 0.2706,0 0.49,-0.21938 0.49,-0.49 0,-0.27062 -0.2194,-0.49 -0.49,-0.49 -0.2706,0 -0.49,0.21938 -0.49,0.49 0,0.27062 0.2194,0.49 0.49,0.49 z"
       fill="#fff478"
       id="path7" />
    <path
       d="m 10.7518,10.4603 c 0,0.2706 -0.2194,0.49 -0.49,0.49 -0.27063,0 -0.49001,-0.2194 -0.49001,-0.49 0,-0.2706 0.21938,-0.49002 0.49001,-0.49002 0.2706,0 0.49,0.21942 0.49,0.49002 z"
       fill="#fff478"
       id="path8" />
    <path
       d="m 11.1618,11.7503 c 0.2706,0 0.49,-0.2194 0.49,-0.49 0,-0.2706 -0.2194,-0.49 -0.49,-0.49 -0.2706,0 -0.49,0.2194 -0.49,0.49 0,0.2706 0.2194,0.49 0.49,0.49 z"
       fill="#fff478"
       id="path9" />
    <path
       d="m 12.6218,10.3603 c 0,0.2706 -0.2194,0.49 -0.49,0.49 -0.2706,0 -0.49,-0.2194 -0.49,-0.49 0,-0.2706 0.2194,-0.49002 0.49,-0.49002 0.2706,0 0.49,0.21942 0.49,0.49002 z"
       fill="#fff478"
       id="path10" />
  </g>
</svg>
