<?xml version="1.0" encoding="UTF-8" standalone="no"?>
<svg
   width="30"
   height="30"
   viewBox="0 0 30 30"
   fill="none"
   version="1.1"
   id="svg4"
   sodipodi:docname="hourglass_done_flat.svg"
   inkscape:version="1.3.2 (091e20e, 2023-11-25)"
   inkscape:export-filename="hourglass_done_flat.png"
   inkscape:export-xdpi="819.20001"
   inkscape:export-ydpi="819.20001"
   xmlns:inkscape="http://www.inkscape.org/namespaces/inkscape"
   xmlns:sodipodi="http://sodipodi.sourceforge.net/DTD/sodipodi-0.dtd"
   xmlns="http://www.w3.org/2000/svg"
   xmlns:svg="http://www.w3.org/2000/svg">
  <defs
     id="defs4" />
  <sodipodi:namedview
     id="namedview4"
     pagecolor="#ffffff"
     bordercolor="#000000"
     borderopacity="0.25"
     inkscape:showpageshadow="2"
     inkscape:pageopacity="0.0"
     inkscape:pagecheckerboard="0"
     inkscape:deskcolor="#d1d1d1"
     inkscape:zoom="7.375"
     inkscape:cx="16"
     inkscape:cy="16"
     inkscape:window-width="1312"
     inkscape:window-height="449"
     inkscape:window-x="134"
     inkscape:window-y="142"
     inkscape:window-maximized="0"
     inkscape:current-layer="svg4" />
  <g
     id="g4"
     transform="translate(-1,-1)">
    <path
       d="m 25,6.3999 v -2.5 L 16,3.5 7,3.8999 v 2.5 c 0,4 2.8,7.3 6.5,8.2 0.3,0.1 0.5,0.4 0.5,0.7 v 1.2 c 0,0.3 -0.2,0.6 -0.5,0.6 -3.7,0.9 -6.5,4.2 -6.5,8.2 v 2.7 L 16,29 25,27.9999 v -2.7 c 0,-4 -2.8,-7.3 -6.5,-8.2 -0.3,-0.1 -0.5,-0.3 -0.5,-0.6 v -1.2 c 0,-0.3 0.2,-0.6 0.5,-0.6 3.7,-1 6.5,-4.3 6.5,-8.3 z"
       fill="#83cbff"
       id="path1" />
    <path
       d="M 7,4 H 25 C 25.6,4 26,3.6 26,3 26,2.4 25.6,2 25,2 H 7 C 6.4,2 6,2.4 6,3 6,3.6 6.4,4 7,4 Z m 0,26 h 18 c 0.6,0 1,-0.4 1,-1 0,-0.6 -0.4,-1 -1,-1 H 7 c -0.6,0 -1,0.4 -1,1 0,0.6 0.4,1 1,1 z"
       fill="#9b9b9b"
       id="path2" />
    <path
       d="m 17,19.4 v -4.3 c 0,-0.7 0.5,-1.2 1.1,-1.4 1.7,-0.4 3.2,-1.4 4.3,-2.7 0.7,-0.8 0.1,-2 -0.9,-2 -2.9,0 -8.1,0 -11,0 -1,0 -1.6,1.2 -0.9,2 1.1,1.3 2.6,2.2 4.3,2.7 0.7,0.2 1.1,0.7 1.1,1.4 V 19 c 0,0.7 -0.3,1 -0.6,1.1 C 10.7,20.8 8,23.6 8,26.9 V 28 h 16 v -1.1 c 0,-3.3 -2.7,-6.1 -6.4,-6.8 -0.3,0 -0.6,-0.3 -0.6,-0.7 z"
       fill="#ffb02e"
       id="path3" />
    <path
       d="m 21.5,5.7999 c 0,-0.5 0.4,-0.9 0.9,-0.9 0.6,0.1 1,0.5 0.9,0.9 -0.1,1.6 -0.5,3 -1.3,4.2 -0.8,1.4 -2,2.4 -3.4,2.9 -0.5,0.2 -1,0 -1.2,-0.5 -0.2,-0.5 0,-1 0.5,-1.2 2.4,-0.9 3.4,-3.5 3.6,-5.4 z m 0,20.1001 c 0,0.5 0.4,0.9 0.9,0.9 0.6,0 1,-0.5 0.9,-0.9 -0.1,-1.6 -0.5,-3 -1.3,-4.2 -0.8,-1.4 -2,-2.4 -3.4,-2.9 -0.5,-0.2 -1,0 -1.2,0.5 -0.2,0.5 0,1 0.5,1.2 2.4,0.9 3.4,3.5 3.6,5.4 z"
       fill="#ffffff"
       id="path4" />
  </g>
</svg>
