<?xml version="1.0" encoding="UTF-8" standalone="no"?>
<svg
   width="30"
   height="30"
   viewBox="0 0 30 30"
   fill="none"
   version="1.1"
   id="svg3"
   sodipodi:docname="japanese_castle_flat.svg"
   inkscape:export-filename="japanese_castle_flat.png"
   inkscape:export-xdpi="819.20001"
   inkscape:export-ydpi="819.20001"
   inkscape:version="1.3.2 (091e20e, 2023-11-25)"
   xmlns:inkscape="http://www.inkscape.org/namespaces/inkscape"
   xmlns:sodipodi="http://sodipodi.sourceforge.net/DTD/sodipodi-0.dtd"
   xmlns="http://www.w3.org/2000/svg"
   xmlns:svg="http://www.w3.org/2000/svg">
  <defs
     id="defs3" />
  <sodipodi:namedview
     id="namedview3"
     pagecolor="#ffffff"
     bordercolor="#000000"
     borderopacity="0.25"
     inkscape:showpageshadow="2"
     inkscape:pageopacity="0.0"
     inkscape:pagecheckerboard="0"
     inkscape:deskcolor="#d1d1d1"
     inkscape:zoom="7.375"
     inkscape:cx="16"
     inkscape:cy="15.932203"
     inkscape:window-width="1312"
     inkscape:window-height="790"
     inkscape:window-x="0"
     inkscape:window-y="25"
     inkscape:window-maximized="0"
     inkscape:current-layer="svg3" />
  <g
     id="g3"
     transform="translate(-1,-1)">
    <path
       d="m 10,7 h 12 v 6 H 10 Z m 15,8 H 7 v 6 h 18 z m 2,7 H 5 v 8 h 7.9877 L 15.9951,28.5406 19.0025,30 H 27 Z"
       fill="#e1d8ec"
       id="path1" />
    <path
       d="M 24.6277,6.24 C 24.8591,6.09 25,5.83 25,5.55 25,5.06 24.5975,4.71999 24.1649,4.71999 c -0.161,0 -0.322,0.04 -0.4628,0.14 C 23.2694,5.13999 22.7865,5.28 22.3035,5.28 21.4382,5.28 20.583,4.84 20.1001,4 L 19.3857,2.60999 C 19.1945,2.23999 18.8021,2 18.3795,2 H 13.701 C 13.2884,2 12.9161,2.22 12.7149,2.57 L 11.8999,4 C 11.417,4.84 10.5618,5.28 9.69647,5.28 9.21352,5.28 8.73057,5.13999 8.29792,4.85999 8.15706,4.75999 7.99608,4.71999 7.84516,4.71999 7.40246,4.71999 7,5.06 7,5.55 7,5.83 7.14086,6.09 7.37227,6.24 l 2.0123,1.33999 C 9.80715,7.84999 10.2901,8 10.7932,8 h 10.4237 c 0.4829,0 0.9659,-0.15001 1.3784,-0.42001 z M 28.5,13.56 c 0,0.28 -0.1406,0.54 -0.3716,0.69 l -2.0089,1.33 C 25.7077,15.85 25.2256,16 24.7234,16 H 7.27661 C 6.78445,16 6.29228,15.85 5.88047,15.58 L 3.87163,14.25 C 3.64061,14.1 3.5,13.84 3.5,13.56 c 0,-0.49 0.40176,-0.84 0.84371,-0.84 0.15066,0 0.31138,0.05 0.46204,0.14 0.42185,0.28 0.91402,0.42 1.39614,0.42 0.65287,0 1.29571,-0.25 1.77783,-0.73 C 8.33126,12.2 8.81337,12 9.31558,12 H 22.6945 c 0.5022,0 0.9843,0.2 1.3358,0.55 0.4822,0.48 1.125,0.73 1.7779,0.73 0.4821,0 0.9642,-0.14 1.3961,-0.42 0.1507,-0.1 0.3013,-0.14 0.462,-0.14 0.4319,0 0.8337,0.35 0.8337,0.84 z m 1.5,8 c 0,0.28 -0.14,0.54 -0.37,0.69 l -2,1.33 C 27.22,23.85 26.74,24 26.24,24 H 5.76001 c -0.49,0 -0.98,-0.15 -1.39,-0.42 l -2,-1.33 C 2.14001,22.1 2,21.84 2,21.56 c 0,-0.49 0.4,-0.84 0.84,-0.84 0.15,0 0.31,0.05 0.46,0.14 0.42,0.28 0.91,0.42 1.39,0.42 0.65,0 1.29001,-0.25 1.77001,-0.73 0.35,-0.35 0.83,-0.55 1.33,-0.55 H 24.22 c 0.5,0 0.98,0.2 1.33,0.55 0.48,0.48 1.12,0.73 1.77,0.73 0.48,0 0.96,-0.14 1.39,-0.42 0.15,-0.1 0.3,-0.14 0.46,-0.14 0.42,0 0.83,0.35 0.83,0.84 z"
       fill="#f8312f"
       id="path2" />
    <path
       d="M 13.57,11 H 12.43 C 12.19,11 12,10.81 12,10.57 V 9.43 C 12,9.19 12.19,9 12.43,9 h 1.14 C 13.81,9 14,9.19 14,9.43 v 1.14 C 14.01,10.81 13.81,11 13.57,11 Z m -3,8 H 9.43001 C 9.19001,19 9,18.81 9,18.57 V 17.43 C 9,17.19 9.19001,17 9.43001,17 H 10.57 c 0.24,0 0.43,0.19 0.43,0.43 v 1.14 C 11.01,18.81 10.81,19 10.57,19 Z M 7.76001,28 H 10.26 c 0.41,0 0.75,-0.33 0.75,-0.75 v -1.5 C 11.01,25.34 10.67,25 10.26,25 H 7.76001 c -0.41,0 -0.75,0.34 -0.75,0.75 v 1.5 c 0,0.41 0.34,0.75 0.75,0.75 z M 13,30 h 6 V 26.01 C 19,25.45 18.55,25 17.99,25 H 14.01 C 13.45,25 13,25.45 13,26.01 Z m 2.43,-11 h 1.14 c 0.24,0 0.44,-0.19 0.43,-0.43 V 17.43 C 17,17.19 16.81,17 16.57,17 H 15.43 C 15.19,17 15,17.19 15,17.43 v 1.14 c 0,0.24 0.19,0.43 0.43,0.43 z m 3,-8 h 1.14 c 0.24,0 0.44,-0.19 0.43,-0.43 V 9.43 C 20,9.19 19.81,9 19.57,9 H 18.43 C 18.19,9 18,9.19 18,9.43 v 1.14 c 0,0.24 0.19,0.43 0.43,0.43 z m 4.14,8 H 21.43 C 21.19,19 21,18.81 21,18.57 V 17.43 C 21,17.19 21.19,17 21.43,17 h 1.14 c 0.24,0 0.43,0.19 0.43,0.43 v 1.14 C 23.01,18.81 22.81,19 22.57,19 Z m -0.81,9 h 2.5 c 0.41,0 0.75,-0.33 0.75,-0.75 v -1.5 C 25.01,25.34 24.67,25 24.26,25 h -2.5 c -0.41,0 -0.75,0.34 -0.75,0.75 v 1.5 c 0,0.41 0.34,0.75 0.75,0.75 z"
       fill="#321b41"
       id="path3" />
  </g>
</svg>
