<?xml version="1.0" encoding="UTF-8" standalone="no"?>
<svg
   width="30"
   height="30"
   viewBox="0 0 30 30"
   fill="none"
   version="1.1"
   id="svg2"
   sodipodi:docname="keycap_6_flat.svg"
   inkscape:version="1.3.2 (091e20e, 2023-11-25)"
   inkscape:export-filename="keycap_6_flat.png"
   inkscape:export-xdpi="819.20001"
   inkscape:export-ydpi="819.20001"
   xmlns:inkscape="http://www.inkscape.org/namespaces/inkscape"
   xmlns:sodipodi="http://sodipodi.sourceforge.net/DTD/sodipodi-0.dtd"
   xmlns="http://www.w3.org/2000/svg"
   xmlns:svg="http://www.w3.org/2000/svg">
  <defs
     id="defs2" />
  <sodipodi:namedview
     id="namedview2"
     pagecolor="#ffffff"
     bordercolor="#000000"
     borderopacity="0.25"
     inkscape:showpageshadow="2"
     inkscape:pageopacity="0.0"
     inkscape:pagecheckerboard="0"
     inkscape:deskcolor="#d1d1d1"
     inkscape:zoom="7.375"
     inkscape:cx="16"
     inkscape:cy="16"
     inkscape:window-width="1312"
     inkscape:window-height="449"
     inkscape:window-x="290"
     inkscape:window-y="291"
     inkscape:window-maximized="0"
     inkscape:current-layer="svg2" />
  <path
     d="M 1,5 C 1,2.79086 2.79086,1 5,1 h 20 c 2.2091,0 4,1.79086 4,4 v 20 c 0,2.2091 -1.7909,4 -4,4 H 5 C 2.79086,29 1,27.2091 1,25 Z"
     fill="#00a6ed"
     id="path1" />
  <path
     d="m 17.9607,9.5944592 c 0.5052,-0.82393 0.2468,-1.90141 -0.5772,-2.40659 -0.824,-0.50517 -1.9014,-0.24675 -2.4066,0.57721 l -4.5313,7.3905798 c -0.076,0.1241 -0.1348,0.254 -0.1769,0.3867 -0.3324,0.6891 -0.5187,1.4618 -0.5187,2.2781 0,2.8994 2.3506,5.25 5.25,5.25 2.8995,0 5.25,-2.3506 5.25,-5.25 0,-2.5331 -1.7939,-4.6472 -4.1806,-5.1411 z M 13.25,17.820459 c 0,-0.9665 0.7836,-1.75 1.75,-1.75 0.9665,0 1.75,0.7835 1.75,1.75 0,0.9664 -0.7835,1.75 -1.75,1.75 -0.9664,0 -1.75,-0.7836 -1.75,-1.75 z"
     fill="#ffffff"
     id="path2" />
</svg>
