<?xml version="1.0" encoding="UTF-8" standalone="no"?>
<svg
   width="30"
   height="30"
   viewBox="0 0 30 30"
   fill="none"
   version="1.1"
   id="svg2"
   sodipodi:docname="keycap_5_flat.svg"
   inkscape:version="1.3.2 (091e20e, 2023-11-25)"
   inkscape:export-filename="keycap_5_flat.png"
   inkscape:export-xdpi="819.20001"
   inkscape:export-ydpi="819.20001"
   xmlns:inkscape="http://www.inkscape.org/namespaces/inkscape"
   xmlns:sodipodi="http://sodipodi.sourceforge.net/DTD/sodipodi-0.dtd"
   xmlns="http://www.w3.org/2000/svg"
   xmlns:svg="http://www.w3.org/2000/svg">
  <defs
     id="defs2" />
  <sodipodi:namedview
     id="namedview2"
     pagecolor="#ffffff"
     bordercolor="#000000"
     borderopacity="0.25"
     inkscape:showpageshadow="2"
     inkscape:pageopacity="0.0"
     inkscape:pagecheckerboard="0"
     inkscape:deskcolor="#d1d1d1"
     inkscape:zoom="7.1515152"
     inkscape:cx="15.940678"
     inkscape:cy="17.618644"
     inkscape:window-width="1312"
     inkscape:window-height="449"
     inkscape:window-x="300"
     inkscape:window-y="204"
     inkscape:window-maximized="0"
     inkscape:current-layer="svg2" />
  <path
     d="m 1,4.99999 c 0,-2.20914 1.79086,-4 4,-4 h 20 c 2.2091,0 4,1.79086 4,4 v 20.00002 c 0,2.2091 -1.7909,4 -4,4 H 5 c -2.20914,0 -4,-1.7909 -4,-4 z"
     fill="#00a6ed"
     id="path1" />
  <path
     d="m 10.048562,8.62829 c 0,-0.96649 0.7835,-1.75 1.75,-1.75 h 5.4374 c 0.9665,0 1.75,0.78351 1.75,1.75 0,0.96652 -0.7835,1.75002 -1.75,1.75002 h -3.6874 v 1.5246 h 0.9687 c 3.098,0 5.6094,2.5114 5.6094,5.6094 0,3.098 -2.5114,5.6094 -5.6094,5.6094 -1.6751,0 -3.1804,-0.7365 -4.2057,-1.8976 -0.6396999,-0.7245 -0.5709999,-1.8304 0.1534,-2.4701 0.7245,-0.6397 1.8304,-0.571 2.4702,0.1534 0.389,0.4407 0.9525,0.7143 1.5821,0.7143 1.165,0 2.1094,-0.9444 2.1094,-2.1094 0,-1.165 -0.9444,-2.1094 -2.1094,-2.1094 h -2.7187 c -0.9665,0 -1.75,-0.7835 -1.75,-1.75 z"
     fill="#ffffff"
     id="path2" />
</svg>
