<?xml version="1.0" encoding="UTF-8" standalone="no"?>
<svg
   width="30"
   height="30"
   viewBox="0 0 30 30"
   fill="none"
   version="1.1"
   id="svg2"
   sodipodi:docname="keycap_4_flat.svg"
   inkscape:version="1.3.2 (091e20e, 2023-11-25)"
   inkscape:export-filename="keycap_4_flat.png"
   inkscape:export-xdpi="819.20001"
   inkscape:export-ydpi="819.20001"
   xmlns:inkscape="http://www.inkscape.org/namespaces/inkscape"
   xmlns:sodipodi="http://sodipodi.sourceforge.net/DTD/sodipodi-0.dtd"
   xmlns="http://www.w3.org/2000/svg"
   xmlns:svg="http://www.w3.org/2000/svg">
  <defs
     id="defs2" />
  <sodipodi:namedview
     id="namedview2"
     pagecolor="#ffffff"
     bordercolor="#000000"
     borderopacity="0.25"
     inkscape:showpageshadow="2"
     inkscape:pageopacity="0.0"
     inkscape:pagecheckerboard="0"
     inkscape:deskcolor="#d1d1d1"
     inkscape:zoom="7.375"
     inkscape:cx="16"
     inkscape:cy="16"
     inkscape:window-width="1312"
     inkscape:window-height="781"
     inkscape:window-x="0"
     inkscape:window-y="25"
     inkscape:window-maximized="0"
     inkscape:current-layer="svg2" />
  <path
     d="M 1,5 C 1,2.79086 2.79086,1 5,1 h 20 c 2.2091,0 4,1.79086 4,4 v 20 c 0,2.2091 -1.7909,4 -4,4 H 5 C 2.79086,29 1,27.2091 1,25 Z"
     fill="#00a6ed"
     id="path1" />
  <path
     d="m 13.61317,6.8624612 c 0.9378,0.2338 1.5084,1.18357 1.2746,2.12136 l -1.2919,5.1817098 h 1.8993 v -1.1051 c 0,-0.9665 0.7835,-1.75 1.75,-1.75 0.9665,0 1.75,0.7835 1.75,1.75 v 1.1403 c 0.7982,0.1626 1.3988,0.8685 1.3988,1.7148 0,0.8462 -0.6006,1.5521 -1.3988,1.7147 v 3.8097 c 0,0.9665 -0.7835,1.75 -1.75,1.75 -0.9665,0 -1.75,-0.7835 -1.75,-1.75 v -3.7744 h -4.1391 c -0.5387,0 -1.0474,-0.2481 -1.3790003,-0.6726 -0.3317,-0.4245 -0.4494,-0.9781 -0.319,-1.5008 L 11.49177,8.1371312 c 0.2338,-0.93779 1.1836,-1.50848 2.1214,-1.27467 z"
     fill="#ffffff"
     id="path2" />
</svg>
