<?xml version="1.0" encoding="UTF-8" standalone="no"?>
<svg
   width="30"
   height="30"
   viewBox="0 0 30 30"
   fill="none"
   version="1.1"
   id="svg2"
   sodipodi:docname="keycap_7_flat.svg"
   inkscape:version="1.3.2 (091e20e, 2023-11-25)"
   inkscape:export-filename="keycap_7_flat.png"
   inkscape:export-xdpi="819.20001"
   inkscape:export-ydpi="819.20001"
   xmlns:inkscape="http://www.inkscape.org/namespaces/inkscape"
   xmlns:sodipodi="http://sodipodi.sourceforge.net/DTD/sodipodi-0.dtd"
   xmlns="http://www.w3.org/2000/svg"
   xmlns:svg="http://www.w3.org/2000/svg">
  <defs
     id="defs2" />
  <sodipodi:namedview
     id="namedview2"
     pagecolor="#ffffff"
     bordercolor="#000000"
     borderopacity="0.25"
     inkscape:showpageshadow="2"
     inkscape:pageopacity="0.0"
     inkscape:pagecheckerboard="0"
     inkscape:deskcolor="#d1d1d1"
     inkscape:zoom="7.375"
     inkscape:cx="16"
     inkscape:cy="16"
     inkscape:window-width="1312"
     inkscape:window-height="449"
     inkscape:window-x="0"
     inkscape:window-y="25"
     inkscape:window-maximized="0"
     inkscape:current-layer="svg2" />
  <path
     d="M 1,5 C 1,2.79086 2.79086,1 5,1 h 20 c 2.2091,0 4,1.79086 4,4 v 20 c 0,2.2091 -1.7909,4 -4,4 H 5 C 2.79086,29 1,27.2091 1,25 Z"
     fill="#00a6ed"
     id="path1" />
  <path
     d="m 9.5130074,8.652029 c 0,-0.9665 0.7834996,-1.75 1.7499996,-1.75 h 7.474 c 0.6238,0 1.2004,0.33204 1.5135,0.87154 0.3132,0.5395 0.3154,1.20485 0.006,1.74655 l -7.2526,12.6956 c -0.4795,0.8392 -1.5484,1.1309 -2.3876,0.6515 -0.8391996,-0.4795 -1.1308996,-1.5484 -0.6514996,-2.3876 l 5.7569996,-10.0776 h -4.4588 c -0.9665,0 -1.7499996,-0.7835 -1.7499996,-1.74999 z"
     fill="#ffffff"
     id="path2" />
</svg>
