<svg width="30" height="30" fill="none" xmlns="http://www.w3.org/2000/svg"><path d="M1 5a4 4 0 0 1 4-4h20a4 4 0 0 1 4 4v20a4 4 0 0 1-4 4H5a4 4 0 0 1-4-4Z" fill="#00a6ed"/><path d="M15.18 10.252c-.31.015-.799.168-1.35.823a1.75 1.75 0 0 1-2.678-2.252c1.077-1.282 2.43-1.996 3.853-2.067 1.4-.07 2.68.493 3.593 1.404 1.905 1.9 2.141 5.144-.301 7.768-.711.763-1.575 1.665-2.446 2.576-.4.418-.801.837-1.19 1.246h4.099a1.75 1.75 0 1 1 0 3.5h-7.02c-1.88 0-3.005-2.244-1.659-3.728.852-.939 2.116-2.261 3.321-3.522.866-.906 1.702-1.78 2.333-2.457.666-.716.841-1.343.843-1.784.002-.457-.18-.85-.452-1.121a1.253 1.253 0 0 0-.946-.386z" fill="#fff"/></svg>