<?xml version="1.0" encoding="UTF-8" standalone="no"?>
<svg
   width="30"
   height="30"
   viewBox="0 0 30 30"
   fill="none"
   version="1.1"
   id="svg2"
   sodipodi:docname="keycap_3_flat.svg"
   inkscape:version="1.3.2 (091e20e, 2023-11-25)"
   inkscape:export-filename="keycap_3_flat.png"
   inkscape:export-xdpi="819.20001"
   inkscape:export-ydpi="819.20001"
   xmlns:inkscape="http://www.inkscape.org/namespaces/inkscape"
   xmlns:sodipodi="http://sodipodi.sourceforge.net/DTD/sodipodi-0.dtd"
   xmlns="http://www.w3.org/2000/svg"
   xmlns:svg="http://www.w3.org/2000/svg">
  <defs
     id="defs2" />
  <sodipodi:namedview
     id="namedview2"
     pagecolor="#ffffff"
     bordercolor="#000000"
     borderopacity="0.25"
     inkscape:showpageshadow="2"
     inkscape:pageopacity="0.0"
     inkscape:pagecheckerboard="0"
     inkscape:deskcolor="#d1d1d1"
     inkscape:zoom="7.375"
     inkscape:cx="16"
     inkscape:cy="15.932203"
     inkscape:window-width="1312"
     inkscape:window-height="786"
     inkscape:window-x="36"
     inkscape:window-y="32"
     inkscape:window-maximized="0"
     inkscape:current-layer="svg2" />
  <path
     d="M 1,5 C 1,2.79086 2.79086,1 5,1 h 20 c 2.2091,0 4,1.79086 4,4 v 20 c 0,2.2091 -1.7909,4 -4,4 H 5 C 2.79086,29 1,27.2091 1,25 Z"
     fill="#00a6ed"
     id="path1" />
  <path
     d="m 13.519667,11.132015 c 0.2533,-0.5255 0.7882,-0.882 1.4031,-0.882 0.8592,0 1.5557,0.6965 1.5557,1.5557 0,0.6402 -0.388,1.1934 -0.9437,1.4313 -0.7249,0.0676 -1.3593,0.5867 -1.5388,1.3342 -0.2252,0.9376 0.3506,1.8803 1.2866,2.1088 0.0285,0.0083 0.0572,0.016 0.0861,0.0229 0.6425,0.1914 1.1098,0.7888 1.1098,1.4914 0,0.8592 -0.6965,1.5557 -1.5557,1.5557 -0.692,0 -1.2827,-0.4529 -1.4831,-1.0829 -0.2931,-0.921 -1.2773,-1.4301 -2.1983,-1.137 -0.921,0.293 -1.43,1.2772 -1.137,2.1982 0.6492,2.0403 2.5585,3.5217 4.8184,3.5217 2.7922,0 5.0557,-2.2635 5.0557,-5.0557 0,-1.2123 -0.4263,-2.324 -1.1369,-3.1943 0.7106,-0.8703 1.1369,-1.9819 1.1369,-3.1943 0,-2.7922 -2.2635,-5.05573 -5.0557,-5.05573 -2.0093,0 -3.7413,1.17222 -4.556,2.86223 -0.4196,0.8707 -0.054,1.9167 0.8166,2.3363 0.8706,0.4197 1.9166,0.0541 2.3363,-0.8165 z"
     fill="#ffffff"
     id="path2" />
</svg>
