<?xml version="1.0" encoding="UTF-8" standalone="no"?>
<svg
   width="30"
   height="30"
   viewBox="0 0 30 30"
   fill="none"
   version="1.1"
   id="svg2"
   sodipodi:docname="keycap_8_flat.svg"
   inkscape:version="1.3.2 (091e20e, 2023-11-25)"
   inkscape:export-filename="keycap_8_flat.png"
   inkscape:export-xdpi="819.20001"
   inkscape:export-ydpi="819.20001"
   xmlns:inkscape="http://www.inkscape.org/namespaces/inkscape"
   xmlns:sodipodi="http://sodipodi.sourceforge.net/DTD/sodipodi-0.dtd"
   xmlns="http://www.w3.org/2000/svg"
   xmlns:svg="http://www.w3.org/2000/svg">
  <defs
     id="defs2" />
  <sodipodi:namedview
     id="namedview2"
     pagecolor="#ffffff"
     bordercolor="#000000"
     borderopacity="0.25"
     inkscape:showpageshadow="2"
     inkscape:pageopacity="0.0"
     inkscape:pagecheckerboard="0"
     inkscape:deskcolor="#d1d1d1"
     inkscape:zoom="7.375"
     inkscape:cx="15.864407"
     inkscape:cy="18.847458"
     inkscape:window-width="1312"
     inkscape:window-height="699"
     inkscape:window-x="425"
     inkscape:window-y="368"
     inkscape:window-maximized="0"
     inkscape:current-layer="svg2" />
  <path
     d="M 1,5 C 1,2.79086 2.79086,1 5,1 h 20 c 2.2091,0 4,1.79086 4,4 v 20 c 0,2.2091 -1.7909,4 -4,4 H 5 C 2.79086,29 1,27.2091 1,25 Z"
     fill="#00a6ed"
     id="path1" />
  <path
     d="m 14.972,6.797435 c -2.4944,0 -4.5164,2.02206 -4.5164,4.51643 0,1.0634 0.3675,2.041 0.9825,2.8127 -1.0303,0.9563 -1.675,2.3224 -1.675,3.8391 0,2.8923 2.3446,5.2369 5.2369,5.2369 2.8923,0 5.2369,-2.3446 5.2369,-5.2369 0,-1.5325 -0.6583,-2.9113 -1.7075,-3.869 0.6008,-0.7669 0.959,-1.7331 0.959,-2.7828 0,-2.49437 -2.0221,-4.51643 -4.5164,-4.51643 z m -1.2664,4.51643 c 0,-0.6994 0.567,-1.2664 1.2664,-1.2664 0.6994,0 1.2664,0.567 1.2664,1.2664 0,0.6994 -0.567,1.2664 -1.2664,1.2664 -0.6994,0 -1.2664,-0.567 -1.2664,-1.2664 z m -0.4425,6.6518 c 0,-0.9593 0.7776,-1.737 1.7369,-1.737 0.9593,0 1.7369,0.7777 1.7369,1.737 0,0.9593 -0.7776,1.7369 -1.7369,1.7369 -0.9593,0 -1.7369,-0.7776 -1.7369,-1.7369 z"
     fill="#ffffff"
     id="path2" />
</svg>
