<svg width="30" height="30" fill="none" xmlns="http://www.w3.org/2000/svg"><path d="M15 28.999c9.334 0 13.999-6.268 13.999-13.999 0-7.731-4.665-13.999-13.999-13.999S1.001 7.27 1.001 15c0 7.731 4.665 13.999 13.999 13.999Z" fill="#ffb02e"/><path d="M6.294 8.294a1 1 0 0 1 1.414 0l1.793 1.793 1.793-1.793a1 1 0 1 1 1.414 1.414l-1.793 1.793 1.793 1.793a1 1 0 0 1-1.414 1.414l-1.793-1.793-1.793 1.793a1 1 0 0 1-1.414-1.414l1.793-1.793-1.793-1.793a1 1 0 0 1 0-1.414zM22.294 8.294a1 1 0 1 1 1.414 1.414l-1.793 1.793 1.793 1.793a1 1 0 0 1-1.414 1.414l-1.793-1.793-1.793 1.793a1 1 0 0 1-1.414-1.414l1.793-1.793-1.793-1.793a1 1 0 0 1 1.414-1.414l1.793 1.793Z" fill="#402a32"/><path d="M11.001 22.001a4 4 0 1 1 8 0 4 4 0 0 1-8 0z" fill="#bb1d80"/></svg>