<?xml version="1.0" encoding="UTF-8" standalone="no"?>
<svg
   width="28"
   height="28"
   viewBox="0 0 28 28"
   fill="none"
   version="1.1"
   id="svg5"
   sodipodi:docname="mushroom_flat.svg"
   inkscape:export-filename="mushroom_flat.png"
   inkscape:export-xdpi="877.71429"
   inkscape:export-ydpi="877.71429"
   inkscape:version="1.3.2 (091e20e, 2023-11-25)"
   xmlns:inkscape="http://www.inkscape.org/namespaces/inkscape"
   xmlns:sodipodi="http://sodipodi.sourceforge.net/DTD/sodipodi-0.dtd"
   xmlns="http://www.w3.org/2000/svg"
   xmlns:svg="http://www.w3.org/2000/svg">
  <defs
     id="defs5" />
  <sodipodi:namedview
     id="namedview5"
     pagecolor="#ffffff"
     bordercolor="#000000"
     borderopacity="0.25"
     inkscape:showpageshadow="2"
     inkscape:pageopacity="0.0"
     inkscape:pagecheckerboard="0"
     inkscape:deskcolor="#d1d1d1"
     inkscape:zoom="7.375"
     inkscape:cx="16"
     inkscape:cy="15.932203"
     inkscape:window-width="1312"
     inkscape:window-height="686"
     inkscape:window-x="0"
     inkscape:window-y="25"
     inkscape:window-maximized="0"
     inkscape:current-layer="svg5" />
  <g
     id="g5"
     transform="translate(-2,-2)">
    <path
       d="M 10.9915,25.3086 13.5,18.5 H 18 l 2.8311,6.7239 C 21.3861,26.5422 20.4182,28 18.9878,28 h -6.1196 c -1.3915,0 -2.3577,-1.3857 -1.8767,-2.6914 z"
       fill="#ffce7c"
       id="path1" />
    <path
       d="M 4,16 C 4,13.7292 4.63072,11.6058 5.72653,9.79528 L 9.5,8 12.7584,4.44294 C 13.7896,4.15433 14.8768,4 16,4 c 1.626,0 3.1764,0.32338 4.5905,0.90934 L 23.5,10.5 27.9552,14.9562 C 27.9849,15.3002 28,15.6483 28,16 v 2 c 0,1.1046 -0.8954,2 -2,2 H 6 C 4.89543,20 4,19.1046 4,18 Z"
       fill="#f8312f"
       id="path2" />
    <path
       d="M 12.7893,4.43433 C 12.8422,4.7246 12.87,5.02385 12.87,5.33003 12.87,8.07003 10.64,10.29 7.89996,10.3 7.12279,10.3 6.3848,10.1172 5.72705,9.79433 7.29287,7.20782 9.80796,5.26015 12.7893,4.43433 Z"
       fill="#fbb8ab"
       id="path3" />
    <path
       d="M 20.5726,4.90195 C 19.8506,5.96326 19.43,7.24496 19.43,8.63003 19.43,12.29 22.4,15.26 26.06,15.26 c 0.659,0 1.2965,-0.0969 1.8975,-0.2768 C 27.5743,10.4164 24.6337,6.57706 20.5726,4.90195 Z"
       fill="#fbb8ab"
       id="path4" />
    <path
       d="m 14.94,17.04 c 1.5132,0 2.74,-1.2267 2.74,-2.74 0,-1.5132 -1.2268,-2.74 -2.74,-2.74 -1.5133,0 -2.74,1.2268 -2.74,2.74 0,1.5133 1.2267,2.74 2.74,2.74 z"
       fill="#fbb8ab"
       id="path5" />
  </g>
</svg>
