<svg xmlns="http://www.w3.org/2000/svg" width="28" height="28" fill="none"><path fill="#ffce7c" d="M8.992 23.309 11.5 16.5H16l2.831 6.724A2 2 0 0 1 16.988 26h-6.12a2 2 0 0 1-1.877-2.691z"/><path fill="#f8312f" d="M2 14c0-2.27.63-4.394 1.727-6.205L7.5 6l3.258-3.557A12.011 12.011 0 0 1 14 2c1.626 0 3.176.323 4.59.91L21.5 8.5l4.455 4.456c.03.344.045.692.045 1.044v2a2 2 0 0 1-2 2H4a2 2 0 0 1-2-2Z"/><path fill="#fbb8ab" d="M10.79 2.434c.052.29.08.59.08.896 0 2.74-2.23 4.96-4.97 4.97a4.92 4.92 0 0 1-2.173-.506 12.026 12.026 0 0 1 7.062-5.36ZM18.573 2.902A6.6 6.6 0 0 0 17.43 6.63a6.632 6.632 0 0 0 8.527 6.353c-.383-4.567-3.323-8.406-7.384-10.081ZM12.94 15.04a2.74 2.74 0 1 0 0-5.48 2.74 2.74 0 0 0 0 5.48z"/></svg>