<svg xmlns="http://www.w3.org/2000/svg" width="30" height="30" fill="none"><path fill="#00a6ed" d="M1 5a4 4 0 0 1 4-4h20a4 4 0 0 1 4 4v20a4 4 0 0 1-4 4H5a4 4 0 0 1-4-4Z"/><g fill="#fff"><path d="M5.489 11.378a.75.75 0 0 0-1.387.395v6.454a.75.75 0 0 0 1.5 0v-3.381c0-.126.164-.173.23-.066l2.382 3.842a.75.75 0 0 0 1.388-.395v-6.454a.75.75 0 0 0-1.5 0v3.381c0 .126-.165.173-.232.066zM11.825 11.063a.75.75 0 0 0-.75.75v6.408c0 .414.336.75.75.75h3.633a.75.75 0 0 0 0-1.5H12.7a.125.125 0 0 1-.125-.125v-1.33c0-.069.056-.125.125-.125h2.71a.75.75 0 0 0 0-1.5H12.7a.125.125 0 0 1-.125-.125v-1.578c0-.069.056-.125.125-.125h2.758a.75.75 0 0 0 0-1.5zM17.806 11.113a.75.75 0 0 1 .924.522l.926 3.321c.033.122.205.123.24.002l.97-3.332a.75.75 0 0 1 1.438-.008l1.01 3.328c.036.12.208.117.24-.005l.87-3.296a.75.75 0 1 1 1.45.382l-1.657 6.281a.75.75 0 0 1-1.443.027l-1.051-3.465c-.036-.118-.205-.118-.24.002l-1.005 3.455a.75.75 0 0 1-1.443-.009l-1.75-6.28a.75.75 0 0 1 .521-.925z"/></g></svg>