<?xml version="1.0" encoding="UTF-8" standalone="no"?>
<svg
   width="30"
   height="30"
   viewBox="0 0 30 30"
   fill="none"
   version="1.1"
   id="svg13"
   sodipodi:docname="partying_face_flat.svg"
   inkscape:export-filename="partying_face_flat.png"
   inkscape:export-xdpi="819.20001"
   inkscape:export-ydpi="819.20001"
   inkscape:version="1.3.2 (091e20e, 2023-11-25)"
   xmlns:inkscape="http://www.inkscape.org/namespaces/inkscape"
   xmlns:sodipodi="http://sodipodi.sourceforge.net/DTD/sodipodi-0.dtd"
   xmlns="http://www.w3.org/2000/svg"
   xmlns:svg="http://www.w3.org/2000/svg">
  <defs
     id="defs13" />
  <sodipodi:namedview
     id="namedview13"
     pagecolor="#ffffff"
     bordercolor="#000000"
     borderopacity="0.25"
     inkscape:showpageshadow="2"
     inkscape:pageopacity="0.0"
     inkscape:pagecheckerboard="0"
     inkscape:deskcolor="#d1d1d1"
     inkscape:zoom="7.375"
     inkscape:cx="16"
     inkscape:cy="16"
     inkscape:window-width="1312"
     inkscape:window-height="711"
     inkscape:window-x="0"
     inkscape:window-y="25"
     inkscape:window-maximized="0"
     inkscape:current-layer="svg13" />
  <g
     id="g13"
     transform="translate(-1.5,-0.5)">
    <path
       d="M 16,29 C 24.6684,29 29,23.1797 29,16 29,8.8203 24.6684,3 16,3 7.33161,3 3,8.8203 3,16 3,23.1797 7.33161,29 16,29 Z"
       fill="#ffb02e"
       id="path1" />
    <path
       d="M 5,3 H 17 L 3,16 V 5 C 3,3.89543 3.89543,3 5,3 Z"
       fill="#bb1d80"
       id="path2" />
    <path
       d="M 3,8.41421 8.41421,3 H 5.58579 L 3,5.58579 Z"
       fill="#5092ff"
       id="path3" />
    <path
       d="M 3,13.4142 13.4142,3 H 10.5858 L 3,10.5858 Z"
       fill="#5092ff"
       id="path4" />
    <path
       d="M 28.5,5.75 C 28.5,5.33579 28.1642,5 27.75,5 27.3358,5 27,5.33579 27,5.75 27,7.05188 25.909,8 24.75,8 24.3358,8 24,8.33579 24,8.75 c 0,0.41421 0.3358,0.75 0.75,0.75 1.918,0 3.75,-1.55188 3.75,-3.75 z"
       fill="#f70a8d"
       id="path5" />
    <path
       d="M 10.5,24.75 C 10.5,24.3358 10.1642,24 9.75,24 9.33579,24 9,24.3358 9,24.75 9,26.0519 7.90902,27 6.75,27 6.33579,27 6,27.3358 6,27.75 c 0,0.4142 0.33579,0.75 0.75,0.75 1.91796,0 3.75,-1.5519 3.75,-3.75 z"
       fill="#f70a8d"
       id="path6" />
    <path
       d="M 9.98156,14.1909 C 10.0296,13.9436 10.1397,13.6405 10.349,13.4125 10.5283,13.2171 10.847,13 11.4999,13 c 0.6418,0 0.9686,0.2216 1.1573,0.4288 0.2181,0.2395 0.3232,0.5449 0.3575,0.7423 0.0945,0.5441 0.6122,0.9086 1.1563,0.8142 0.5442,-0.0945 0.9087,-0.6123 0.8142,-1.1564 C 14.9062,13.374 14.6799,12.6794 14.1357,12.082 13.562,11.4522 12.6955,11 11.4999,11 c -1.1843,0 -2.04721,0.4313 -2.62439,1.0601 -0.54725,0.5963 -0.76855,1.2932 -0.85718,1.749 -0.10542,0.5422 0.24861,1.0671 0.79074,1.1725 0.54213,0.1054 1.06707,-0.2486 1.17249,-0.7907 z"
       fill="#402a32"
       id="path7" />
    <path
       d="M 19.9818,14.1909 C 20.0299,13.9436 20.14,13.6405 20.3492,13.4125 20.5285,13.2171 20.8472,13 21.5002,13 c 0.6417,0 0.9685,0.2216 1.1572,0.4288 0.2182,0.2395 0.3233,0.5449 0.3575,0.7423 0.0945,0.5441 0.6122,0.9086 1.1564,0.8142 0.5441,-0.0945 0.9086,-0.6123 0.8141,-1.1564 C 24.9064,13.374 24.6802,12.6794 24.1359,12.082 23.5623,11.4522 22.6957,11 21.5002,11 c -1.1843,0 -2.0473,0.4313 -2.6244,1.0601 -0.5473,0.5963 -0.7686,1.2932 -0.8572,1.749 -0.1054,0.5422 0.2486,1.0671 0.7907,1.1725 0.5421,0.1054 1.0671,-0.2486 1.1725,-0.7907 z"
       fill="#402a32"
       id="path8" />
    <path
       d="m 25,3 c 0,0.55228 -0.4477,1 -1,1 -0.5523,0 -1,-0.44772 -1,-1 0,-0.55228 0.4477,-1 1,-1 0.5523,0 1,0.44772 1,1 z"
       fill="#00a6ed"
       id="path9" />
    <path
       d="m 9,21 c 0.55228,0 1,-0.4477 1,-1 0,-0.5523 -0.44772,-1 -1,-1 -0.55228,0 -1,0.4477 -1,1 0,0.5523 0.44772,1 1,1 z"
       fill="#00a6ed"
       id="path10" />
    <path
       d="m 26,29 c 0.5523,0 1,-0.4477 1,-1 0,-0.5523 -0.4477,-1 -1,-1 -0.5523,0 -1,0.4477 -1,1 0,0.5523 0.4477,1 1,1 z"
       fill="#00a6ed"
       id="path11" />
    <path
       d="M 26.3214,13 C 24.4871,13 23,14.4871 23,16.3214 V 16.45 c 0,1.4083 1.1417,2.55 2.55,2.55 1.077,0 1.95,-0.873 1.95,-1.95 v -0.3 C 27.5,16.3358 27.1642,16 26.75,16 26.3358,16 26,16.3358 26,16.75 v 0.3 c 0,0.2485 -0.2015,0.45 -0.45,0.45 -0.5799,0 -1.05,-0.4701 -1.05,-1.05 V 16.3214 C 24.5,15.3155 25.3155,14.5 26.3214,14.5 H 26.5 c 1.1046,0 2,0.8954 2,2 v 0.3611 C 28.5,18.5947 27.0947,20 25.3611,20 H 19 c -0.4142,0 -0.75,0.3358 -0.75,0.75 0,0.4142 0.3358,0.75 0.75,0.75 h 6.3611 C 27.9231,21.5 30,19.4231 30,16.8611 V 16.5 C 30,14.567 28.433,13 26.5,13 Z"
       fill="#00a6ed"
       id="path12" />
    <path
       d="m 17.6699,16.92 c -0.5523,0 -1,0.4477 -1,1 0,0.5523 0.4477,1 1,1 0.2877,0 0.52,0.2323 0.52,0.52 0,0.2877 -0.2323,0.52 -0.52,0.52 -0.5523,0 -1,0.4477 -1,1 0,0 0,0 0,0 0,0.5523 0.4477,1 1,1 0.2877,0 0.52,0.2323 0.52,0.52 0,0.2877 -0.2323,0.52 -0.52,0.52 -0.5523,0 -1,0.4477 -1,1 0,0.5523 0.4477,1 1,1 1.3923,0 2.52,-1.1277 2.52,-2.52 0,-0.571 -0.1897,-1.0975 -0.5095,-1.52 0.3198,-0.4225 0.5095,-0.949 0.5095,-1.52 0,-1.3923 -1.1277,-2.52 -2.52,-2.52 z"
       fill="#402a32"
       id="path13" />
  </g>
</svg>
