<svg xmlns="http://www.w3.org/2000/svg" width="30" height="30" fill="none"><path fill="#ffb02e" d="M14.5 28.5c8.668 0 13-5.82 13-13s-4.332-13-13-13-13 5.82-13 13 4.332 13 13 13Z"/><path fill="#bb1d80" d="M3.5 2.5h12l-14 13v-11a2 2 0 0 1 2-2Z"/><path fill="#5092ff" d="M1.5 7.914 6.914 2.5H4.086L1.5 5.086ZM1.5 12.914 11.914 2.5H9.086L1.5 10.086Z"/><path fill="#f70a8d" d="M27 5.25a.75.75 0 0 0-1.5 0c0 1.302-1.091 2.25-2.25 2.25a.75.75 0 0 0 0 1.5C25.168 9 27 7.448 27 5.25zM9 24.25a.75.75 0 0 0-1.5 0c0 1.302-1.091 2.25-2.25 2.25a.75.75 0 0 0 0 1.5C7.168 28 9 26.448 9 24.25z"/><path fill="#402a32" d="M8.482 13.69c.048-.246.158-.55.367-.777.18-.196.498-.413 1.15-.413.643 0 .97.222 1.158.429.218.24.323.545.358.742a1 1 0 0 0 1.97-.342 3.544 3.544 0 0 0-.85-1.747c-.573-.63-1.44-1.082-2.635-1.082-1.184 0-2.047.431-2.624 1.06-.548.596-.769 1.293-.858 1.75a1 1 0 1 0 1.964.38zM18.482 13.69c.048-.246.158-.55.367-.777.18-.196.498-.413 1.151-.413.642 0 .969.222 1.157.429.219.24.324.545.358.742a1 1 0 0 0 1.97-.342 3.543 3.543 0 0 0-.85-1.747c-.573-.63-1.44-1.082-2.635-1.082-1.184 0-2.047.431-2.624 1.06-.548.596-.769 1.293-.857 1.75a1 1 0 1 0 1.963.38z"/><path fill="#00a6ed" d="M23.5 2.5a1 1 0 1 1-2 0 1 1 0 0 1 2 0zM7.5 20.5a1 1 0 1 0 0-2 1 1 0 0 0 0 2zM24.5 28.5a1 1 0 1 0 0-2 1 1 0 0 0 0 2zM24.821 12.5a3.321 3.321 0 0 0-3.321 3.321v.129a2.55 2.55 0 0 0 2.55 2.55A1.95 1.95 0 0 0 26 16.55v-.3a.75.75 0 0 0-1.5 0v.3a.45.45 0 0 1-.45.45c-.58 0-1.05-.47-1.05-1.05v-.129c0-1.005.816-1.821 1.821-1.821H25a2 2 0 0 1 2 2v.361a3.139 3.139 0 0 1-3.139 3.139H17.5a.75.75 0 0 0 0 1.5h6.361a4.639 4.639 0 0 0 4.639-4.639V16a3.5 3.5 0 0 0-3.5-3.5Z"/><path fill="#402a32" d="M16.17 16.42a1 1 0 1 0 0 2 .52.52 0 1 1 0 1.04 1 1 0 1 0 0 2 .52.52 0 1 1 0 1.04 1 1 0 1 0 0 2 2.52 2.52 0 0 0 2.01-4.04 2.52 2.52 0 0 0-2.01-4.04z"/></svg>