<?xml version="1.0" encoding="UTF-8" standalone="no"?>
<svg
   width="30"
   height="30"
   viewBox="0 0 30 30"
   fill="none"
   version="1.1"
   id="svg10"
   sodipodi:docname="paw_prints_flat.svg"
   inkscape:export-filename="paw_prints_flat.png"
   inkscape:export-xdpi="819.20001"
   inkscape:export-ydpi="819.20001"
   inkscape:version="1.3.2 (091e20e, 2023-11-25)"
   xmlns:inkscape="http://www.inkscape.org/namespaces/inkscape"
   xmlns:sodipodi="http://sodipodi.sourceforge.net/DTD/sodipodi-0.dtd"
   xmlns="http://www.w3.org/2000/svg"
   xmlns:svg="http://www.w3.org/2000/svg">
  <defs
     id="defs10" />
  <sodipodi:namedview
     id="namedview10"
     pagecolor="#ffffff"
     bordercolor="#000000"
     borderopacity="0.25"
     inkscape:showpageshadow="2"
     inkscape:pageopacity="0.0"
     inkscape:pagecheckerboard="0"
     inkscape:deskcolor="#d1d1d1"
     inkscape:zoom="7.375"
     inkscape:cx="16"
     inkscape:cy="16"
     inkscape:window-width="1312"
     inkscape:window-height="449"
     inkscape:window-x="0"
     inkscape:window-y="25"
     inkscape:window-maximized="0"
     inkscape:current-layer="svg10" />
  <g
     id="g10"
     transform="translate(-1.00001,-2.73047)">
    <path
       d="M 7.78125,5.46094 C 8.44141,5.4608 9.625,5.66396 9.625,7.28896 c 0,1.625 -1.17188,2.25 -1.84375,2.25 -0.67187,0 -1.70313,-0.6375 -1.70313,-2.25 0,-1.6125 1.13282,-1.82798 1.70313,-1.82802 z"
       fill="#321b41"
       id="path1" />
    <path
       d="M 4.15625,7.5 C 4.81641,7.49986 6,7.70302 6,9.32802 6,10.953 4.82812,11.578 4.15625,11.578 3.48438,11.578 2.45312,10.9405 2.45312,9.32802 2.45312,7.71552 3.58594,7.50005 4.15625,7.5 Z"
       fill="#321b41"
       id="path2" />
    <path
       d="m 14,7.28896 c 0,-1.625 -1.1836,-1.82816 -1.8438,-1.82802 -0.5703,4e-5 -1.7031,0.21552 -1.7031,1.82802 0,1.6125 1.0313,2.25 1.7031,2.25 0.6719,0 1.8438,-0.625 1.8438,-2.25 z"
       fill="#321b41"
       id="path3" />
    <path
       d="m 15.7031,7.5 c 0.6602,-1.4e-4 1.8438,0.20302 1.8438,1.82802 0,1.62498 -1.1719,2.24998 -1.8438,2.24998 C 15.0312,11.578 14,10.9405 14,9.32802 14,7.71552 15.1328,7.50005 15.7031,7.5 Z"
       fill="#321b41"
       id="path4" />
    <path
       d="m 14.9844,15.4688 c 0,-2.9219 -1.8906,-5.4532 -4.9844,-5.4532 -3.09375,0 -4.95312,2.4688 -4.95312,5.4532 0,2.4843 2.96131,2.4843 4.94566,2.4843 H 10 c 2.2031,0 4.9844,-0.0781 4.9844,-2.4843 z"
       fill="#321b41"
       id="path5" />
    <path
       d="m 16.1562,19.5469 c 0.6602,-2e-4 1.8438,0.203 1.8438,1.828 0,1.625 -1.1719,2.25 -1.8438,2.25 -0.6718,0 -1.7031,-0.6375 -1.7031,-2.25 0,-1.6125 1.1328,-1.828 1.7031,-1.828 z"
       fill="#321b41"
       id="path6" />
    <path
       d="m 21.625,19.3358 c 0,-1.625 -1.1836,-1.8281 -1.8438,-1.828 -0.5703,10e-5 -1.7031,0.2155 -1.7031,1.828 0,1.6125 1.0313,2.25 1.7031,2.25 0.6719,0 1.8438,-0.625 1.8438,-2.25 z"
       fill="#321b41"
       id="path7" />
    <path
       d="m 24.1562,17.5078 c 0.6602,-10e-5 1.8438,0.203 1.8438,1.828 0,1.625 -1.1719,2.25 -1.8438,2.25 -0.6718,0 -1.7031,-0.6375 -1.7031,-2.25 0,-1.6125 1.1328,-1.8279 1.7031,-1.828 z"
       fill="#321b41"
       id="path8" />
    <path
       d="m 29.5469,21.3749 c 0,-1.625 -1.1836,-1.8282 -1.8438,-1.828 -0.5703,0 -1.7031,0.2155 -1.7031,1.828 0,1.6125 1.0312,2.25 1.7031,2.25 0.6719,0 1.8438,-0.625 1.8438,-2.25 z"
       fill="#321b41"
       id="path9" />
    <path
       d="m 22,22.0625 c 3.0938,0 4.9844,2.5313 4.9844,5.4531 C 26.9844,29.9219 24.2031,30 22,30 h -0.0075 c -1.9843,0 -4.9456,0 -4.9456,-2.4844 0,-2.9844 1.8593,-5.4531 4.9531,-5.4531 z"
       fill="#321b41"
       id="path10" />
  </g>
</svg>
