<?xml version="1.0" encoding="UTF-8" standalone="no"?>
<svg
   width="30"
   height="30"
   viewBox="0 0 30 30"
   fill="none"
   version="1.1"
   id="svg6"
   sodipodi:docname="pensive_face_flat.svg"
   inkscape:version="1.3.2 (091e20e, 2023-11-25)"
   inkscape:export-filename="pensive_face_flat.png"
   inkscape:export-xdpi="819.20001"
   inkscape:export-ydpi="819.20001"
   xmlns:inkscape="http://www.inkscape.org/namespaces/inkscape"
   xmlns:sodipodi="http://sodipodi.sourceforge.net/DTD/sodipodi-0.dtd"
   xmlns="http://www.w3.org/2000/svg"
   xmlns:svg="http://www.w3.org/2000/svg">
  <defs
     id="defs6" />
  <sodipodi:namedview
     id="namedview6"
     pagecolor="#ffffff"
     bordercolor="#000000"
     borderopacity="0.25"
     inkscape:showpageshadow="2"
     inkscape:pageopacity="0.0"
     inkscape:pagecheckerboard="0"
     inkscape:deskcolor="#d1d1d1"
     inkscape:zoom="7.375"
     inkscape:cx="13.016949"
     inkscape:cy="16"
     inkscape:window-width="1312"
     inkscape:window-height="449"
     inkscape:window-x="0"
     inkscape:window-y="25"
     inkscape:window-maximized="0"
     inkscape:current-layer="svg6" />
  <g
     id="g6"
     transform="translate(-0.9989,-0.9989)">
    <path
       d="m 15.9989,29.9978 c 9.3344,0 13.9989,-6.2675 13.9989,-13.9989 C 29.9978,8.26751 25.3333,2 15.9989,2 6.66443,2 2,8.26751 2,15.9989 2,23.7303 6.66443,29.9978 15.9989,29.9978 Z"
       fill="#ffb02e"
       id="path1" />
    <path
       d="M 10.9851,8.62126 C 11.052,8.35337 10.8892,8.0819 10.6213,8.01492 10.3534,7.94795 10.0819,8.11083 10.0149,8.37873 9.78985,9.27905 9.34982,9.92279 8.76841,10.3456 8.18326,10.7712 7.41733,11 6.5,11 6.22386,11 6,11.2239 6,11.5 6,11.7761 6.22386,12 6.5,12 7.58267,12 8.56674,11.7288 9.35659,11.1544 10.1502,10.5772 10.7102,9.72094 10.9851,8.62126 Z"
       fill="#402a32"
       id="path2" />
    <path
       d="m 6.29289,16.2929 c 0.39053,-0.3905 1.02369,-0.3905 1.41422,0 C 7.8491,16.4349 8.65979,17 10,17 c 1.3402,0 2.1509,-0.5651 2.2929,-0.7071 0.3905,-0.3905 1.0237,-0.3905 1.4142,0 0.3905,0.3905 0.3905,1.0237 0,1.4142 C 13.1824,18.2318 11.8598,19 10,19 8.14021,19 6.81756,18.2318 6.29289,17.7071 c -0.39052,-0.3905 -0.39052,-1.0237 0,-1.4142 z"
       fill="#402a32"
       id="path3" />
    <path
       d="m 18.2929,16.2929 c 0.3905,-0.3905 1.0237,-0.3905 1.4142,0 C 19.8491,16.4349 20.6598,17 22,17 c 1.3402,0 2.1509,-0.5651 2.2929,-0.7071 0.3905,-0.3905 1.0237,-0.3905 1.4142,0 0.3905,0.3905 0.3905,1.0237 0,1.4142 C 25.1824,18.2318 23.8598,19 22,19 c -1.8598,0 -3.1824,-0.7682 -3.7071,-1.2929 -0.3905,-0.3905 -0.3905,-1.0237 0,-1.4142 z"
       fill="#402a32"
       id="path4" />
    <path
       d="M 21.3789,8.01492 C 21.111,8.0819 20.9481,8.35337 21.015,8.62126 21.29,9.72094 21.8499,10.5772 22.6435,11.1544 23.4334,11.7288 24.4174,12 25.5001,12 c 0.2762,0 0.5,-0.2239 0.5,-0.5 0,-0.2761 -0.2238,-0.5 -0.5,-0.5 -0.9173,0 -1.6832,-0.2288 -2.2684,-0.6544 C 22.6503,9.92279 22.2103,9.27905 21.9852,8.37873 21.9182,8.11083 21.6467,7.94795 21.3789,8.01492 Z"
       fill="#402a32"
       id="path5" />
    <path
       d="m 13,24 c -0.5523,0 -1,0.4477 -1,1 0,0.5523 0.4477,1 1,1 h 6 c 0.5523,0 1,-0.4477 1,-1 0,-0.5523 -0.4477,-1 -1,-1 z"
       fill="#402a32"
       id="path6" />
  </g>
</svg>
