<?xml version="1.0" encoding="UTF-8" standalone="no"?>
<svg
   width="30"
   height="30"
   viewBox="0 0 30 30"
   fill="none"
   version="1.1"
   id="svg29"
   sodipodi:docname="person_surfing_flat_default.svg"
   inkscape:export-filename="person_surfing_flat_default.png"
   inkscape:export-xdpi="819.20001"
   inkscape:export-ydpi="819.20001"
   inkscape:version="1.3.2 (091e20e, 2023-11-25)"
   xmlns:inkscape="http://www.inkscape.org/namespaces/inkscape"
   xmlns:sodipodi="http://sodipodi.sourceforge.net/DTD/sodipodi-0.dtd"
   xmlns="http://www.w3.org/2000/svg"
   xmlns:svg="http://www.w3.org/2000/svg">
  <defs
     id="defs29" />
  <sodipodi:namedview
     id="namedview29"
     pagecolor="#ffffff"
     bordercolor="#000000"
     borderopacity="0.25"
     inkscape:showpageshadow="2"
     inkscape:pageopacity="0.0"
     inkscape:pagecheckerboard="0"
     inkscape:deskcolor="#d1d1d1"
     inkscape:zoom="7.375"
     inkscape:cx="16"
     inkscape:cy="16"
     inkscape:window-width="1312"
     inkscape:window-height="683"
     inkscape:window-x="0"
     inkscape:window-y="25"
     inkscape:window-maximized="0"
     inkscape:current-layer="svg29" />
  <g
     id="g29"
     transform="translate(-0.9454374,-1.2399205)">
    <path
       d="m 27.67,10.91 c 0,0.475 -0.3851,0.86 -0.8601,0.86 -0.4749,0 -0.8599,-0.385 -0.8599,-0.86 0,-0.4749 0.385,-0.86 0.8599,-0.86 0.475,0 0.8601,0.3851 0.8601,0.86 z"
       fill="#26c9fc"
       id="path1" />
    <path
       d="m 29.8101,12.9901 c 0,0.5412 -0.4388,0.98 -0.98,0.98 -0.5412,0 -0.98,-0.4388 -0.98,-0.98 0,-0.5413 0.4388,-0.98 0.98,-0.98 0.5412,0 0.98,0.4387 0.98,0.98 z"
       fill="#26c9fc"
       id="path2" />
    <path
       d="m 29.3439,24.5688 c -1.298,3.1336 -4.8127,5.4313 -7.9939,5.4313 H 4.92188 c 0,0 14.46812,-4.58 17.97812,-11.1 1.8,-3.34 7.1,-2.04 7.1,2.36 0.0013,1.1353 -0.2216,2.2598 -0.6561,3.3087 z"
       fill="#26c9fc"
       id="path3" />
    <path
       d="m 25.8201,16.1801 c 0.6903,0 1.25,-0.5597 1.25,-1.25 0,-0.6904 -0.5597,-1.25 -1.25,-1.25 -0.6904,0 -1.25,0.5596 -1.25,1.25 0,0.6903 0.5596,1.25 1.25,1.25 z"
       fill="#26c9fc"
       id="path4" />
    <path
       d="m 7.92191,12.9531 c 2.82029,-0.3984 4.19529,-2.2578 4.98439,-4.14841 1.0625,0 0.7968,2.93751 0.0234,3.75001 -0.5559,0.584 -2.3201,2.1019 -4.74925,2.4042 C 7.49996,14.5 7.49998,13.5 7.92191,12.9531 Z"
       fill="#f24827"
       id="path5" />
    <path
       d="m 17.8984,10.0078 c 1.3878,-0.04693 2.2266,0.4531 2.625,1.0781 0.1759,0.2758 0.5782,1.0039 0.3907,2.0078 0,0 -0.2461,-0.0625 -0.3789,0.0391 -0.1329,0.1015 -0.3204,0.5078 -0.2618,0.7578 0.0586,0.25 0.2969,0.1757 0.2969,0.25 0,0.0742 -0.215,0.4104 0,0.5625 0.215,0.1521 0.2578,0.082 0.3828,0.1328 0.125,0.0508 0.1367,0.1484 0.2813,0.1797 0.1445,0.0312 0.1992,-0.0313 0.3125,0 0.1133,0.0312 0.1406,0.1132 0.3047,0.1172 0.164,0.0039 0.1757,-0.0274 0.3007,-0.0274 0.125,0 0.0586,0.0742 0.3399,0.0742 0.2812,0 0.4109,-0.4083 0.4831,-0.944 0.0559,-0.4145 0.0559,-0.7495 0.0559,-0.9406 0,-0.4384 0.1092,-0.5576 0,-1.2951 -0.5323,-3.59561 -3.4673,-4.20995 -6.2111,-4.20995 0,0 -1.58,-0.08 -2.36,0 -0.2558,0.02463 -0.504,0.10119 -0.7292,0.22499 -0.2253,0.12379 -0.4229,0.29223 -0.5808,0.49501 -0.9555,1.73485 -0.3956,3.79405 0.2,5.55995 0.0946,0.2376 0.0023,0.4893 -0.0923,0.7269 l -6.16405,13.0469 3.02345,-1.0703 0.0937,-1.0547 5.1329,-7.6406 c 0.25,-0.35 0.7152,-0.2159 0.8124,0.0468 0.6149,1.6614 2.2657,3.9297 3.7266,5.2188 l 1.7891,-0.625 C 20.7244,21.2726 18.9101,18.9218 18.9101,16.93 v -1.4501 c 0,-1.5943 -0.7976,-3.1406 -1.33,-4.6099 -0.09,-0.36 -0.3517,-0.7722 0.3183,-0.8622 z"
       fill="#ff6723"
       id="path6" />
    <path
       d="m 20.9141,13.0937 c 0.0339,-0.1812 0.0487,-0.5156 0.0487,-0.5156 l 2.114,0.1108 c 0,0 -0.0455,0.3586 -0.0455,0.6061 0,0.1912 0,0.5261 -0.0559,0.9406 -0.0723,0.5357 -0.2019,0.944 -0.4832,0.944 -0.1687,0 -0.2123,-0.0267 -0.2472,-0.0481 -0.0232,-0.0142 -0.0426,-0.0261 -0.0926,-0.0261 -0.0564,0 -0.0898,0.0064 -0.1245,0.013 -0.0421,0.0081 -0.0863,0.0165 -0.1763,0.0144 -0.1001,-0.0024 -0.1493,-0.0339 -0.1982,-0.0652 -0.0312,-0.02 -0.0623,-0.0398 -0.1065,-0.052 -0.0552,-0.0153 -0.0965,-0.0082 -0.1411,-6e-4 -0.0468,0.008 -0.0973,0.0166 -0.1714,6e-4 -0.0802,-0.0174 -0.1195,-0.0551 -0.1599,-0.094 -0.0325,-0.0312 -0.0657,-0.0631 -0.1213,-0.0857 -0.0443,-0.018 -0.0783,-0.0208 -0.1132,-0.0237 -0.0638,-0.0053 -0.1308,-0.0109 -0.2696,-0.1091 -0.1628,-0.1151 -0.0792,-0.3357 -0.0289,-0.4684 0.0162,-0.0426 0.0289,-0.0761 0.0289,-0.0941 0,-0.0267 -0.0308,-0.0342 -0.073,-0.0445 -0.0751,-0.0183 -0.1864,-0.0454 -0.2239,-0.2055 -0.0586,-0.25 0.1289,-0.6563 0.2617,-0.7578 0.1328,-0.1016 0.3789,-0.0391 0.3789,-0.0391 z"
       fill="#ffc83d"
       id="path7" />
    <path
       d="M 6.91744,12.8957 C 6.67846,12.8652 6.44806,12.8359 6.24222,12.8359 c -0.58597,0 -1.03896,0.3125 -1.24218,0.5859 -0.05963,0.0802 -0.02353,0.207 -0.02353,0.207 -0.14453,0.0691 -0.40859,0.2969 -0.30859,0.6563 -0.00569,-0.0219 -0.32016,0.3008 -0.13657,0.5898 0.10925,0.1563 0.25118,0.1719 0.30849,0.1602 0,0 0.0071,0.1062 0.1602,0.2344 0.08202,0.0612 0.34058,0.0765 0.48434,-0.0703 0.02927,-0.03 0.05761,-0.0628 0.08692,-0.0967 0.15064,-0.1744 0.32702,-0.3786 0.78808,-0.3721 -0.1836,0.1445 -0.53907,0.4688 -0.25782,0.8047 0.14066,0.168 0.46563,0.1562 0.6875,-0.0313 l 0.54297,-0.4921 c 0.20794,0 0.41873,-0.0179 0.61758,-0.0347 0.08043,-0.0068 0.1591,-0.0134 0.23465,-0.0186 -0.26235,-0.56 -0.41473,-1.5561 -0.26235,-2.0053 -0.32276,0.0295 -0.67193,-0.015 -1.00447,-0.0574 z"
       fill="#ffc83d"
       id="path8" />
    <path
       d="m 19.8829,23.3437 c -0.3195,-0.2819 -0.9727,-0.9694 -0.9727,-0.9694 l 1.9483,-0.8634 c 0,0 0.5812,0.8533 0.8134,1.2078 z"
       fill="#ffc83d"
       id="path9" />
    <path
       d="m 8.35921,25.1652 -1.26546,2.6785 3.02345,-1.0703 0.0937,-1.0547 z"
       fill="#ffc83d"
       id="path10" />
    <path
       d="M 23.0707,24.5469 25.5,23.71 c 0.2994,-0.1091 0.5463,-0.3276 0.6911,-0.6115 C 26.3358,22.8146 26.3676,22.4864 26.28,22.18 26.2272,22.0231 26.1436,21.8782 26.0343,21.7538 25.925,21.6294 25.792,21.528 25.6432,21.4554 25.4943,21.3828 25.3325,21.3405 25.1672,21.331 25.0018,21.3215 24.8362,21.345 24.68,21.4 L 2.20003,29.14 c -0.10122,0.0315 -0.18766,0.0986 -0.24341,0.1887 -0.05575,0.0902 -0.07707,0.1975 -0.06003,0.3021 0.01703,0.1046 0.07127,0.1996 0.15275,0.2674 0.08147,0.0679 0.18469,0.104 0.29069,0.1018 h 2.79 c 1.4516,-0.0043 2.89199,-0.2545 4.26,-0.74 L 21.188,25.1955 22.92,26.04 c 0.0655,0.031 0.1386,0.0422 0.2102,0.0321 0.0717,-0.0102 0.1389,-0.0411 0.1932,-0.089 0.0543,-0.0479 0.0933,-0.1107 0.1123,-0.1806 0.0189,-0.0698 0.017,-0.1437 -0.0057,-0.2125 z"
       fill="#d73b9a"
       id="path11" />
    <path
       d="m 16.1299,3.42998 c 0.2339,0.08007 0.4298,0.24395 0.55,0.46 0.0996,0.16605 0.1488,0.35744 0.1417,0.55093 -0.0071,0.19349 -0.0702,0.38076 -0.1817,0.53907 -0.0688,0.11419 -0.1003,0.24705 -0.09,0.38 v 0.22 c -0.0772,-0.05801 -0.2448,-0.10891 -0.339,-0.13 0,-0.08395 0.0104,-0.16499 0.0205,-0.24349 C 16.2579,4.99891 16.2822,4.80911 16.1064,4.63043 15.9933,4.51548 15.841,4.44746 15.6799,4.43998 h -0.61 C 14.8609,4.44565 14.6548,4.38995 14.477,4.27977 14.2993,4.16958 14.1578,4.00973 14.0699,3.81998 14.0496,3.7646 14.0128,3.71675 13.9646,3.6828 13.9163,3.64885 13.8589,3.63043 13.7999,3.62998 h -0.55 c -0.3899,0 -0.7638,0.15487 -1.0394,0.43055 -0.2757,0.27568 -0.4306,0.64958 -0.4306,1.03945 v 0.35 c -0.1092,0.01789 -0.2123,0.06255 -0.3,0.13 v -0.22 c 0.0015,-0.13621 -0.0406,-0.26934 -0.12,-0.38 C 11.2514,4.82674 11.1882,4.64606 11.1776,4.4586 11.167,4.27113 11.2094,4.08447 11.2999,3.91998 c 0.1191,-0.23125 0.3235,-0.40701 0.57,-0.49 0.2516,-0.08187 0.4649,-0.25248 0.6,-0.48 0.0919,-0.14704 0.2203,-0.26767 0.3729,-0.35006 0.1525,-0.0824 0.3238,-0.12373 0.4971,-0.11994 0.1373,5.1e-4 0.2731,0.02768 0.4,0.08 0.0823,0.03465 0.1707,0.0525 0.26,0.0525 0.0893,0 0.1777,-0.01785 0.26,-0.0525 0.1269,-0.05232 0.2628,-0.07949 0.4,-0.08 0.1752,-0.00172 0.3479,0.04264 0.5005,0.12864 0.1527,0.086 0.2801,0.21061 0.3695,0.36136 0.1394,0.2194 0.3519,0.38237 0.6,0.46 z"
       fill="#f1a11e"
       id="path12" />
    <path
       d="M 15.9531,7.98439 C 16.1205,7.9118 16.3098,7.80716 16.4094,7.65424 16.5089,7.50132 16.5613,7.32248 16.56,7.14001 v -0.4 C 16.5004,6.78404 16.3769,6.7029 16.2556,6.62325 16.1571,6.5585 16.06,6.49474 16,6.5 c 0,0.10852 0.0065,0.23716 0.0135,0.37472 0.0193,0.38067 0.0421,0.82968 -0.0604,1.10967 z"
       fill="#f1a11e"
       id="path13" />
    <path
       d="M 12,6.50002 C 11.9347,6.49624 11.8456,6.56672 11.7569,6.63698 11.6503,6.72136 11.5442,6.80541 11.48,6.76003 v 0.4 c 5e-4,0.18729 0.0569,0.37017 0.162,0.52518 0.1051,0.15501 0.2542,0.27509 0.428,0.34482 -0.0811,-0.1557 -0.132,-0.32535 -0.15,-0.5 z"
       fill="#f1a11e"
       id="path14" />
    <path
       d="m 12.6199,6.17996 c 0,0.39765 -0.3223,0.72 -0.72,0.72 -0.3976,0 -0.72,-0.32235 -0.72,-0.72 0,-0.39764 0.3224,-0.72 0.72,-0.72 0.3977,0 0.72,0.32236 0.72,0.72 z"
       fill="#fdbb11"
       id="path15" />
    <path
       d="m 16.8201,6.17996 c 0,0.39765 -0.3223,0.72 -0.72,0.72 -0.3976,0 -0.72,-0.32235 -0.72,-0.72 0,-0.39764 0.3224,-0.72 0.72,-0.72 0.3977,0 0.72,0.32236 0.72,0.72 z"
       fill="#fdbb11"
       id="path16" />
    <path
       d="M 11.7494,5.45574 C 11.7595,5.45359 11.7697,5.45168 11.7799,5.45 V 5.1 c 0,-0.38986 0.1549,-0.76376 0.4306,-1.03944 C 12.4861,3.78488 12.86,3.63 13.2499,3.63 h 0.55 c 0.059,4.6e-4 0.1164,0.01888 0.1647,0.05283 0.0482,0.03395 0.085,0.0818 0.1053,0.13717 0.0879,0.18976 0.2294,0.34961 0.4071,0.4598 0.1778,0.11018 0.3839,0.16588 0.5929,0.1602 h 0.61 c 0.1611,0.00749 0.3134,0.07551 0.4265,0.19046 0.1758,0.17868 0.1515,0.36847 0.125,0.57606 -0.0101,0.0785 -0.0205,0.15954 -0.0205,0.24348 0.007,0.00157 0.0145,0.00331 0.0222,0.0052 l -0.123,2.07483 c -0.0577,0.40734 -0.2604,0.78021 -0.5708,1.05022 -0.3104,0.27 -0.7078,0.41904 -1.1192,0.41978 h -0.82 C 13.1763,9.00996 12.7642,8.86022 12.4456,8.58052 12.127,8.30082 11.9251,7.91159 11.8801,7.49003 Z"
       fill="#ffc83d"
       id="path17" />
    <path
       d="m 14.0001,7.51001 c -0.2187,-0.00116 -0.4343,-0.05248 -0.63,-0.15 -0.06,0 -0.13,0 -0.09,0.1 0.0793,0.11964 0.1871,0.21778 0.3136,0.28567 0.1265,0.06789 0.2678,0.10342 0.4114,0.10342 0.1435,0 0.2849,-0.03553 0.4114,-0.10342 0.1265,-0.06789 0.2342,-0.16603 0.3136,-0.28567 0,-0.06 0,-0.14 -0.09,-0.1 -0.1993,0.09767 -0.4181,0.14895 -0.64,0.15 z"
       fill="#990839"
       id="path18" />
    <path
       d="m 13.8399,6.05998 -0.23,0.73 c -0.0089,0.03581 -0.0097,0.07315 -0.0025,0.10933 0.0072,0.03618 0.0224,0.07032 0.0444,0.09995 0.022,0.02964 0.0502,0.05403 0.0828,0.07145 0.0325,0.01741 0.0685,0.02741 0.1053,0.02927 h 0.33 C 14.2066,7.09853 14.2425,7.08867 14.2748,7.07118 14.307,7.05368 14.3349,7.02901 14.3561,6.99907 14.3774,6.96912 14.3915,6.9347 14.3973,6.89845 14.4032,6.8622 14.4007,6.8251 14.3899,6.78998 l -0.22,-0.73 C 14.1608,6.02313 14.1396,5.9904 14.1097,5.96701 14.0798,5.94362 14.0429,5.93091 14.0049,5.93091 c -0.0379,0 -0.0748,0.01271 -0.1047,0.0361 -0.0299,0.02339 -0.0511,0.05612 -0.0603,0.09297 z"
       fill="#ed9200"
       id="path19" />
    <path
       d="m 15.0499,5.57994 c 0.1381,3.6e-4 0.2721,0.04678 0.3808,0.13192 0.1087,0.08514 0.1858,0.20412 0.2192,0.33808 0.0029,0.01786 0.0019,0.03611 -0.0027,0.05358 C 15.6426,6.121 15.6343,6.13731 15.623,6.15143 15.6117,6.16554 15.5976,6.17715 15.5816,6.1855 15.5656,6.19386 15.548,6.19877 15.5299,6.19994 h -1 C 14.5155,6.19869 14.5014,6.19458 14.4885,6.18786 14.4756,6.18114 14.4642,6.17193 14.4549,6.16078 14.4456,6.14962 14.4386,6.13673 14.4344,6.12286 14.4301,6.10899 14.4286,6.0944 14.4299,6.07994 14.4581,5.93706 14.5357,5.80864 14.649,5.71722 14.7624,5.62579 14.9043,5.5772 15.0499,5.57994 Z"
       fill="#ffffff"
       id="path20" />
    <path
       d="m 13.0001,5.57991 c -0.1381,3.5e-4 -0.2721,0.04677 -0.3808,0.13191 -0.1087,0.08514 -0.1858,0.20412 -0.2192,0.33809 -0.0047,0.01804 -0.0051,0.03693 -0.0012,0.05516 0.0039,0.01823 0.012,0.0353 0.0236,0.04986 0.0117,0.01456 0.0266,0.0262 0.0435,0.03401 0.0169,0.0078 0.0354,0.01156 0.0541,0.01096 h 1 C 13.5345,6.19865 13.5486,6.19454 13.5615,6.18782 13.5744,6.1811 13.5858,6.17189 13.5951,6.16074 13.6044,6.14958 13.6114,6.13669 13.6156,6.12282 13.6199,6.10895 13.6214,6.09436 13.6201,6.07991 13.5901,5.9379 13.5121,5.8106 13.3991,5.71949 13.2861,5.62839 13.1452,5.57909 13.0001,5.57991 Z"
       fill="#ffffff"
       id="path21" />
    <path
       d="m 12.7707,5.81355 c 0.0747,-0.07286 0.1749,-0.11363 0.2793,-0.1136 0.0955,0.01202 0.1835,0.05807 0.2478,0.12971 0.0643,0.07163 0.1006,0.16405 0.1022,0.26029 0.0047,0.03652 0.0047,0.07349 0,0.11 h -0.75 c -0.0047,-0.03651 -0.0047,-0.07348 0,-0.11 0.0026,-0.10434 0.0459,-0.20353 0.1207,-0.2764 z"
       fill="#7d4533"
       id="path22" />
    <path
       d="M 15.2759,5.81418 C 15.2028,5.74104 15.1036,5.69995 15.0001,5.69995 14.901,5.70738 14.8082,5.75143 14.7398,5.82353 14.6714,5.89562 14.6323,5.9906 14.6301,6.08995 v 0.11 h 0.76 c 0.005,-0.0365 0.005,-0.0735 0,-0.11 0,-0.10343 -0.0411,-0.20263 -0.1142,-0.27577 z"
       fill="#7d4533"
       id="path23" />
    <path
       d="m 12.8201,6.19995 c -2e-4,-0.15308 0.0237,-0.31323 0.2112,-0.31323 0.1875,0 0.2388,0.16794 0.2388,0.31323 z"
       fill="#000000"
       id="path24" />
    <path
       d="m 14.7869,6.19995 c -2e-4,-0.15308 0.0237,-0.31323 0.2112,-0.31323 0.1875,0 0.2388,0.16794 0.2388,0.31323 z"
       fill="#000000"
       id="path25" />
    <path
       d="m 12.9801,5.94 c 0,0.03866 -0.0314,0.07 -0.07,0.07 -0.0387,0 -0.07,-0.03134 -0.07,-0.07 0,-0.03866 0.0313,-0.07 0.07,-0.07 0.0386,0 0.07,0.03134 0.07,0.07 z"
       fill="#ffffff"
       id="path26" />
    <path
       d="m 14.91,5.94 c 0,0.03866 -0.0313,0.07 -0.07,0.07 -0.0386,0 -0.07,-0.03134 -0.07,-0.07 0,-0.03866 0.0314,-0.07 0.07,-0.07 0.0387,0 0.07,0.03134 0.07,0.07 z"
       fill="#ffffff"
       id="path27" />
    <path
       d="m 12.5714,5.28267 c 0.1874,-0.13043 0.4165,-0.18691 0.6431,-0.15857 0.0685,0.00856 0.131,-0.04003 0.1395,-0.10853 0.0086,-0.0685 -0.04,-0.13098 -0.1085,-0.13954 -0.2878,-0.036 -0.5788,0.03575 -0.8169,0.20143 -0.0567,0.03943 -0.0706,0.11733 -0.0312,0.174 0.0394,0.05666 0.1173,0.07064 0.174,0.03121 z"
       fill="#d37034"
       id="path28" />
    <path
       d="M 15.5803,5.07667 C 15.3417,4.91433 15.0526,4.84306 14.7658,4.87584 c -0.0685,0.00783 -0.1178,0.06979 -0.11,0.13838 0.0079,0.06859 0.0698,0.11784 0.1384,0.11 0.2273,-0.02597 0.4564,0.03051 0.6455,0.15917 0.0571,0.03882 0.1349,0.02402 0.1737,-0.03306 0.0388,-0.05709 0.024,-0.13484 -0.0331,-0.17366 z"
       fill="#d37034"
       id="path29" />
  </g>
</svg>
