<?xml version="1.0" encoding="UTF-8" standalone="no"?>
<svg
   width="30"
   height="30"
   viewBox="0 0 30 30"
   fill="none"
   version="1.1"
   id="svg5"
   sodipodi:docname="shark_flat.svg"
   inkscape:export-filename="shark_flat.png"
   inkscape:export-xdpi="819.20001"
   inkscape:export-ydpi="819.20001"
   inkscape:version="1.3.2 (091e20e, 2023-11-25)"
   xmlns:inkscape="http://www.inkscape.org/namespaces/inkscape"
   xmlns:sodipodi="http://sodipodi.sourceforge.net/DTD/sodipodi-0.dtd"
   xmlns="http://www.w3.org/2000/svg"
   xmlns:svg="http://www.w3.org/2000/svg">
  <defs
     id="defs5" />
  <sodipodi:namedview
     id="namedview5"
     pagecolor="#ffffff"
     bordercolor="#000000"
     borderopacity="0.25"
     inkscape:showpageshadow="2"
     inkscape:pageopacity="0.0"
     inkscape:pagecheckerboard="0"
     inkscape:deskcolor="#d1d1d1"
     inkscape:zoom="7.375"
     inkscape:cx="16"
     inkscape:cy="16"
     inkscape:window-width="1312"
     inkscape:window-height="799"
     inkscape:window-x="0"
     inkscape:window-y="25"
     inkscape:window-maximized="0"
     inkscape:current-layer="svg5" />
  <g
     id="g5"
     transform="translate(-1.0001303,-0.99821875)">
    <path
       d="m 26,3.00006 c 0,-0.59 -0.5,-1.05 -1.09,-1 C 22.9085,2.1853 20.8988,2.86456 19.2969,3.87272 19.0074,3.8511 18.715,3.84009 18.42,3.84009 h -1.61 c -5.54,0 -11.12,2.61 -14.45,7.04001 -0.44,0.58 -0.48,1.38 -0.1,2 0.46928,0.78 1.08132,1.4796 1.78991,2.0713 H 17 v 1.8485 c 0,1.3 0.73,2.49 1.89,3.08 l 0.09,0.05 c 0.47,0.24 1.02,-0.1 1.02,-0.63 v -4.3485 h 2.4472 c 1.1548,0.3404 2.3684,0.5287 3.5528,0.5287 v -0.5287 h 0.033 v 5.885 l -7.583,3.6361 -0.4006,-0.7597 c -0.2084,0.049 -0.418,0.092 -0.6294,0.1273 -0.28,0.05 -0.57,-0.06 -0.75,-0.28 l -1.76,-2.2 c -1.2,-1.49 -2.99,-2.36 -4.89,-2.36 H 8.77 c -0.31,0 -0.49,0.35 -0.3,0.6 l 5.23,6.97 c 0.19,0.25 0.2,0.6 0.02,0.87 l -1.32,1.98 c -0.15,0.25 0.03,0.58 0.32,0.58 h 1.62 c 1.04,0 2.02,-0.52 2.6,-1.39 l 0.85,-1.26 c 0.15,-0.22 0.39,-0.35 0.66,-0.35 0.13,0 0.26,0 0.39,-0.01 6.2,-0.22 11.16,-5.31 11.16,-11.57 C 30,11.92 28.4508,8.78487 26,6.66228 Z"
       fill="#9b9b9b"
       id="path1" />
    <path
       d="M 23,13.92 V 11.5 c 0,-0.19 0.18,-0.33 0.39,-0.28 2.7,0.73 4.67,3.21 4.64,6.15 -0.02,2.13 -1.15,4.1 -2.94,5.26 l -0.95,0.62 c -1.85,1.2 -3.94,1.99 -6.11,2.32 v -1.85 c 0.1,-0.02 0.19,-0.05 0.29,-0.07 1.8563,-0.6991 5.6814,-2.0652 5.6814,-4.6392 0,-1.5531 -1.5209,-1.9876 -2.2814,-2.0108 H 9.15 C 7.3,16.91 5.47,16.15 4.03,14.95 L 5.44,13.74 C 7.5,11.97 10.13,11 12.84,11 h 6.89 c 0.15,0 0.27,0.12 0.27,0.27 0,1.22 0.61,2.37 1.63,3.06 l 0.28,0.18 C 22.37,14.82 23,14.48 23,13.92 Z"
       fill="#d3d3d3"
       id="path2" />
    <path
       d="m 15,12 c 0,0.28 0.22,0.5 0.5,0.5 0.27,0 0.5,-0.22 0.5,-0.5 V 9.98999 c 0,-0.27 -0.22,-0.5 -0.5,-0.5 -0.28,0 -0.5,0.22 -0.5,0.5 z"
       fill="#636363"
       id="path3" />
    <path
       d="m 17,12 c 0,0.28 0.22,0.5 0.5,0.5 0.27,0 0.5,-0.22 0.5,-0.5 V 9.98999 c 0,-0.28 -0.22,-0.5 -0.5,-0.5 -0.28,0 -0.5,0.22 -0.5,0.5 z"
       fill="#636363"
       id="path4" />
    <path
       d="m 10.51,12 c 0.5523,0 1,-0.4477 1,-1 0,-0.5523 -0.4477,-1 -1,-1 -0.55229,0 -1.00001,0.4477 -1.00001,1 0,0.5523 0.44772,1 1.00001,1 z"
       fill="#1c1c1c"
       id="path5" />
  </g>
</svg>
