<svg xmlns="http://www.w3.org/2000/svg" width="30" height="30" fill="none"><path fill="#ffb02e" d="M14.999 28.999c9.334 0 13.999-6.268 13.999-13.999 0-7.731-4.665-13.999-14-13.999C5.665 1.001 1 7.27 1 15c0 7.731 4.664 13.999 13.999 13.999Z"/><path fill="#402a32" d="M10.84 17.458a1 1 0 0 0-1.688 1.074h.001v.002l.002.003.004.005.009.013a1.758 1.758 0 0 0 .097.137c.06.08.147.185.26.306.226.241.563.546 1.03.845.944.605 2.382 1.158 4.445 1.158s3.5-.554 4.445-1.158c.467-.299.804-.604 1.03-.845a3.901 3.901 0 0 0 .357-.443l.01-.013.003-.006.001-.002.001-.001v-.001a1 1 0 0 0-1.686-1.074l-.018.024a1.9 1.9 0 0 1-.126.147 3.413 3.413 0 0 1-.65.53c-.62.396-1.682.842-3.367.842s-2.748-.446-3.367-.842a3.416 3.416 0 0 1-.65-.53 1.9 1.9 0 0 1-.144-.171Z"/><path fill="#321b41" d="M10 4.001H4a4 4 0 0 0-4 4v.674a7 7 0 0 0 3.87 6.26l.935.469c1.402.7 3.044.794 4.52.267C12.111 14.676 14 12.026 14 9.068V8.001a4 4 0 0 0-4-4ZM19.5 4.001h7a3.5 3.5 0 0 1 3.5 3.5v1.174a7 7 0 0 1-3.87 6.26l-.935.469a5.785 5.785 0 0 1-4.52.267C17.889 14.676 16 12.026 16 9.068V7.501a3.5 3.5 0 0 1 3.5-3.5Z"/><path fill="#8d65c5" d="M13 5.355a3.99 3.99 0 0 0-3-1.354H4a4 4 0 0 0-4 4v.674a7 7 0 0 0 3.87 6.26l.935.469c1.402.7 3.044.794 4.52.267C12.111 14.676 14 12.026 14 9.068v-.067a1 1 0 1 1 2 0v.067c0 2.958 1.889 5.608 4.675 6.603a5.785 5.785 0 0 0 4.52-.267l.936-.468A7 7 0 0 0 30 8.675V7.5a3.5 3.5 0 0 0-3.5-3.5h-7c-1.124 0-2.124.53-2.765 1.354v-.003l-.05.05c-.191.197-.582.596-.945.6h-1.744c-.364-.004-.754-.403-.946-.6a6.86 6.86 0 0 0-.05-.05Zm-3-.354a3 3 0 0 1 3 3v1.067c0 2.53-1.618 4.806-4.011 5.66a4.785 4.785 0 0 1-3.736-.219l-.936-.468A6 6 0 0 1 1 8.675V8a3 3 0 0 1 3-3Zm7 2.5a2.5 2.5 0 0 1 2.5-2.5h7a2.5 2.5 0 0 1 2.5 2.5v1.174a6 6 0 0 1-3.317 5.366l-.936.468a4.784 4.784 0 0 1-3.736.22C18.618 13.874 17 11.599 17 9.069Z"/><path fill="#fff" d="M11.39 9.269c.585-.586.427-1.694-.354-2.475-.781-.781-1.89-.94-2.475-.354-.586.586-.428 1.694.353 2.475.781.781 1.89.94 2.475.354ZM27.39 9.269c.585-.586.427-1.694-.354-2.475-.782-.781-1.89-.94-2.475-.354-.586.586-.428 1.694.353 2.475.781.781 1.89.94 2.475.354z"/></svg>