<?xml version="1.0" encoding="UTF-8" standalone="no"?>
<svg
   width="30"
   height="30"
   viewBox="0 0 30 30"
   fill="none"
   version="1.1"
   id="svg7"
   sodipodi:docname="smiling_face_with_sunglasses_flat.svg"
   inkscape:export-filename="smiling_face_with_sunglasses_flat.png"
   inkscape:export-xdpi="819.20001"
   inkscape:export-ydpi="819.20001"
   inkscape:version="1.3.2 (091e20e, 2023-11-25)"
   xmlns:inkscape="http://www.inkscape.org/namespaces/inkscape"
   xmlns:sodipodi="http://sodipodi.sourceforge.net/DTD/sodipodi-0.dtd"
   xmlns="http://www.w3.org/2000/svg"
   xmlns:svg="http://www.w3.org/2000/svg">
  <defs
     id="defs7" />
  <sodipodi:namedview
     id="namedview7"
     pagecolor="#ffffff"
     bordercolor="#000000"
     borderopacity="0.25"
     inkscape:showpageshadow="2"
     inkscape:pageopacity="0.0"
     inkscape:pagecheckerboard="0"
     inkscape:deskcolor="#d1d1d1"
     inkscape:zoom="7.375"
     inkscape:cx="16"
     inkscape:cy="15.932203"
     inkscape:window-width="1312"
     inkscape:window-height="874"
     inkscape:window-x="0"
     inkscape:window-y="25"
     inkscape:window-maximized="0"
     inkscape:current-layer="svg7" />
  <g
     id="g7"
     transform="translate(-1,-0.9989)">
    <path
       d="m 15.9989,29.9978 c 9.3344,0 13.9989,-6.2675 13.9989,-13.9989 C 29.9978,8.26751 25.3333,2 15.9989,2 6.66443,2 2,8.26751 2,15.9989 2,23.7303 6.66443,29.9978 15.9989,29.9978 Z"
       fill="#ffb02e"
       id="path1" />
    <path
       d="m 11.8395,18.4566 c -0.2962,-0.4579 -0.9062,-0.5945 -1.37,-0.3043 -0.4682,0.293 -0.61017,0.9101 -0.3172,1.3782 l 8e-4,0.0012 7e-4,0.0011 0.0016,0.0026 0.0035,0.0055 0.0087,0.0134 c 0.0065,0.0099 0.0143,0.0216 0.0237,0.0352 0.0186,0.027 0.043,0.0612 0.0735,0.1014 0.0611,0.0804 0.1469,0.1852 0.2601,0.3058 0.2265,0.2415 0.563,0.5465 1.0305,0.8456 C 12.4995,21.4464 13.9369,22 16,22 c 2.0632,0 3.5005,-0.5536 4.4446,-1.1577 0.4675,-0.2991 0.804,-0.6041 1.0306,-0.8456 0.1131,-0.1206 0.1989,-0.2254 0.26,-0.3058 0.0305,-0.0402 0.055,-0.0744 0.0736,-0.1014 0.0093,-0.0136 0.0172,-0.0253 0.0236,-0.0352 l 0.0087,-0.0134 0.0036,-0.0055 0.0015,-0.0026 8e-4,-0.0011 7e-4,-0.0012 c 0.2932,-0.468 0.151,-1.0852 -0.3172,-1.3782 -0.4638,-0.2902 -1.0738,-0.1536 -1.3699,0.3043 -0.0024,0.0033 -0.0083,0.0117 -0.018,0.0244 -0.022,0.029 -0.0633,0.0804 -0.126,0.1473 -0.1253,0.1336 -0.336,0.3285 -0.6499,0.5294 C 18.7478,19.5536 17.6852,20 16,20 14.3148,20 13.2522,19.5536 12.6333,19.1577 12.3194,18.9568 12.1088,18.7619 11.9834,18.6283 11.9207,18.5614 11.8794,18.51 11.8574,18.481 11.8477,18.4683 11.8418,18.4599 11.8395,18.4566 Z"
       fill="#402a32"
       id="path2" />
    <path
       d="M 11,5 H 5 C 2.79086,5 1,6.79086 1,9 V 9.67376 C 1,12.3252 2.49802,14.749 4.8695,15.9348 l 0.93584,0.4679 c 1.40195,0.7009 3.04379,0.794 4.51986,0.2669 C 13.1112,15.6746 15,13.0253 15,10.067 V 9 C 15,6.79086 13.2091,5 11,5 Z"
       fill="#321b41"
       id="path3" />
    <path
       d="m 20.5,5 h 7 C 29.433,5 31,6.567 31,8.5 v 1.17376 c 0,2.65144 -1.498,5.07524 -3.8695,6.26104 l -0.9358,0.4679 c -1.402,0.7009 -3.0438,0.794 -4.5199,0.2669 C 18.8888,15.6746 17,13.0253 17,10.067 V 8.5 C 17,6.567 18.567,5 20.5,5 Z"
       fill="#321b41"
       id="path4" />
    <path
       d="M 14,6.35418 C 13.2671,5.52375 12.1947,5 11,5 H 5 C 2.79086,5 1,6.79086 1,9 V 9.67376 C 1,12.3252 2.49802,14.749 4.8695,15.9348 l 0.93584,0.4679 c 1.40195,0.7009 3.04378,0.794 4.51986,0.2669 C 13.1112,15.6746 15,13.0253 15,10.067 V 10 c 0,-0.55228 0.4477,-1 1,-1 0.5523,0 1,0.44772 1,1 v 0.067 c 0,2.9583 1.8888,5.6076 4.6748,6.6026 1.4761,0.5271 3.1179,0.434 4.5199,-0.2669 l 0.9358,-0.4679 C 29.502,14.749 31,12.3252 31,9.67376 V 8.5 C 31,6.567 29.433,5 27.5,5 h -7 C 19.3759,5 18.3756,5.52992 17.7352,6.35357 V 6.35077 C 17.7206,6.36537 17.704,6.3824 17.6855,6.40132 17.4936,6.59759 17.1031,6.9969 16.7395,7 H 14.9957 C 14.6321,6.9969 14.2418,6.59771 14.0499,6.40145 14.0314,6.38253 14.0146,6.36538 14,6.35077 Z M 11,6 c 1.6569,0 3,1.34315 3,3 v 1.067 c 0,2.5305 -1.6183,4.8062 -4.0111,5.6608 C 8.76683,16.1643 7.40816,16.086 6.25255,15.5082 L 5.31672,15.0403 C 3.28401,14.024 2,11.9464 2,9.67376 V 9 C 2,7.34315 3.34315,6 5,6 Z m 7,2.5 C 18,7.11929 19.1193,6 20.5,6 h 7 C 28.8807,6 30,7.11929 30,8.5 v 1.17376 c 0,2.27264 -1.284,4.35024 -3.3167,5.36654 l -0.9359,0.4679 C 24.5918,16.086 23.2332,16.1643 22.0111,15.7278 19.6183,14.8732 18,12.5975 18,10.067 Z"
       fill="#8d65c5"
       id="path5" />
    <path
       d="M 12.3891,10.2678 C 12.9749,9.68199 12.8166,8.57395 12.0356,7.7929 11.2545,7.01186 10.1465,6.85356 9.56069,7.43935 8.9749,8.02514 9.13319,9.13318 9.91424,9.91422 10.6953,10.6953 11.8033,10.8536 12.3891,10.2678 Z"
       fill="#ffffff"
       id="path6" />
    <path
       d="M 28.3891,10.2678 C 28.9749,9.68199 28.8166,8.57395 28.0356,7.7929 27.2545,7.01186 26.1465,6.85356 25.5607,7.43935 c -0.5858,0.58579 -0.4275,1.69383 0.3535,2.47487 0.7811,0.78108 1.8891,0.93938 2.4749,0.35358 z"
       fill="#ffffff"
       id="path7" />
  </g>
</svg>
