<svg xmlns="http://www.w3.org/2000/svg" width="30" height="30" fill="none"><path fill="#ffb02e" d="M15 28.999c9.334 0 13.999-6.268 13.999-13.999 0-7.731-4.665-13.999-13.999-13.999S1.001 7.27 1.001 15c0 7.731 4.665 13.999 13.999 13.999Z"/><path fill="#ff6723" d="M10.001 15.001c0 1.105-1.343 2-3 2s-3-.895-3-2c0-1.104 1.343-2 3-2s3 .896 3 2zM26.001 15.001c0 1.105-1.343 2-3 2s-3-.895-3-2c0-1.104 1.343-2 3-2s3 .896 3 2z"/><path fill="#402a32" d="M7.983 11.192c.048-.247.158-.55.367-.778.18-.196.498-.413 1.151-.413.642 0 .969.222 1.157.429.218.24.323.545.358.742a1 1 0 0 0 1.97-.342 3.544 3.544 0 0 0-.85-1.747c-.573-.63-1.44-1.082-2.635-1.082-1.184 0-2.047.431-2.624 1.06-.548.596-.769 1.293-.858 1.75a1 1 0 1 0 1.964.381ZM18.983 11.192c.048-.247.158-.55.367-.778.18-.196.498-.413 1.151-.413.642 0 .969.222 1.157.429.219.24.324.545.358.742a1 1 0 0 0 1.97-.342 3.543 3.543 0 0 0-.849-1.747c-.574-.63-1.44-1.082-2.636-1.082-1.184 0-2.047.431-2.624 1.06-.547.596-.769 1.293-.857 1.75a1 1 0 1 0 1.963.381zM8.401 17.201a1 1 0 0 1 1.4.2c.342.455 2.062 2.1 5.2 2.1 3.138 0 4.859-1.645 5.2-2.1a1 1 0 1 1 1.6 1.2c-.658.878-2.938 2.9-6.8 2.9-3.862 0-6.141-2.022-6.8-2.9a1 1 0 0 1 .2-1.4z"/></svg>