<?xml version="1.0" encoding="UTF-8" standalone="no"?>
<svg
   width="30"
   height="30"
   viewBox="0 0 30 30"
   fill="none"
   version="1.1"
   id="svg6"
   sodipodi:docname="smiling_face_with_smiling_eyes_flat.svg"
   inkscape:version="1.3.2 (091e20e, 2023-11-25)"
   inkscape:export-filename="smiling_face_with_smiling_eyes_flat.png"
   inkscape:export-xdpi="819.20001"
   inkscape:export-ydpi="819.20001"
   xmlns:inkscape="http://www.inkscape.org/namespaces/inkscape"
   xmlns:sodipodi="http://sodipodi.sourceforge.net/DTD/sodipodi-0.dtd"
   xmlns="http://www.w3.org/2000/svg"
   xmlns:svg="http://www.w3.org/2000/svg">
  <defs
     id="defs6" />
  <sodipodi:namedview
     id="namedview6"
     pagecolor="#ffffff"
     bordercolor="#000000"
     borderopacity="0.25"
     inkscape:showpageshadow="2"
     inkscape:pageopacity="0.0"
     inkscape:pagecheckerboard="0"
     inkscape:deskcolor="#d1d1d1"
     inkscape:zoom="7.375"
     inkscape:cx="15.932203"
     inkscape:cy="15.932203"
     inkscape:window-width="1544"
     inkscape:window-height="806"
     inkscape:window-x="30"
     inkscape:window-y="183"
     inkscape:window-maximized="0"
     inkscape:current-layer="svg6" />
  <g
     id="g6"
     transform="translate(-0.9989,-0.9989)">
    <path
       d="m 15.9989,29.9978 c 9.3344,0 13.9989,-6.2675 13.9989,-13.9989 C 29.9978,8.26751 25.3333,2 15.9989,2 6.66443,2 2,8.26751 2,15.9989 2,23.7303 6.66443,29.9978 15.9989,29.9978 Z"
       fill="#ffb02e"
       id="path1" />
    <path
       d="m 11,16 c 0,1.1046 -1.34315,2 -3,2 -1.65685,0 -3,-0.8954 -3,-2 0,-1.1046 1.34315,-2 3,-2 1.65685,0 3,0.8954 3,2 z"
       fill="#ff6723"
       id="path2" />
    <path
       d="m 27,16 c 0,1.1046 -1.3431,2 -3,2 -1.6569,0 -3,-0.8954 -3,-2 0,-1.1046 1.3431,-2 3,-2 1.6569,0 3,0.8954 3,2 z"
       fill="#ff6723"
       id="path3" />
    <path
       d="M 8.98156,12.1909 C 9.02964,11.9436 9.13971,11.6405 9.34896,11.4125 9.52829,11.2171 9.84698,11 10.4999,11 c 0.6418,0 0.9686,0.2216 1.1573,0.4288 0.2181,0.2395 0.3232,0.5449 0.3575,0.7423 0.0945,0.5441 0.6122,0.9086 1.1563,0.8142 0.5442,-0.0945 0.9087,-0.6123 0.8142,-1.1564 C 13.9062,11.374 13.6799,10.6794 13.1357,10.082 12.562,9.45218 11.6955,9 10.4999,9 9.31564,9 8.45269,9.4313 7.87551,10.0601 7.32826,10.6564 7.10696,11.3533 7.01833,11.8091 6.91291,12.3513 7.26694,12.8762 7.80907,12.9816 8.3512,13.087 8.87614,12.733 8.98156,12.1909 Z"
       fill="#402a32"
       id="path4" />
    <path
       d="M 19.9818,12.1909 C 20.0299,11.9436 20.14,11.6405 20.3492,11.4125 20.5285,11.2171 20.8472,11 21.5002,11 c 0.6417,0 0.9685,0.2216 1.1572,0.4288 0.2182,0.2395 0.3233,0.5449 0.3575,0.7423 0.0945,0.5441 0.6122,0.9086 1.1564,0.8142 0.5441,-0.0945 0.9086,-0.6123 0.8141,-1.1564 C 24.9064,11.374 24.6802,10.6794 24.1359,10.082 23.5623,9.45218 22.6957,9 21.5002,9 c -1.1843,0 -2.0473,0.4313 -2.6244,1.0601 -0.5473,0.5963 -0.7686,1.2932 -0.8572,1.749 -0.1054,0.5422 0.2486,1.0671 0.7907,1.1725 0.5421,0.1054 1.0671,-0.2486 1.1725,-0.7907 z"
       fill="#402a32"
       id="path5" />
    <path
       d="m 9.40006,18.2001 c 0.44183,-0.3314 1.06864,-0.2419 1.40004,0.2 0.3414,0.4552 2.062,2.1 5.2,2.1 3.138,0 4.8585,-1.6448 5.2,-2.1 0.3313,-0.4419 0.9581,-0.5314 1.4,-0.2 0.4418,0.3313 0.5313,0.9581 0.2,1.4 -0.6586,0.8781 -2.938,2.9 -6.8,2.9 -3.862,0 -6.14146,-2.0219 -6.80004,-2.9 -0.33137,-0.4419 -0.24183,-1.0687 0.2,-1.4 z"
       fill="#402a32"
       id="path6" />
  </g>
</svg>
