<?xml version="1.0" encoding="UTF-8" standalone="no"?>
<svg
   width="30"
   height="30"
   viewBox="0 0 30 30"
   fill="none"
   version="1.1"
   id="svg18"
   sodipodi:docname="squid_flat.svg"
   inkscape:export-filename="squid_flat.png"
   inkscape:export-xdpi="819.20001"
   inkscape:export-ydpi="819.20001"
   inkscape:version="1.3.2 (091e20e, 2023-11-25)"
   xmlns:inkscape="http://www.inkscape.org/namespaces/inkscape"
   xmlns:sodipodi="http://sodipodi.sourceforge.net/DTD/sodipodi-0.dtd"
   xmlns="http://www.w3.org/2000/svg"
   xmlns:svg="http://www.w3.org/2000/svg">
  <defs
     id="defs18" />
  <sodipodi:namedview
     id="namedview18"
     pagecolor="#ffffff"
     bordercolor="#000000"
     borderopacity="0.25"
     inkscape:showpageshadow="2"
     inkscape:pageopacity="0.0"
     inkscape:pagecheckerboard="0"
     inkscape:deskcolor="#d1d1d1"
     inkscape:zoom="7.375"
     inkscape:cx="16"
     inkscape:cy="16"
     inkscape:window-width="1312"
     inkscape:window-height="449"
     inkscape:window-x="0"
     inkscape:window-y="25"
     inkscape:window-maximized="0"
     inkscape:current-layer="svg18" />
  <g
     id="g18"
     transform="translate(-1.275,-1)">
    <path
       d="m 18.26,2.85002 4.56,5.05 c 0.61,0.61 0.61,1.59 0.01,2.20998 l -5.44,4.9 c -0.61,0.61 -1.6,0.61 -2.21,0 L 9.74,10.11 C 9.13,9.50002 9.13,8.51002 9.74,7.90002 l 4.55,-5.05 c 1.09,-1.1 2.87,-1.1 3.97,0 z"
       fill="#bb1d80"
       id="path1" />
    <path
       d="m 3,9.62995 c 0,-0.36 0.08,-0.7 0.22,-1 0.04,-0.09 0.09,-0.19 0.15,-0.27 l 0.92,-1.7 c 0.47,-0.87 1.73,-0.87 2.2,0 l 0.9,1.66 c 0.28,0.43 0.43,0.96 0.38,1.52 -0.05,0.61995 -0.34,1.15995 -0.78,1.55995 -0.31,0.28 -0.48,0.69 -0.48,1.11 v 3.7 c 0,1.19 0.76,2.26 1.88,2.65 l 4.21,1.48 c 0.59,0.21 0.89,0.85 0.69,1.43 -0.16,0.46 -0.6,0.75 -1.06,0.75 -0.12,0 -0.25,-0.02 -0.37,-0.06 l -4.21,-1.48 c -2.02,-0.71 -3.38,-2.63 -3.38,-4.77 v -3.7 c 0,-0.43 -0.18,-0.84 -0.5,-1.13 C 3.3,10.9399 3,10.3199 3,9.62995 Z"
       fill="#bb1d80"
       id="path2" />
    <path
       d="m 29.55,9.62995 c 0,-0.36 -0.08,-0.7 -0.22,-1 -0.04,-0.09 -0.09,-0.19 -0.15,-0.27 l -0.92,-1.7 c -0.47,-0.87 -1.73,-0.87 -2.2,0 l -0.9,1.66 c -0.28,0.43 -0.43,0.96 -0.38,1.52 0.05,0.61995 0.34,1.15995 0.78,1.55995 0.31,0.28 0.48,0.69 0.48,1.11 v 3.7 c 0,1.19 -0.76,2.26 -1.88,2.65 l -4.21,1.48 c -0.59,0.21 -0.89,0.85 -0.69,1.43 0.16,0.46 0.6,0.75 1.06,0.75 0.12,0 0.25,-0.02 0.37,-0.06 l 4.21,-1.48 c 2.02,-0.71 3.38,-2.63 3.38,-4.77 v -3.7 c 0,-0.43 0.18,-0.84 0.5,-1.13 0.47,-0.44 0.77,-1.06 0.77,-1.74995 z"
       fill="#bb1d80"
       id="path3" />
    <path
       d="m 10.47,27.06 h 0.05 c 1.07,0 2.07,-0.42 2.84,-1.18 L 14.0849,25.1551 13.6,26.96 c -0.12,0.46 -0.55,0.79 -1.03,0.79 H 5.41 c -0.62,0 -1.12,0.5 -1.12,1.12 0,0.62 0.5,1.13 1.12,1.13 h 7.17 c 1.5,0 2.81,-1.01 3.2,-2.46 l 0.505,-1.8797 0.505,1.8797 c 0.39,1.45 1.7,2.46 3.2,2.46 h 7.17 c 0.62,0 1.13,-0.51 1.13,-1.13 0,-0.62 -0.5,-1.12 -1.12,-1.12 H 20 c -0.48,0 -0.91,-0.33 -1.03,-0.79 L 18.4888,25.1688 19.21,25.89 c 0.76,0.75 1.76,1.17 2.83,1.17 0.0024,0 0.0048,-10e-5 0.0072,-3e-4 0.0017,-2e-4 0.0034,-4e-4 0.0051,-6e-4 0.0023,-4e-4 0.0046,-7e-4 0.0069,-0.0011 0.0144,-0.0023 0.0303,-0.0048 0.0508,0.002 1.09,-0.02 2.1,-0.46 2.85,-1.25 l 0.72,-0.75 c 0.12,-0.13 0.26,-0.15 0.34,-0.15 0.08,0 0.22,0.01 0.35,0.14 0.44,0.44 1.15,0.44 1.59,0 0.44,-0.44 0.44,-1.15 0,-1.59 -0.53,-0.53 -1.23,-0.81 -1.97,-0.8 -0.75,0.01 -1.44,0.31 -1.95,0.85 l -0.72,0.75 c -0.33,0.35 -0.77,0.54 -1.25,0.55 -0.48,0.01 -0.93,-0.17 -1.27,-0.51 l -1.02,-1.0199 c -0.44,-0.4401 -1.15,-0.4401 -1.59,0 -0.0604,0.0603 -0.1125,0.1258 -0.1563,0.1949 L 17.4529,21.3131 17.94,19.5 c 0.16,-0.6 -0.2,-1.22 -0.8,-1.38 -0.3,-0.08 -0.605,-0.03 -0.855,0.115 -0.25,-0.145 -0.555,-0.195 -0.855,-0.115 -0.6,0.16 -0.96,0.78 -0.8,1.38 l 0.4871,1.8131 -0.5789,2.1549 C 14.494,23.3978 14.4412,23.3313 14.38,23.27 c -0.44,-0.44 -1.15,-0.44 -1.59,0 l -1.02,1.02 C 11.44,24.62 11,24.8 10.53,24.8 H 10.51 C 10.03,24.79 9.59,24.6 9.26,24.25 L 8.54,23.5 C 8.02,22.96 7.33,22.66 6.59,22.65 c -0.74,-0.01 -1.44,0.27 -1.97,0.8 -0.44,0.44 -0.44,1.15 0,1.59 0.44,0.44 1.15,0.44 1.59,0 0.13,-0.12 0.27,-0.14 0.35,-0.14 0.07,0 0.22,0.02 0.34,0.15 l 0.72,0.76 c 0.75,0.79 1.76,1.24 2.85,1.25 z"
       fill="#bb1d80"
       id="path4" />
    <path
       d="m 27.68,7.00999 c 0,0.28719 -0.2328,0.52 -0.52,0.52 -0.2872,0 -0.52,-0.23281 -0.52,-0.52 0,-0.28719 0.2328,-0.52 0.52,-0.52 0.2872,0 0.52,0.23281 0.52,0.52 z"
       fill="#ff6dc6"
       id="path5" />
    <path
       d="m 26.91,8.29002 c 0,0.28719 -0.2328,0.52 -0.52,0.52 -0.2872,0 -0.52,-0.23281 -0.52,-0.52 0,-0.28719 0.2328,-0.52 0.52,-0.52 0.2872,0 0.52,0.23281 0.52,0.52 z"
       fill="#ff6dc6"
       id="path6" />
    <path
       d="m 28.33,10.1001 c 0,0.6461 -0.5238,1.17 -1.17,1.17 -0.6462,0 -1.17,-0.5239 -1.17,-1.17 0,-0.64622 0.5238,-1.17005 1.17,-1.17005 0.6462,0 1.17,0.52383 1.17,1.17005 z"
       fill="#ff6dc6"
       id="path7" />
    <path
       d="m 27.93,8.81002 c 0.2872,0 0.52,-0.23281 0.52,-0.52 0,-0.28719 -0.2328,-0.52 -0.52,-0.52 -0.2872,0 -0.52,0.23281 -0.52,0.52 0,0.28719 0.2328,0.52 0.52,0.52 z"
       fill="#ff6dc6"
       id="path8" />
    <path
       d="m 5.39001,11.2701 c 0.64617,0 1.17,-0.5239 1.17,-1.17 0,-0.64622 -0.52383,-1.17005 -1.17,-1.17005 -0.64617,0 -1.17,0.52383 -1.17,1.17005 0,0.6461 0.52383,1.17 1.17,1.17 z"
       fill="#ff6dc6"
       id="path9" />
    <path
       d="m 6.68001,8.29002 c 0,0.28719 -0.23281,0.52 -0.52,0.52 -0.28719,0 -0.52,-0.23281 -0.52,-0.52 0,-0.28719 0.23281,-0.52 0.52,-0.52 0.28719,0 0.52,0.23281 0.52,0.52 z"
       fill="#ff6dc6"
       id="path10" />
    <path
       d="m 4.62001,8.81002 c 0.28718,0 0.52,-0.23281 0.52,-0.52 0,-0.28719 -0.23282,-0.52 -0.52,-0.52 -0.28719,0 -0.52,0.23281 -0.52,0.52 0,0.28719 0.23281,0.52 0.52,0.52 z"
       fill="#ff6dc6"
       id="path11" />
    <path
       d="m 5.91001,7.00999 c 0,0.28719 -0.23281,0.52 -0.52,0.52 -0.28719,0 -0.52,-0.23281 -0.52,-0.52 0,-0.28719 0.23281,-0.52 0.52,-0.52 0.28719,0 0.52,0.23281 0.52,0.52 z"
       fill="#ff6dc6"
       id="path12" />
    <path
       d="M 13.63,3.89 C 14.02,2.76 15.08,2 16.28,2 c 1.2,0 2.26,0.76 2.66,1.89 l 4.18,11.68 c 0.43,1.48 0.02,3.07 -1.07,4.16 -0.2335,0.2335 -0.4923,0.4373 -0.77,0.6085 V 22.5 c 0,1.38 -1.12,2.5 -2.5,2.5 h -4.96 c -1.38,0 -2.5,-1.12 -2.5,-2.5 V 20.3569 C 11.0309,20.1819 10.7619,19.9719 10.52,19.73 9.43999,18.64 9.01999,17.05 9.44999,15.57 Z"
       fill="#f70a8d"
       id="path13" />
    <path
       d="m 15.28,12.5 c 0.4142,0 0.75,-0.3358 0.75,-0.75 0,-0.4142 -0.3358,-0.75 -0.75,-0.75 -0.4142,0 -0.75,0.3358 -0.75,0.75 0,0.4142 0.3358,0.75 0.75,0.75 z"
       fill="#bb1d80"
       id="path14" />
    <path
       d="m 18.28,13.62 c 0.6185,0 1.12,-0.5014 1.12,-1.12 0,-0.6186 -0.5015,-1.12 -1.12,-1.12 -0.6186,0 -1.12,0.5014 -1.12,1.12 0,0.6186 0.5014,1.12 1.12,1.12 z"
       fill="#bb1d80"
       id="path15" />
    <path
       d="m 16.53,14.9 c 0,0.6186 -0.5015,1.12 -1.12,1.12 -0.6186,0 -1.12,-0.5014 -1.12,-1.12 0,-0.6185 0.5014,-1.12 1.12,-1.12 0.6185,0 1.12,0.5015 1.12,1.12 z"
       fill="#bb1d80"
       id="path16" />
    <path
       d="m 14.59,22.65 c 0,0.4142 -0.3358,0.75 -0.75,0.75 -0.4142,0 -0.75,-0.3358 -0.75,-0.75 0,-0.4142 0.3358,-0.75 0.75,-0.75 0.4142,0 0.75,0.3358 0.75,0.75 z"
       fill="#1c1c1c"
       id="path17" />
    <path
       d="m 19.46,22.65 c 0,0.4142 -0.3358,0.75 -0.75,0.75 -0.4142,0 -0.75,-0.3358 -0.75,-0.75 0,-0.4142 0.3358,-0.75 0.75,-0.75 0.4142,0 0.75,0.3358 0.75,0.75 z"
       fill="#1c1c1c"
       id="path18" />
  </g>
</svg>
