<svg xmlns="http://www.w3.org/2000/svg" width="30" height="30" fill="none"><path fill="#ff822d" d="M12.638 2.202a2.936 2.936 0 0 1 4.724 0 2.936 2.936 0 0 0 3.25 1.055 2.936 2.936 0 0 1 3.822 2.778 2.936 2.936 0 0 0 2.008 2.763 2.936 2.936 0 0 1 1.46 4.494 2.936 2.936 0 0 0 0 3.416 2.936 2.936 0 0 1-1.46 4.494 2.936 2.936 0 0 0-2.008 2.763 2.936 2.936 0 0 1-3.823 2.778 2.936 2.936 0 0 0-3.249 1.055 2.936 2.936 0 0 1-4.724 0 2.936 2.936 0 0 0-3.25-1.055 2.936 2.936 0 0 1-3.822-2.778 2.936 2.936 0 0 0-2.008-2.763 2.936 2.936 0 0 1-1.46-4.494 2.936 2.936 0 0 0 0-3.416 2.936 2.936 0 0 1 1.46-4.494 2.936 2.936 0 0 0 2.008-2.763A2.936 2.936 0 0 1 9.39 3.257a2.936 2.936 0 0 0 3.249-1.055z"/><path fill="#fcd53f" d="M24.062 20.232c-2.89 5.005-9.29 6.72-14.294 3.83-5.005-2.89-6.72-9.29-3.83-14.294 2.89-5.005 9.29-6.72 14.294-3.83 5.005 2.89 6.72 9.29 3.83 14.294z"/></svg>