<?xml version="1.0" encoding="UTF-8" standalone="no"?>
<svg
   width="30"
   height="30"
   viewBox="0 0 30 30"
   fill="none"
   version="1.1"
   id="svg2"
   sodipodi:docname="sun_flat.svg"
   inkscape:version="1.3.2 (091e20e, 2023-11-25)"
   inkscape:export-filename="sun_flat.png"
   inkscape:export-xdpi="819.20001"
   inkscape:export-ydpi="819.20001"
   xmlns:inkscape="http://www.inkscape.org/namespaces/inkscape"
   xmlns:sodipodi="http://sodipodi.sourceforge.net/DTD/sodipodi-0.dtd"
   xmlns="http://www.w3.org/2000/svg"
   xmlns:svg="http://www.w3.org/2000/svg">
  <defs
     id="defs2" />
  <sodipodi:namedview
     id="namedview2"
     pagecolor="#ffffff"
     bordercolor="#000000"
     borderopacity="0.25"
     inkscape:showpageshadow="2"
     inkscape:pageopacity="0.0"
     inkscape:pagecheckerboard="0"
     inkscape:deskcolor="#d1d1d1"
     inkscape:zoom="7.375"
     inkscape:cx="16"
     inkscape:cy="16"
     inkscape:window-width="1312"
     inkscape:window-height="449"
     inkscape:window-x="0"
     inkscape:window-y="25"
     inkscape:window-maximized="0"
     inkscape:current-layer="svg2" />
  <path
     d="m 12.637608,2.201725 c 1.1734,-1.59036 3.5513,-1.59036 4.7248,0 v 0 c 0.7457,1.01064 2.0517,1.43499 3.249,1.05567 v 0 c 1.8841,-0.59689 3.8079,0.8008 3.8224,2.77716 v 0 c 0.0093,1.25594 0.8164,2.36689 2.0081,2.7638 v 0 c 1.8751,0.62459 2.6099,2.88609 1.46,4.49349 v 0 c -0.7307,1.0216 -0.7307,2.3948 0,3.4163 v 0 c 1.1499,1.6074 0.4151,3.8689 -1.46,4.4935 v 0 c -1.1917,0.3969 -1.9988,1.5079 -2.0081,2.7638 v 0 c -0.0145,1.9764 -1.9383,3.3741 -3.8224,2.7772 v 0 c -1.1973,-0.3793 -2.5033,0.045 -3.249,1.0556 v 0 c -1.1735,1.5904 -3.5514,1.5904 -4.7248,0 v 0 c -0.7457,-1.0106 -2.0517,-1.4349 -3.2489998,-1.0556 v 0 c -1.88416,0.5969 -3.80792,-0.8008 -3.82247,-2.7772 v 0 c -0.00924,-1.2559 -0.8164,-2.3669 -2.00801,-2.7638 v 0 c -1.87513,-0.6246 -2.60993997,-2.8861 -1.46004,-4.4935 v 0 c 0.73074,-1.0215 0.73074,-2.3947 0,-3.4163 v 0 c -1.14989997,-1.6074 -0.41509,-3.8689 1.46004,-4.49349 v 0 c 1.19161,-0.39691 1.99877,-1.50786 2.00801,-2.7638 v 0 c 0.01455,-1.97636 1.93831,-3.37405 3.82247,-2.77716 v 0 c 1.1972998,0.37932 2.5032998,-0.04503 3.2489998,-1.05567 z"
     fill="#ff822d"
     id="path1" />
  <path
     d="m 24.062224,20.232115 c -2.8896,5.0049 -9.2894,6.7197 -14.2943003,3.8301 -5.00493,-2.8896 -6.71975,-9.2894 -3.83015,-14.2943001 2.88959,-5.00492 9.2893503,-6.71973 14.2942503,-3.83014 5.005,2.8896 6.7198,9.2893401 3.8302,14.2943401 z"
     fill="#fcd53f"
     id="path2" />
</svg>
