<?xml version="1.0" encoding="UTF-8" standalone="no"?>
<svg
   width="30"
   height="30"
   viewBox="0 0 30 30"
   fill="none"
   version="1.1"
   id="svg16"
   sodipodi:docname="unicorn_flat.svg"
   inkscape:export-filename="unicorn_flat.png"
   inkscape:export-xdpi="819.20001"
   inkscape:export-ydpi="819.20001"
   inkscape:version="1.3.2 (091e20e, 2023-11-25)"
   xmlns:inkscape="http://www.inkscape.org/namespaces/inkscape"
   xmlns:sodipodi="http://sodipodi.sourceforge.net/DTD/sodipodi-0.dtd"
   xmlns="http://www.w3.org/2000/svg"
   xmlns:svg="http://www.w3.org/2000/svg">
  <defs
     id="defs16" />
  <sodipodi:namedview
     id="namedview16"
     pagecolor="#ffffff"
     bordercolor="#000000"
     borderopacity="0.25"
     inkscape:showpageshadow="2"
     inkscape:pageopacity="0.0"
     inkscape:pagecheckerboard="0"
     inkscape:deskcolor="#d1d1d1"
     inkscape:zoom="7.375"
     inkscape:cx="16"
     inkscape:cy="15.932203"
     inkscape:window-width="1312"
     inkscape:window-height="790"
     inkscape:window-x="0"
     inkscape:window-y="25"
     inkscape:window-maximized="0"
     inkscape:current-layer="svg16" />
  <g
     id="g16"
     transform="translate(-1.281683,-1.1400749)">
    <path
       d="M 5.39832,4.67964 5.48267,3.86398 6.28116,3.76245 8.58007,5.39733 8.36667,6.49762 7.15604,6.87677 Z"
       fill="#00d26a"
       id="path1" />
    <path
       d="M 8.70516,8.81318 7.15601,6.87676 8.58003,5.39734 10.6062,6.83823 10.0201,8.09668 Z"
       fill="#468cfb"
       id="path2" />
    <path
       d="M 6.29293,3.77084 5.4073,4.69091 3.87108,2.77066 C 3.65371,2.49895 3.99564,2.13711 4.2792,2.33876 Z"
       fill="#f9c23c"
       id="path3" />
    <path
       d="m 10.5541,6.80109 2.6553,1.88834 c 1.0827,2.64687 -1.0641,3.04477 -2.2728,2.91287 L 8.66534,8.76328 Z"
       fill="#8d65c5"
       id="path4" />
    <path
       d="m 11.5,6.78135 c 1.2187,-1.60294 6.658,-2.52902 3.608,0.43098 -1.81,1.76 -1.0536,3.63147 -3.3736,4.63147 C 7.82812,13.3281 6.6875,10.1252 7.09375,9.71884 7.5,9.3125 8.41061,10.1824 9.5156,9.71884 10.2024,9.43073 10.2813,8.38429 11.5,6.78135 Z"
       fill="#5092ff"
       id="path5" />
    <path
       d="m 5.78353,23.3498 8.61997,-1.88 c 0.149,-0.036 0.2995,-0.0769 0.4511,-0.1224 -3.5598,4.0811 -4.0066,8.637 -4.0066,8.637 h 15.33 c 2.14,0 3.82,-2.0821 3.62,-4.2221 C 29.2,19.4435 27.0127,7.81051 18.9693,7.73269 17.3618,6.50811 15.5018,6.21154 14.3835,7.3298 c -3.4178,3.4178 -6.62605,6.9759 -8.79448,9.3808 -0.6739,0.7474 -1.24738,1.3834 -1.69549,1.8692 -1.89,2.0489 -1.45,3.73 0.22,4.58 0.51,0.26 1.11,0.31 1.67,0.19 z"
       fill="#efd5ff"
       id="path6" />
    <path
       d="m 29.9062,16.9688 c 0,-3.6563 -2.3229,-4.2084 -3.2187,-4.1876 0.1979,0.7917 0.2812,3.3 -0.9688,7 -1.25,3.7 -0.2187,8.4688 0.4688,10.2188 2.6719,0 3.7187,-0.3438 3.7187,-2.2812 z"
       fill="#ff6dc6"
       id="path7" />
    <path
       d="m 27.375,17.2812 c 1.0625,-4 -1.875,-8.1562 -4.1875,-8.1562 0.8125,1.8542 1.3125,6.2188 0,8.3438 C 21.6918,19.8904 21.4531,26.5 22.2031,30 h 4.75 c -1.7,-4.825 -0.6406,-8.7188 0.4219,-12.7188 z"
       fill="#c790f1"
       id="path8" />
    <path
       d="M 14.9062,21.2813 C 22.625,14.875 18.5625,9.3125 13.4688,8.2501 c 7.1874,-5.46884 8.8645,5.4166 7.5937,9.1249 -2.1563,2.3125 -6.1563,3.9063 -6.1563,3.9063 z"
       fill="#bca4eb"
       id="path9" />
    <path
       d="m 22.7969,29.9844 h -6.625 c -1.59,-6.76 3.7962,-11.2621 4.1562,-16.3021 0.4,-5.72997 -3.74,-6.78997 -3.74,-6.78997 -1.32,0.33 1.01,1.24999 -1.58,1.24999 L 14.3281,6.69233 13.6406,5.5624 c 1.64,-0.45 3.8422,-0.82697 6.3594,0.40632 3.0994,1.5185 5.7531,5.48808 4.6875,9.56248 -1.0625,4.0626 -3.5781,6.9921 -1.8906,14.4532 z"
       fill="#5092ff"
       id="path10" />
    <path
       d="M 22.7969,29.9844 H 21.3837 C 21.0524,28.9835 20.7758,27.3759 20.8126,25.5 c 0.0568,-2.8982 0.682,-4.5047 2.1575,-8.2961 0.1472,-0.3783 0.303,-0.7786 0.4674,-1.2039 1.45,-3.75 -0.7083,-7.5 -1.6875,-8.75 l 0.1645,0.02351 c 2.1584,1.93495 3.6082,5.06419 2.773,8.25769 -0.2565,0.9809 -0.5977,1.8956 -0.9441,2.8241 -1.0881,2.9172 -2.2266,5.9693 -0.9465,11.6291 z"
       fill="#8d65c5"
       id="path11" />
    <path
       d="M 27.375,17.2812 C 27.9045,15.288 27.4407,13.256 26.5559,11.7188 H 26.5 c 0.0499,0.2821 0.1154,0.5813 0.1841,0.8953 0.3042,1.3898 0.672,3.0703 0.0347,4.8547 l -0.0038,0.0105 c -0.8242,2.3077 -2.4643,6.8997 -2.0587,9.4895 0.2145,1.37 0.6232,2.4797 0.8663,3.0312 h 1.4305 c -1.6859,-4.7851 -0.6579,-8.6542 0.3955,-12.6194 z"
       fill="#8d65c5"
       id="path12" />
    <path
       d="M 15.578,9.01565 C 13.7188,9.26562 13.1938,8.3125 13.0781,6.5625 12.9625,4.8125 12.9906,4.30127 12.9906,4.30127 c 0,-0.34 0.41,-0.51 0.65,-0.27 0,0 3.2813,2.59373 3.4219,3.53123 C 17.2031,8.5 16.3529,8.91147 15.578,9.01565 Z"
       fill="#efd5ff"
       id="path13" />
    <path
       d="m 12,12 c -0.5523,0 -1,0.4477 -1,1 v 1 c 0,0.5523 0.4477,1 1,1 0.5523,0 1,-0.4477 1,-1 v -1 c 0,-0.5523 -0.4477,-1 -1,-1 z"
       fill="#1c1c1c"
       id="path14" />
    <path
       d="m 4.91055,20.3011 c -0.3,0.3 -0.8,0.3 -1.1,0 l 1.1,-1.1001 c 0.3,0.31 0.3,0.8 0,1.1001 z"
       fill="#1c1c1c"
       id="path15" />
    <path
       d="m 8.68666,22.7166 -1.86378,0.4065 c 0.7745,-0.3012 1.26025,-1.1189 1.11368,-1.9719 -0.04787,-0.2786 0.13918,-0.5432 0.41778,-0.5911 0.2786,-0.0479 0.54326,0.1392 0.59114,0.4178 0.10578,0.6156 0.00226,1.2196 -0.25882,1.7387 z"
       fill="#1c1c1c"
       id="path16" />
  </g>
</svg>
