<?xml version="1.0" encoding="UTF-8" standalone="no"?>
<svg
   width="30"
   height="30"
   viewBox="0 0 30 30"
   fill="none"
   version="1.1"
   id="svg4"
   sodipodi:docname="waning_crescent_moon_flat.svg"
   inkscape:version="1.3.2 (091e20e, 2023-11-25)"
   inkscape:export-filename="waning_crescent_moon_flat.png"
   inkscape:export-xdpi="819.20001"
   inkscape:export-ydpi="819.20001"
   xmlns:inkscape="http://www.inkscape.org/namespaces/inkscape"
   xmlns:sodipodi="http://sodipodi.sourceforge.net/DTD/sodipodi-0.dtd"
   xmlns="http://www.w3.org/2000/svg"
   xmlns:svg="http://www.w3.org/2000/svg">
  <defs
     id="defs4" />
  <sodipodi:namedview
     id="namedview4"
     pagecolor="#ffffff"
     bordercolor="#000000"
     borderopacity="0.25"
     inkscape:showpageshadow="2"
     inkscape:pageopacity="0.0"
     inkscape:pagecheckerboard="0"
     inkscape:deskcolor="#d1d1d1"
     inkscape:zoom="7.375"
     inkscape:cx="16"
     inkscape:cy="16"
     inkscape:window-width="1312"
     inkscape:window-height="449"
     inkscape:window-x="0"
     inkscape:window-y="25"
     inkscape:window-maximized="0"
     inkscape:current-layer="svg4" />
  <g
     id="g4"
     transform="translate(-1,-1)">
    <path
       d="M 27,16 C 27,23.732 23.5,28.5 16,30 8.26801,30 2,23.732 2,16 2,8.26801 8.26801,2 16,2 22.5,4.5 27,8.26801 27,16 Z"
       fill="#fcd53f"
       id="path1" />
    <path
       d="M 15.681,29.9964 C 15.787,29.9988 15.8934,30 16,30 23.732,30 30,23.732 30,16 30,8.26801 23.732,2 16,2 15.8933,2 15.7869,2.00119 15.6809,2.00357 11.6054,5.30355 9,10.3475 9,15.9999 c 0,5.6526 2.6055,10.6966 6.681,13.9965 z"
       fill="#8d65c5"
       id="path2" />
    <path
       d="M 9.5,16 C 11.433,16 13,14.433 13,12.5 13,10.567 11.433,9 9.5,9 7.567,9 6,10.567 6,12.5 6,14.433 7.567,16 9.5,16 Z m -4.74988,8.3346 c 1.40369,1.8915 3.27312,3.4168 5.43868,4.4061 C 10.6953,28.1336 11,27.3524 11,26.5 11,24.567 9.433,23 7.50001,23 6.38459,23 5.39104,23.5218 4.75012,24.3346 Z"
       fill="#f9c23c"
       id="path3" />
    <path
       d="M 17,5.5 C 17,6.32843 16.3284,7 15.5,7 14.6716,7 14,6.32843 14,5.5 14,4.67157 14.6716,4 15.5,4 16.3284,4 17,4.67157 17,5.5 Z m 8,6 C 25,12.8807 23.8807,14 22.5,14 21.1193,14 20,12.8807 20,11.5 20,10.1193 21.1193,9 22.5,9 23.8807,9 25,10.1193 25,11.5 Z M 16.5,24 C 17.8807,24 19,22.8807 19,21.5 19,20.1193 17.8807,19 16.5,19 15.1193,19 14,20.1193 14,21.5 14,22.8807 15.1193,24 16.5,24 Z M 28.9554,21.316 C 28.0687,23.4748 26.658,25.3631 24.8816,26.8226 24.3331,26.2047 24,25.3912 24,24.5 24,22.567 25.567,21 27.5,21 c 0.5193,0 1.0122,0.1131 1.4554,0.316 z M 9.00138,15.7717 C 9.00059,15.8359 9.00012,15.9002 9,15.9645 9.1633,15.9879 9.33023,16 9.49999,16 11.433,16 13,14.433 13,12.5 13,10.8661 11.8804,9.49368 10.3666,9.10809 10.3305,9.19504 10.2951,9.28233 10.2603,9.36997 10.7209,10.0731 10.9999,10.9931 10.9999,12 c 0,1.7409 -0.8341,3.222 -1.99852,3.7717 z"
       fill="#6b438b"
       id="path4" />
  </g>
</svg>
