<svg xmlns="http://www.w3.org/2000/svg" width="30" height="30" fill="none"><path fill="#fcd53f" d="M26 15c0 7.732-3.5 12.5-11 14-7.732 0-14-6.268-14-14S7.268 1 15 1c6.5 2.5 11 6.268 11 14Z"/><path fill="#8d65c5" d="M14.681 28.996c.106.003.212.004.319.004 7.732 0 14-6.268 14-14S22.732 1 15 1c-.107 0-.213.001-.32.004C10.606 4.304 8 9.348 8 15c0 5.652 2.606 10.697 6.681 13.996z"/><path fill="#f9c23c" d="M8.5 15a3.5 3.5 0 1 0 0-7 3.5 3.5 0 0 0 0 7Zm-4.75 8.335A14.054 14.054 0 0 0 9.19 27.74a3.5 3.5 0 1 0-5.439-4.406Z"/><path fill="#6b438b" d="M16 4.5a1.5 1.5 0 1 1-3 0 1.5 1.5 0 0 1 3 0Zm8 6a2.5 2.5 0 1 1-5 0 2.5 2.5 0 0 1 5 0ZM15.5 23a2.5 2.5 0 1 0 0-5 2.5 2.5 0 0 0 0 5Zm12.455-2.684a14.038 14.038 0 0 1-4.073 5.507 3.5 3.5 0 0 1 4.074-5.507zM8.001 14.772 8 14.964a3.5 3.5 0 0 0 1.367-6.856c-.037.087-.072.174-.107.262.46.703.74 1.623.74 2.63 0 1.74-.834 3.222-1.999 3.772z"/></svg>