<?xml version="1.0" encoding="UTF-8" standalone="no"?>
<svg
   width="30"
   height="30"
   viewBox="0 0 30 30"
   fill="none"
   version="1.1"
   id="svg7"
   sodipodi:docname="water_wave_flat.svg"
   inkscape:export-filename="water_wave_flat.png"
   inkscape:export-xdpi="819.20001"
   inkscape:export-ydpi="819.20001"
   inkscape:version="1.3.2 (091e20e, 2023-11-25)"
   xmlns:inkscape="http://www.inkscape.org/namespaces/inkscape"
   xmlns:sodipodi="http://sodipodi.sourceforge.net/DTD/sodipodi-0.dtd"
   xmlns="http://www.w3.org/2000/svg"
   xmlns:svg="http://www.w3.org/2000/svg">
  <defs
     id="defs7" />
  <sodipodi:namedview
     id="namedview7"
     pagecolor="#ffffff"
     bordercolor="#000000"
     borderopacity="0.25"
     inkscape:showpageshadow="2"
     inkscape:pageopacity="0.0"
     inkscape:pagecheckerboard="0"
     inkscape:deskcolor="#d1d1d1"
     inkscape:zoom="7.375"
     inkscape:cx="16"
     inkscape:cy="16"
     inkscape:window-width="1312"
     inkscape:window-height="449"
     inkscape:window-x="0"
     inkscape:window-y="25"
     inkscape:window-maximized="0"
     inkscape:current-layer="svg7" />
  <g
     id="g7"
     transform="translate(-0.998805,-1.33527)">
    <path
       d="M 18.7303,8.60911 V 6.06653 H 7.03174 V 26.9651 H 26.0109 v -6.581 c -0.518,0.51 -1.5909,1.4249 -3.3069,1.9993 -0.9278,0.3105 -2.0809,0.4867 -3.3287,0.5452 -0.225,0.0213 -0.453,0.0321 -0.6836,0.0321 -3.9631,0 -7.1758,-3.2127 -7.1758,-7.1758 0,-3.9631 3.2127,-7.17589 7.1758,-7.17589 0.0129,0 0.0258,3e-5 0.0386,10e-5 z"
       fill="#26c9fc"
       id="path1" />
    <path
       d="m 2.00391,15.154 3e-5,13.8382 c 0,0.5523 0.44771,1 1,1 H 28.9937 c 0.5523,0 1,-0.4477 1,-1 v -11.148 c -2.488,0.9207 -4.0112,2.6633 -5.8808,4.1847 -1.7724,1.4423 -3.9615,2.6902 -7.1098,2.6902 -4.2487,0 -9.19597,-3.8218 -9.19597,-8.8333 0,-6.01883 5.18197,-8.58484 8.03457,-8.58484 1.1483,0 1.6387,0.24458 1.8344,0.36687 l 1.2106,1.65094 h 4.1824 V 8.3649 C 22.3965,6.46938 19.5251,2.67834 13.4203,2.67834 7.80713,2.67834 2.00391,8.3649 2.00391,15.154 Z"
       fill="#00a6ed"
       id="path2" />
    <path
       d="m 22.1939,5.86245 c 0,0.62828 -0.5093,1.1376 -1.1376,1.1376 -0.6283,0 -1.1376,-0.50932 -1.1376,-1.1376 0,-0.62828 0.5093,-1.1376 1.1376,-1.1376 0.6283,0 1.1376,0.50932 1.1376,1.1376 z"
       fill="#b4f6fc"
       id="path3" />
    <path
       d="m 27.9251,10.2761 c 0.6283,0 1.1376,-0.50937 1.1376,-1.13765 0,-0.62828 -0.5093,-1.1376 -1.1376,-1.1376 -0.6283,0 -1.1376,0.50932 -1.1376,1.1376 0,0.62828 0.5093,1.13765 1.1376,1.13765 z"
       fill="#b4f6fc"
       id="path4" />
    <path
       d="m 27.9251,16.1137 c 0.6283,0 1.1376,-0.5093 1.1376,-1.1376 0,-0.6283 -0.5093,-1.1376 -1.1376,-1.1376 -0.6283,0 -1.1376,0.5093 -1.1376,1.1376 0,0.6283 0.5093,1.1376 1.1376,1.1376 z"
       fill="#b4f6fc"
       id="path5" />
    <path
       d="m 19.1854,14.1376 c 0,0.6283 -0.5094,1.1376 -1.1376,1.1376 -0.6283,0 -1.1376,-0.5093 -1.1376,-1.1376 0,-0.6283 0.5093,-1.1376 1.1376,-1.1376 0.6282,0 1.1376,0.5093 1.1376,1.1376 z"
       fill="#b4f6fc"
       id="path6" />
    <path
       d="m 25.023,13.1946 c 0.6283,0 1.1376,-0.5093 1.1376,-1.1376 0,-0.4436 -0.254,-0.828 -0.6245,-1.0155 C 25.8288,10.6142 26,10.0971 26,9.54011 c 0,-1.469 -1.1908,-2.65986 -2.6598,-2.65986 -0.9148,0 -1.7218,0.46181 -2.2004,1.16501 -0.4787,-0.7032 -1.2856,-1.16501 -2.2004,-1.16501 -0.8045,0 -1.5255,0.35713 -2.0132,0.92149 -0.4878,-0.56436 -1.2088,-0.92149 -2.0133,-0.92149 -1.469,0 -2.6598,1.19086 -2.6598,2.65986 0,1.46899 1.1908,2.65989 2.6598,2.65989 0.8045,0 1.5255,-0.3572 2.0133,-0.9215 0.4877,0.5643 1.2087,0.9215 2.0132,0.9215 0.9148,0 1.7217,-0.4618 2.2004,-1.165 0.4786,0.7032 1.2856,1.165 2.2004,1.165 0.188,0 0.3714,-0.0195 0.5484,-0.0566 0.0441,0.5879 0.5351,1.0512 1.1344,1.0512 z"
       fill="#b4f6fc"
       id="path7" />
  </g>
</svg>
