<?xml version="1.0" encoding="UTF-8" standalone="no"?>
<svg
   width="30"
   height="30"
   viewBox="0 0 30 30"
   fill="none"
   version="1.1"
   id="svg2"
   sodipodi:docname="white_square_button_flat.svg"
   inkscape:export-filename="white_square_button_flat.png"
   inkscape:export-xdpi="819.20001"
   inkscape:export-ydpi="819.20001"
   inkscape:version="1.3.2 (091e20e, 2023-11-25)"
   xmlns:inkscape="http://www.inkscape.org/namespaces/inkscape"
   xmlns:sodipodi="http://sodipodi.sourceforge.net/DTD/sodipodi-0.dtd"
   xmlns="http://www.w3.org/2000/svg"
   xmlns:svg="http://www.w3.org/2000/svg">
  <defs
     id="defs2" />
  <sodipodi:namedview
     id="namedview2"
     pagecolor="#ffffff"
     bordercolor="#000000"
     borderopacity="0.25"
     inkscape:showpageshadow="2"
     inkscape:pageopacity="0.0"
     inkscape:pagecheckerboard="0"
     inkscape:deskcolor="#d1d1d1"
     inkscape:zoom="7.375"
     inkscape:cx="16"
     inkscape:cy="15.932203"
     inkscape:window-width="1312"
     inkscape:window-height="642"
     inkscape:window-x="149"
     inkscape:window-y="236"
     inkscape:window-maximized="0"
     inkscape:current-layer="svg2" />
  <path
     d="M 1,4 C 1,2.34315 2.34315,1 4,1 h 22 c 1.6569,0 3,1.34315 3,3 v 22 c 0,1.6569 -1.3431,3 -3,3 H 4 C 2.34315,29 1,27.6569 1,26 Z"
     fill="#ffffff"
     id="path1" />
  <path
     d="M 4,6 C 4,4.89543 4.89543,4 6,4 h 18 c 1.1046,0 2,0.89543 2,2 v 18 c 0,1.1046 -0.8954,2 -2,2 H 6 C 4.89543,26 4,25.1046 4,24 Z"
     fill="#000000"
     id="path2" />
</svg>
