<svg xmlns="http://www.w3.org/2000/svg" width="30" height="30" fill="none"><g fill="#9b9b9b"><path d="M12.445 19.64C12.445 20.943 13.59 22 15 22c1.41 0 2.555-1.057 2.555-2.37v-1.702c0-.11.074-.208.18-.242 3.35-1.057 5.673-3.99 5.673-7.347V9.086c0-4.24-3.69-7.774-8.228-7.862-2.28-.049-4.431.744-6.064 2.213-1.622 1.469-2.524 3.446-2.524 5.551 0 1.312 1.156 2.37 2.566 2.37s2.555-1.058 2.555-2.36c0-.822.35-1.596.986-2.173a3.394 3.394 0 0 1 2.375-.872c1.781.04 3.223 1.45 3.223 3.143v1.243c0 1.469-1.123 2.732-2.682 2.996-1.834.314-3.17 1.792-3.17 3.515zM14.908 28.778a2.5 2.5 0 1 0 0-5 2.5 2.5 0 0 0 0 5z"/></g></svg>