<?xml version="1.0" encoding="UTF-8" standalone="no"?>
<svg
   width="31"
   height="31"
   viewBox="0 0 31 31"
   fill="none"
   version="1.1"
   id="svg2"
   sodipodi:docname="white_large_square_flat.svg"
   inkscape:version="1.3.2 (091e20e, 2023-11-25)"
   inkscape:export-filename="white_large_square_flat.png"
   inkscape:export-xdpi="792.77417"
   inkscape:export-ydpi="792.77417"
   xmlns:inkscape="http://www.inkscape.org/namespaces/inkscape"
   xmlns:sodipodi="http://sodipodi.sourceforge.net/DTD/sodipodi-0.dtd"
   xmlns="http://www.w3.org/2000/svg"
   xmlns:svg="http://www.w3.org/2000/svg">
  <defs
     id="defs2" />
  <sodipodi:namedview
     id="namedview2"
     pagecolor="#ffffff"
     bordercolor="#000000"
     borderopacity="0.25"
     inkscape:showpageshadow="2"
     inkscape:pageopacity="0.0"
     inkscape:pagecheckerboard="0"
     inkscape:deskcolor="#d1d1d1"
     inkscape:zoom="7.375"
     inkscape:cx="15.864407"
     inkscape:cy="15.932203"
     inkscape:window-width="1552"
     inkscape:window-height="818"
     inkscape:window-x="0"
     inkscape:window-y="25"
     inkscape:window-maximized="0"
     inkscape:current-layer="svg2" />
  <path
     d="m 3.500015,1 c -1.38071,0 -2.5,1.11929 -2.5,2.5 v 24 c 0,1.3807 1.11929,2.5 2.5,2.5 h 23.99997 c 1.3807,0 2.5,-1.1193 2.5,-2.5 v -24 c 0,-1.38071 -1.1193,-2.5 -2.5,-2.5 z"
     fill="#9b9b9b"
     id="path1" />
  <path
     d="m 2.000015,3.5 c 0,-0.82843 0.67158,-1.5 1.5,-1.5 h 23.99997 c 0.8285,0 1.5,0.67157 1.5,1.5 v 24 c 0,0.8284 -0.6715,1.5 -1.5,1.5 H 3.500015 c -0.82842,0 -1.5,-0.6716 -1.5,-1.5 z"
     fill="#ffffff"
     id="path2" />
</svg>
