<?xml version="1.0" encoding="UTF-8" standalone="no"?>
<svg
   width="28"
   height="28"
   viewBox="0 0 28 28"
   fill="none"
   version="1.1"
   id="svg7"
   sodipodi:docname="wood_flat.svg"
   inkscape:export-filename="wood_flat.png"
   inkscape:export-xdpi="877.71429"
   inkscape:export-ydpi="877.71429"
   inkscape:version="1.3.2 (091e20e, 2023-11-25)"
   xmlns:inkscape="http://www.inkscape.org/namespaces/inkscape"
   xmlns:sodipodi="http://sodipodi.sourceforge.net/DTD/sodipodi-0.dtd"
   xmlns="http://www.w3.org/2000/svg"
   xmlns:svg="http://www.w3.org/2000/svg">
  <defs
     id="defs7" />
  <sodipodi:namedview
     id="namedview7"
     pagecolor="#ffffff"
     bordercolor="#000000"
     borderopacity="0.25"
     inkscape:showpageshadow="2"
     inkscape:pageopacity="0.0"
     inkscape:pagecheckerboard="0"
     inkscape:deskcolor="#d1d1d1"
     inkscape:zoom="7.375"
     inkscape:cx="16"
     inkscape:cy="16"
     inkscape:window-width="1312"
     inkscape:window-height="449"
     inkscape:window-x="0"
     inkscape:window-y="25"
     inkscape:window-maximized="0"
     inkscape:current-layer="svg7" />
  <g
     id="g7"
     transform="translate(-1.7499937,-1.999975)">
    <path
       d="M 24,6.5 H 8 v 19 c 0,1.933 3.5817,3.5 8,3.5 4.4183,0 8,-1.567 8,-3.5 z"
       fill="#6d4534"
       id="path1" />
    <path
       d="m 15.9999,9.99995 c 4.4183,0 8,-1.567 8,-3.5 0,-1.93299 -3.5817,-3.5 -8,-3.5 -4.4182,0 -7.99996,1.56701 -7.99996,3.5 0,0.63677 0.32076,1.1814 1,1.6958 0.0223,0.01758 -0.02297,-0.01739 0,0 V 14.5 c 0,0.2761 0.22386,0.5 0.5,0.5 0.27614,0 0.5,-0.2239 0.5,-0.5 V 8.8151 c 0.02696,0.0138 -0.02747,-0.01362 0,0 1.46726,0.7504 3.56586,1.18485 5.99996,1.18485 z"
       fill="#a56953"
       id="path2" />
    <path
       d="M 27.3536,10.7677 24,14.1213 V 25.5 c 0,0.8876 -0.7553,1.6981 -2.0001,2.3151 V 23.5 c 0,-0.2761 -0.2238,-0.5 -0.5,-0.5 -0.2735,0 -0.4957,0.2196 -0.4999,0.4921 v -9.5779 c 0,-0.6631 0.2634,-1.2989 0.7322,-1.7678 l 3.5,-3.49999 c 0.3906,-0.39053 1.0237,-0.39052 1.4142,0 l 0.7072,0.70711 c 0.3905,0.39052 0.3905,1.02368 0,1.41418 z"
       fill="#a56953"
       id="path3" />
    <path
       d="m 4.14641,19.2677 3.85355,3.8536 V 25.5 c 1e-5,1.1053 1.17108,2.0909 3.00004,2.7323 v -5.3181 c 0,-0.6631 -0.2634,-1.299 -0.7323,-1.7678 l -3.99997,-4 c -0.39053,-0.3905 -1.02369,-0.3905 -1.41421,0 l -0.70711,0.7071 c -0.39053,0.3905 -0.39053,1.0237 0,1.4142 z"
       fill="#a56953"
       id="path4" />
    <path
       d="m 11.9999,15.5 c 0,-0.2761 0.2239,-0.5 0.5,-0.5 0.2762,0 0.5,0.2239 0.5,0.5 v 4 c 0,0.2761 -0.2238,0.5 -0.5,0.5 -0.2761,0 -0.5,-0.2239 -0.5,-0.5 z"
       fill="#a56953"
       id="path5" />
    <path
       d="M 23,6.25 C 23,7.76878 19.866,9 16,9 12.134,9 9,7.76878 9,6.25 9,4.73122 12.134,3.5 16,3.5 c 3.866,0 7,1.23122 7,2.75 z"
       fill="#f3ad61"
       id="path6" />
    <path
       d="M 16,8 C 18.7614,8 21,7.16053 21,6.125 21,5.08947 18.7614,4.25 16,4.25 13.2386,4.25 11,5.08947 11,6.125 11,7.16053 13.2386,8 16,8 Z m 0,-1 c -1.6569,0 -3,-0.44772 -3,-1 0,-0.55228 1.3431,-1 3,-1 1.6569,0 3,0.44772 3,1 0,0.55228 -1.3431,1 -3,1 z"
       fill="#6d4534"
       id="path7" />
  </g>
</svg>
