<svg xmlns="http://www.w3.org/2000/svg" width="28" height="28" fill="none"><path fill="#6d4534" d="M22.25 4.5h-16v19c0 1.933 3.582 3.5 8 3.5s8-1.567 8-3.5z"/><path fill="#a56953" d="M14.25 8c4.418 0 8-1.567 8-3.5s-3.582-3.5-8-3.5-8 1.567-8 3.5c0 .637.32 1.181 1 1.696.022.017-.023-.018 0 0V12.5a.5.5 0 0 0 1 0V6.815c.027.014-.028-.013 0 0 1.467.75 3.566 1.185 6 1.185zM25.604 8.768 22.25 12.12V23.5c0 .888-.755 1.698-2 2.315V21.5a.5.5 0 0 0-1-.008v-9.578a2.5 2.5 0 0 1 .732-1.768l3.5-3.5a1 1 0 0 1 1.414 0l.708.708a1 1 0 0 1 0 1.414zM2.396 17.268 6.25 21.12V23.5c0 1.105 1.171 2.09 3 2.732v-5.318a2.5 2.5 0 0 0-.732-1.768l-4-4a1 1 0 0 0-1.414 0l-.708.708a1 1 0 0 0 0 1.414zM10.25 13.5a.5.5 0 0 1 1 0v4a.5.5 0 1 1-1 0z"/><path fill="#f3ad61" d="M21.25 4.25c0 1.519-3.134 2.75-7 2.75s-7-1.231-7-2.75 3.134-2.75 7-2.75 7 1.231 7 2.75z"/><path fill="#6d4534" d="M14.25 6c2.761 0 5-.84 5-1.875 0-1.036-2.239-1.875-5-1.875s-5 .84-5 1.875c0 1.036 2.239 1.875 5 1.875Zm0-1c-1.657 0-3-.448-3-1s1.343-1 3-1 3 .448 3 1-1.343 1-3 1z"/></svg>