<svg width="194" height="91" viewBox="0 0 194 91" xmlns="http://www.w3.org/2000/svg" xmlns:xlink="http://www.w3.org/1999/xlink">
    <defs>
        <path id="a" d="M0 90.244h193.599V.001H0z"/>
    </defs>
    <g fill="none" fill-rule="evenodd">
        <path d="M3.69 90.03v-4.576c0-.437.039-.662-.13-.84-.155-.154-.333-.143-.536-.143H1.726v-.913h.154c.513 0 .955-.01 1.394-.33.43-.311.573-.713.691-1.199h1.19v8.002H3.692zM11.654 84.01c-.214-.7-.773-.82-1.06-.82-.095 0-.309.025-.523.142-.597.333-.597 1.021-.597 1.185 0 .216.038.418.049.475.06.249.299.902 1.083.902.716 0 .966-.522 1.048-.76a2.03 2.03 0 0 0 .072-.543c0-.096.011-.322-.072-.582m1.167 4.694c-.165.296-.38.569-.631.795-.368.32-.714.437-.903.497a3.262 3.262 0 0 1-.941.142c-.357 0-1.408-.06-2.039-1.007-.272-.415-.343-.842-.38-1.02l1.634-.226c.009.071.033.262.116.44a.894.894 0 0 0 .858.497.971.971 0 0 0 .513-.13c.644-.403.81-1.566.798-2.216a1.17 1.17 0 0 1-.477.415c-.357.2-.713.284-1.133.284-.56 0-1.046-.142-1.487-.497-.62-.524-.823-1.234-.823-2.017 0-.19.014-.735.241-1.243.236-.546.95-1.519 2.489-1.519.211 0 .878.025 1.427.369.145.093.347.224.595.533.167.213.263.38.312.475.272.508.497 1.196.497 2.43 0 1.019-.115 2.062-.666 2.998M18.166 84.01c-.214-.7-.774-.82-1.062-.82-.093 0-.307.025-.521.142-.598.333-.598 1.021-.598 1.185 0 .216.038.418.049.475.06.249.299.902 1.084.902.716 0 .965-.522 1.048-.76a2.03 2.03 0 0 0 .071-.543c0-.096.011-.322-.071-.582m1.166 4.694c-.165.296-.38.569-.631.795-.368.32-.714.437-.903.497a3.262 3.262 0 0 1-.941.142c-.357 0-1.407-.06-2.038-1.007-.272-.415-.344-.842-.382-1.02l1.635-.226c.009.071.033.262.116.44a.894.894 0 0 0 .858.497.971.971 0 0 0 .513-.13c.645-.403.81-1.566.799-2.216a1.17 1.17 0 0 1-.478.415c-.356.2-.713.284-1.132.284-.56 0-1.046-.142-1.488-.497-.62-.524-.823-1.234-.823-2.017 0-.19.014-.735.241-1.243.237-.546.95-1.519 2.489-1.519.212 0 .878.025 1.427.369.145.093.348.224.595.533.168.213.263.38.312.475.273.508.498 1.196.498 2.43 0 1.019-.116 2.062-.667 2.998M25.415 84.4c-.68 1.055-1.073 1.956-1.432 3.141a12.715 12.715 0 0 0-.472 2.49h-1.967c.452-3.402 2.25-5.62 2.966-6.627h-3.633v-1.398h5.334v1.303c-.285.346-.549.712-.796 1.092M35.952 90.03l-3.679-5.868.096 5.869H30.83v-8.37h1.419l3.728 5.904-.192-5.904h1.548v8.37zM41.536 85.206c-.132 0-.488.024-.807.226-.313.2-.727.688-.727 1.576 0 .284.022.533.118.806.094.284.513 1.092 1.487 1.092 1.086 0 1.572-.95 1.539-1.887-.025-.923-.56-1.813-1.61-1.813m2.859 3.165c-.237.606-1.013 1.838-2.788 1.838-.25 0-.762-.012-1.344-.273-.62-.273-1.75-1.104-1.75-2.893 0-.639.178-1.114.262-1.327.25-.592 1.013-1.79 2.785-1.79.226 0 .752.023 1.312.272.642.273 1.75 1.068 1.761 2.845 0 .214-.011.77-.238 1.328M49.582 85.822a1.416 1.416 0 0 0-1.166-.603c-.368 0-.68.13-.928.39-.477.486-.466 1.161-.466 1.352 0 .58.107 1.232.607 1.611.12.082.419.284.847.284.223 0 .75-.07 1.082-.592.31-.473.347-1.126.347-1.256.01-.154 0-.735-.323-1.186m.323 4.042a2.596 2.596 0 0 1-1.24.344c-.31 0-.809-.06-1.368-.533a2.923 2.923 0 0 1-.264-.262v.618h-1.416v-8.37h1.416l.012 2.94a2.5 2.5 0 0 1 .191-.166 2.588 2.588 0 0 1 1.512-.508 2.42 2.42 0 0 1 1.726.746c.36.366.894 1.114.894 2.359 0 1.114-.45 2.264-1.463 2.832M56.248 85.822c-.132-.284-.44-.759-1.213-.759-.312 0-.477.06-.598.109-.664.27-.82.934-.856 1.136h2.787s-.035-.284-.12-.486m1.19 3.498a3.472 3.472 0 0 1-2.356.888c-.382 0-1.323-.047-2.132-.795-.678-.639-.93-1.458-.93-2.381 0-.5.074-.972.263-1.423.263-.592 1.001-1.682 2.727-1.682 1.334 0 2.036.688 2.346 1.136.274.415.549 1.139.584 2.289h-4.408c.024.177.085.546.381.9.203.25.56.569 1.3.569.738 0 1.169-.344 1.358-.546.047-.047.118-.14.201-.27l1.215.698c-.096.129-.263.355-.548.617" fill="#1D1D1B"/>
        <mask id="b" fill="#fff">
            <use xlink:href="#a"/>
        </mask>
        <path fill="#1D1D1B" mask="url(#b)" d="M58.887 90.031h1.454v-8.37h-1.454zM69.553 83.618C69.196 83 68.494 83 67.888 83h-1.205v2.905h1.133c.107 0 .225-.013.332-.013.81-.036 1.169-.284 1.37-.615.082-.142.227-.453.227-.877 0-.262-.06-.546-.192-.783m.692 3.094c-.727.462-1.512.473-2.333.473h-1.229v2.845h-1.572v-8.367h2.834c.203 0 .406-.014.61 0 .367.022 1.426.095 2.178.972.609.699.63 1.48.63 1.813 0 1.303-.677 1.98-1.118 2.264M75.729 85.822c-.132-.284-.44-.759-1.213-.759-.312 0-.477.06-.598.109-.664.27-.82.934-.856 1.136h2.787s-.035-.284-.12-.486m1.19 3.498a3.472 3.472 0 0 1-2.356.888c-.382 0-1.323-.047-2.132-.795-.678-.639-.93-1.458-.93-2.381 0-.5.074-.972.263-1.423.263-.592 1.001-1.682 2.727-1.682 1.334 0 2.036.688 2.346 1.136.274.415.549 1.139.584 2.289h-4.408c.024.177.085.546.381.9.203.25.56.569 1.3.569.738 0 1.169-.344 1.358-.546.047-.047.118-.14.2-.27l1.216.698c-.096.129-.263.355-.548.617M81.861 87.08c-.239.117-.548.235-1.133.33-.319.06-.666.071-.963.251-.203.129-.346.33-.346.59 0 .355.261.702.977.702.785 0 1.249-.404 1.383-.677.093-.189.082-.355.082-.546v-.65zm0 2.951-.038-.463c-.225.19-.426.286-.546.332a2.796 2.796 0 0 1-1.204.273c-.286 0-1.356-.037-1.902-.914a1.664 1.664 0 0 1-.263-.948c0-.33.082-.996.809-1.48.488-.333.954-.404 1.5-.51.881-.178 1.203-.25 1.644-.402 0-.156-.013-.347-.082-.489-.12-.224-.42-.401-.944-.401-.546 0-.892.164-1.048.366-.165.202-.154.44-.154.524l-1.451-.085c.009-.262.058-.887.642-1.362.37-.309.93-.546 1.967-.546.974 0 1.547.202 1.915.463.25.178.382.378.428.473.156.309.156.724.156 1.057v3.151c0 .45.023.582.261.961h-1.69zM89.393 89.082c-.535.724-1.418 1.126-2.31 1.126-.214 0-.704-.036-1.24-.271-1.583-.724-1.701-2.373-1.701-2.87 0-.724.2-1.423.644-1.99a2.91 2.91 0 0 1 2.369-1.15c.38 0 .762.07 1.106.212a2.79 2.79 0 0 1 1.456 1.47l-1.278.592a1.4 1.4 0 0 0-.357-.603c-.165-.167-.45-.404-.999-.404-.417 0-.751.144-1.023.464-.442.508-.442 1.172-.442 1.374 0 .308.047.532.085.652.178.688.667 1.196 1.414 1.196 1.025 0 1.335-.9 1.442-1.16l1.216.639a3.048 3.048 0 0 1-.382.723M94.46 85.822c-.13-.284-.438-.759-1.212-.759-.312 0-.477.06-.598.109-.664.27-.82.934-.856 1.136h2.787s-.035-.284-.12-.486m1.19 3.498a3.472 3.472 0 0 1-2.356.888c-.382 0-1.323-.047-2.132-.795-.678-.639-.93-1.458-.93-2.381 0-.5.074-.972.263-1.423.263-.592 1.001-1.682 2.727-1.682 1.334 0 2.036.688 2.346 1.136.274.415.549 1.139.584 2.289h-4.408c.024.177.085.546.381.9.203.25.56.569 1.3.569.738 0 1.169-.344 1.358-.546.047-.047.118-.14.2-.27l1.216.698c-.096.129-.263.355-.548.617M104.977 83.618C104.62 83 103.917 83 103.31 83h-1.204v2.905h1.132c.107 0 .226-.013.333-.013.81-.036 1.168-.284 1.369-.615.082-.142.227-.453.227-.877 0-.262-.06-.546-.191-.783m.69 3.094c-.726.462-1.511.473-2.332.473h-1.228v2.845h-1.572v-8.367h2.834c.203 0 .406-.014.609 0 .367.022 1.427.095 2.178.972.609.699.631 1.48.631 1.813 0 1.303-.678 1.98-1.12 2.264M109.06 86.522c-.11.331-.11.628-.11.97v2.54h-1.38v-5.929h1.38v.844c.096-.18.217-.358.357-.489.477-.461 1.253-.484 1.418-.484h.12v1.456c-.298 0-1.442 0-1.785 1.092M111.612 90.029h1.419v-5.926h-1.419v5.926zm0-6.85h1.419v-1.433h-1.419v1.433zM113.998 90.03v-1.09l3.214-3.568h-2.892v-1.268h4.774v1.101l-3.144 3.57h3.144v1.256zM123.793 85.822c-.131-.284-.439-.759-1.213-.759-.312 0-.477.06-.597.109-.665.27-.82.934-.857 1.136h2.788s-.036-.284-.12-.486m1.19 3.498a3.472 3.472 0 0 1-2.357.888c-.381 0-1.322-.047-2.132-.795-.677-.639-.93-1.458-.93-2.381 0-.5.074-.972.264-1.423.263-.592 1-1.682 2.727-1.682 1.333 0 2.036.688 2.346 1.136.274.415.548 1.139.584 2.289h-4.409c.025.177.085.546.382.9.203.25.56.569 1.3.569.738 0 1.168-.344 1.358-.546.047-.047.118-.14.2-.27l1.216.698c-.096.129-.263.355-.549.617M136.262 88.821c-.392.5-1.308 1.423-3 1.423-.286 0-.964-.025-1.691-.355-.952-.45-2.239-1.59-2.239-4.066 0-.451 0-1.647.774-2.75.406-.582 1.371-1.625 3.215-1.625 1.608 0 2.453.794 2.834 1.327.275.404.44.82.585 1.259l-1.559.401a1.976 1.976 0 0 0-.216-.663c-.324-.593-.952-.901-1.621-.888-.473 0-.81.142-.975.224-.62.309-1.336 1.114-1.336 2.679 0 .238.014 1.232.502 1.98a2.198 2.198 0 0 0 1.833.996c.656 0 1.144-.262 1.548-.759.17-.202.298-.45.334-.51a3.92 3.92 0 0 0 .154-.415l1.49.617c-.179.426-.346.757-.632 1.125M140.332 85.206c-.131 0-.488.024-.807.226-.312.2-.727.688-.727 1.576 0 .284.023.533.118.806.094.284.513 1.092 1.488 1.092 1.086 0 1.572-.95 1.538-1.887-.024-.923-.56-1.813-1.61-1.813m2.86 3.165c-.237.606-1.013 1.838-2.788 1.838-.25 0-.763-.012-1.345-.273-.62-.273-1.75-1.104-1.75-2.893 0-.639.178-1.114.263-1.327.25-.592 1.012-1.79 2.785-1.79.225 0 .751.023 1.311.272.642.273 1.75 1.068 1.762 2.845 0 .214-.011.77-.239 1.328M144.14 87.101h3.443v-1.338h-3.443zM148.87 90.03v-8.37h1.586v6.948h3.334v1.423zM158.17 87.08c-.24.117-.55.235-1.133.33-.32.06-.667.071-.964.251-.203.129-.345.33-.345.59 0 .355.26.702.976.702.785 0 1.249-.404 1.383-.677.093-.189.082-.355.082-.546v-.65zm0 2.951-.039-.463c-.225.19-.426.286-.546.332a2.796 2.796 0 0 1-1.204.273c-.285 0-1.356-.037-1.902-.914a1.664 1.664 0 0 1-.263-.948c0-.33.082-.996.81-1.48.488-.333.954-.404 1.5-.51.88-.178 1.202-.25 1.643-.402 0-.156-.013-.347-.082-.489-.12-.224-.42-.401-.943-.401-.547 0-.892.164-1.048.366-.165.202-.154.44-.154.524l-1.452-.085c.009-.262.058-.887.642-1.362.37-.309.93-.546 1.967-.546.974 0 1.548.202 1.915.463.25.178.382.378.429.473.156.309.156.724.156 1.057v3.151c0 .45.022.582.26.961h-1.69zM164.905 90.03l-.011-.603c-.3.273-.881.746-1.918.746-.99 0-1.476-.427-1.715-.784-.381-.557-.346-1.232-.346-1.871v-3.414h1.44v3.199c0 .488-.021 1.067.478 1.351.19.12.464.178.691.178.69 0 1.037-.448 1.153-.661.241-.453.228-1.092.228-1.554v-2.513h1.429v5.927h-1.43zM169.177 86.522c-.11.331-.11.628-.11.97v2.54h-1.38v-5.929h1.38v.844c.097-.18.217-.358.358-.489.477-.461 1.253-.484 1.418-.484h.12v1.456c-.299 0-1.442 0-1.786 1.092M175.29 85.822c-.132-.284-.44-.759-1.213-.759-.313 0-.478.06-.598.109-.664.27-.82.934-.856 1.136h2.787s-.036-.284-.12-.486m1.19 3.498a3.472 3.472 0 0 1-2.357.888c-.38 0-1.322-.047-2.131-.795-.678-.639-.93-1.458-.93-2.381 0-.5.073-.972.263-1.423.263-.592 1.001-1.682 2.727-1.682 1.334 0 2.036.688 2.346 1.136.274.415.549 1.139.584 2.289h-4.408c.024.177.084.546.381.9.203.25.56.569 1.3.569.738 0 1.168-.344 1.358-.546.047-.047.118-.14.2-.27l1.216.698c-.096.129-.263.355-.549.617M181.42 87.08c-.239.117-.549.235-1.133.33-.319.06-.667.071-.963.251-.203.129-.346.33-.346.59 0 .355.261.702.977.702.785 0 1.249-.404 1.382-.677.094-.189.083-.355.083-.546v-.65zm0 2.951-.038-.463c-.223.19-.426.286-.546.332a2.794 2.794 0 0 1-1.202.273c-.288 0-1.358-.037-1.907-.914a1.685 1.685 0 0 1-.26-.948c0-.33.082-.996.809-1.48.488-.333.954-.404 1.5-.51.881-.178 1.202-.25 1.644-.402 0-.156-.013-.347-.083-.489-.12-.224-.419-.401-.94-.401-.55 0-.895.164-1.05.366-.166.202-.155.44-.155.524l-1.451-.085c.008-.262.058-.887.642-1.362.37-.309.93-.546 1.967-.546.974 0 1.547.202 1.915.463.25.178.381.378.428.473.156.309.156.724.156 1.057v3.151c0 .45.023.582.261.961h-1.69zM186.01 90.078c-.787 0-1.19-.188-1.429-.475a.838.838 0 0 1-.178-.344c-.058-.188-.072-.603-.072-1.125V85.11h-.87v-1.008h.87v-2.11h1.43v2.11h1.273v1.008h-1.273v2.692c0 .238-.036.686.142.877.168.189.513.178.549.178.203 0 .403-.025.582-.072v1.197c-.19.024-.535.095-1.024.095M191.409 85.822c-.132-.284-.44-.759-1.213-.759-.313 0-.478.06-.598.109-.665.27-.82.934-.856 1.136h2.787s-.036-.284-.12-.486m1.19 3.498a3.472 3.472 0 0 1-2.357.888c-.38 0-1.322-.047-2.131-.795-.678-.639-.93-1.458-.93-2.381 0-.5.073-.972.263-1.423.263-.592 1.001-1.682 2.727-1.682 1.334 0 2.036.688 2.346 1.136.274.415.548 1.139.584 2.289h-4.408c.024.177.084.546.381.9.203.25.56.569 1.3.569.738 0 1.168-.344 1.358-.546.047-.047.118-.14.2-.27l1.216.698c-.096.129-.263.355-.549.617"/>
        <path d="M142.26 21.687c0-1.012 0-1.398-.194-1.88-.484-1.398-2.034-1.445-3.292-1.445h-2.711V29.11h2.662c.533 0 1.113 0 1.599-.097 1.354-.193 1.936-1.012 1.936-3.325v-4zM141.825 8c0-.82-.05-1.06-.147-1.494-.435-1.59-1.789-1.638-3.098-1.638h-2.517v8.578h2.274c.872 0 1.31-.049 1.695-.095 1.21-.242 1.793-.963 1.793-3.039V8zm6.585 20.29c-.05.82-.244 3.807-3.004 5.059-1.5.677-3.242.677-4.841.677h-10.797V0h10.603c2.033 0 3.971-.046 5.664 1.301 1.94 1.494 2.033 3.47 2.033 5.64v3.036c0 .096 0 1.494-.191 2.41-.631 2.842-2.761 3.132-3.778 3.325 1.987.384 2.76.866 3.39 1.638 1.065 1.396.967 2.988.967 4.577v4.82c0 .531-.046 1.062-.046 1.543zM161.286 8.627l-2.277 14.602h4.36l-2.083-14.602zm3.58 25.398-.822-5.542h-5.809l-.919 5.542h-6.297L157.653 0h7.214l6.393 34.025h-6.393zM185.54 34.025 179.488 8.53l.53 25.494h-5.904V0h8.085l6.15 24.965L187.721 0h5.76v34.025z" fill="#EF0A31" mask="url(#b)"/>
        <path fill="#1D1D1B" mask="url(#b)" d="M0 73.346V39.321h6.293v28.87h9.25v5.155zM26.482 47.949 24.205 62.55h4.36l-2.083-14.602zm3.581 25.397-.823-5.542h-5.809l-.918 5.542h-6.297l6.633-34.025h7.214l6.393 34.025h-6.393zM50.736 73.346l-6.052-25.493.531 25.493H39.31V39.321h8.086l6.15 24.965-.629-24.965h5.76v34.025zM76.005 47.756c0-1.061.047-2.122-.871-2.892-.823-.675-1.887-.577-2.857-.577h-2.468v24.095h2.227c.58 0 1.211 0 1.79-.096 2.034-.386 2.18-1.88 2.18-3.567V47.756zm6.246 18.313c-.194 3.613-1.837 5.447-3.195 6.217-1.742 1.012-3.534 1.06-5.421 1.06H63.514V39.323h11.573c.918 0 2.856.144 4.694 1.686 2.325 1.978 2.52 4.482 2.52 7.278V64.19c0 .628 0 1.254-.05 1.88zM108.879 73.346l.582-29.495-5.521 29.495h-5.858l-5.666-29.495.486 29.495h-6.197V39.321h10.262l4.02 23.809 4.068-23.809h10.119v34.025zM120.01 73.347h6.246V39.322h-6.246zM142.52 73.346l-6.051-25.493.53 25.493h-5.904V39.321h8.086l6.15 24.965-.63-24.965h5.76v34.025zM155.301 73.346V39.321h16.56v5.158h-10.267v8h9.685v5.155h-9.685v10.459h10.75v5.253zM193.257 68.864c-.776 2.748-3.05 5.205-8.861 5.205-2.422 0-4.986-.338-7.02-1.927-1.115-.868-1.55-1.784-1.793-2.313-.388-.965-.675-1.591-.675-3.518v-4.965h6.243V65.3c0 1.252-.095 2.697 1.115 3.47.386.24.968.481 1.936.481 1.113 0 1.744-.242 2.178-.626.921-.723.921-2.217.921-4.53 0-.435.096-1.977-.677-3.134-.484-.723-1.211-1.156-1.452-1.35l-5.956-3.999c-1.31-.868-1.985-1.398-2.857-2.794-.727-1.205-1.21-2.506-1.21-5.398 0-.482-.05-2.892.822-4.677 1.936-4.143 7.796-4.143 8.474-4.143 1.017 0 6.487 0 8.28 4.483.338.866.532 1.203.532 2.843V49.3h-6.295v-3.471c0-1.012-.388-2.457-2.807-2.457-1.452 0-2.81.53-2.81 3.373 0 .145-.095 2.169.678 3.276.194.291.63.626 1.31 1.11l6.098 4.193c.435.288 1.793 1.3 2.81 2.65 1.5 1.975 1.353 3.469 1.353 5.88 0 2.603 0 3.71-.337 5.01M3.066 15.125h3.55V.529h-3.55zM14.381 15.124l-3.05-9.508v9.508H8.337V.53h3.51l3.075 9.468V.53h3.032v14.595zM25.406 3.073v12.052h-3.592V3.073h-2.908V.529h9.426v2.544zM29.285 15.124V.53h7.581v2.565H32.84v3.37h3.8v2.561h-3.8v3.516h4.027v2.583zM43.572 3.734c-.062-.475-.417-.682-1.184-.682h-1.082v3.35h1.104c.93 0 1.222-.331 1.222-1.512 0-.39-.018-.908-.06-1.156zm.312 11.39-1.996-6.22h-.582v6.22h-3.322V.53h5.004c1.953 0 3.012.497 3.47 1.594.23.557.332 1.362.332 2.52 0 2.276-.415 3.122-1.849 3.805l2.473 6.676h-3.53zM54.471 15.124l-3.055-9.508v9.508h-2.99V.53h3.51l3.075 9.468V.53h3.032v14.595zM64.185 2.845l-.997 6.492h1.972l-.975-6.492zm1.827 12.279-.498-3.327h-2.722l-.518 3.327h-3.47L61.775.53h4.737l2.97 14.594h-3.47zM75.23 3.073v12.052h-3.592V3.073H68.73V.529h9.426v2.544zM79.067 15.125h3.555V.529h-3.555zM90.156 4.024c0-.31 0-.352-.04-.517-.168-.621-.727-.661-1.247-.661-.06 0-.435-.022-.707.124-.497.247-.435 1.012-.435 1.054v7.482c0 .58-.042 1.241 1.204 1.241.063 0 .458 0 .727-.122.457-.229.498-.686.498-1.119V4.024zm2.762 9.82c-.664.867-1.703 1.467-3.904 1.467-1.33 0-2.616-.125-3.655-1.032a3.147 3.147 0 0 1-.852-1.201c-.25-.6-.352-1.157-.352-2.42V4.645c0-1.035.082-1.86.685-2.748C85.796.489 87.353.24 88.93.24c1.267 0 2.534.147 3.53 1.012.25.229.707.684.98 1.47.247.743.247 1.487.247 2.252v5.582c0 1.199-.023 2.295-.77 3.288zM101.283 15.124l-3.052-9.508v9.508h-2.993V.53h3.51l3.075 9.468V.53h3.033v14.595zM110.998 2.845 110 9.337h1.973l-.976-6.492zm1.826 12.279-.495-3.327h-2.723l-.52 3.327h-3.47L108.588.53h4.736l2.97 14.594h-3.47zM117.038 15.124V.53h3.575V12.54h3.655v2.583zM23.207 33.31c-1.02.951-2.576.991-3.862.991-1.851 0-2.805-.308-3.492-.89a2.283 2.283 0 0 1-.683-.825c-.25-.497-.354-.972-.354-2.047v-7.193c0-1.159.105-2.089.976-2.936.665-.662 1.702-1.157 3.675-1.157 2.576 0 3.842.848 4.362 1.962.312.642.332 1.263.332 1.945v1.757h-3.49v-1.84c0-.208 0-.392-.04-.599-.147-.6-.664-.684-1.184-.684-.272 0-.497.02-.704.167-.457.308-.397 1.074-.397 1.156v7.258c0 .93.125 1.445 1.184 1.445.042 0 .312 0 .52-.062.621-.226.601-.868.601-1.383v-1.82h3.595v1.303c0 1.238-.042 2.521-1.04 3.451M29.912 21.836l-.997 6.492h1.971l-.974-6.492zm1.826 12.28-.497-3.329h-2.72l-.52 3.33h-3.468l2.968-14.596h4.736l2.97 14.595h-3.469zM46.727 34.116v-10.5l-2.263 10.5H41.35l-2.266-10.5v10.5H35.99V19.52h4.737l2.18 10.71 2.181-10.71h4.797v14.596zM57.605 22.808c-.02-.187-.043-.642-.58-.744-.228-.042-1.082-.062-1.889-.062v4.217h1.204c.02 0 .498.02.79-.104.52-.206.497-.826.497-1.28.022-.93.022-1.696-.022-2.027m3.322 3.453c-.02.289-.08 1.468-1.037 2.087-.664.433-1.409.433-2.18.433h-2.574v5.335h-3.532V19.521h5.92c.83 0 1.142.022 1.557.124 1.973.497 1.868 2.253 1.868 2.852v3.019c0 .248 0 .497-.022.745M66.491 21.836l-.996 6.492h1.97l-.974-6.492zm1.827 12.28-.498-3.329H65.1l-.52 3.33h-3.467L64.08 19.52h4.736l2.97 14.595h-3.47zM72.51 34.117h3.554V19.521h-3.555zM83.37 34.116v-1.343a3.174 3.174 0 0 1-.771.803c-.622.478-1.14.582-1.931.582-.455 0-.643-.022-.872-.084a2.653 2.653 0 0 1-1.557-1.075c-.664-.992-.644-2.521-.644-3.638v-5.437c0-1.095.042-2.273.687-3.245.104-.167.435-.6.934-.888.787-.435 2.056-.54 2.926-.54.252 0 1.144 0 1.953.167.352.082 1.766.373 2.368 1.591.25.518.332 1.055.332 2.193v1.301H83.37v-1.385c0-.393.06-1.323-1.124-1.323-.06 0-.434.02-.684.164-.415.249-.415.786-.415 1.221v7.278c0 .453 0 .93.457 1.218.185.125.435.187.665.187.227 0 .457-.062.644-.167.457-.268.457-.765.457-1.218v-1.654h-1.349v-2.439h4.774v7.73H83.37zM94.287 34.116l-3.05-9.509v9.509h-2.991V19.52h3.508l3.075 9.469V19.52h3.032v14.596zM110.586 22.063v12.052h-3.592V22.063h-2.908V19.52h9.426v2.543zM120.24 23.015c0-.31 0-.353-.043-.517-.165-.62-.73-.662-1.246-.662-.06 0-.435-.022-.707.125-.498.248-.437 1.012-.437 1.054v7.484c0 .577-.038 1.239 1.206 1.239.065 0 .455 0 .727-.122.457-.229.5-.684.5-1.117v-7.484zm2.76 9.82c-.664.867-1.7 1.466-3.905 1.466-1.326 0-2.617-.124-3.654-1.032a3.147 3.147 0 0 1-.852-1.2c-.248-.6-.352-1.157-.352-2.418v-6.017c0-1.032.084-1.86.684-2.748.957-1.407 2.513-1.655 4.092-1.655 1.267 0 2.535.146 3.53 1.014.25.226.707.684.979 1.467.247.746.247 1.49.247 2.253v5.582c0 1.199-.022 2.295-.769 3.287z"/>
    </g>
</svg>
