<?xml version="1.0" encoding="UTF-8"?>
<svg fill="none" version="1.1" viewBox="0 0 26.915 27.974" xmlns="http://www.w3.org/2000/svg">
<g transform="translate(-6.9286 -84.017)">
<g transform="translate(5.5745 73.389)">
<path d="m13.329 14.662c-9.3724-4.0221-4.6862-2.0111 0 0zm0 23.939c-9.3724-19.982-4.6862-9.9909 0 0zm0 0v-23.939h-0.0039c-7.9816 0-11.971 5.3579-11.971 11.969 0 6.6108 3.9892 11.971 11.971 11.971zm0-23.939m0 23.939c-9.3724-19.982-4.6862-9.9909 0 0zm0 0v-23.939l-0.0013 0.0036c-2.6053 7.5444-11.973 5.3543-11.973 11.965 0 6.6108 3.9892 11.971 11.971 11.971z" fill="#ffb02e" stroke-width="0" style="paint-order:markers fill stroke"/>
</g>
<g transform="translate(25.125 96.457)">
<path d="m-12.226-0.54894c0.04111-0.21146 0.13523-0.47063 0.31415-0.66558 0.15334-0.16708 0.42584-0.35271 0.98413-0.35271 0.54878 0 0.82821 0.18948 0.98956 0.36665 0.18649 0.20479 0.27636 0.46592 0.30568 0.63471 0.0808 0.46524 0.52347 0.77691 0.98871 0.69619 0.46532-0.08081 0.777-0.52355 0.69619-0.98879-0.06755-0.38897-0.26105-0.98289-0.72638-1.4937-0.49055-0.5385-1.2315-0.92514-2.2538-0.92514-1.0126 0-1.7505 0.36879-2.244 0.90648-0.46793 0.50982-0.65716 1.1057-0.73294 1.4955-0.09014 0.46361 0.21258 0.91244 0.67613 1.0026 0.46356 0.09012 0.91241-0.21257 1.0026-0.6761z" fill="#191919" fill-rule="evenodd" stroke-width=".85506"/>
<path d="m-6.2252 11.259c-7.6956 0-7.6956-7.6956-7.6956-7.6956h15.391s0 7.6956-7.6956 7.6956z" fill="#bb1d80" stroke-width=".85506"/>
<path d="m-6.2061 1.69v11.92" fill="#fff" stroke-width="0" style="paint-order:markers fill stroke"/>
</g>
<g transform="translate(4.8438 82.017)">
<path d="m23.369 2.5554c0.1804 0.72723 1.2078 0.74464 1.4128 0.02394 0.1209-0.4253 0.5888-0.64673 0.9944-0.47062l0.5855 0.25423c0.4056 0.17611 0.5632 0.66913 0.335 1.0479-0.3866 0.64178 0.3275 1.3806 0.982 1.0159 0.3863-0.21518 0.8737-0.04093 1.0359 0.37037l0.2343 0.59384c0.1622 0.41129-0.0749 0.87136-0.504 0.97783-0.7272 0.18042-0.7446 1.2078-0.024 1.4128 0.4253 0.12096 0.6467 0.58881 0.4706 0.99438l-0.2542 0.58549c-0.1761 0.40559-0.6691 0.56323-1.0479 0.33506-0.6418-0.38665-1.3806 0.32747-1.0159 0.98207 0.2152 0.3863 0.0409 0.8737-0.3704 1.0359l-0.5938 0.2343c-0.4113 0.1622-0.8714-0.0749-0.9779-0.5041-0.1804-0.7272-1.2078-0.7446-1.4127-0.0239-0.121 0.4253-0.5888 0.6467-0.9944 0.4706l-0.5855-0.2543c-0.4056-0.1761-0.5632-0.6691-0.3351-1.0478 0.3867-0.64181-0.3275-1.3806-0.982-1.0159-0.3863 0.21519-0.8737 0.04093-1.0359-0.37038l-0.2343-0.59379c-0.1622-0.41131 0.0749-0.87139 0.5041-0.97787 0.7272-0.18042 0.7446-1.2078 0.0239-1.4128-0.4253-0.12096-0.6467-0.58881-0.4706-0.99438l0.2543-0.58552c0.1761-0.40557 0.6691-0.56321 1.0478-0.33505 0.6418 0.38664 1.3806-0.32751 1.0159-0.98204-0.2152-0.38626-0.0409-0.87364 0.3704-1.0359l0.5938-0.23424c0.4113-0.16226 0.8714 0.07489 0.9779 0.50405z" fill="#ff822d"/>
<path d="m25.207 5.7929c0.3905 0.39053 0.3905 1.0237 0 1.4142l-3 3c-0.3905 0.3905-1.0237 0.3905-1.4142 0-0.3905-0.39052-0.3905-1.0237 0-1.4142l3-3c0.3905-0.39052 1.0237-0.39052 1.4142 0z" fill="#fff"/>
<path transform="translate(-10.864,9.852)" d="m24.912-3.8208c0 29.547 0.01063-27.973 0.0098 23.939 7.9749-0.0044 11.961-5.3626 11.961-11.971 0-6.6108-3.9892-11.969-11.971-11.969z" fill="#533566" stroke-width=".85506"/>
</g>
</g>
</svg>
