<?xml version="1.0" encoding="UTF-8"?>
<svg version="1.1" viewBox="0 0 289.67 30.728" xmlns="http://www.w3.org/2000/svg">
<path d="m11.974 4.0341c-9.372-4.022-4.686-2.011 0 0zm0 23.939c-9.372-19.982-4.686-9.99 0 0zm0 0v-23.939h-4e-3c-7.981 0-11.97 5.358-11.97 11.969 0 6.61 3.988 11.971 11.97 11.971zm0 0c-9.372-19.982-4.686-9.99 0 0zm0 0v-23.939l-1e-3 4e-3c-2.606 7.544-11.973 5.354-11.973 11.964 0 6.61 3.989 11.97 11.97 11.97z" fill="#ffb02e" style="paint-order:markers fill stroke"/>
<path d="m5.969 11.891c0.042-0.211 0.136-0.47 0.315-0.666 0.153-0.167 0.425-0.352 0.984-0.352 0.548 0 0.828 0.19 0.99 0.366 0.186 0.205 0.276 0.466 0.305 0.635a0.85514 0.85514 0 0 0 1.685-0.293 3.03 3.03 0 0 0-0.727-1.493c-0.49-0.539-1.231-0.925-2.253-0.925-1.013 0-1.75 0.368-2.244 0.906-0.468 0.51-0.658 1.106-0.733 1.496a0.855 0.855 0 0 0 1.678 0.326z" fill="#191919" fill-rule="evenodd"/>
<path d="m11.97 23.699c-7.695 0-7.695-7.696-7.695-7.696h15.39s0 7.696-7.695 7.696z" fill="#bb1d80"/>
<path d="m11.989 14.13v11.92" fill="#fff" style="paint-order:markers fill stroke"/>
<path d="m21.283 0.55509c0.18 0.728 1.208 0.745 1.413 0.024a0.731 0.731 0 0 1 0.994-0.47l0.586 0.254c0.405 0.176 0.563 0.669 0.335 1.048-0.387 0.642 0.327 1.38 0.982 1.016a0.731 0.731 0 0 1 1.036 0.37l0.234 0.594a0.731 0.731 0 0 1-0.504 0.978c-0.727 0.18-0.745 1.208-0.024 1.413a0.731 0.731 0 0 1 0.47 0.994l-0.254 0.585a0.731 0.731 0 0 1-1.047 0.335c-0.642-0.386-1.381 0.328-1.016 0.983a0.731 0.731 0 0 1-0.37 1.035l-0.594 0.235a0.731 0.731 0 0 1-0.978-0.504c-0.18-0.728-1.208-0.745-1.413-0.024a0.731 0.731 0 0 1-0.995 0.47l-0.585-0.254a0.731 0.731 0 0 1-0.335-1.048c0.387-0.642-0.328-1.38-0.982-1.016a0.731 0.731 0 0 1-1.036-0.37l-0.234-0.594a0.731 0.731 0 0 1 0.504-0.978c0.727-0.18 0.744-1.208 0.024-1.413a0.731 0.731 0 0 1-0.47-0.994l0.253-0.585a0.731 0.731 0 0 1 1.048-0.335c0.642 0.386 1.38-0.328 1.016-0.983a0.731 0.731 0 0 1 0.37-1.035l0.594-0.235a0.731 0.731 0 0 1 0.978 0.504z" fill="#ff822d"/>
<path d="m23.121 3.7931a1 1 0 0 1 0 1.414l-3 3a1 1 0 0 1-1.414-1.414l3-3a1 1 0 0 1 1.414 0z" fill="#fff"/>
<path d="m11.962 4.0311c0 29.547 0.01-27.973 0.01 23.94 7.975-5e-3 11.961-5.363 11.961-11.972 0-6.61-3.99-11.969-11.971-11.969z" fill="#533566"/>
<path d="m90.922 5.1065c-0.15484 0.0409-0.45043 0.16169-0.65688 0.26838-0.20645 0.1066-0.46254 0.29306-0.56914 0.41421-0.1066 0.12115-0.26482 0.33463-0.35162 0.47445-0.0867 0.13982-0.20607 0.54099-0.26519 0.89148-0.08202 0.48627-0.0809 0.76348 0.0049 1.17 0.06184 0.29297 0.23413 0.7008 0.38296 0.90621 0.18167 0.25084 0.47201 0.47277 0.88369 0.67536 0.50609 0.24915 0.7571 0.31005 1.4368 0.34881 0.47183 0.02685 1.0537-6.42e-4 1.3623-0.06503 0.29625-0.06154 0.73964-0.24623 0.98531-0.41045 0.32309-0.21592 0.52034-0.44583 0.713-0.83095 0.1614-0.3228 0.28603-0.75044 0.31652-1.0859 0.0337-0.37113-8.3e-4 -0.72885-0.1046-1.0858-0.0852-0.29287-0.28321-0.67874-0.4402-0.85751s-0.52533-0.43973-0.81856-0.57974c-0.4633-0.22137-0.66851-0.25825-1.5654-0.28133-0.56773-0.01454-1.1589 7e-3 -1.3138 0.04785m8.0808 0.01708c-0.20055 0.04982-0.52514 0.18073-0.72136 0.29099-0.19621 0.11026-0.47942 0.37358-0.62937 0.58528-0.15006 0.2117-0.32159 0.52841-0.38128 0.7038-0.0597 0.17548-0.10824 0.59776-0.10789 0.9384 2.7e-4 0.34073 0.0471 0.78835 0.10436 0.9948 0.0643 0.23197 0.27025 0.54183 0.53939 0.81134 0.35049 0.35096 0.57027 0.47698 1.1258 0.64571 0.56971 0.17304 0.84014 0.20185 1.5492 0.16468 0.60394-0.03153 0.99788-0.10632 1.327-0.25186 0.2574-0.11383 0.588-0.32084 0.73466-0.46 0.14657-0.13917 0.35426-0.42191 0.46123-0.62835 0.12753-0.24586 0.20908-0.61812 0.23638-1.0792 0.0229-0.38709-4e-3 -0.87609-0.0618-1.0867-0.0569-0.21048-0.21987-0.5377-0.36223-0.72707-0.15652-0.20832-0.49819-0.46451-0.865-0.64862-0.55657-0.27927-0.68766-0.30592-1.5953-0.32403-0.54399-0.01092-1.1531 0.02102-1.3537 0.07075m40.434-0.01783c-0.15484 0.04053-0.43889 0.14864-0.63126 0.24023-0.19229 0.09158-0.49604 0.32863-0.67499 0.52663-0.18309 0.2026-0.38925 0.57524-0.47145 0.85197-0.0803 0.27054-0.14601 0.71477-0.14601 0.98738 0 0.2726 0.0871 0.72838 0.19359 1.0129 0.12977 0.34702 0.31876 0.6246 0.57393 0.84305 0.20925 0.17905 0.57607 0.39507 0.81527 0.48008 0.2391 0.08492 0.81734 0.17699 1.2849 0.20457 0.64337 0.03803 0.98569 0.01103 1.4076-0.11073 0.30657-0.08849 0.69178-0.24333 0.856-0.34402 0.16421-0.10069 0.42396-0.37236 0.57721-0.60376 0.17069-0.25768 0.3182-0.64797 0.3808-1.0073 0.0743-0.42594 0.0735-0.74874-2e-3 -1.1785-0.0724-0.41121-0.19529-0.71112-0.40239-0.98279-0.18825-0.2468-0.50402-0.49275-0.85667-0.66748-0.50147-0.2483-0.6641-0.27908-1.5908-0.30122-0.56774-0.01351-1.1589 0.0085-1.3138 0.04898m-23.942 1.1732c-0.2133 0.06954-0.53958 0.24211-0.72491 0.38352-0.18824 0.14358-0.45212 0.49125-0.59748 0.78732-0.2604 0.5302-0.2604 0.5302-0.28968 8.3189-0.0207 5.4871 1e-3 7.9323 0.0755 8.2744 0.0578 0.26716 0.22616 0.65312 0.37433 0.85778 0.16928 0.23366 0.46535 0.46789 0.79614 0.62966 0.35715 0.17473 0.73139 0.27233 1.1634 0.3032 0.43429 0.03103 0.80599-0.0038 1.169-0.10914 0.297-0.08633 0.68429-0.28828 0.87656-0.45719 0.18956-0.16628 0.43251-0.49247 0.54005-0.72472 0.18468-0.39901 0.1981-0.62535 0.24239-4.1017 0.0469-3.6796 0.0469-3.6796 1.5916-1.1261 0.84964 1.4043 1.7289 2.751 1.9539 2.9926 0.2635 0.28283 0.56314 0.49172 0.84146 0.5865 0.2377 0.08108 0.66758 0.14639 0.95511 0.14526 0.30272-0.0012 0.68249-0.07451 0.90189-0.17417 0.20842-0.09469 0.54624-0.36222 0.75071-0.59457 0.20438-0.23225 1.0684-1.5759 1.9201-2.986 1.5484-2.5636 1.5484-2.5636 1.6041 1.0423 0.0388 2.5125 0.0919 3.7198 0.17481 3.9813 0.0675 0.21302 0.30724 0.5636 0.55422 0.81068 0.31315 0.31333 0.57806 0.47774 0.94488 0.5865 0.2803 0.08314 0.75052 0.15118 1.0449 0.15118 0.29437 0 0.75136-0.06982 1.0156-0.15511 0.27025-0.08736 0.62938-0.29992 0.82109-0.4861 0.1875-0.18205 0.43007-0.524 0.53921-0.75982 0.19622-0.42416 0.19865-0.51424 0.22446-8.2135 0.0181-5.4073-6e-3 -7.937-0.0774-8.2833-0.0608-0.29297-0.2268-0.66026-0.40229-0.89035-0.1644-0.21546-0.50861-0.4996-0.76507-0.63145-0.41702-0.21442-0.57571-0.23976-1.5006-0.23976-0.8409 0-1.1041 0.03462-1.4079 0.18524-0.2055 0.10182-0.54604 0.36513-0.7569 0.58518-0.21077 0.21996-0.89336 1.2979-1.5169 2.3954-0.62348 1.0975-1.7873 3.1487-2.586 4.5584-1.4524 2.563-1.4524 2.563-2.5065 0.7038-0.57974-1.0226-1.7334-3.0554-2.5637-4.5175-0.83029-1.4621-1.665-2.8349-1.8549-3.0507-0.18993-0.21574-0.55121-0.49604-0.8029-0.62281-0.3792-0.19106-0.61849-0.23497-1.396-0.25599-0.59908-0.01624-1.0787 0.02037-1.3262 0.10106m-82.264 0.15813c-0.2985 0.04532-0.72125 0.1614-0.93943 0.25787-0.21818 0.09656-0.54033 0.31915-0.71581 0.49463-0.17548 0.17548-0.40726 0.50964-0.51509 0.74246-0.19359 0.41815-0.19594 0.51472-0.19594 7.9774 0 7.1847 0.0086 7.5766 0.17746 8.0143 0.09769 0.25308 0.31971 0.61746 0.4935 0.80984 0.17379 0.19237 0.53723 0.44977 0.80777 0.57205 0.49191 0.2224 0.49191 0.2224 5.6946 0.24896 4.6496 0.02363 5.2557 0.0098 5.7017-0.13044 0.33848-0.10651 0.60283-0.27185 0.82147-0.51387 0.17736-0.19631 0.37179-0.53883 0.43213-0.76104 0.06288-0.23141 0.08774-0.67133 0.05817-1.0292-0.02835-0.34383-0.13428-0.78722-0.23544-0.98531-0.10115-0.19819-0.26378-0.43251-0.36147-0.52091-0.09769-0.0883-0.34505-0.2361-0.54962-0.32834-0.33182-0.14977-0.75325-0.17098-3.9143-0.19744-3.5424-0.02955-3.5424-0.02955-3.5424-1.5249 0-1.4953 0-1.4953 3.0796-1.4953 2.4949 0 3.1718-0.0273 3.5646-0.14395 0.30244-0.0899 0.60311-0.26585 0.79942-0.46789 0.17304-0.1782 0.36363-0.48778 0.42369-0.68803 0.05996-0.20025 0.10876-0.61258 0.10848-0.91625 0-0.30367-0.04476-0.71168-0.09891-0.90659-0.05416-0.19499-0.23272-0.50739-0.39685-0.69432-0.16413-0.18693-0.44686-0.40727-0.62826-0.48956-0.27711-0.12574-0.85225-0.15455-3.5909-0.18017-3.2609-0.03057-3.2609-0.03057-3.2609-1.3847 0-1.3542 0-1.3542 3.4554-1.3542 2.9016 0 3.525-0.02378 3.89-0.14817 0.26238-0.08934 0.56473-0.29194 0.76245-0.51077 0.18017-0.19941 0.37696-0.54455 0.43729-0.76676 0.06428-0.23676 0.08755-0.67283 0.05621-1.0526-0.0399-0.48299-0.1207-0.7571-0.31664-1.0741-0.18092-0.2926-0.40848-0.50036-0.72876-0.66523-0.46563-0.23976-0.46563-0.23976-5.348-0.25477-2.6853-0.0083-5.1267 0.02206-5.4252 0.06738m22.642 5.4905c-0.33548 0.07264-0.8667 0.25844-1.1805 0.4128-0.32375 0.15934-0.81734 0.52522-1.1409 0.84578-0.31361 0.31079-0.58997 0.56501-0.61409 0.56501-0.02422 0-0.06718-0.11618-0.09562-0.25806-0.02844-0.14188-0.18111-0.43664-0.33932-0.65481-0.16966-0.23422-0.48984-0.50345-0.78112-0.65688-0.44846-0.23638-0.58331-0.26012-1.4788-0.26012-0.82879 0-1.0451 0.03199-1.3619 0.20166-0.2071 0.11101-0.49838 0.32215-0.64721 0.46919-0.14883 0.14714-0.35941 0.45757-0.46798 0.68982-0.19312 0.41327-0.19735 0.53358-0.19735 5.6304 0 5.1571 2e-3 5.2118 0.20251 5.5835 0.11148 0.20645 0.32262 0.48918 0.4692 0.62835 0.14667 0.13917 0.47783 0.34693 0.73589 0.46169 0.29907 0.13298 0.72726 0.22391 1.181 0.25084 0.49613 0.02936 0.87506-0.0052 1.2506-0.11448 0.35894-0.10435 0.67499-0.28228 0.94694-0.53292 0.24145-0.22249 0.47586-0.5559 0.57402-0.81631 0.14245-0.37817 0.17314-0.89645 0.21799-3.6777 0.05189-3.2162 0.05376-3.2406 0.28687-3.7067 0.17961-0.35913 0.33276-0.51875 0.65331-0.68034 0.23028-0.11617 0.53442-0.21114 0.67593-0.21114 0.14142 0 0.36795 0.05049 0.50326 0.11214 0.13532 0.06166 0.3168 0.24108 0.40323 0.39882 0.13588 0.24783 0.16469 0.75738 0.21264 3.7588 0.03519 2.2079 0.0946 3.593 0.16319 3.8044 0.05931 0.1828 0.20729 0.46714 0.32882 0.63192 0.12162 0.16478 0.33604 0.39009 0.47661 0.50063 0.14048 0.11055 0.50974 0.28012 0.82054 0.37686 0.3108 0.09675 0.80796 0.17586 1.1048 0.17586 0.29691 0 0.73992-0.06026 0.98457-0.13381 0.24464-0.07367 0.58237-0.22822 0.75062-0.34346 0.16825-0.11533 0.40145-0.34918 0.51837-0.51978 0.11692-0.1706 0.27964-0.49107 0.36175-0.71224 0.12134-0.32694 0.15915-1.0075 0.20204-3.6396 0.0458-2.8085 0.07404-3.2764 0.21292-3.5313 0.08802-0.1616 0.28846-0.40182 0.44546-0.53386 0.16131-0.13578 0.46488-0.26706 0.69835-0.30207 0.27176-0.04072 0.5027-0.0187 0.67518 0.06475 0.14414 0.06963 0.34871 0.27439 0.45456 0.45504 0.18214 0.31098 0.1949 0.51508 0.23929 3.8474 0.04692 3.519 0.04692 3.519 0.28809 3.9882 0.13391 0.2605 0.41843 0.60451 0.63971 0.77333 0.21912 0.16732 0.63633 0.37339 0.92714 0.45794 0.37883 0.11007 0.72942 0.13916 1.2371 0.10256 0.38972-0.02808 0.86173-0.11645 1.049-0.19631 0.1873-0.07987 0.47445-0.25787 0.63802-0.39554 0.16366-0.13766 0.41158-0.46648 0.55093-0.73073 0.25346-0.48046 0.25346-0.48046 0.25346-4.5156 0-3.5638-0.0198-4.1196-0.16976-4.7584-0.09337-0.39788-0.29259-0.96796-0.44264-1.2668-0.15014-0.29897-0.45052-0.72548-0.66758-0.94788-0.21696-0.22231-0.5667-0.50411-0.77718-0.62601-0.21048-0.12189-0.63604-0.297-0.94572-0.38905-0.38212-0.11355-0.87965-0.16769-1.5484-0.16863-0.75166-0.0012-1.142 0.04729-1.6461 0.20362-0.36335 0.11271-0.9124 0.36757-1.2199 0.56632-0.30751 0.19885-0.79285 0.61972-1.0786 0.93539-0.5194 0.57402-0.5194 0.57402-0.63999 0.30151-0.06634-0.14986-0.30507-0.47764-0.53038-0.72829-0.2254-0.25064-0.66495-0.59175-0.97687-0.75794-0.31183-0.16628-0.85291-0.36288-1.2023-0.43691-0.34946-0.07404-0.84644-0.13194-1.1045-0.12875-0.25806 0.0031-0.74368 0.06522-1.0792 0.13794m22.209-0.04413c-0.30113 0.044-0.82898 0.1478-1.173 0.23065-0.34402 0.08295-1.0227 0.34458-1.5081 0.58153-0.70699 0.34514-1.0244 0.57261-1.5953 1.1434-0.39197 0.39197-0.84887 0.94469-1.0155 1.2284-0.16657 0.28368-0.40745 0.81509-0.53526 1.1809-0.12771 0.36579-0.27617 0.93539-0.32975 1.2657-0.05368 0.3304-0.09778 0.95961-0.09816 1.3983-3.75e-4 0.4387 0.06053 1.1178 0.13541 1.509 0.07488 0.39132 0.2225 0.94234 0.32806 1.2245 0.10566 0.28217 0.3123 0.70108 0.45925 0.93079 0.14705 0.22972 0.45334 0.63839 0.68071 0.90809 0.22737 0.26969 0.64562 0.66297 0.92948 0.87393 0.28386 0.21105 0.81828 0.52747 1.1875 0.70314 0.36935 0.17576 1.0073 0.4066 1.4176 0.51293 0.41036 0.10642 1.1744 0.23066 1.6979 0.27608 0.54446 0.04728 1.3547 0.04779 1.8929 6.42e-4 0.51762-0.04497 1.2249-0.15052 1.5718-0.23451 0.34692-0.08407 1.032-0.34486 1.5223-0.57946 0.74274-0.35546 1.0181-0.55366 1.6505-1.1881 0.44208-0.44358 0.90002-1.0162 1.0968-1.3715 0.1859-0.33548 0.45165-0.99001 0.59072-1.4545 0.22268-0.74349 0.2528-1.0017 0.25205-2.1583-6.42e-4 -1.0451-0.04196-1.4669-0.20176-2.0624-0.11055-0.41177-0.33247-1.003-0.49313-1.3138-0.16065-0.3108-0.50186-0.82494-0.75813-1.1425-0.25628-0.31755-0.70464-0.75644-0.99648-0.97518-0.29184-0.21874-0.86839-0.55328-1.2813-0.74359-0.4129-0.19021-1.0252-0.416-1.3607-0.50176-0.33548-0.08577-0.96777-0.19866-1.4052-0.25084-0.43729-0.05217-1.0918-0.08971-1.4545-0.08342-0.3626 0.0064-0.90574 0.04748-1.2069 0.09149m76.652-0.04375c-0.15483 0.02396-0.51377 0.1083-0.79765 0.1873-0.28386 0.07911-0.77116 0.28528-1.0829 0.45832-0.31182 0.17304-0.78927 0.54971-1.061 0.83714-0.27176 0.28734-0.50824 0.5225-0.52532 0.5225-0.0172 0-0.058-0.14282-0.0907-0.31737-0.0328-0.17454-0.17793-0.48074-0.32262-0.68034-0.14471-0.1996-0.49049-0.48656-0.76846-0.63773-0.39835-0.21658-0.6581-0.28358-1.227-0.31652-0.39778-0.023-0.93266 0.0088-1.1915 0.07094-0.25834 0.06193-0.63464 0.23394-0.83611 0.38212-0.20157 0.14826-0.47924 0.47661-0.61701 0.72979-0.143 0.26275-0.29071 0.73814-0.34409 1.1074-0.0514 0.35584-0.0935 2.4628-0.0935 4.6821 0 2.2193 0.0415 4.322 0.0922 4.6727s0.17267 0.79407 0.27111 0.98531c0.0983 0.19125 0.29888 0.4616 0.44545 0.60076 0.14668 0.13917 0.47785 0.35031 0.73589 0.4692 0.38551 0.17755 0.62827 0.21602 1.3607 0.21593 0.51368-9.7e-5 1.0458-0.05461 1.2557-0.12856 0.20025-0.07066 0.52248-0.27148 0.71598-0.4463 0.19359-0.17482 0.45186-0.5392 0.57402-0.80974 0.21612-0.47867 0.22335-0.57871 0.27111-3.7294 0.0315-2.0805 0.0866-3.3213 0.15409-3.4721 0.0578-0.12903 0.20944-0.34664 0.33716-0.48356 0.12762-0.137 0.36382-0.31718 0.52485-0.40041 0.16103-0.08323 0.47642-0.17661 0.70089-0.20738 0.28517-0.03905 0.49716-0.0098 0.70389 0.09702 0.16261 0.08407 0.37028 0.2895 0.46151 0.45635 0.14676 0.26857 0.17181 0.69141 0.21798 3.6816 0.0451 2.9194 0.075 3.4419 0.21996 3.8474 0.0924 0.25806 0.31765 0.62497 0.50082 0.81528 0.18308 0.1904 0.54869 0.4433 0.81228 0.56201 0.39103 0.17613 0.64337 0.21611 1.3707 0.21696 0.78572 6.42e-4 0.95435-0.02987 1.4217-0.25937 0.29165-0.1432 0.63314-0.39657 0.75897-0.56304 0.12584-0.16647 0.30949-0.51377 0.4082-0.77183 0.166-0.4341 0.17942-0.75363 0.17942-4.2697 0-2.8451-0.0319-3.942-0.12639-4.3635-0.0696-0.30967-0.2332-0.83752-0.36373-1.173-0.13052-0.33548-0.39769-0.8255-0.59362-1.0889-0.19595-0.2635-0.55826-0.61287-0.80525-0.77643-0.24699-0.16366-0.72509-0.38268-1.0625-0.48694-0.3517-0.10857-0.97386-0.20438-1.4584-0.22456-0.46479-0.01934-0.97181-0.01549-1.1266 0.0085m13.231 0.0777c-0.41288 0.07226-0.95257 0.19612-1.1993 0.27514-0.24671 0.07901-0.73337 0.29334-1.0815 0.47633-0.34814 0.18299-0.84306 0.5057-1.0998 0.71731-0.25674 0.21161-0.66993 0.6231-0.91813 0.91437-0.2482 0.29137-0.61747 0.86755-0.82063 1.2804-0.20316 0.41289-0.44254 1.0252-0.53207 1.3607-0.11682 0.43833-0.16319 0.97969-0.16468 1.9237-1e-3 0.9657 0.0417 1.4753 0.16319 1.9237 0.0909 0.33548 0.31989 0.92667 0.50907 1.3138 0.26144 0.53517 0.53789 0.89795 1.1538 1.5144 0.6977 0.69807 0.94609 0.87684 1.7901 1.2878 0.55148 0.26857 1.3352 0.56097 1.7924 0.66889 0.44687 0.10538 1.2703 0.22775 1.8299 0.27186 0.55956 0.04413 1.4632 0.04477 2.0082 0.0012 0.54494-0.04336 1.2757-0.14489 1.6239-0.22559 0.34824-0.0808 0.86652-0.23422 1.1518-0.34092 0.28527-0.10669 0.66843-0.32553 0.85141-0.48627 0.18309-0.16066 0.41187-0.47652 0.50842-0.70192 0.0966-0.2255 0.17568-0.62948 0.17568-0.89824 0-0.3215-0.0722-0.62966-0.21115-0.90171-0.11608-0.22728-0.36457-0.53526-0.55205-0.68427-0.18749-0.14902-0.51584-0.31033-0.72961-0.35837-0.3138-0.07048-0.59195-0.03803-1.442 0.16853-0.88079 0.21405-1.2609 0.25599-2.3202 0.25599-1.1364 0-1.3128-0.02242-1.7131-0.21855-0.24549-0.12031-0.55319-0.34571-0.68382-0.50092-0.13063-0.15521-0.29925-0.43006-0.37479-0.6108-0.0755-0.18073-0.13729-0.34448-0.13729-0.364 0-0.01954 1.7927-0.03546 3.9838-0.03546 2.761 0 4.0552-0.03258 4.2164-0.10604 0.12799-0.05827 0.28828-0.23779 0.35629-0.39882 0.0787-0.18627 0.11375-0.58293 0.0965-1.0904-0.015-0.4387-0.11153-1.1566-0.2148-1.5953-0.10312-0.4387-0.3428-1.1143-0.53245-1.5014-0.26097-0.53244-0.53996-0.89889-1.1459-1.5048-0.60826-0.60826-0.97028-0.8835-1.5048-1.1442-0.38708-0.1889-1.0205-0.4311-1.4076-0.53836-0.41664-0.11542-1.1058-0.21217-1.6891-0.23713-0.61531-0.02627-1.2672 0.0073-1.736 0.08934m14.803-0.04375c-0.32263 0.04567-0.91194 0.17239-1.3095 0.28152-0.39768 0.10904-1.0192 0.35396-1.3812 0.54417-0.36193 0.19021-0.92291 0.59354-1.2465 0.89626-0.39891 0.3731-0.68691 0.75053-0.89439 1.1719-0.2941 0.59729-0.30611 0.6657-0.30611 1.7497 0 0.96871 0.0295 1.1923 0.20917 1.5815 0.11505 0.24924 0.33735 0.61502 0.49407 0.81284 0.15662 0.19781 0.50822 0.50796 0.78122 0.68916 0.27298 0.18121 0.74743 0.41346 1.0543 0.51622 0.30685 0.10275 1.4184 0.32046 2.47 0.48374 1.0516 0.16338 2.0114 0.34233 2.1331 0.39769 0.12153 0.05544 0.24643 0.18083 0.27749 0.2788 0.0311 0.09788-0.0127 0.28339-0.097 0.41224-0.0845 0.12875-0.26744 0.27889-0.4066 0.3336-0.1555 0.06109-0.68784 0.0807-1.3792 0.05069-0.87704-0.03803-1.4112-0.12321-2.4149-0.38512-0.70887-0.18505-1.3964-0.33641-1.5279-0.33641-0.13157 0-0.39611 0.06559-0.588 0.14573-0.19191 0.08015-0.46846 0.25966-0.61466 0.39882-0.14611 0.13917-0.32825 0.40089-0.40473 0.58153-0.0765 0.18064-0.13935 0.54952-0.13983 0.81969-6.3e-4 0.36119 0.0694 0.6215 0.26407 0.98316 0.17915 0.33285 0.38606 0.56088 0.6401 0.7053 0.20643 0.1173 0.65582 0.29813 0.99862 0.40191 0.3428 0.10369 1.0607 0.25449 1.5953 0.3351 0.55655 0.08399 1.5936 0.14724 2.4265 0.14808 0.92377 6.42e-4 1.7136-0.05004 2.1645-0.13972 0.39046-0.07761 1.045-0.27148 1.4545-0.43073 0.40953-0.15934 1.0216-0.49454 1.3601-0.74499s0.74949-0.65763 0.91325-0.9048c0.16374-0.24718 0.38155-0.6734 0.48392-0.94722 0.10244-0.27373 0.21405-0.76902 0.24801-1.1005 0.0353-0.34533 0.0146-0.87384-0.0488-1.2377-0.0609-0.34918-0.20973-0.82964-0.33087-1.0677-0.12115-0.23798-0.38278-0.59532-0.58144-0.79407-0.19875-0.19875-0.59353-0.47896-0.8774-0.62272-0.28386-0.14376-0.68502-0.30958-0.89148-0.36842-0.20645-0.0589-1.2768-0.25102-2.3786-0.42678-1.4193-0.22643-2.0554-0.36663-2.1818-0.48112-0.0982-0.08887-0.17858-0.25402-0.17858-0.3671 0-0.11308 0.08-0.27796 0.17802-0.36654 0.0979-0.0886 0.44321-0.19856 0.76752-0.24446 0.35509-0.05017 0.87223-0.04785 1.3002 0.0058 0.39084 0.04902 1.1538 0.21574 1.6956 0.37057 0.54164 0.15484 1.0694 0.28124 1.1727 0.28096 0.10335-2.84e-4 0.35584-0.0471 0.56107-0.10407 0.20532-0.05704 0.52794-0.25834 0.71703-0.44733 0.18898-0.18909 0.39027-0.51171 0.44732-0.71703 0.057-0.20523 0.10381-0.54915 0.10404-0.76423 0-0.21508-0.0803-0.57965-0.17915-0.81021-0.0987-0.23057-0.32338-0.52888-0.49904-0.66279-0.17576-0.134-0.50654-0.31089-0.73532-0.393-0.22869-0.08221-0.77475-0.23029-1.2134-0.3291-0.49838-0.11232-1.3082-0.19594-2.1583-0.22278-0.74838-0.02377-1.6246-0.0058-1.9472 0.03995m38.216 0.0026c-0.30967 0.04729-0.8164 0.15493-1.1261 0.23929-0.30968 0.08436-0.87976 0.31746-1.2668 0.5179-0.38709 0.20054-0.93013 0.55046-1.2067 0.77774-0.27665 0.22728-0.6903 0.63961-0.91926 0.91625-0.22897 0.27654-0.58313 0.84071-0.78695 1.2536s-0.4447 1.0252-0.53526 1.3607c-0.12011 0.44499-0.16468 0.96533-0.16468 1.9237 0 0.96054 0.0443 1.4778 0.16515 1.9237 0.0908 0.33548 0.31896 0.92442 0.50693 1.3088 0.25233 0.51602 0.54052 0.8988 1.1017 1.4634 0.41796 0.42059 1.0133 0.91081 1.323 1.0895 0.30967 0.17867 0.83752 0.43344 1.173 0.56613 0.33548 0.13278 0.91917 0.31108 1.2972 0.39619 0.37798 0.08521 1.1381 0.1904 1.6891 0.23385 0.55505 0.04375 1.4602 0.04252 2.0296-0.0026 0.5653-0.04503 1.4198-0.18618 1.8989-0.31371s1.0302-0.31361 1.2244-0.41356c0.19425-0.09994 0.463-0.3017 0.59719-0.44827 0.13419-0.14667 0.31371-0.44705 0.39881-0.66739 0.0853-0.22043 0.15456-0.55826 0.15428-0.75072 0-0.19256-0.0448-0.50955-0.099-0.70446-0.0541-0.195-0.22906-0.50326-0.38877-0.68512-0.15972-0.18186-0.40023-0.38587-0.53442-0.45325-0.13427-0.06746-0.38548-0.14948-0.55825-0.18242-0.20419-0.03886-0.67996 0.02917-1.3607 0.19462-0.87955 0.21377-1.2488 0.25384-2.3134 0.2513-0.97049-0.0026-1.3465-0.03924-1.6074-0.15765-0.18731-0.08492-0.4739-0.2666-0.63681-0.4037-0.16291-0.1371-0.35272-0.36034-0.42171-0.49613-0.069-0.13578-0.15482-0.34186-0.19068-0.45803-0.0652-0.21114-0.0652-0.21114 3.925-0.21114 2.7244 0 4.0626-0.03301 4.2188-0.10416 0.12577-0.05738 0.27965-0.21565 0.34206-0.3519 0.0626-0.13691 0.1088-0.591 0.10312-1.0148-6e-3 -0.4219-0.0518-0.98644-0.10279-1.2546-0.0509-0.26819-0.15296-0.69122-0.22689-0.94018-0.0739-0.24905-0.27468-0.74011-0.44602-1.0914-0.22429-0.45963-0.53517-0.86314-1.1093-1.4397-0.60808-0.61062-0.96485-0.88247-1.5014-1.1442-0.38709-0.1889-1.0205-0.4311-1.4076-0.53836-0.4221-0.11702-1.0982-0.21104-1.6891-0.23498-0.54191-0.02196-1.2387-0.0012-1.5484 0.046m15.39 0c-0.30966 0.04728-0.80495 0.15258-1.1007 0.23404-0.29569 0.08145-0.77511 0.25309-1.0655 0.38146-0.29024 0.12847-0.76666 0.39562-1.0586 0.59391-0.29193 0.19828-0.80486 0.65152-1.1398 1.0072-0.33492 0.35565-0.74809 0.90884-0.91813 1.2293-0.17003 0.32047-0.38972 0.81651-0.48807 1.1024-0.0984 0.28593-0.23075 0.93521-0.29409 1.4429-0.0899 0.72032-0.0907 1.1223-3e-3 1.8309 0.0614 0.49942 0.20074 1.1708 0.30977 1.4921 0.10903 0.32121 0.33022 0.83743 0.49163 1.1471 0.16835 0.3229 0.59371 0.86698 0.99733 1.2758 0.40755 0.41271 0.98794 0.87721 1.3788 1.1036 0.37123 0.21498 1.0481 0.51283 1.5041 0.66185 0.45597 0.14902 1.1639 0.32168 1.5732 0.38371 0.40933 0.06206 1.2949 0.11112 1.968 0.10914 0.6731-0.0019 1.5828-0.06822 2.0215-0.14714 0.43871-0.07891 1.1134-0.25111 1.4994-0.38277 0.38597-0.13156 0.85469-0.34045 1.0416-0.46423 0.20016-0.1325 0.42275-0.40135 0.54164-0.65415 0.13401-0.28518 0.20148-0.61071 0.20082-0.96984-6.4e-4 -0.37057-0.0709-0.69113-0.22372-1.0191-0.12254-0.26322-0.35772-0.57458-0.52259-0.69197-0.16479-0.1174-0.46639-0.25093-0.67012-0.29672-0.29109-0.06541-0.59588-0.02846-1.4236 0.17266-0.8787 0.21349-1.2634 0.25609-2.3202 0.25703-1.1981 0.0012-1.2962-0.01311-1.8071-0.262-0.29709-0.1447-0.63764-0.39713-0.75662-0.56097-0.11909-0.16384-0.2637-0.4098-0.32151-0.54652-0.0578-0.13682-0.0798-0.27402-0.0488-0.30498 0.031-0.03096 1.8249-0.05628 3.9865-0.05628 3.2895 0 3.9742-0.02267 4.1993-0.13916 0.16882-0.08727 0.31137-0.26716 0.38249-0.48262 0.0742-0.22465 0.092-0.59063 0.0517-1.0574-0.0339-0.39253-0.14948-1.0727-0.25674-1.5114-0.10722-0.4387-0.33961-1.0958-0.51631-1.4601-0.1767-0.36428-0.52043-0.90076-0.76375-1.1921-0.24342-0.29137-0.65369-0.69507-0.91175-0.8972-0.25806-0.20213-0.72979-0.49867-1.0483-0.65885-0.3186-0.16019-0.88868-0.37771-1.2668-0.48337-0.41063-0.11467-1.0848-0.20823-1.6731-0.23206-0.54192-0.02196-1.2387-0.0012-1.5483 0.046m18.17 0.04259c-0.32872 0.07479-0.85657 0.2589-1.173 0.40923-0.31643 0.15033-0.75092 0.40276-0.96552 0.56097-0.21452 0.15822-0.46648 0.41693-0.55976 0.57487-0.0934 0.15802-0.19612 0.28724-0.22841 0.28724-0.0324 0-0.11062-0.17295-0.17388-0.38428-0.0673-0.22456-0.28499-0.55412-0.52381-0.79294-0.2971-0.2971-0.55563-0.45137-0.94684-0.5651-0.38118-0.11083-0.75963-0.14424-1.2975-0.11458-0.57336 0.03161-0.87413 0.10097-1.2285 0.28321-0.25805 0.13278-0.56219 0.34111-0.67575 0.46291-0.1137 0.1219-0.30366 0.43222-0.42228 0.68963-0.21572 0.46807-0.21572 0.46807-0.21572 7.8814 0 6.9434 0.0113 7.4446 0.17181 7.9062 0.10745 0.30807 0.32431 0.64534 0.57861 0.89964 0.28285 0.28283 0.56877 0.45766 0.93906 0.57411 0.39451 0.12415 0.73054 0.15671 1.2982 0.12574 0.48608-0.02647 0.92056-0.11073 1.1892-0.23075 0.23282-0.10398 0.56135-0.32703 0.72999-0.49566 0.16872-0.16872 0.367-0.42322 0.44066-0.56576 0.0736-0.14245 0.17765-0.5286 0.23113-0.85807 0.0535-0.32938 0.0975-1.4253 0.0979-2.4354 6.4e-4 -1.8364 6.4e-4 -1.8364 0.43916-1.4282 0.24117 0.22456 0.69517 0.5287 1.0088 0.67593 0.3137 0.14714 0.80244 0.3214 1.086 0.38728 0.28369 0.06587 0.89599 0.11477 1.3607 0.10858 0.46479-0.0064 1.0946-0.07733 1.3994-0.15831 0.30488-0.0809 0.85254-0.30376 1.2169-0.49529 0.36448-0.19152 0.89851-0.58087 1.1869-0.86538 0.28838-0.28443 0.68223-0.77916 0.87525-1.0994 0.19303-0.32027 0.45634-0.88397 0.58509-1.2527 0.12883-0.3687 0.30009-1.099 0.38052-1.623 0.10187-0.66326 0.12941-1.266 0.0908-1.9848-0.0306-0.56773-0.1189-1.3278-0.19641-1.6891-0.0775-0.36128-0.23404-0.88913-0.34786-1.173-0.11393-0.28386-0.34655-0.75559-0.51696-1.0483-0.1705-0.29278-0.51584-0.75729-0.76742-1.0322-0.2516-0.27505-0.72661-0.65951-1.0555-0.85441-0.32892-0.195-0.86971-0.4388-1.2017-0.54183-0.332-0.10313-0.96542-0.20701-1.4076-0.23094-0.51661-0.02794-1.0175 0.0052-1.4016 0.09243m14.298-0.04259c-0.30968 0.04728-0.80721 0.15315-1.1055 0.23535-0.2984 0.0822-0.7418 0.24211-0.98532 0.35537-0.2436 0.11326-0.61174 0.30911-0.81818 0.43522-0.20645 0.12612-0.57288 0.39385-0.81424 0.59495-0.24146 0.20119-0.63305 0.61277-0.87028 0.91466-0.23713 0.30197-0.57739 0.85741-0.75597 1.2345-0.17867 0.37705-0.40989 1.0195-0.51396 1.4278-0.13204 0.51809-0.18918 1.0476-0.18918 1.7534 0 0.55609 0.0633 1.3122 0.14077 1.6802 0.0774 0.36804 0.28537 0.98222 0.46214 1.3648 0.1768 0.38258 0.51604 0.94853 0.75383 1.2575 0.23779 0.30911 0.67386 0.74537 0.96889 0.96955 0.29504 0.22418 0.76874 0.5348 1.0526 0.69029 0.28388 0.15549 0.76949 0.3732 1.0792 0.48383 0.30967 0.11064 0.82748 0.26717 1.1507 0.34796 0.32309 0.08071 1.0621 0.18205 1.6422 0.22512 0.58003 0.04305 1.5081 0.04279 2.0625-6.42e-4 0.55441-0.04342 1.3567-0.1676 1.783-0.27589 0.42622-0.10839 0.96448-0.2803 1.1962-0.38221 0.2316-0.10182 0.52072-0.27814 0.64252-0.39178 0.1218-0.11355 0.30066-0.361 0.3975-0.54981 0.0969-0.18881 0.20316-0.51312 0.23638-0.72069 0.0332-0.20786 8e-3 -0.59729-0.0571-0.86689-0.0756-0.3153-0.23394-0.6185-0.44479-0.85188-0.23076-0.25543-0.47353-0.40492-0.82215-0.50627-0.47519-0.13813-0.53694-0.13362-1.5603 0.1143-0.89296 0.2163-1.2705 0.25806-2.3323 0.25787-0.98476-9e-5 -1.3427-0.03508-1.6074-0.1569-0.1873-0.08624-0.47427-0.26923-0.63756-0.4067-0.16336-0.13738-0.37957-0.41177-0.48054-0.60968-0.10097-0.1979-0.18355-0.4037-0.18355-0.45737 0-0.06607 1.3067-0.0976 4.0423-0.0976 4.0423 0 4.0423 0 4.3293-0.28696 0.28695-0.28696 0.28695-0.28696 0.23525-1.3841-0.0284-0.60348-0.11899-1.3505-0.20129-1.6602-0.0824-0.30967-0.3199-0.911-0.52803-1.3363-0.22793-0.46554-0.58884-1.0003-0.90697-1.344-0.29062-0.31389-0.71167-0.69686-0.93567-0.85094-0.22408-0.15418-0.65405-0.40267-0.95556-0.55225-0.30152-0.14958-0.86042-0.35922-1.242-0.46582-0.41657-0.11636-1.0874-0.20973-1.6791-0.23376-0.54193-0.02196-1.2387-0.0012-1.5484 0.046m18.158 0.03013c-0.28388 0.06587-0.74098 0.23573-1.0158 0.37742-0.27477 0.1418-0.70296 0.47089-0.95135 0.73139-0.2485 0.2605-0.53038 0.63774-0.62647 0.83837-0.096 0.20054-0.20636 0.36513-0.24502 0.36579-0.0386 5.65e-4 -0.0707-0.11514-0.0713-0.25703 0-0.14189-0.10066-0.4722-0.2225-0.73392-0.1218-0.26172-0.37901-0.60564-0.57148-0.76423-0.19245-0.15868-0.58161-0.36137-0.86491-0.45043-0.37696-0.11861-0.72033-0.15071-1.2809-0.11993-0.52476 0.02877-0.88454 0.10322-1.1425 0.23648-0.20713 0.10689-0.4984 0.31483-0.64723 0.46188-0.14883 0.14714-0.3594 0.45757-0.46798 0.68982-0.19303 0.41308-0.19734 0.53432-0.19734 5.586 0 5.1636 0 5.1636 0.23976 5.6294 0.13184 0.25628 0.41787 0.6018 0.63576 0.76798 0.21781 0.1661 0.55337 0.34908 0.74556 0.40651 0.19227 0.05743 0.63632 0.12818 0.98681 0.15737 0.45259 0.03765 0.81088 0.0058 1.2365-0.10923 0.38099-0.10313 0.73411-0.27777 0.96993-0.47952 0.20382-0.17455 0.46948-0.51903 0.59035-0.76564 0.21085-0.43035 0.22192-0.56097 0.27616-3.2635 0.0447-2.2264 0.0865-2.8842 0.20016-3.1451 0.079-0.18139 0.29391-0.46179 0.47756-0.623 0.18364-0.16122 0.53826-0.35922 0.78815-0.44011 0.24981-0.0808 0.86849-0.19153 1.3747-0.24595 0.50626-0.05454 1.0763-0.16422 1.2668-0.2438 0.19059-0.07957 0.46188-0.25524 0.60282-0.39028 0.14105-0.13513 0.33108-0.43898 0.42229-0.67536 0.12273-0.31783 0.16581-0.69864 0.16544-1.462-6.5e-4 -0.85929-0.033-1.0941-0.19379-1.4015-0.12002-0.22944-0.33125-0.44095-0.55758-0.55843-0.20543-0.1066-0.59167-0.20007-0.88539-0.21414-0.28658-0.01381-0.75335 0.02877-1.0372 0.09469m-196.01 0.1006c-0.22079 0.07188-0.54408 0.23948-0.71834 0.37236-0.17435 0.13297-0.40792 0.38897-0.51912 0.56886-0.11119 0.17989-0.25121 0.46582-0.31108 0.63548-0.07629 0.21593-0.12387 2.1313-0.15868 6.3922-0.04963 6.0839-0.04963 6.0839-0.34252 6.3454-0.20466 0.1829-0.46788 0.2924-0.87468 0.3641-0.32009 0.0564-0.72463 0.19068-0.89908 0.2985-0.2071 0.128-0.40426 0.38005-0.56773 0.72557-0.21198 0.448-0.24286 0.61428-0.20054 1.0806 0.03351 0.36973 0.12828 0.66945 0.28809 0.9109 0.15878 0.23985 0.41974 0.44902 0.78253 0.62722 0.51358 0.25215 0.61062 0.26688 1.7174 0.26022 0.76339-0.0046 1.3991-0.06256 1.8205-0.1661 0.35602-0.08755 0.90789-0.28349 1.2264-0.43542 0.3184-0.15202 0.78309-0.45597 1.0325-0.67555 0.24952-0.21959 0.5941-0.61897 0.76592-0.88754 0.17173-0.26847 0.41787-0.8027 0.5469-1.1871 0.14724-0.43851 0.27241-1.1142 0.33622-1.8137 0.0636-0.69948 0.089-3.055 0.068-6.3229-0.0302-4.7061-0.0495-5.2502-0.19959-5.6457-0.0916-0.24061-0.31897-0.59476-0.50552-0.78694-0.18664-0.19209-0.53236-0.43607-0.76818-0.54193-0.30553-0.13728-0.67161-0.20082-1.2734-0.2209-0.54051-0.01811-0.98906 0.01876-1.246 0.10238m8.2365-0.05023c-0.12941 0.04233-0.36795 0.14545-0.5302 0.22935-0.16224 0.08389-0.4416 0.32394-0.62093 0.53338-0.17924 0.20936-0.4052 0.62225-0.50203 0.91738-0.16292 0.49622-0.17614 0.89336-0.17614 5.2755 0 4.3056 0.0153 4.7827 0.16739 5.2183 0.0921 0.26369 0.31194 0.64834 0.48853 0.85469 0.18694 0.21837 0.52889 0.46526 0.81792 0.59054 0.29813 0.12922 0.76254 0.23291 1.1611 0.25928 0.45504 0.03006 0.83189-0.0046 1.1961-0.11064 0.29241-0.08502 0.68239-0.28687 0.86661-0.44865 0.1842-0.16168 0.4387-0.49885 0.56557-0.74931 0.13119-0.25881 0.27326-0.77118 0.32919-1.1871 0.0616-0.45682 0.0852-2.3515 0.0631-5.0428-0.0315-3.8206-0.0541-4.3605-0.1996-4.7458-0.0902-0.2392-0.30413-0.59851-0.47529-0.79848-0.17126-0.19997-0.51734-0.46695-0.76911-0.59325-0.36626-0.18383-0.62675-0.23469-1.3024-0.25449-0.4645-0.01362-0.95041 0.0098-1.0797 0.05197m40.258 0.0564c-0.23226 0.07507-0.57796 0.26547-0.76818 0.42303-0.1903 0.15765-0.46478 0.5285-0.60995 0.82419-0.26406 0.5377-0.26406 0.5377-0.26406 5.652 0 4.8381 9e-3 5.132 0.17745 5.4427 0.0976 0.18064 0.25664 0.42998 0.3534 0.55412 0.0967 0.12415 0.30873 0.32375 0.47117 0.44348 0.16234 0.11983 0.51658 0.28218 0.78712 0.36082 0.27055 0.07863 0.72051 0.14301 0.99996 0.14301s0.72941-0.06568 0.99996-0.14601c0.28434-0.08445 0.65039-0.28931 0.86763-0.48563 0.20673-0.18674 0.44303-0.46948 0.52523-0.62816 0.0821-0.15868 0.2055-0.4997 0.27429-0.75776 0.096-0.35997 0.12528-1.5319 0.12613-5.034 1e-3 -4.2934-0.0102-4.6007-0.18552-5.1692-0.1267-0.41017-0.29804-0.71909-0.53311-0.9611-0.1904-0.19613-0.53929-0.44302-0.77511-0.54868-0.29635-0.13269-0.67536-0.20091-1.2265-0.22062-0.51574-0.01856-0.94685 0.01959-1.2199 0.10783m52.79-0.02165c-0.23208 0.06128-0.53048 0.2589-0.80027 0.52991-0.259 0.26013-0.47595 0.58584-0.54502 0.81837-0.0631 0.21245-0.11468 0.55704-0.11468 0.76583 0 0.2088 0.0788 0.6261 0.17511 0.92752 0.0963 0.30132 1.0071 2.4659 2.024 4.8101 1.0168 2.3441 1.9738 4.4437 2.1265 4.6657 0.15269 0.22193 0.41609 0.50908 0.58519 0.63811 0.16919 0.12903 0.50476 0.32178 0.74575 0.42838 0.24097 0.1066 0.70332 0.21855 1.0275 0.24886 0.32496 0.03032 0.82682 0.0058 1.1184-0.05481 0.31042-0.06438 0.70897-0.23779 0.96449-0.41947 0.23956-0.17022 0.56781-0.48947 0.7295-0.70933 0.16169-0.21986 0.66082-1.3288 1.1091-2.4641 0.44837-1.1354 0.83865-2.0069 0.86737-1.9369 0.0287 0.07 0.3958 0.95069 0.81565 1.9571 0.41994 1.0064 0.86258 1.9804 0.98372 2.1644 0.12114 0.18392 0.36185 0.47605 0.53479 0.64908 0.17305 0.17295 0.54718 0.42285 0.83133 0.55526 0.43954 0.20476 0.64983 0.24088 1.4082 0.24201 0.73936 0.0012 0.97585-0.03668 1.386-0.22184 0.30039-0.1355 0.67114-0.41636 0.94441-0.71534 0.40604-0.44424 0.63802-0.92976 2.3819-4.9846 1.0626-2.4708 1.9995-4.6944 2.0819-4.9414 0.0825-0.24699 0.14667-0.69038 0.14273-0.98532-3e-3 -0.29494-0.0567-0.67236-0.11732-0.83855-0.0606-0.16628-0.24698-0.44715-0.4141-0.62422-0.16722-0.17717-0.50195-0.38953-0.74396-0.47192-0.24201-0.08249-0.67837-0.14996-0.96965-0.14996-0.29127 0-0.7222 0.06559-0.95762 0.14582-0.23546 0.08024-0.59543 0.28912-0.79999 0.46423-0.23281 0.19932-0.49455 0.57476-0.69957 1.0037-0.18018 0.37696-0.74238 1.7726-1.2493 3.1017-0.507 1.329-0.94665 2.4157-0.97715 2.4149-0.0303-6.41e-4 -0.454-1.046-0.94139-2.3225-0.48742-1.2766-1.0274-2.663-1.1998-3.0809-0.17257-0.41786-0.4494-0.89936-0.6153-1.0699-0.16591-0.1705-0.47052-0.38718-0.67697-0.48149-0.22512-0.10285-0.59635-0.17229-0.9275-0.17351-0.30368-0.0012-0.71601 0.04702-0.91626 0.10698-0.20025 0.06006-0.5041 0.2452-0.67536 0.41139-0.17116 0.16628-0.38079 0.44883-0.46572 0.62779-0.085 0.17895-0.63727 1.585-1.2274 3.1246-1.073 2.7991-1.073 2.7991-1.2286 2.4303-0.0856-0.20288-0.58059-1.4246-1.0999-2.7149-0.5193-1.2903-1.0821-2.5617-1.2506-2.8254-0.16853-0.2636-0.43467-0.57064-0.59138-0.68231-0.15671-0.11157-0.46198-0.26537-0.67836-0.34167-0.22109-0.07798-0.68616-0.13457-1.0619-0.12913-0.36766 0.0052-0.83498 0.05371-1.0384 0.10744m-23.418 3.6031c-0.23224 0.07995-0.54229 0.2574-0.68896 0.39432-0.14659 0.137-0.34205 0.39685-0.4343 0.57749-0.0922 0.18064-0.19725 0.46572-0.23338 0.63342-0.0659 0.30498-0.0659 0.30498 2.0143 0.30498 2.0802 0 2.0802 0 2.0177-0.39882-0.0345-0.2194-0.17587-0.58884-0.31437-0.8211-0.1691-0.28368-0.38877-0.49153-0.66936-0.63342-0.25787-0.13044-0.5804-0.20945-0.84344-0.20663-0.23422 0.0026-0.61586 0.06982-0.84812 0.14977m52.832 0c-0.23225 0.07995-0.5423 0.2574-0.68896 0.39432-0.14658 0.137-0.34204 0.39685-0.4343 0.57749-0.0922 0.18064-0.19724 0.46572-0.23338 0.63342-0.0659 0.30498-0.0659 0.30498 2.0061 0.30498 1.1395 0 2.0709-0.03174 2.0696-0.07038-1e-3 -0.03867-0.0456-0.26041-0.0985-0.49266-0.0528-0.23225-0.2024-0.58396-0.33228-0.78159-0.14075-0.21405-0.39487-0.43129-0.62881-0.53752-0.21593-0.09798-0.58266-0.17707-0.81491-0.17576-0.23226 0.0012-0.61231 0.06775-0.84456 0.14771m15.309-0.01421c-0.22483 0.07009-0.51545 0.22569-0.64579 0.34561-0.13035 0.11993-0.33661 0.42922-0.45832 0.68729-0.12161 0.25806-0.22164 0.56416-0.22211 0.68034-6.5e-4 0.21114-6.5e-4 0.21114 2.0166 0.21114 2.0176 0 2.0176 0 2.017-0.21114 0-0.11618-0.047-0.37911-0.10403-0.58434-0.0571-0.20532-0.25835-0.52794-0.44734-0.71703-0.18909-0.18899-0.51171-0.39027-0.71702-0.44733-0.20524-0.05699-0.52101-0.10097-0.70165-0.09788-0.18063 0.0031-0.51245 0.06315-0.7373 0.13335m32.549 0.0088c-0.23226 0.08249-0.57909 0.30094-0.77071 0.48534-0.19163 0.18449-0.41327 0.52588-0.49265 0.75879-0.0792 0.23282-0.14424 0.47999-0.14424 0.54924 0 0.10219 0.38408 0.12105 2.041 0.1006 2.041-0.02537 2.041-0.02537 2.011-0.35378-0.0165-0.18064-0.11664-0.51067-0.2225-0.73345-0.11504-0.24201-0.34241-0.5042-0.565-0.65153-0.26753-0.17698-0.52204-0.25477-0.90349-0.27588-0.32055-0.01772-0.69854 0.03013-0.95341 0.12067m-190.31 0.41682c-0.18064 0.03173-0.46648 0.13007-0.63529 0.21856-0.16872 0.08849-0.43035 0.33144-0.58134 0.53986-0.15089 0.20842-0.32478 0.60358-0.38624 0.87825-0.06653 0.29766-0.09394 0.89204-0.06775 1.471 0.03294 0.72735 0.09609 1.0888 0.25093 1.4374 0.11383 0.25618 0.27927 0.54577 0.36757 0.64346 0.0884 0.09767 0.31737 0.25759 0.5088 0.35528 0.2057 0.10501 0.54221 0.17773 0.82213 0.17773 0.28358 0 0.63989-0.07798 0.88688-0.19416 0.24051-0.11298 0.5195-0.34777 0.66795-0.56201 0.14029-0.20241 0.3123-0.61127 0.38221-0.90855 0.07-0.29728 0.1279-0.8378 0.12865-1.2011 8.35e-4 -0.36335-0.06372-0.91231-0.14339-1.2199-0.07966-0.30761-0.2484-0.71647-0.37498-0.90856-0.1265-0.19209-0.36748-0.42096-0.53545-0.50852-0.16797-0.08754-0.45315-0.18561-0.63379-0.2178-0.18064-0.03224-0.47624-0.03263-0.65688-6.43e-4m173.68 0.12518c-0.13945 0.06187-0.35773 0.21039-0.48506 0.33003-0.12734 0.11965-0.32993 0.43504-0.45023 0.70089-0.19464 0.43016-0.21866 0.62309-0.21773 1.7503 6.5e-4 1.1735 0.0186 1.3015 0.24118 1.736 0.14545 0.28406 0.39666 0.57918 0.63651 0.7479 0.326 0.22925 0.50777 0.28396 1.0256 0.30864 0.51939 0.0248 0.69497-0.0075 1.0047-0.18477 0.28958-0.16582 0.45042-0.36457 0.7038-0.86952 0.323-0.64392 0.32843-0.67405 0.32843-1.8299 0-0.79342-0.043-1.2819-0.13231-1.5037-0.0727-0.18064-0.23676-0.47023-0.36447-0.64365-0.12763-0.17332-0.40595-0.39412-0.6184-0.49059-0.23546-0.10688-0.58772-0.17323-0.90238-0.16985-0.28385 0.0031-0.63023 0.05621-0.76966 0.11814" fill="#fff" fill-rule="evenodd" stroke-width=".09384"/>
</svg>
