<?xml version="1.0" encoding="UTF-8"?>
<svg width="13.743mm" height="12.419mm" version="1.1" viewBox="0 0 13.743 12.419" xmlns="http://www.w3.org/2000/svg">
<path d="m10.681 6.9724e-4c-0.41946 0.01-0.83858 0.12285-1.1901 0.33487-0.39982 0.28222-0.76422 0.635-1.0935 1.0583-0.3175 0.42333-0.59952 0.86431-0.84646 1.3229-0.24694 0.44685-0.44128 0.80544-0.58239 1.0759-0.3175-0.5762-0.60533-1.0996-0.86403-1.5699-0.24694-0.47037-0.49991-0.87015-0.75861-1.1994-0.24694-0.32926-0.51153-0.57589-0.79375-0.74052-0.72322-0.44024-1.6176-0.23412-2.3812 0.17621-0.38806 0.27047-0.71707 0.67024-0.98754 1.1994-0.2587 0.51741-0.47048 1.1702-0.6351 1.958s-0.29983 1.6994-0.40566 2.7342c-0.10583 0.99954-0.15284 1.7753-0.14108 2.328 0.05462 1.3689 0.31202 2.7956 1.7461 3.4571 0.47037 0.19989 0.95834 0.28808 1.464 0.26458 0.50565-0.0235 0.94662-0.1999 1.3229-0.52916 0.2587-0.25871 0.42348-0.58192 0.49403-0.96997 0.08229-0.38805 0.11137-0.79365 0.08785-1.217-0.02352-0.43509-0.06472-0.87607-0.12351-1.3229-0.05879-0.44685-0.08785-0.85877-0.08785-1.2351 0.12935 0.0705 0.28198 0.18832 0.45837 0.35295s0.34697 0.3352 0.5116 0.51159c0.17639 0.16463 0.34116 0.31145 0.49403 0.4408 0.15287 0.12933 0.27645 0.19431 0.37052 0.19431 0.18815 0 0.3524-0.0708 0.49351-0.21188 0.15287-0.14111 0.3002-0.30587 0.44132-0.49402 0.14111-0.19991 0.28212-0.39373 0.42323-0.58188 0.14111-0.19991 0.29374-0.35887 0.45837-0.47646-0.04703 0.30574-0.07609 0.65852-0.08785 1.0583 0 0.38805 0.02324 0.79416 0.07028 1.2175 0.04704 0.41157 0.12361 0.81717 0.22944 1.217 0.11759 0.39982 0.27022 0.75841 0.45837 1.0759 0.18815 0.30574 0.41787 0.55289 0.68833 0.74104 0.28222 0.17635 0.61124 0.25819 0.98754 0.24649 0.61148-0.0235 1.1174-0.17033 1.5172-0.4408 2.0695-1.4885 1.1236-4.3167 1.0051-6.844-0.09407-0.75259-0.18226-1.4048-0.26458-1.9575-0.08232-0.56445-0.17632-1.035-0.28215-1.4113-0.09407-0.37629-0.22927-0.68788-0.40566-0.93483-0.3915-0.57487-1.092-0.84522-1.7911-0.82889zm-7.3055 1.1968a0.80814 0.70666 0 0 1 0.80822 0.70693 0.80814 0.70666 0 0 1-0.80822 0.70642 0.80814 0.70666 0 0 1-0.80822-0.70642 0.80814 0.70666 0 0 1 0.80822-0.70693zm7.4507 0.0636a0.80814 0.70666 0 0 1 0.80822 0.70694 0.80814 0.70666 0 0 1-0.80822 0.70641 0.80814 0.70666 0 0 1-0.80822-0.70641 0.80814 0.70666 0 0 1 0.80822-0.70694z" fill="#0b0b0b" style="paint-order:markers fill stroke"/>
</svg>
