<?xml version="1.0" encoding="UTF-8" standalone="no"?>
<!-- Created with Inkscape (http://www.inkscape.org/) -->

<svg
   width="282.08286mm"
   height="342.71857mm"
   viewBox="0 0 282.08286 342.71857"
   version="1.1"
   id="svg5"
   xml:space="preserve"
   inkscape:version="1.3.2 (091e20e, 2023-11-25)"
   sodipodi:docname="moustache_man.svg"
   xmlns:inkscape="http://www.inkscape.org/namespaces/inkscape"
   xmlns:sodipodi="http://sodipodi.sourceforge.net/DTD/sodipodi-0.dtd"
   xmlns="http://www.w3.org/2000/svg"
   xmlns:svg="http://www.w3.org/2000/svg"><sodipodi:namedview
     id="namedview7"
     pagecolor="#ffffff"
     bordercolor="#000000"
     borderopacity="0.25"
     inkscape:showpageshadow="2"
     inkscape:pageopacity="0.0"
     inkscape:pagecheckerboard="0"
     inkscape:deskcolor="#d1d1d1"
     inkscape:document-units="mm"
     showgrid="false"
     inkscape:zoom="0.125"
     inkscape:cx="8"
     inkscape:cy="-660"
     inkscape:window-width="1592"
     inkscape:window-height="942"
     inkscape:window-x="0"
     inkscape:window-y="25"
     inkscape:window-maximized="0"
     inkscape:current-layer="layer16"
     showguides="true" /><defs
     id="defs2" /><g
     inkscape:groupmode="layer"
     id="layer16"
     inkscape:label="info"
     style="display:inline"
     transform="matrix(7.627479,0,0,7.627479,-1687.2367,-1136.0723)" /><g
     inkscape:groupmode="layer"
     id="layer5"
     inkscape:label="scene"
     style="display:inline"
     transform="matrix(7.627479,0,0,7.627479,-1687.2367,-1136.0723)"><g
       inkscape:groupmode="layer"
       id="layer10"
       inkscape:label="lamp"
       style="display:inline" /><g
       inkscape:groupmode="layer"
       id="layer9"
       inkscape:label="desk"
       style="display:inline" /><g
       inkscape:groupmode="layer"
       id="layer11"
       inkscape:label="clock" /><g
       inkscape:groupmode="layer"
       id="layer14"
       inkscape:label="shoes"
       style="display:inline" /><g
       inkscape:groupmode="layer"
       id="layer15"
       inkscape:label="magazine"
       style="display:inline" /><g
       inkscape:groupmode="layer"
       id="layer8"
       inkscape:label="bed"
       style="display:inline" /><g
       inkscape:groupmode="layer"
       id="layer13"
       inkscape:label="book"
       style="display:inline" /><g
       inkscape:groupmode="layer"
       id="layer6"
       inkscape:label="man"
       style="display:inline"><g
         inkscape:groupmode="layer"
         id="layer4"
         inkscape:label="body"
         style="display:inline" /><g
         inkscape:groupmode="layer"
         id="layer2"
         inkscape:label="face"
         style="display:inline"><path
           style="display:inline;fill:#d88a6b;fill-opacity:1;stroke:none;stroke-width:0.2;stroke-dasharray:none;stroke-opacity:1"
           d="m 227.47938,189.47284 -1.4658,-2.05866 -1.48188,-2.13667 -0.86374,-1.88202 -0.39269,-2.01529 0.0391,-2.10926 0.13358,-2.58951 0.41509,-1.68635 0.95672,-2.30916 1.53106,-2.07789 1.74371,-1.84036 1.94465,-1.25514 2.0671,-0.91465 1.55603,-0.40499 1.27186,-0.33762 2.69158,-0.25939 2.08361,0.22001 2.21186,0.38787 2.50633,0.42313 1.7962,0.84479 2.64217,1.49066 1.50431,0.97467 1.61587,1.48642 2.10067,2.49291 1.19801,1.49797 0.7055,1.58156 0.66571,1.62312 0.30932,1.62386 0.0409,1.88516 -0.54045,2.9836 -0.74318,1.70466 -0.66534,1.29233 -0.84785,1.58598 -1.31964,1.26947 c 0,0 -1.75173,1.23946 -1.91033,1.23946 -0.1586,0 -2.36929,0.8438 -2.58132,0.87672 -0.21203,0.0329 -4.33037,0.75562 -4.33037,0.75562 l -2.57879,0.0409 -3.63825,-0.12812 -2.51005,-0.40046 -1.93358,-0.54823 -2.28881,-0.67403 -2.25515,-1.22557 z"
           id="path9275"
           inkscape:label="face" /><path
           style="display:inline;fill:#000000;fill-opacity:1;stroke-width:0.264583"
           d="m 233.8119,181.16258 c -0.0876,-0.0292 -4.85375,-0.15071 -4.85375,-0.15071 l -2.44087,-0.50566 -2.24484,-0.85769 -2.94473,-1.49324 -0.12268,0.12563 c 0,0 0.68831,1.28148 0.74956,1.3763 0.0612,0.0948 1.35996,1.57215 1.35996,1.57215 l 1.41122,1.58261 1.42398,1.23137 1.23096,0.40586 2.14175,0.22192 0.97874,0.18298 0.53322,0.48765 1.37103,0.3857 1.70598,0.51319 1.33279,0.40084 1.15943,0.15011 0.96804,0.0309 h 0.57191 l 0.65328,0.0851 0.62687,0.47955 1.11757,0.71013 0.97159,0.58279 1.11524,0.47517 1.10211,0.44142 1.44688,0.54 c 0,0 0.34024,0.22392 0.60725,0.22392 0.26701,0 0.83073,0.12358 0.94728,0.12358 0.11656,0 0.69804,0.15634 0.69804,0.15634 l 0.64857,0.50605 1.13861,0.52954 0.94092,0.35239 c 0,0 0.6161,0 0.73951,0 0.1234,0 1.32308,-0.0283 1.32308,-0.0283 l 1.28237,-0.16738 1.36356,-0.25555 0.62937,-0.25823 1.38143,-0.35515 0.76685,-0.30919 0.5435,-0.18002 -0.0203,-0.29792 -2.23744,-0.37311 -1.86709,-0.35856 -1.26814,-0.38367 -1.56617,-0.58164 -0.76383,-0.46116 -1.08675,-0.62142 -1.42563,-0.86751 -0.89787,-0.70749 -0.77894,-0.47124 -0.84471,-0.29959 -0.72217,-0.0621 -1.20272,-0.1335 -0.78226,-0.0572 -0.9866,-0.10621 -0.97819,-0.1613 -0.84999,-0.1318 -0.73456,-0.28213 -1.32484,-0.75385 -0.59103,-0.42075 -1.44591,-0.79513 -1.2758,-0.61393 z"
           id="path1143"
           inkscape:label="moustache" /><path
           style="display:inline;fill:#ab3131;fill-opacity:1;stroke-width:0.264583"
           d="m 241.31457,177.27244 -2.7457,2.32628 -0.97276,0.97181 -0.27357,1.28377 -0.0676,1.20733 0.37412,0.93696 c 0,0 0.41702,0.79877 0.53772,0.9015 0.12069,0.10273 0.35025,0.50976 0.57589,0.52955 0.22563,0.0198 0.71806,0.11588 0.71806,0.11588 l 0.5751,-0.0171 0.49067,-0.26801 0.60421,-0.47313 0.59059,-0.44512 0.50873,-0.63211 0.41222,-0.78446 c 0,0 0.28822,-0.78152 0.2715,-0.9157 -0.0167,-0.13419 -0.0167,-0.8904 -0.0167,-0.8904 l -0.40752,-0.90976 -0.60476,-1.51289 -0.33291,-0.94659 z"
           id="path1462"
           inkscape:label="nose" /><path
           style="display:inline;fill:#f3e6c0;fill-opacity:1;stroke-width:0.264583"
           d="m 226.75567,175.446 c 0,0 1.48883,-0.74983 1.64394,-0.82474 0.15511,-0.0749 1.52446,-0.69424 1.52446,-0.69424 l 0.95004,-0.38078 0.92802,-0.0771 1.48607,-0.0862 1.12292,0.12173 1.09125,0.0937 0.90941,0.18841 0.86984,0.42689 1.09784,0.61822 0.83783,0.60259 0.83341,0.87998 0.51495,0.63842 0.19556,0.2864 -0.7838,0.51541 -0.53741,0.3973 -0.95867,0.64936 -1.25619,0.56371 c 0,0 -1.05514,0.41633 -1.11824,0.41633 -0.0631,0 -0.92752,0.0805 -1.00086,0.0549 -0.0733,-0.0256 -1.64246,-0.11241 -1.64246,-0.11241 l -0.8438,-0.23442 -1.09309,-0.46731 -0.7906,-0.34444 -0.82061,-0.39697 -0.64737,-0.49865 -0.90679,-0.74231 -0.62071,-0.5448 -0.62868,-0.62027 z"
           id="path5181"
           inkscape:label="eye_right" /><path
           style="display:inline;fill:#f3e6c0;fill-opacity:1;stroke-width:0.264583"
           d="m 241.63234,177.87044 1.12981,-0.46544 1.2245,-0.48634 0.92615,-0.28939 0.66934,-0.10838 h 1.25703 l 1.59792,0.28022 0.9173,0.28226 1.08438,0.4806 1.05519,0.48596 0.73216,0.52656 0.57772,0.45766 0.73755,0.75926 c 0,0 0.56781,0.60964 0.61778,0.69657 0.05,0.0869 0.48283,0.61897 0.48283,0.61897 l 0.38715,0.42942 -0.22039,0.43579 c 0,0 -0.96982,0.28065 -1.03015,0.28065 -0.0603,0 -0.75493,0.2813 -0.75493,0.2813 l -1.16805,0.42878 c 0,0 -0.51963,0.0318 -0.57887,0.0318 -0.0592,0 -1.31369,0.16111 -1.36805,0.16111 -0.0544,0 -0.49786,0.11281 -0.71088,0.0852 -0.21303,-0.0276 -0.80227,-0.0135 -0.94296,-0.0135 -0.14068,0 -1.22542,-0.25539 -1.22542,-0.25539 l -0.92675,-0.15557 -1.10178,-0.50473 -0.49723,-0.58154 -0.83089,-0.83065 -0.33424,-0.45497 -0.68806,-0.88961 c 0,0 -0.29715,-0.56024 -0.38768,-0.66028 -0.0905,-0.10004 -0.42852,-0.65291 -0.42852,-0.65291 z"
           id="path7451"
           inkscape:label="eye_left" /><path
           style="display:inline;fill:#1e1e1e;fill-opacity:1;stroke-width:0.264583"
           d="m 233.11216,174.53847 0.85932,-0.20514 0.60117,-0.14915 0.27397,0.28838 0.56145,0.61374 0.22075,0.42416 0.0496,0.87667 -0.0436,0.67314 -0.51931,0.29389 -0.64894,0.27023 -0.51441,-0.0161 -0.46378,-0.15707 -0.55001,-0.2836 -0.20677,-0.58443 -0.0473,-0.67788 0.10597,-0.80431 z"
           id="path7453"
           inkscape:label="eyeball_right" /><path
           style="display:inline;fill:#1e1e1e;fill-opacity:1;stroke-width:0.264583"
           d="m 245.89446,178.94414 0.90105,-0.72452 0.51737,-0.25137 0.61938,0.18315 0.51425,0.1753 c 0,0 0.3069,0.32703 0.33209,0.36919 0.0252,0.0421 0.0556,0.69655 0.0556,0.69655 l 0.40029,0.29057 -0.0713,0.6906 -0.20903,0.57521 -0.47911,0.26622 -0.7715,0.15399 -0.75192,-0.13127 -0.41404,-0.32002 -0.46409,-0.55905 -0.21555,-0.81548 z"
           id="path9219"
           inkscape:label="eyeball-left" /><path
           style="display:inline;fill:#e7d2b0;fill-opacity:1;stroke:none;stroke-width:0.2;stroke-dasharray:none;stroke-opacity:1"
           d="m 231.4217,167.29601 24.8294,7.66368 -2.29684,-16.74237 -0.5046,-1.68409 -1.85092,-2.83583 -3.29416,-2.57385 -2.82387,-1.72124 -1.73861,-0.45765 -1.25916,0.19029 -2.9037,0.72108 -1.8499,0.65522 -2.47153,1.19775 -3.33826,1.56091 -2.01153,0.92725 -1.65197,0.66342 3.97928,0.16813 4.35776,0.10113 0.90347,0.48913 -0.32965,0.62783 z"
           id="path14648"
           inkscape:label="hat" /><path
           style="display:inline;fill:#8f9fa4;fill-opacity:1;stroke:none;stroke-width:0.2;stroke-dasharray:none;stroke-opacity:1"
           d="m 226.0029,153.84106 2.77872,-0.79089 0.98552,0.576 1.1597,1.12932 0.69952,1.55555 -0.34967,1.09185 -0.58705,1.20341 -0.75375,0.79826 -2.50938,0.36336 -1.93101,-1.42626 -0.84386,-1.03521 0.1101,-1.70537 0.56643,-1.21996 z"
           id="path16369"
           inkscape:label="hat_top" /></g></g><g
       inkscape:groupmode="layer"
       id="layer3"
       inkscape:label="coathanger"
       style="display:inline" /><g
       inkscape:groupmode="layer"
       id="layer7"
       inkscape:label="window"
       style="display:inline" /></g></svg>
