<?xml version="1.0" encoding="UTF-8"?>
<svg id="svg1" width="120mm" height="120mm" version="1.1" viewBox="0 0 120 120" xmlns="http://www.w3.org/2000/svg">
 <g id="g4-4" transform="matrix(-.27734 -.0099665 -.010355 .26694 137.86 -4.6957)" fill-rule="evenodd">
  <path id="path12-2" transform="translate(7.1417e-6)" d="m365.08 51.802c1.0104 0.04278 1.8369 0.14602 2.6317 0.37896 0.79479 0.23294 1.6068 0.70669 2.1465 1.3481s0.78987 1.3024 0.99466 1.9053c0.35933 1.0572 0.30953 1.6849 0.39073 3.0094s0.1453 3.0484 0.1934 5.1005c0.0963 4.1043 0.13149 9.5107 0.10889 15.449-0.0451 11.876-0.32121 25.865-0.80514 35.737l-0.74807 15.295-15.176-3e-3c-9.4259-3e-3 -15.055-0.21714-19.128-3.2444-4.0734-3.0272-5.4866-8.1665-7.2872-16.522-2.0398-9.462-2.5368-27.692-0.99341-37.022 1.5156-9.1698 10.652-16.967 22.149-20.067 2.9137-0.78464 7.9064-1.3336 11.79-1.3737 1.5288-0.01537 2.7232-0.03308 3.7337 0.0097zm-168.73 246.16c5.286 0.38424 10.893 2.2702 16.409 5.5027 2.2379 1.3113 3.5677 1.7452 4.5342 3.47 0.4833 0.86239 0.4829 2.0321 0.25718 2.7934-0.22573 0.76132-0.54455 1.3343-0.90703 2.0356-1.597 3.0879-4.7065 5.2511-8.7208 6.6532s-9.0307 2.0921-14.918 2.0991c-4.1643 5e-3 -6.748-0.053-8.8041-0.39647-2.0561-0.34343-3.6124-1.0996-4.9798-2.116-3.3734-2.5078-4.7561-6.3804-3.528-9.8092s4.4569-6.2316 9.102-8.329c2.0152-0.90985 4.1572-1.5005 6.3906-1.7825 1.675-0.2115 3.402-0.24889 5.164-0.12081zm2.9237 43.86c1.1784 0.0235 2.351 0.10672 3.5012 0.24687 4.6008 0.56062 8.8626 1.959 11.702 4.572l2e-3 -2e-3c1.6194 1.4911 3.9216 4.3917 5.6597 6.9617l-7e-5 2e-3 4.1269 6.0953-3.9317 3.0494c-4.6774 3.628-11.293 6.3081-18 7.4025-5.4475 0.88869-8.0517 0.70616-12.814-0.89463-6.7512-2.2684-11.49-7.4326-11.49-13.512 0-2.7188 1.4326-5.2058 3.4109-7.3645s4.5977-3.9938 7.5216-5.0274c2.1263-0.75187 4.4291-1.2112 6.7755-1.4138l7e-5 -2e-3c1.1732-0.10131 2.3568-0.13736 3.5352-0.11386zm-1.5234 54.276c3.865 0.17256 8.2984 0.74911 12.105 1.7084 2.997 0.75598 6.5444 2.476 8.7906 4.351l5.0939 4.2517-6.2558 6.2594c-5.3196 5.3196-10.522 8.4963-15.783 9.1598-5.261 0.66349-10.337-1.3912-14.764-5.662-2.792-2.6924-3.9031-5.1953-3.875-8.7516 0.0179-2.3229 0.33755-4.3117 1.26-6.049 0.92243-1.7374 2.395-3.0649 4.2407-4.1877l1.1165 1.8362 2e-3 7e-5 -1.1184-1.8363c1.217-0.7407 2.4201-0.87574 3.9452-1.0142 1.525-0.1385 3.3095-0.15193 5.242-0.0656zm-9.1049 49.281 7.5015 0.7021c7.5108 0.70103 15.179 3.6852 18.729 8.1989l-7e-5 2e-3c0.37375 0.47548 0.8502 0.9386 1.2214 1.2226 0.20878 0.15978 0.45335 0.20967 0.48358 0.22325l2e-3 2e-3 -7e-5 2e-3c-0.0135 4e-3 -0.1343-5e-3 -0.43583-5e-3 0.55225 0 1.1693 0.097 1.768 0.45513 0.59875 0.35812 1.0886 1.0194 1.2744 1.6486 0.37159 1.2584-0.0197 2.1622-0.43313 2.967-0.82688 1.6097-2.2861 3.0805-4.2382 4.2207l-2e-3 -7e-5 -7e-5 2e-3c-4.8376 2.8249-13.168 4.9792-19.045 4.9959-3.62 0.01-6.2618-1.0587-9.4054-3.7564-1.6754-1.4378-2.9786-2.6006-3.9834-3.7514s-1.7749-2.377-1.9585-3.8365 0.30122-2.8619 1.0424-4.1155 1.7597-2.4959 3.0682-4.0244z" fill="#fff" fill-rule="nonzero" stop-color="#000000"/>
  <path id="path13-3" transform="translate(-2.385e-6)" d="m327.17 32.521c11.044-0.02959 17.852 1.5483 28.333 6.5519l15.87 7.5752-16.032 2.4408c-4.3112 0.65723-9.5326 1.7315-10.818 2.1321l7e-5 -0.0019c-3.2557 1.015-7.7132 3.9327-11.384 7.3766-3.6712 3.4439-6.5839 7.532-7.3252 10.047-0.14083 0.4778-0.53193 2.8246-0.81805 5.5913-0.28611 2.7666-0.54156 6.1344-0.69323 9.3844-0.63631 13.631 2.0347 30.581 5.8907 39.003 2.1077 4.6048 2.0491 4.5486 6.5871 6.6266 2.2282 1.0199 3.6215 1.5179 5.9025 1.8562 2.2811 0.33825 5.4931 0.47187 10.885 0.55547 3.4426 0.0538 6.698 0.1456 9.1915 0.25219 1.2468 0.0533 2.3003 0.11115 3.1109 0.17035 0.40533 0.0295 0.74761 0.0588 1.0456 0.0932 0.29793 0.0344 0.40869-1e-3 1.0006 0.19998 0.83721 0.28512 1.24 0.82159 1.4634 1.1794 0.22342 0.35778 0.31885 0.63566 0.40055 0.89965 0.16333 0.52797 0.24088 1.0198 0.31388 1.6243 0.14591 1.209 0.2312 2.8277 0.2808 5.0554 0.0993 4.4553 0.042 11.29-0.14973 21.227-0.49627 25.702-0.0952 34.506 3.231 70.912 0.0929 1.0178 0.73669 4.056 2.0223 8.8664 1.2856 4.8104 3.2078 11.524 5.8592 20.484 1.315 4.4441 2.8966 8.4022 4.4089 11.269 1.4406 2.7308 3.0954 4.2469 3.1467 4.3513 0.19133-0.0646 0.45164-0.22067 0.56977-0.3388 0.17655-0.17682 0.1477-0.14862 0.1862-0.19632-0.0588-0.27334-0.50946-1.5129-1.6383-3.8303-1.4194-2.9152-3.5404-8.993-5.446-14.932-0.95284-2.9693-1.828-5.8579-2.4737-8.2037-0.32289-1.1729-0.58931-2.209-0.78153-3.0724-0.19222-0.86336-0.33664-1.4306-0.33664-2.2621 0-0.72479 0.48758-1.6786 1.0418-2.1022 0.55423-0.42358 1.0021-0.50069 1.3285-0.54859 0.6529-0.0958 1.0225-0.0237 1.4479 0.0463 0.85076 0.13993 1.7904 0.40756 2.9924 0.79896 2.4041 0.78279 5.751 2.0736 9.9062 3.8157 20.225 8.4816 53.596 16.257 76.217 17.748 4.1749 0.2746 6.5812 0.45577 8.3352 0.87842 0.87702 0.21133 1.7312 0.42199 2.5563 1.3518 0.82504 0.92985 0.86537 2.4589 0.64801 3.2048l2e-3 7e-5c0.0591-0.2029-0.12107 0.70091-0.23717 1.8109-0.11611 1.11-0.24831 2.6188-0.38543 4.4343-0.27423 3.631-0.57851 8.4906-0.87775 13.977-0.59849 10.973-1.1782 24.462-1.4874 35.745-0.63551 23.187-1.8424 39.212-4.0661 53.809-0.8338 5.471-2.219 12.554-3.5179 18.414-0.64945 2.9302-1.2765 5.5491-1.8107 7.5249-0.26709 0.98792-0.50831 1.8104-0.73713 2.4756-0.11441 0.33256-0.22083 0.62176-0.35662 0.91784-0.10574 0.23057-0.0963 0.43819-0.46708 0.83241-0.021 0.0714-0.0445 0.15734-0.0672 0.25303-0.10949 0.46178-0.21878 1.1543-0.26788 1.8349-0.16414 2.2784-1.1522 6.7113-2.2611 10.954-1.0556 4.0433-2.6364 11.248-3.4647 15.793-0.42621 2.3384-0.85123 4.4985-1.1955 6.1192-0.17215 0.81035-0.32356 1.4824-0.45293 2.0003-0.0647 0.25892-0.1216 0.47456-0.1878 0.68797-0.0331 0.1067-0.0637 0.20994-0.12328 0.35741-0.0596 0.14746 0.0655 0.25066-0.59099 0.90716-0.73962 0.73937-1.2296 0.69724-1.5106 0.73344-0.28094 0.0362-0.44317 0.0248-0.58756 0.0168-0.28877-0.0169-0.49123-0.0519-0.71757-0.0945-0.45266-0.0854-0.95632-0.20888-1.5513-0.37153-1.1899-0.32529-2.7167-0.80309-4.3612-1.3689-5.1465-1.771-23.393-5.4636-40.562-8.0403-9.2008-1.3811-32.085-1.6887-38.981-0.62683l-10.577 1.6281 6.7866-9.546c1.6532-2.3269 4.9012-7.9926 6.8956-12.115 1.5534-3.2108 2.3895-5.1886 2.6424-6.1446 0.1099-0.41575 0.093-0.51212 0.094-0.52112-0.19956-0.22099-0.36354-0.35791-0.45882-0.43721-0.0506 0.0402-0.11882 0.096-0.20766 0.17228-0.93925 0.80613-2.9233 3.7323-5.4627 8.7205-4.0956 8.044-7.0247 12.042-14.013 19.14-4.814 4.8897-11.012 10.412-14.448 12.733-6.2398 4.2138-24.412 12.528-33.453 15.45-8.7112 2.8148-23.287 3.6325-43.549 2.8014-17.678-0.72377-20.306-1.1123-29.173-4.115-2.6192-0.8868-5.0362-1.7313-6.8405-2.3849-0.90216-0.32678-1.6484-0.60505-2.207-0.82384-0.27932-0.1094-0.51064-0.20184-0.71578-0.29194-0.10257-0.0451-0.19662-0.0875-0.31677-0.14928-0.12014-0.0618-0.15771 0.0415-0.7077-0.50846l-4e-3 -4e-3c-0.77129-0.77528-0.75092-1.4949-0.74692-1.8534s0.0553-0.54695 0.0973-0.7107c0.084-0.32749 0.17127-0.52908 0.26847-0.75272 0.19433-0.44726 0.44006-0.91969 0.74826-1.4762 0.6164-1.1131 1.4767-2.5242 2.4687-4.0371 5.0391-7.6828 6.5262-13.927 6.0013-25.742-0.3311-7.4635-0.94949-10.812-2.457-14.191-0.59041-1.3223-1.2056-2.5874-1.6984-3.519-0.2464-0.46577-0.46425-0.85367-0.6114-1.0914-0.0297-0.048-0.0707-0.0945-0.11046-0.13576l-2e-3 -2e-3c-0.0609-0.0629-0.11944-0.11139-0.13343-0.1192l-2e-3 -7e-5 -7e-5 2e-3 -2e-3 -7e-5 7e-5 -2e-3c-1.4309-1.1625-2.5964-2.5467-2.9628-4.3386-0.40234-1.9681 0.15078-3.8276 1.0314-5.9143 4.5254-10.724 5.3074-23.538 2.1826-33.055l-2.4394-7.4261 2.8188-5.7295c1.0252-2.0815 1.461-3.1748 1.7531-5.4324 0.29213-2.2576 0.36142-5.7008 0.36142-11.776 0-7.604-0.33193-12.448-1.2787-16.057-0.94674-3.6095-2.448-6.1172-5.2582-9.4808l-4.0844-4.8877 0.73415-12.277c0.32759-5.4799 0.4426-8.2867 0.24139-9.9085s-0.59549-2.2976-1.8609-4.4562c-4.8218-8.2291-6.6226-9.7383-17.481-14.833-19.374-9.0903-31.938-12.124-56.667-13.661-8.8106-0.54666-21.838-1.412-28.979-1.9221-6.7797-0.48472-10.694-0.54163-12.211-0.23714-0.34148 0.0687-0.51798 0.12632-0.60034 0.15956-0.0162 0.0786-0.0462 0.24931-0.0542 0.55357 0.0102 0.0247 0.0393 0.1088 0.11358 0.2017 0.14483 0.18117 0.4041 0.3767 0.56652 0.44705-0.0979-0.043 0.43239 0.12136 1.1294 0.2435 0.71972 0.12613 1.7054 0.2658 2.9006 0.41416 2.3904 0.29671 5.6244 0.62165 9.4375 0.94861 7.6262 0.65392 17.585 1.323 27.976 1.8402 21.613 1.0746 37.698 4.9496 54.693 13.222 5.4538 2.6543 8.6933 4.3292 11.097 6.3091s3.7354 4.2706 5.0108 7.224c1.157 2.6812 1.7132 6.6383 2.0166 10.467 0.15176 1.9144 0.20961 3.7416 0.13451 5.2803-0.0375 0.76933-0.10266 1.4632-0.23963 2.1263-0.13697 0.66317-0.16989 1.3188-1.0665 2.2155-1.0899 1.0899-1.7585 0.79171-2.1306 0.77031-0.37202-0.0214-0.62272-0.0785-0.88716-0.14347-0.5289-0.12989-1.0712-0.31511-1.701-0.55329-1.2596-0.47637-2.8256-1.1693-4.4924-1.9952-8.1911-4.0599-16.206-5.1047-22.434-3.2846-2.8284 0.82657-6.216 2.574-9.046 4.5852s-5.11 4.394-5.8542 5.833c-1.7854 3.453-1.5372 7.3465 0.74776 10.714l4.7118 6.9476-7.737 0.91525c-11.789 1.3931-33.676-3.0035-51.347-9.8136-5.1593-1.9877-12.849-4.6942-16.888-5.9484-4.2756-1.327-11.034-3.7832-15.282-5.5516-6.6903-2.7849-9.1116-4.6122-14.012-10.588-5.9027-7.198-9.6531-12.588-11.848-18.03-2.1951-5.4421-2.7179-10.825-2.3659-17.529 0.40645-7.7519 1.1193-10.197 5.8802-19.705 5.7673-11.518 11.492-18.229 20.979-24.513 8.8836-5.8836 12.797-7.2773 25.12-8.9042 6.2526-0.82623 14.701-2.206 18.501-3.0106 4.1961-0.88857 11.584-1.8552 16.847-2.2206 11.492-0.79776 41.904 0.99639 53.912 3.1589 5.7898 1.0427 14.906 2.416 23.005 3.5188 4.0495 0.55144 7.8501 1.0357 10.854 1.3809 3.0041 0.34521 5.3714 0.54159 5.9237 0.54059 2.6389-4e-3 7.2964 0.77658 11.87 1.6628 2.287 0.44311 4.4791 0.91555 6.2175 1.355 0.86922 0.2197 1.6207 0.42822 2.2531 0.63778s0.94648 0.0897 1.9292 0.97996l2e-3 2e-3c0.81977 0.74346 0.83235 1.3378 0.89145 1.7252s0.0551 0.68093 0.0415 0.98498c-0.0271 0.60809-0.11911 1.2452-0.25821 2.025-0.27821 1.5596-0.76403 3.6436-1.4492 6.2762-1.3703 5.2653-3.5408 12.693-6.4094 21.899-0.90199 2.8947-1.41 4.8906-1.5896 6.1452-0.1794 1.2531-0.04 1.5837 0.0118 1.6808l-7e-5 2e-3c0.20441 0.38098 0.15996 0.28977 0.25736 0.39292 0.53137-0.56911 1.7512-2.4524 2.7435-5.7091 11.986-39.338 12.125-40.246 8.7942-71.301-3.4442-32.128-2.0523-63.164 3.9565-83.959 5.0618-17.517 7.4424-22.877 14.063-31.711 8.9033-11.879 17.945-19.349 30.261-24.941 3.4177-1.5518 7.3676-2.1167 13.384-2.1331zm-96.439 377.15c0.0432 0.0351 0.0808 0.0745 0.12449 0.10918-0.0769-0.0624-0.11685-0.0998-0.12449-0.10918zm-154.38-110.16c0.66394 0.0127 0.77407 0.11636 0.97324 0.18346s0.37342 0.13621 0.56208 0.21651c0.37733 0.16064 0.80211 0.36181 1.2874 0.60367 0.97049 0.48371 2.1684 1.1282 3.4083 1.8366l0.0019 7e-5c0.84089 0.48096 3.7686 1.7813 7.3543 3.1978s7.9571 3.037 12.219 4.5099c8.602 2.9734 19.455 6.7677 24.153 8.444 9.1079 3.2499 20.315 5.6937 30.633 6.9301s19.853 1.2005 25.15-0.14121c3.6884-0.93468 9.6214-1.8847 13.682-2.2033 9.4308-0.73821 18.307-4.2709 22.022-8.0886l6.1714-6.3419 3.7063 7.88c2.229 4.7418 3.3806 11.743 3.7111 18.38 0.16523 3.3188 0.10499 6.5197-0.22529 9.278-0.33029 2.7583-0.78158 5.0406-2.1375 6.8952-0.32385 0.44296-0.61067 0.89666-1.3466 1.3823-0.73593 0.48562-2.3144 0.62402-3.185 0.1676-1.7412-0.91284-1.9552-1.8956-2.9124-3.4423-4.8454-7.8288-11.608-11.188-23.101-11.136-10.288 0.046-18.197 4.1628-21.385 10.29-0.691 1.3284-1.2087 4.2371-1.1051 7.0905s0.82497 5.7277 1.6212 7.0336c0.95262 1.5623 1.692 2.1877 1.8074 4.0418 0.0577 0.92705-0.56892 2.2038-1.2082 2.7174s-1.1155 0.65491-1.5777 0.83547c-0.80736 0.31502-0.97213 0.24277-1.4513 0.29427-0.47979 0.0516-1.0612 0.0969-1.7604 0.13948-1.3984 0.0851-3.2587 0.15834-5.4733 0.22154-4.4291 0.12643-10.267 0.20562-16.475 0.20762-23.023 6e-3 -32.5-1.0193-48.151-5.2301-7.7158-2.0756-18.311-7.115-23.337-11.344-4.1534-3.4945-8.4482-9.3461-11.896-15.3s-6.0942-11.636-6.1065-16.156c-0.0076-2.6973 1.0058-5.642 2.5468-8.8739s3.6689-6.6614 6.1532-9.7981c0.87094-1.0996 1.735-2.0919 2.4806-2.8596 0.37279-0.38387 0.70773-0.70805 1.0602-0.99805 0.17624-0.145 0.35012-0.28377 0.60509-0.43621s0.49552-0.44673 1.5252-0.42703zm2.7577 57.988c0.67152 0 0.83822 0.12186 1.038 0.19556s0.35422 0.14517 0.51155 0.22237c0.31466 0.15442 0.63113 0.33504 0.98393 0.54587 0.7056 0.42168 1.5352 0.96621 2.3859 1.572 6.5418 4.6571 22.952 9.6719 41.692 12.113 10.131 1.3198 15.931 1.4706 32.158 0.82121 11.037-0.44247 26.999-0.84169 35.585-0.88799l14.874-0.0796 7.3583-3.9958c2.2069-1.1981 3.8993-2.1106 5.3566-2.7367 1.4574-0.62613 2.7685-1.1459 4.4425-0.71109 1.674 0.43478 2.6999 2.0103 3.1331 3.3189s0.64183 2.7464 0.92203 4.5992c0.69077 4.5694 0.32284 10.681-0.50236 15.9-0.4126 2.6094-0.9373 4.9598-1.5946 6.8264-0.32864 0.93327-0.6729 1.7456-1.1871 2.5014s-1.3705 1.7966-3.0055 1.7966c-1.155 0-1.7252-0.33845-2.4058-0.68995s-1.3386-0.79129-1.9532-1.3351l-7e-5 2e-3c-1.1752-1.0387-4.4532-2.5481-8.4865-3.5633-4.0333-1.0153-8.8655-1.6793-13.472-1.7458-5.5257-0.08-6.7931 0.17319-9.9846 1.9754-7.4556 4.2105-9.2499 14.327-3.6301 21.32l6.4635 8.041-29.02-0.0265c-24.138-0.0196-40.948-1.3866-53.973-5.3042-13.026-3.9177-22.187-10.51-30.459-20.411-5.6974-6.8179-8.8362-13.362-8.0516-19.204 0.2004-1.4958 0.77347-3.2632 1.5542-5.3954 0.78072-2.1321 1.7735-4.506 2.8168-6.6743l-0.0019-7e-5c1.0192-2.1193 2.0061-4.0416 2.8019-5.4765 0.3979-0.71747 0.74404-1.3074 1.056-1.7842 0.15599-0.23838 0.29362-0.44258 0.49309-0.68044 0.09974-0.11893 0.20537-0.24753 0.42603-0.43128s0.50023-0.61693 1.6758-0.61693zm390.47 52.837-6e-3 -2.1e-4 -7e-5 2e-3 -4e-3 -1.4e-4 -7e-5 2e-3 -2e-3 -7e-5 -8e-5 2e-3 -2e-3 2e-3 -7e-5 2e-3c-9e-3 0.0219-0.0307 0.0821-0.0566 0.16825 0.0752-0.0977 0.0843-0.1483 0.0771-0.16748l7e-5 -2e-3 -2e-3 -2e-3 7e-5 -2e-3 -2e-3 -7e-5 -2e-3 -2e-3 -2e-3 -7e-5zm-0.18853 0.30851c-0.0887 0.0871-0.17476 0.17303-0.30295 0.27907 0.138-0.11431 0.22902-0.20252 0.30295-0.27907zm-244.18-0.29099c0.5725 0.0106 1.1393 0.12334 1.5711 0.33936 0.86362 0.43204 1.2912 0.92126 1.7521 1.3818l-8e-5 2e-3c1.9925 1.9934 2.929 4.9059 3.8627 8.4317s1.5594 7.5229 1.5674 11.07c0.0153 6.2864-2.8091 16.44-6.1183 21.49l-3.2245 4.9187-5.7704-5.4946c-5.2906-5.0377-11.306-8.0313-19.408-9.5813-4.8925-0.93607-7.6415-1.0767-9.7465-0.40842s-4.1002 2.29-7.2946 5.785l-2e-3 -7e-5c-2.5366 2.7749-4.1061 5.2237-4.7925 7.1406-0.68646 1.9169-0.58733 3.1562 0.0275 4.3045l2e-3 2e-3c0.44468 0.83244 0.73504 1.6817 0.88317 2.5458s0.38453 1.7327-0.43072 3.0523c-0.48992 0.79259-0.95107 0.95327-1.2709 1.1025-0.31987 0.14919-0.5771 0.22247-0.83813 0.29007-0.52205 0.13526-1.0604 0.21956-1.6993 0.29856-1.2777 0.15799-2.9226 0.26853-4.8875 0.35183-3.9297 0.16673-9.1036 0.21132-14.548 0.14792-10.89-0.12674-22.609-0.62364-27.964-1.6132-18.384-3.3983-30.98-9.0694-40.894-18.657-2.7685-2.6771-4.4316-4.3489-5.5519-6.1059s-1.4588-3.6505-1.4588-5.4924c0-5.4273 2.3555-9.7442 7.9277-15.156l5.427-5.2701 11.448 3.8888c15.195 5.1608 30.729 6.6719 63.472 6.0247 14.66-0.28978 29.299-0.67936 32.084-0.83673 6.2475-0.354 14.093-4.1021 19.436-9.5248l-2e-3 -2e-3c2.1358-2.167 3.05-3.3731 4.8448-4.1497 0.44871-0.19419 1.0253-0.28585 1.5978-0.27525z" fill="#fed2a1" fill-rule="nonzero" stop-color="#000000"/>
  <path id="path4-2" d="m311.49 32.439c-16.582 7.72-30.139 20.682-38.207 36.53-3.435 6.747-10.689 31.454-11.952 40.704-1.539 11.277-2.25 44.105-1.165 53.796 1.775 15.862 3.5 42.42 2.801 43.12-0.373 0.372-4.173-0.039-8.446-0.913-4.272-0.875-10.918-1.882-14.768-2.238-6.122-0.566-31.226-4.018-47.5-6.533-3.025-0.467-15.175-1.142-27-1.5-17.619-0.533-23.215-0.354-31 0.992-5.225 0.904-15.575 2.537-23 3.629-12.321 1.813-24 5.235-24 7.032 0 0.397-1.913 1.851-4.25 3.233-8.037 4.751-15.564 13.341-20.699 23.623-2.625 5.255-5.324 11.256-5.999 13.335-2.878 8.867-1.54 23.923 2.9 32.627 1.085 2.125 4.421 6.919 7.415 10.652l5.443 6.788-4.906 6.064c-12.76 15.769-12.396 25.543 1.681 45.164l5.108 7.119-4.739 9.799c-2.607 5.39-4.986 11.317-5.287 13.173-1.431 8.815 6.851 22.587 20.234 33.648l3.401 2.811-4.544 4.687c-2.498 2.579-5.266 6.128-6.15 7.888-2.008 3.998-2.082 12.483-0.141 16.236 3.968 7.673 20.646 18.822 35.033 23.419 13.298 4.249 34.334 5.84 62 4.687 8.259-0.345 11.623-0.11 13.5 0.939 5.52 3.087 20.689 0.962 30.129-4.221l3.629-1.992 10.371 3.506c15.455 5.224 17.784 5.6 38.953 6.293 27.011 0.884 32.907-0.027 53.854-8.314 13.371-5.29 19.155-8.527 28.093-15.725 4.042-3.255 7.852-5.462 10-5.795 1.909-0.295 7.521-1.254 12.471-2.131 12.169-2.156 18.162-2.02 37.5 0.853 29.82 4.429 45 8.183 45 11.127 0 2.379 4.6932 1.583 5.8322-1.332 1.426-3.65 2.638-8.616 5.187-21.25 1.165-5.775 3.651-16.35 5.524-23.5 6.784-25.891 9.001-45.392 10.474-92.134 0.574-18.223 1.529-36.898 2.121-41.5 1.9-14.752-0.29017-13.257-10.638-14.093-25.405-2.052-56.409-8.82-74.451-16.253-14.788-6.092-21.711-9.408-23.077-11.053-0.519-0.626-1.671-8.524-2.56-17.552-1.387-14.081-1.496-23.098-0.764-63.415 1.227-67.656 1.088-100.22-0.447-104.6-1.484-4.245-7.827-8.938-19.201-14.208-10.724-4.969-14.095-5.677-27-5.673-10.101 4e-3 -12.14 0.303-16.763 2.455m5.757 3.464c-9.228 2.807-22.124 12.189-29.523 21.478-8.384 10.526-11.601 17.164-16.523 34.088-3.464 11.914-4.233 16.309-5.157 29.5-1.497 21.372-1.507 33.686-0.039 46 3.186 26.723 3.543 39.74 1.345 49-1.817 7.656-10.101 35.124-11.234 37.25-1.101 2.064-3.71 2.313-4.435 0.424-0.28-0.73 1.709-8.717 4.42-17.75 7.182-23.929 7.043-22.583 2.467-23.852-2.098-0.582-7.64-1.537-12.315-2.123-23.275-2.916-40.273-5.241-47.5-6.499-11.005-1.915-43.254-3.723-52.444-2.941-4.156 0.353-12.281 1.49-18.056 2.526-5.775 1.035-14.55 2.415-19.5 3.066-19.152 2.517-32.559 12.652-42.41 32.056-4.892 9.637-5.454 11.416-5.869 18.585-0.763 13.177 1.942 20.097 13.418 34.331 6.057 7.512 10.328 9.976 26.651 15.38 5.711 1.891 13.858 4.818 18.104 6.505 16.969 6.741 32.799 10.044 48.106 10.037l11-5e-3 -2.656-2.245c-7.765-6.564-6.248-15.977 3.631-22.521 9.757-6.463 20.316-6.556 33.002-0.292 7.061 3.487 7.486 3.171 7.508-5.599 0.015-6.034-2.062-12.558-5.263-16.532-1.899-2.358-18.024-10.245-27.339-13.372-12.576-4.222-20.324-5.347-51.227-7.44-16.14-1.093-29.752-2.24-30.25-2.547-1.155-0.714-1.181-4.154-0.037-4.861 0.813-0.503 7.779-0.117 44.319 2.457 24.705 1.74 38.041 5.099 56.812 14.31 14.66 6.7888 19.636 14.045 18.594 30.152l-0.649 12 4.033 4.866c5.746 6.931 7.265 13.009 6.855 27.425-0.28 9.859-0.706 12.467-2.694 16.504l-2.361 4.795 2.236 6.955c2.901 9.021 2.444 20.087-1.278 30.955l-2.568 7.5 2.513 3.31c4.257 5.608 6.319 13.139 6.319 23.076 0 10.941-2.313 19.048-7.42 26.005l-3.658 4.984 11.289 3.7c10.791 3.536 12.128 3.734 30.289 4.487 28.159 1.166 37.544-0.394 59.157-9.833 12.745-5.566 19.41-10.172 29.917-20.677 7.428-7.426 9.877-10.691 13.5-17.993 4.64-9.351 6.985-11.9 9.048-9.837 1.461 1.461-5.08 15.45-10.62 22.707l-3.647 4.779 5.322-0.854c2.928-0.47 12.298-0.828 20.823-0.797 12.755 0.047 18.865 0.634 34.5 3.314 10.45 1.791 22.131 4.34 25.958 5.665 4.816 1.667 7.168 2.069 7.639 1.307 0.374-0.606 1.435-4.981 2.358-9.722 0.923-4.742 3.879-17.621 6.571-28.621 6.834-27.936 8.816-43.888 10-80.5 0.542-16.775 1.433-36.59 1.98-44.034 0.547-7.443 0.994-14.463 0.994-15.599 0-1.914-0.751-2.109-10.25-2.664-22.592-1.319-53.635-8.509-74.845-17.335-8.78-3.654-16.171-6.436-16.424-6.183-0.253 0.254 0.885 4.611 2.529 9.684 1.645 5.073 2.99 9.729 2.99 10.347 0 0.619 1.424 4.214 3.164 7.99 2.297 4.982 2.864 7.166 2.068 7.962-1.833 1.833-4.022 0.179-6.663-5.032-2.71-5.347-5.375-14.003-11.128-36.136-2.786-10.718-4.739-46.415-4.167-76.125l0.533-27.625-13.653-0.468c-14.315-0.492-19.361-1.749-23.817-5.935-5.737-5.39-9.958-26.379-9.02-44.847 0.774-15.222 1.808-18.457 7.739-24.211 7.877-7.641 18.297-11.789 29.616-11.789 4.085 0 4.431-0.171 3.241-1.605-1.895-2.283-16.81-8.993-22.888-10.296-5.747-1.233-19.205-1.329-23.031-0.165m32.236 18.884c-6.887 1.848-16.021 7.866-18.623 12.27-3.867 6.547-4.427 27.169-1.15 42.412 3.878 18.043 5.758 19.444 26.138 19.478l13.095 0.022 0.655-13.658c0.817-17.046 0.834-57.072 0.025-60.092-0.551-2.056-1.175-2.244-7.237-2.182-3.648 0.038-9.454 0.825-12.903 1.75m-96.65 210.05c-2.118 3.428-3.58 13.965-3.58 25.805 0 21.746 3.722 36.285 13.65 53.325 9.84 16.888 37.35 40.21 37.35 31.664 0-0.769-1.913-2.655-4.25-4.191-7.212-4.738-16.824-13.64-22.73-21.05-5.37-6.737-13.164-21.036-15.144-27.782-4.566-15.559-5.799-40.379-2.529-50.878 0.983-3.155 1.506-6.193 1.161-6.75-0.767-1.242-3.194-1.33-3.928-0.143m-66.158 35.548c-1.692 0.738-4.73 2.792-6.75 4.565-4.709 4.134-4.923 7.787-0.667 11.368 8.045 6.769 32.018 3.306 36.452-5.267l1.599-3.093-4.778-3.03c-8.723-5.533-19.309-7.393-25.856-4.543m-115.47 6.763c-9.046 11.444-9.902 16.659-4.5 27.435 4.623 9.222 11.911 18.078 18.578 22.573 14.337 9.668 45.292 14.958 76.69 13.104 8.371-0.494 15.477-1.155 15.791-1.47 0.314-0.314-0.434-2.274-1.662-4.355-3.224-5.465-3.021-12.096 0.533-17.467 5.756-8.699 21.331-12.144 34.455-7.622 4.388 1.512 6.147 2.884 9.91 7.73 2.516 3.24 4.964 5.891 5.439 5.891 1.857 0 3.025-5.929 3-15.222-0.028-10.394-1.854-18.578-5.063-22.696l-1.883-2.417-3.87 4.025c-5.029 5.232-13.229 8.3-24.869 9.305-4.95 0.428-10.517 1.342-12.372 2.032-4.786 1.779-25.06 0.692-38.128-2.045-5.775-1.21-15.45-3.996-21.5-6.192-6.05-2.195-16.85-5.999-24-8.454-7.15-2.454-14.88-5.558-17.178-6.899-2.298-1.34-4.425-2.437-4.727-2.437s-2.391 2.331-4.644 5.181m316.55 10.822c-0.341 0.552 0.143 5.571 1.077 11.153 1.195 7.147 1.506 12.625 1.053 18.525-0.551 7.16-0.41 8.465 0.965 8.993 0.885 0.34 1.988 4e-3 2.452-0.746 3.542-5.732 0.537-38.928-3.525-38.928-0.771 0-1.681 0.452-2.022 1.003m-196.66 25.912c-6.919 2.246-11.843 7.252-11.843 12.039 0 3.013 2.505 7.511 5.492 9.861 7.95 6.253 24.461 4.294 34.931-4.147l2.924-2.356-4.271-6.088c-2.653-3.783-5.641-6.739-7.888-7.805-4.08-1.936-15.322-2.81-19.345-1.504m-114.26 18.335c-2.727 4.182-7.579 16.622-7.579 19.431 0 4.774 5.2 13.426 12.557 20.894 15.358 15.591 34.938 20.425 82.72 20.425h21.93l-3.17-3.611c-3.772-4.296-5.037-7.306-5.037-11.986 0-7.627 4.584-13.406 12.278-15.478 6.402-1.724 18.799 0.318 26.903 4.43l6.682 3.391 1.036-2.623c3.351-8.479 3.981-22.863 1.287-29.376l-1.139-2.752-5.289 3.383c-8.965 5.735-12.372 6.43-32.796 6.688-50.75 0.641-59.261 0.47-69.914-1.412-13.017-2.298-27.045-6.791-33.364-10.686-2.649-1.632-5.002-2.968-5.227-2.968-0.226 0-1.071 1.012-1.878 2.25m112.75 36.152c-8.447 3.823-6.757 15.792 2.889 20.461 2.427 1.176 5.959 2.133 7.848 2.128 4.453-0.013 12.489-4.649 17.315-9.991l3.787-4.192-2.249-2.394c-4.996-5.319-23.029-8.983-29.59-6.012m30.629 18.182c-10.006 10.289-18.929 12.051-58.958 11.641-33.915-0.348-50.014-2.444-63.652-8.29l-4.817-2.065-5.706 5.904c-9.335 9.659-9.236 14.852 0.455 23.827 7.986 7.396 21.245 13.803 34.53 16.686 8.15 1.768 13.212 2.111 31.856 2.158 12.191 0.03 22.489-0.268 22.884-0.663 0.396-0.395 0.166-2.053-0.509-3.684-1.8-4.345-0.481-8.393 4.565-14.005 5.762-6.409 9.125-7.533 18.048-6.037 7.703 1.292 16.03 5.415 21.471 10.63l3.624 3.475 1.976-2.831c3.506-5.023 5.275-12.186 5.275-21.359 0-4.77-0.525-10.202-1.167-12.072-1.184-3.449-3.886-7.81-4.875-7.868-0.298-0.017-2.548 2.032-5 4.553m-34.512 34.812c-5.709 5.958-5.745 8.305-0.196 12.825 5.423 4.418 8.402 5.11 16.058 3.731 5.674-1.023 14.845-4.778 17.135-7.017 2.939-2.872-13.099-12.398-22.747-13.51l-5.805-0.669-4.445 4.64" fill="#020304"/>
 </g>
</svg>
