<?xml version="1.0" encoding="UTF-8"?>
<svg fill="none" version="1.1" viewBox="0 0 281.04 32.991" xmlns="http://www.w3.org/2000/svg">
<g transform="translate(-22.559 -93.059)" fill="#fff" stroke="#fff">
<g transform="translate(10.12 76.07)" stroke-width=".9">
<path d="m25.415 45.958c-9.3724-19.982-4.6862-9.9909 0 0zm0 0v-23.939h-0.0039c-7.9816 0-11.971 5.3579-11.971 11.969 0 6.6108 3.9892 11.971 11.971 11.971zm0 0c-9.3724-19.982-4.6862-9.9909 0 0zm0 0v-23.939l-0.0013 0.0036c-2.6053 7.5444-11.973 5.3543-11.973 11.965 0 6.6108 3.9892 11.971 11.971 11.971z" fill="#fff" stroke="#fff" stroke-width="2" style="paint-order:markers fill stroke"/>
</g>
<g transform="translate(41.756 106.5)" stroke-width="2">
<path d="m-12.226-0.54894c0.04111-0.21146 0.13523-0.47063 0.31415-0.66558 0.15334-0.16708 0.42584-0.35271 0.98413-0.35271 0.54878 0 0.82821 0.18948 0.98956 0.36665 0.18649 0.20479 0.27636 0.46592 0.30568 0.63471 0.0808 0.46524 0.52347 0.77691 0.98871 0.69619 0.46532-0.08081 0.777-0.52355 0.69619-0.98879-0.06755-0.38897-0.26105-0.98289-0.72638-1.4937-0.49055-0.5385-1.2315-0.92514-2.2538-0.92514-1.0126 0-1.7505 0.36879-2.244 0.90648-0.46793 0.50982-0.65716 1.1057-0.73294 1.4955-0.09014 0.46361 0.21258 0.91244 0.67613 1.0026 0.46356 0.09012 0.91241-0.21257 1.0026-0.6761z" fill-rule="evenodd"/>
<path d="m-6.2252 11.259c-7.6956 0-7.6956-7.6956-7.6956-7.6956h15.391s0 7.6956-7.6956 7.6956z"/>
<path d="m-6.2061 1.69v11.92" style="paint-order:markers fill stroke"/>
</g>
<g transform="translate(21.475 92.055)" stroke-width="2">
<path d="m23.369 2.5554c0.1804 0.72723 1.2078 0.74464 1.4128 0.02394 0.1209-0.4253 0.5888-0.64673 0.9944-0.47062l0.5855 0.25423c0.4056 0.17611 0.5632 0.66913 0.335 1.0479-0.3866 0.64178 0.3275 1.3806 0.982 1.0159 0.3863-0.21518 0.8737-0.04093 1.0359 0.37037l0.2343 0.59384c0.1622 0.41129-0.0749 0.87136-0.504 0.97783-0.7272 0.18042-0.7446 1.2078-0.024 1.4128 0.4253 0.12096 0.6467 0.58881 0.4706 0.99438l-0.2542 0.58549c-0.1761 0.40559-0.6691 0.56323-1.0479 0.33506-0.6418-0.38665-1.3806 0.32747-1.0159 0.98207 0.2152 0.3863 0.0409 0.8737-0.3704 1.0359l-0.5938 0.2343c-0.4113 0.1622-0.8714-0.0749-0.9779-0.5041-0.1804-0.7272-1.2078-0.7446-1.4127-0.0239-0.121 0.4253-0.5888 0.6467-0.9944 0.4706l-0.5855-0.2543c-0.4056-0.1761-0.5632-0.6691-0.3351-1.0478 0.3867-0.64181-0.3275-1.3806-0.982-1.0159-0.3863 0.21519-0.8737 0.04093-1.0359-0.37038l-0.2343-0.59379c-0.1622-0.41131 0.0749-0.87139 0.5041-0.97787 0.7272-0.18042 0.7446-1.2078 0.0239-1.4128-0.4253-0.12096-0.6467-0.58881-0.4706-0.99438l0.2543-0.58552c0.1761-0.40557 0.6691-0.56321 1.0478-0.33505 0.6418 0.38664 1.3806-0.32751 1.0159-0.98204-0.2152-0.38626-0.0409-0.87364 0.3704-1.0359l0.5938-0.23424c0.4113-0.16226 0.8714 0.07489 0.9779 0.50405z"/>
<path d="m25.207 5.7929c0.3905 0.39053 0.3905 1.0237 0 1.4142l-3 3c-0.3905 0.3905-1.0237 0.3905-1.4142 0-0.3905-0.39052-0.3905-1.0237 0-1.4142l3-3c0.3905-0.39052 1.0237-0.39052 1.4142 0z"/>
<path transform="translate(-10.864,9.852)" d="m24.912-3.8208c0 29.547 0.01063-27.973 0.0098 23.939 7.9749-0.0044 11.961-5.3626 11.961-11.971 0-6.6108-3.9892-11.969-11.971-11.969z"/>
</g>
</g>
<g transform="translate(-5.9142 -82.968)">
<g transform="translate(5.5745 73.389)">
<path d="m13.329 14.662c-9.3724-4.0221-4.6862-2.0111 0 0zm0 23.939c-9.3724-19.982-4.6862-9.9909 0 0zm0 0v-23.939h-0.0039c-7.9816 0-11.971 5.3579-11.971 11.969 0 6.6108 3.9892 11.971 11.971 11.971zm0-23.939m0 23.939c-9.3724-19.982-4.6862-9.9909 0 0zm0 0v-23.939l-0.0013 0.0036c-2.6053 7.5444-11.973 5.3543-11.973 11.965 0 6.6108 3.9892 11.971 11.971 11.971z" fill="#ffb02e" stroke-width="0" style="paint-order:markers fill stroke"/>
</g>
<g transform="translate(25.125 96.457)">
<path d="m-12.226-0.54894c0.04111-0.21146 0.13523-0.47063 0.31415-0.66558 0.15334-0.16708 0.42584-0.35271 0.98413-0.35271 0.54878 0 0.82821 0.18948 0.98956 0.36665 0.18649 0.20479 0.27636 0.46592 0.30568 0.63471 0.0808 0.46524 0.52347 0.77691 0.98871 0.69619 0.46532-0.08081 0.777-0.52355 0.69619-0.98879-0.06755-0.38897-0.26105-0.98289-0.72638-1.4937-0.49055-0.5385-1.2315-0.92514-2.2538-0.92514-1.0126 0-1.7505 0.36879-2.244 0.90648-0.46793 0.50982-0.65716 1.1057-0.73294 1.4955-0.09014 0.46361 0.21258 0.91244 0.67613 1.0026 0.46356 0.09012 0.91241-0.21257 1.0026-0.6761z" fill="#191919" fill-rule="evenodd" stroke-width=".85506"/>
<path d="m-6.2252 11.259c-7.6956 0-7.6956-7.6956-7.6956-7.6956h15.391s0 7.6956-7.6956 7.6956z" fill="#bb1d80" stroke-width=".85506"/>
<path d="m-6.2061 1.69v11.92" fill="#fff" stroke-width="0" style="paint-order:markers fill stroke"/>
</g>
<g transform="translate(4.8438 82.017)">
<path d="m23.369 2.5554c0.1804 0.72723 1.2078 0.74464 1.4128 0.02394 0.1209-0.4253 0.5888-0.64673 0.9944-0.47062l0.5855 0.25423c0.4056 0.17611 0.5632 0.66913 0.335 1.0479-0.3866 0.64178 0.3275 1.3806 0.982 1.0159 0.3863-0.21518 0.8737-0.04093 1.0359 0.37037l0.2343 0.59384c0.1622 0.41129-0.0749 0.87136-0.504 0.97783-0.7272 0.18042-0.7446 1.2078-0.024 1.4128 0.4253 0.12096 0.6467 0.58881 0.4706 0.99438l-0.2542 0.58549c-0.1761 0.40559-0.6691 0.56323-1.0479 0.33506-0.6418-0.38665-1.3806 0.32747-1.0159 0.98207 0.2152 0.3863 0.0409 0.8737-0.3704 1.0359l-0.5938 0.2343c-0.4113 0.1622-0.8714-0.0749-0.9779-0.5041-0.1804-0.7272-1.2078-0.7446-1.4127-0.0239-0.121 0.4253-0.5888 0.6467-0.9944 0.4706l-0.5855-0.2543c-0.4056-0.1761-0.5632-0.6691-0.3351-1.0478 0.3867-0.64181-0.3275-1.3806-0.982-1.0159-0.3863 0.21519-0.8737 0.04093-1.0359-0.37038l-0.2343-0.59379c-0.1622-0.41131 0.0749-0.87139 0.5041-0.97787 0.7272-0.18042 0.7446-1.2078 0.0239-1.4128-0.4253-0.12096-0.6467-0.58881-0.4706-0.99438l0.2543-0.58552c0.1761-0.40557 0.6691-0.56321 1.0478-0.33505 0.6418 0.38664 1.3806-0.32751 1.0159-0.98204-0.2152-0.38626-0.0409-0.87364 0.3704-1.0359l0.5938-0.23424c0.4113-0.16226 0.8714 0.07489 0.9779 0.50405z" fill="#ff822d"/>
<path d="m25.207 5.7929c0.3905 0.39053 0.3905 1.0237 0 1.4142l-3 3c-0.3905 0.3905-1.0237 0.3905-1.4142 0-0.3905-0.39052-0.3905-1.0237 0-1.4142l3-3c0.3905-0.39052 1.0237-0.39052 1.4142 0z" fill="#fff"/>
<path transform="translate(-10.864,9.852)" d="m24.912-3.8208c0 29.547 0.01063-27.973 0.0098 23.939 7.9749-0.0044 11.961-5.3626 11.961-11.971 0-6.6108-3.9892-11.969-11.971-11.969z" fill="#533566" stroke-width=".85506"/>
</g>
<g fill="#fff" stroke-linecap="round" stroke-width="0" style="paint-order:markers fill stroke" aria-label="Emoji Minesweeper">
<path d="m49.483 105.16h8.2133q0.61333 0 0.90667 0.0533 0.32 0.0267 0.72 0.24 0.72 0.37334 0.72 2.08 0 1.8667-0.98667 2.1867-0.45333 0.16-1.3867 0.16h-10.56q-1.8667 0-2.1867-1.0133-0.16-0.42667-0.16-1.36v-14.827q0-1.36 0.50667-1.84 0.50667-0.50667 1.92-0.50667h10.507q0.61333 0 0.90667 0.05333 0.32 0.02667 0.72 0.24 0.72 0.37333 0.72 2.08 0 1.8667-0.98667 2.1867-0.45333 0.16-1.3867 0.16h-8.1867v2.6933h5.28q0.61333 0 0.90667 0.05333 0.32 0.02667 0.72 0.24 0.72 0.37333 0.72 2.08 0 1.8667-1.0133 2.1867-0.45333 0.16-1.3867 0.16h-5.2267z"/>
<path d="m66.353 97.693q1.2533-1.8933 3.0133-1.8933 2.72 0 4.0533 2.32 0.29333-0.4 0.69334-0.82667 0.42667-0.45333 1.3333-0.96 0.90667-0.53333 1.8667-0.53333 2.1333 0 3.5733 1.6533 1.44 1.6267 1.44 5.4133v4.6667q0 0.61333-0.05333 0.93333-0.02667 0.29334-0.24 0.69334-0.34667 0.72-2.0533 0.72-1.68 0-2.0533-0.74667-0.18667-0.4-0.24-0.69334-0.02667-0.32-0.02667-0.93333v-4.6667q0-2.32-1.6533-2.32-0.93333 0-1.28 0.61334-0.32 0.61333-0.32 1.7333v4.6667q0 0.64-0.05333 0.93333-0.02667 0.29334-0.24 0.69334-0.37333 0.72-2.08 0.72-1.68 0-2.0533-0.74667-0.18667-0.4-0.24-0.69334-0.02667-0.32-0.02667-0.93333v-4.6667q0-2.32-1.6533-2.32-1.6 0-1.6 2.32v4.72q0 0.61334-0.05333 0.93334-0.02667 0.29333-0.24 0.69333-0.4 0.69334-2.08 0.69334t-2.0533-0.72q-0.18667-0.4-0.24-0.69334-0.02667-0.29333-0.02667-0.93333v-9.3867q0-0.61333 0.02667-0.90667 0.05333-0.32 0.26667-0.69334 0.4-0.72 1.8933-0.72 1.4933 0 1.9467 0.48t0.45333 1.3867z"/>
<path d="m84.05 102.87q0-3.2 2.24-5.28 2.24-2.08 5.12-2.08 2.88 0 5.0933 2.08 2.2133 2.0533 2.2133 5.2533 0 2.2133-1.1467 3.9467-1.1467 1.7067-2.8 2.5333-1.6267 0.8-3.3867 0.8-1.76 0-3.4133-0.85334-1.6533-0.88-2.8-2.56-1.12-1.7067-1.12-3.84zm5.5733 1.92q0.85334 0.64 1.7333 0.64t1.76-0.66667 0.88-1.9733q0-1.3067-0.82667-1.9467-0.82667-0.64001-1.7867-0.64001-0.96 0-1.7867 0.66667-0.82667 0.66667-0.82667 1.9733 0 1.28 0.85333 1.9467z"/>
<path d="m104.01 93.746q-0.48 0.13333-1.3067 0.13333t-1.3067-0.16-0.69333-0.53333q-0.18667-0.4-0.24-0.69333-0.0267-0.32-0.0267-0.93334t0.0267-0.90667q0.0533-0.29333 0.24-0.66667 0.37333-0.69333 2.0533-0.69333 1.6 0 2 0.69333 0.18666 0.34667 0.21333 0.64 0.0533 0.29333 0.0533 0.88v0.16q0 0.58667-0.0533 0.88-0.0267 0.29333-0.24 0.66667-0.21333 0.37333-0.72 0.53333zm-2.5867 2.16q0.50667-0.16 1.3333-0.16 0.82667 0 1.3067 0.16 0.48 0.16 0.66667 0.56 0.21333 0.37333 0.24 0.69333 0.0533 0.29333 0.0533 0.90667v10.987q0 3.12-2.16 4.9867t-4.7467 1.8667q-0.61333 0-0.90667-0.0533-0.29333-0.0267-0.66667-0.21334-0.69333-0.37333-0.69333-1.9467 0-1.5733 0.58667-1.9733 0.56-0.4 1.5467-0.4 0.96 0 1.7067-0.53334 0.74667-0.53333 0.74667-1.92v-10.987q0-0.93333 0.24-1.36 0.26667-0.45333 0.74667-0.61333z"/>
<path d="m107.15 98.173q0-0.61333 0.0267-0.90667 0.0533-0.32 0.24-0.72 0.37333-0.69333 2.08-0.69333 1.28 0 1.8133 0.45333 0.45333 0.37333 0.48 1.1467 0.0267 0.26667 0.0267 0.77333v9.3333q0 0.61334-0.0533 0.93334-0.0267 0.29333-0.24 0.69333-0.34667 0.69334-2.0533 0.69334-1.68 0-2.0533-0.72-0.18667-0.4-0.24-0.69334-0.0267-0.29333-0.0267-0.93333zm4.3733-4.9333q-0.18667 0.37333-0.69334 0.53333-0.50666 0.16-1.36 0.16-0.82666 0-1.3333-0.16-0.50667-0.16-0.72-0.56-0.18667-0.4-0.24-0.69333-0.0267-0.32-0.0267-0.93334t0.0267-0.90667q0.0533-0.32 0.24-0.69333 0.37333-0.72 2.08-0.72 1.68 0 2.0267 0.72 0.21333 0.4 0.24 0.72 0.0533 0.29333 0.0533 0.90667t-0.0533 0.93333q-0.0267 0.29333-0.24 0.69333z"/>
<path d="m141.45 91.08q0.21333 0.4 0.24 0.72 0.0533 0.32 0.0533 0.93333v14.8q0 1.84-1.0133 2.16-0.50667 0.16-1.28 0.16-0.77334 0-1.2267-0.13333-0.45334-0.13334-0.69334-0.32-0.24-0.18667-0.37333-0.53334-0.13333-0.45333-0.13333-1.3867v-8.9333q-0.66667 0.82667-1.9467 2.64-1.28 1.7867-1.6267 2.24-0.34667 0.45333-0.48 0.64-0.13334 0.16-0.66667 0.48-0.50667 0.29333-1.12 0.29333-0.58667 0-1.0933-0.26667-0.48-0.29333-0.69333-0.56l-0.21333-0.29333q-0.53334-0.66667-2.1067-2.8267-1.5733-2.1867-1.7067-2.3467v8.9867q0 0.61333-0.0533 0.93333-0.0267 0.29334-0.24001 0.66667-0.4 0.72-2.08 0.72-1.6267 0-2.0267-0.72-0.21333-0.37333-0.26666-0.69334-0.0267-0.32-0.0267-0.96v-14.8q0-0.61333 0.0267-0.90667 0.0533-0.32 0.26666-0.72 0.4-0.69333 2.08-0.69333 0.72 0 1.2267 0.18667 0.53334 0.16 0.69334 0.34667l0.16 0.16 6.0533 7.9467q4.5333-6 6.0533-7.92 0.45333-0.72 2.1333-0.72 1.7067 0 2.08 0.72z"/>
<path d="m143.87 98.173q0-0.61333 0.0267-0.90667 0.0533-0.32 0.24-0.72 0.37333-0.69333 2.08-0.69333 1.28 0 1.8133 0.45333 0.45333 0.37333 0.48 1.1467 0.0267 0.26667 0.0267 0.77333v9.3333q0 0.61334-0.0533 0.93334-0.0267 0.29333-0.24 0.69333-0.34666 0.69334-2.0533 0.69334-1.68 0-2.0533-0.72-0.18667-0.4-0.24-0.69334-0.0267-0.29333-0.0267-0.93333zm4.3733-4.9333q-0.18666 0.37333-0.69333 0.53333-0.50667 0.16-1.36 0.16-0.82667 0-1.3333-0.16-0.50667-0.16-0.72-0.56-0.18667-0.4-0.24-0.69333-0.0267-0.32-0.0267-0.93334t0.0267-0.90667q0.0533-0.32 0.24-0.69333 0.37333-0.72 2.08-0.72 1.68 0 2.0267 0.72 0.21334 0.4 0.24 0.72 0.0533 0.29333 0.0533 0.90667t-0.0533 0.93333q-0.0267 0.29333-0.24 0.69333z"/>
<path d="m158.47 95.826q2.6667 0 4.4267 2.0533 1.7867 2.0267 1.7867 4.96v4.6933q0 0.61333-0.0533 0.93333-0.0267 0.29334-0.21334 0.66667-0.37333 0.72-2.08 0.72-1.8933 0-2.1867-0.98667-0.16-0.45333-0.16-1.36v-4.6933q0-1.0933-0.64-1.7067-0.61333-0.61333-1.68-0.61333-1.04 0-1.7067 0.64-0.64 0.64-0.64 1.68v4.72q0 0.61333-0.0533 0.93333-0.0267 0.29334-0.24 0.66667-0.34667 0.72-2.0533 0.72-1.68 0-2.0533-0.72-0.18666-0.4-0.24-0.69334-0.0267-0.32-0.0267-0.93333v-9.44q0-0.58667 0.0267-0.88 0.0533-0.32 0.26667-0.69333 0.37333-0.66667 2.0533-0.66667 1.6267 0 2 0.61334 0.26667 0.45333 0.26667 1.0933 0.10666-0.18667 0.48-0.53333 0.37333-0.34667 0.72-0.56 0.90667-0.61334 2-0.61334z"/>
<path d="m180.35 101.19q0 1.6267-0.82666 2.4267-0.8 0.77334-1.7867 0.77334h-6.32q0 0.74666 0.88 1.2533t1.76 0.50667q1.5467 0 2.4267-0.32l0.29334-0.10667q0.64-0.29333 1.0667-0.29333 0.85333 0 1.4667 1.2 0.34667 0.72 0.34667 1.2267 0 2.3733-5.68 2.3733-1.9733 0-3.52-0.66666-1.52-0.69334-2.3733-1.8133-1.68-2.16-1.68-4.8267 0-3.36 2.16-5.36 2.1867-2.0267 5.44-2.0267 3.7067 0 5.44 2.6133 0.90666 1.3867 0.90666 3.04zm-5.6267 0.77334q1.0133 0 1.0133-0.85334 0-0.61333-0.48-0.98667-0.45334-0.37333-1.3333-0.37333-0.85333 0-1.7067 0.72-0.85333 0.69334-0.85333 1.4933z"/>
<path d="m182.18 108.63q-0.50667-0.32-0.50667-1.0133 0-0.69334 1.0133-2.1067 0.29333-0.45334 0.93333-0.45334 0.66667 0 1.7867 0.66667 1.12 0.64 2.0267 0.64 1.6267 0 1.6267-0.64 0-0.50667-1.7867-0.74667-1.68-0.24-3.3333-1.2533-0.77333-0.48-1.28-1.4933-0.50667-1.04-0.50667-2.4533 0-4.2133 5.7867-4.2133 1.8933 0 3.8933 0.90667 0.93333 0.42667 0.93333 1.0667t-0.58667 1.5733q-0.58666 0.93333-1.2 0.93333-0.32 0-1.2-0.4-0.85333-0.4-1.8667-0.4-1.5733 0-1.5733 0.58667 0 0.8 1.8133 1.04 1.76 0.18667 3.4133 1.0133 0.77333 0.37333 1.28 1.3067 0.53333 0.90667 0.53333 2.2933t-0.53333 2.3733q-0.50667 0.96-1.44 1.44-1.7067 0.82667-4.2933 0.82667-2.56 0-4.9333-1.4933z"/>
<path d="m212.28 95.933q1.7067 0.74667 1.7067 1.84 0 0.45333-0.42666 1.4667-0.42667 0.98667-0.72 1.7333l-2.9333 7.1467q-0.4 1.1733-1.3333 1.6533-0.4 0.18667-1.0133 0.18667-0.61334 0-1.2-0.45334-0.56-0.48-0.74667-0.96l-0.21333-0.45333q-0.21334-0.53334-1.5733-4.16-0.26667 0.64-0.8 2.1067-0.50667 1.44-0.66667 1.8133-0.13333 0.34666-0.18667 0.48-0.0267 0.10666-0.21333 0.42667-0.18667 0.32-0.42667 0.56-0.64 0.64-1.4667 0.64-0.82667 0-1.3867-0.45334-0.56-0.48-0.74667-0.96l-4.0267-9.8133q-0.26667-0.8-0.26667-1.04 0-1.0667 1.52-1.68 0.85334-0.34667 1.3867-0.34667 0.53334 0 0.85334 0.24 0.34666 0.21333 0.48 0.45333 0.13333 0.21333 0.21333 0.45333 0.45333 1.0667 1.8933 5.0133l1.5733-4.32q0.16-0.53333 0.58667-0.93334 0.77333-0.77333 1.5733-0.77333t1.36 0.42667q0.58666 0.42667 0.8 0.85333l0.21333 0.45333q1.3333 3.7333 1.5733 4.2667l1.6267-4.4267q0.64-1.7067 1.92-1.7067 0.50666 0 1.0667 0.26667z"/>
<path d="m228.46 101.19q0 1.6267-0.82667 2.4267-0.8 0.77334-1.7867 0.77334h-6.32q0 0.74666 0.88001 1.2533 0.88 0.50667 1.76 0.50667 1.5467 0 2.4267-0.32l0.29333-0.10667q0.64-0.29333 1.0667-0.29333 0.85333 0 1.4667 1.2 0.34667 0.72 0.34667 1.2267 0 2.3733-5.68 2.3733-1.9733 0-3.52-0.66666-1.52-0.69334-2.3733-1.8133-1.68-2.16-1.68-4.8267 0-3.36 2.16-5.36 2.1867-2.0267 5.44-2.0267 3.7067 0 5.44 2.6133 0.90667 1.3867 0.90667 3.04zm-5.6267 0.77334q1.0133 0 1.0133-0.85334 0-0.61333-0.48-0.98667-0.45333-0.37333-1.3333-0.37333-0.85333 0-1.7067 0.72-0.85334 0.69334-0.85334 1.4933z"/>
<path d="m243.73 101.19q0 1.6267-0.82667 2.4267-0.8 0.77334-1.7867 0.77334h-6.32q0 0.74666 0.88001 1.2533 0.88 0.50667 1.76 0.50667 1.5467 0 2.4267-0.32l0.29333-0.10667q0.64-0.29333 1.0667-0.29333 0.85333 0 1.4667 1.2 0.34666 0.72 0.34666 1.2267 0 2.3733-5.68 2.3733-1.9733 0-3.52-0.66666-1.52-0.69334-2.3733-1.8133-1.68-2.16-1.68-4.8267 0-3.36 2.16-5.36 2.1867-2.0267 5.44-2.0267 3.7067 0 5.44 2.6133 0.90667 1.3867 0.90667 3.04zm-5.6267 0.77334q1.0133 0 1.0133-0.85334 0-0.61333-0.48-0.98667-0.45333-0.37333-1.3333-0.37333-0.85333 0-1.7067 0.72-0.85334 0.69334-0.85334 1.4933z"/>
<path d="m245.45 113.69v-15.573q0-0.61333 0.0267-0.90667 0.0533-0.29333 0.24-0.66667 0.37334-0.72 1.7867-0.72 1.4133 0 1.8933 0.37333 0.50666 0.34667 0.58666 1.04 1.0133-1.3867 3.1733-1.3867 2.1867 0 4.1333 2.0533t1.9467 4.7733q0 2.72-1.9467 4.7733-1.92 2.0533-4.1067 2.0533t-3.1733-1.2267v5.3867q0 0.61333-0.0533 0.90667-0.0267 0.29333-0.24 0.66666-0.18667 0.4-0.66667 0.56t-1.3067 0.16-1.3333-0.16q-0.48-0.16-0.69334-0.53333-0.18667-0.37333-0.24-0.66667-0.0267-0.29333-0.0267-0.90667zm5.28-12.56q-0.61333 0.72-0.61333 1.5733 0 0.85334 0.61333 1.5733 0.64 0.69333 1.6 0.69333 0.98667 0 1.6533-0.69333 0.69333-0.69333 0.69333-1.5733 0-0.88-0.64-1.5733-0.64-0.72-1.68-0.72-1.0133 0-1.6267 0.72z"/>
<path d="m274.51 101.19q0 1.6267-0.82666 2.4267-0.80001 0.77334-1.7867 0.77334h-6.32q0 0.74666 0.88 1.2533t1.76 0.50667q1.5467 0 2.4267-0.32l0.29334-0.10667q0.64-0.29333 1.0667-0.29333 0.85334 0 1.4667 1.2 0.34667 0.72 0.34667 1.2267 0 2.3733-5.68 2.3733-1.9733 0-3.52-0.66666-1.52-0.69334-2.3733-1.8133-1.68-2.16-1.68-4.8267 0-3.36 2.16-5.36 2.1867-2.0267 5.44-2.0267 3.7067 0 5.44 2.6133 0.90666 1.3867 0.90666 3.04zm-5.6267 0.77334q1.0133 0 1.0133-0.85334 0-0.61333-0.48-0.98667-0.45333-0.37333-1.3333-0.37333-0.85334 0-1.7067 0.72-0.85334 0.69334-0.85334 1.4933z"/>
<path d="m285.78 95.986q0.50667 0.16 0.82667 0.56 0.34667 0.37333 0.34667 1.2267 0 0.85333-0.50667 1.8667-0.50667 1.0133-1.4667 1.0133-0.48 0-0.93333-0.21334-0.42667-0.21333-1.1467-0.21333t-1.36 0.50667q-0.61334 0.50667-0.61334 1.2267v5.6q0 0.61334-0.0533 0.93334-0.0267 0.29333-0.24 0.69333-0.4 0.69334-2.08 0.69334-1.28 0-1.84-0.45334-0.42666-0.37333-0.48-1.1467 0-0.26666 0-0.77333v-9.36q0-0.61333 0.0267-0.90667 0.0533-0.32 0.24-0.69334 0.37333-0.72 2.08-0.72 1.6 0 2 0.61334 0.29333 0.42667 0.29333 0.88 0.13333-0.18667 0.37333-0.45333 0.26667-0.26667 1.0933-0.72t1.44-0.45333q0.64 0 1.0667 0.08 0.42666 0.05333 0.93333 0.21333z"/>
</g>
</g>
</svg>
