<svg xmlns="http://www.w3.org/2000/svg" width="288.05" height="31.512" fill="none"><path fill="#ffb02e" d="M13.329 14.662c-9.372-4.022-4.686-2.011 0 0zm0 23.939c-9.372-19.982-4.686-9.99 0 0zm0 0V14.662h-.004c-7.981 0-11.97 5.358-11.97 11.969 0 6.61 3.988 11.971 11.97 11.971zm0 0c-9.372-19.982-4.686-9.99 0 0zm0 0V14.662l-.001.004C10.722 22.21 1.355 20.02 1.355 26.63c0 6.61 3.989 11.97 11.97 11.97z" style="paint-order:markers fill stroke" transform="translate(-1.354 -10.628)"/><path fill="#191919" fill-rule="evenodd" d="M5.97 11.891c.042-.211.136-.47.315-.666.153-.167.425-.352.984-.352.548 0 .828.19.99.366.186.205.276.466.305.635a.855.855 0 0 0 1.685-.293 3.03 3.03 0 0 0-.727-1.493c-.49-.539-1.231-.925-2.253-.925-1.013 0-1.75.368-2.244.906-.468.51-.658 1.106-.733 1.496a.855.855 0 0 0 1.678.326z"/><path fill="#bb1d80" d="M11.971 23.699c-7.695 0-7.695-7.696-7.695-7.696h15.39s0 7.696-7.695 7.696z"/><path fill="#fff" d="M-6.206 1.69v11.92" style="paint-order:markers fill stroke" transform="translate(18.196 12.44)"/><path fill="#ff822d" d="M21.284.555c.18.728 1.208.745 1.413.024a.731.731 0 0 1 .994-.47l.586.254c.405.176.563.669.335 1.048-.387.642.327 1.38.982 1.016a.731.731 0 0 1 1.036.37l.234.594a.731.731 0 0 1-.504.978c-.727.18-.745 1.208-.024 1.413a.731.731 0 0 1 .47.994l-.254.585a.731.731 0 0 1-1.047.335c-.642-.386-1.381.328-1.016.983a.731.731 0 0 1-.37 1.035l-.594.235a.731.731 0 0 1-.978-.504c-.18-.728-1.208-.745-1.413-.024a.731.731 0 0 1-.995.47l-.585-.254a.731.731 0 0 1-.335-1.048c.387-.642-.328-1.38-.982-1.016a.731.731 0 0 1-1.036-.37l-.234-.594a.731.731 0 0 1 .504-.978c.727-.18.744-1.208.024-1.413a.731.731 0 0 1-.47-.994l.253-.585a.731.731 0 0 1 1.048-.335c.642.386 1.38-.328 1.016-.983a.731.731 0 0 1 .37-1.035l.594-.235a.731.731 0 0 1 .978.504z"/><path fill="#fff" d="M23.122 3.793a1 1 0 0 1 0 1.414l-3 3a1 1 0 0 1-1.414-1.414l3-3a1 1 0 0 1 1.414 0z"/><path fill="#533566" d="M11.963 4.031c0 29.547.01-27.973.01 23.94 7.975-.005 11.961-5.363 11.961-11.972 0-6.61-3.99-11.969-11.971-11.969z"/><path d="M40.73 26.22q-1.315 0-2.015-.672-.672-.7-.672-1.988V9.14q0-1.288.672-1.96.7-.7 2.016-.7h9.492q1.008 0 1.512.504t.504 1.456q0 .98-.504 1.512-.504.504-1.512.504H42.97v3.752h6.636q.98 0 1.484.504.532.504.532 1.484t-.532 1.484q-.504.504-1.484.504H42.97v4.06h7.252q1.008 0 1.512.532.504.504.504 1.456 0 .98-.504 1.484t-1.512.504zm16.059.252q-1.176 0-1.82-.644-.644-.644-.644-1.876v-9.268q0-1.204.616-1.848.644-.644 1.82-.644 1.176 0 1.792.644.616.644.616 1.848v1.54l-.308-1.372q.588-1.232 1.736-1.96 1.176-.756 2.772-.756 1.512 0 2.576.728 1.092.728 1.568 2.212h-.392q.644-1.372 1.932-2.156 1.288-.784 2.856-.784 1.624 0 2.66.644 1.036.616 1.54 1.96.532 1.316.532 3.332v5.88q0 1.232-.672 1.876-.644.644-1.848.644-1.176 0-1.82-.644-.644-.644-.644-1.876v-5.74q0-1.204-.364-1.736t-1.204-.532q-1.036 0-1.596.728-.532.728-.532 2.072v5.208q0 1.232-.644 1.876-.644.644-1.848.644-1.204 0-1.848-.644-.644-.644-.644-1.876v-5.74q0-1.204-.364-1.736t-1.204-.532q-1.008 0-1.568.728-.532.728-.532 2.072v5.208q0 2.52-2.52 2.52zm29.078.056q-2.296 0-4.004-.868-1.708-.868-2.66-2.492-.952-1.624-.952-3.836 0-1.68.532-2.996.532-1.344 1.54-2.268 1.008-.952 2.408-1.428 1.4-.504 3.136-.504 2.296 0 4.004.868 1.708.868 2.632 2.492.952 1.596.952 3.836 0 1.652-.532 2.996t-1.54 2.296q-.98.924-2.408 1.428-1.4.476-3.108.476zm0-3.668q.756 0 1.344-.364.588-.392.896-1.148.336-.784.336-2.016 0-1.876-.728-2.688-.728-.84-1.848-.84-.756 0-1.344.364-.588.364-.924 1.148-.336.756-.336 2.016 0 1.848.728 2.688.728.84 1.876.84zm8.442 8.596q-.868.028-1.372-.308-.532-.336-.728-.84-.196-.504-.084-1.036.084-.504.448-.896.364-.364.924-.42.924-.056 1.344-.504.42-.42.42-1.316V14.684q0-1.204.644-1.848.644-.644 1.848-.644 1.204 0 1.848.644.644.644.644 1.848V25.66q0 1.876-.644 3.136-.644 1.288-1.96 1.932-1.288.672-3.332.728zm3.416-21.252q-1.344 0-2.072-.616-.7-.616-.7-1.792 0-1.148.7-1.764.728-.616 2.072-.616t2.044.616q.728.616.728 1.764 0 1.176-.728 1.792-.7.616-2.044.616zm7.266 16.268q-1.176 0-1.82-.7-.644-.7-.644-2.016v-8.848q0-1.316.644-2.016t1.82-.7q1.204 0 1.848.7.672.7.672 2.016v8.848q0 1.316-.644 2.016t-1.876.7zm0-16.268q-1.316 0-2.044-.616-.7-.616-.7-1.792 0-1.148.7-1.764.728-.616 2.044-.616 1.372 0 2.072.616t.7 1.764q0 1.176-.7 1.792-.7.616-2.072.616zm14.868 16.268q-1.12 0-1.736-.616-.588-.616-.588-1.736V8.58q0-1.148.644-1.736.644-.616 1.82-.616.98 0 1.54.392.588.364 1.064 1.232l6.02 10.808h-.98l5.992-10.808q.504-.868 1.064-1.232.588-.392 1.568-.392 1.12 0 1.708.616.616.588.616 1.736v15.54q0 1.12-.588 1.736-.588.616-1.736.616-1.12 0-1.736-.616-.588-.616-.588-1.736v-9.632h.588l-4.508 7.84q-.392.616-.84.924-.42.308-1.148.308-.7 0-1.148-.308-.448-.308-.812-.924l-4.536-7.868h.644v9.66q0 1.12-.588 1.736-.588.616-1.736.616zm23.87 0q-1.176 0-1.82-.7-.644-.7-.644-2.016v-8.848q0-1.316.644-2.016t1.82-.7q1.204 0 1.848.7.672.7.672 2.016v8.848q0 1.316-.644 2.016t-1.876.7zm0-16.268q-1.316 0-2.044-.616-.7-.616-.7-1.792 0-1.148.7-1.764.728-.616 2.044-.616 1.372 0 2.072.616t.7 1.764q0 1.176-.7 1.792-.7.616-2.072.616zm7.238 16.268q-1.176 0-1.82-.644-.644-.644-.644-1.876v-9.268q0-1.204.616-1.848.644-.644 1.82-.644 1.176 0 1.792.644.616.644.616 1.848V16l-.308-1.148q.672-1.316 1.904-2.016 1.26-.7 2.856-.7 1.652 0 2.716.644 1.064.616 1.596 1.96.532 1.316.532 3.332v5.88q0 1.232-.644 1.876-.644.644-1.848.644-1.204 0-1.848-.644-.644-.644-.644-1.876v-5.684q0-1.26-.448-1.792-.42-.532-1.26-.532-1.12 0-1.792.728-.672.7-.672 1.904v5.376q0 2.52-2.52 2.52zm21.378.056q-2.52 0-4.368-.868-1.82-.896-2.8-2.52-.98-1.624-.98-3.836 0-2.128.924-3.724.952-1.624 2.576-2.52 1.652-.924 3.752-.924 1.54 0 2.8.504 1.26.476 2.156 1.428.896.924 1.344 2.24.476 1.316.476 2.94 0 .56-.308.84-.308.252-.98.252h-8.568v-2.352h6.216l-.448.364q0-1.036-.28-1.68-.28-.644-.84-.98-.532-.336-1.344-.336-.868 0-1.512.42-.616.392-.952 1.176-.336.784-.336 1.96v.252q0 1.988.868 2.856.896.84 2.744.84.616 0 1.4-.14.812-.168 1.54-.448t1.26-.084q.532.168.812.616.308.42.336.98.028.532-.252 1.064-.28.504-.924.784-.98.448-2.1.672-1.092.224-2.212.224zm12.894 0q-1.232 0-2.52-.196-1.26-.168-2.296-.644-.7-.28-1.008-.756-.28-.476-.28-1.008.028-.532.308-.952.308-.448.784-.616.504-.196 1.12.028 1.176.42 2.1.616.952.168 1.82.168 1.036 0 1.484-.28.448-.308.448-.784 0-.42-.308-.644-.28-.224-.812-.308l-3.108-.504q-1.736-.308-2.688-1.26-.952-.98-.952-2.548 0-1.456.812-2.492.84-1.064 2.268-1.624 1.456-.588 3.332-.588 1.26 0 2.296.196 1.036.168 2.016.644.616.252.868.728t.196 1.008q-.056.504-.364.952-.28.42-.784.588-.504.14-1.176-.084-.924-.364-1.652-.532-.7-.168-1.316-.168-1.148 0-1.624.308-.476.308-.476.784 0 .364.252.616.252.224.784.308l3.108.532q1.792.28 2.744 1.232.98.924.98 2.52 0 2.268-1.736 3.528-1.736 1.232-4.62 1.232zm13.482-.056q-.952 0-1.652-.448-.7-.476-1.12-1.456l-3.808-9.212q-.364-.868-.252-1.568.112-.728.672-1.148.588-.448 1.596-.448.868 0 1.428.42.56.392 1.008 1.568l2.688 7.056h-.588l2.828-7.588q.28-.756.756-1.092.504-.364 1.26-.364.812 0 1.288.364t.756 1.092l2.828 7.588h-.504l2.716-7.224q.392-1.064 1.008-1.428.616-.392 1.316-.392.952 0 1.456.448t.56 1.176q.084.728-.28 1.568l-3.78 9.156q-.392.98-1.092 1.456-.7.476-1.652.476-.98 0-1.68-.476-.672-.476-1.092-1.456l-3.08-7.7h2.044l-2.912 7.644q-.392 1.008-1.064 1.512-.672.476-1.652.476zm24.817.056q-2.52 0-4.368-.868-1.82-.896-2.8-2.52-.98-1.624-.98-3.836 0-2.128.924-3.724.952-1.624 2.576-2.52 1.652-.924 3.752-.924 1.54 0 2.8.504 1.26.476 2.156 1.428.896.924 1.344 2.24.476 1.316.476 2.94 0 .56-.308.84-.308.252-.98.252h-8.568v-2.352h6.216l-.448.364q0-1.036-.28-1.68-.28-.644-.84-.98-.532-.336-1.344-.336-.868 0-1.512.42-.616.392-.952 1.176-.336.784-.336 1.96v.252q0 1.988.868 2.856.896.84 2.744.84.616 0 1.4-.14.812-.168 1.54-.448t1.26-.084q.532.168.812.616.308.42.336.98.028.532-.252 1.064-.28.504-.924.784-.98.448-2.1.672-1.092.224-2.212.224zm14.91 0q-2.52 0-4.368-.868-1.82-.896-2.8-2.52-.98-1.624-.98-3.836 0-2.128.924-3.724.952-1.624 2.576-2.52 1.652-.924 3.752-.924 1.54 0 2.8.504 1.26.476 2.156 1.428.896.924 1.344 2.24.476 1.316.476 2.94 0 .56-.308.84-.308.252-.98.252h-8.568v-2.352h6.216l-.448.364q0-1.036-.28-1.68-.28-.644-.84-.98-.532-.336-1.344-.336-.868 0-1.512.42-.616.392-.952 1.176-.336.784-.336 1.96v.252q0 1.988.868 2.856.896.84 2.744.84.616 0 1.4-.14.812-.168 1.54-.448t1.26-.084q.532.168.812.616.308.42.336.98.028.532-.252 1.064-.28.504-.924.784-.98.448-2.1.672-1.092.224-2.212.224zm9.87 4.984q-1.176 0-1.82-.644-.644-.644-.644-1.876V14.684q0-1.204.616-1.848.644-.644 1.82-.644 1.204 0 1.82.644.644.644.644 1.848v1.624l-.308-1.372q.392-1.26 1.624-2.016 1.26-.784 2.856-.784 1.792 0 3.136.868 1.372.868 2.128 2.464t.756 3.864q0 2.212-.756 3.836-.756 1.624-2.128 2.492-1.344.868-3.136.868-1.54 0-2.772-.728-1.232-.728-1.652-1.904h.336v5.096q0 1.232-.672 1.876-.644.644-1.848.644zm5.04-8.652q.756 0 1.316-.364.588-.392.924-1.148.336-.784.336-2.016 0-1.876-.728-2.688-.728-.84-1.848-.84-.756 0-1.344.364-.588.364-.924 1.148-.336.756-.336 2.016 0 1.848.728 2.688.728.84 1.876.84zm16.73 3.668q-2.52 0-4.368-.868-1.82-.896-2.8-2.52-.98-1.624-.98-3.836 0-2.128.924-3.724.952-1.624 2.576-2.52 1.652-.924 3.752-.924 1.54 0 2.8.504 1.26.476 2.156 1.428.896.924 1.344 2.24.476 1.316.476 2.94 0 .56-.308.84-.308.252-.98.252h-8.568v-2.352h6.216l-.448.364q0-1.036-.28-1.68-.28-.644-.84-.98-.532-.336-1.344-.336-.868 0-1.512.42-.616.392-.952 1.176-.336.784-.336 1.96v.252q0 1.988.868 2.856.896.84 2.744.84.616 0 1.4-.14.812-.168 1.54-.448t1.26-.084q.532.168.812.616.308.42.336.98.028.532-.252 1.064-.28.504-.924.784-.98.448-2.1.672-1.092.224-2.212.224zm9.954-.056q-1.232 0-1.904-.644-.644-.644-.644-1.876v-9.268q0-1.204.616-1.848.644-.644 1.82-.644 1.176 0 1.792.644.616.644.616 1.848v1.148h-.28q.28-1.68 1.428-2.66 1.176-.98 2.912-1.036.812-.028 1.204.42.42.42.448 1.596 0 1.008-.42 1.596-.42.588-1.596.7l-.644.056q-1.484.14-2.156.84-.672.672-.672 2.016v4.592q0 1.232-.644 1.876-.644.644-1.876.644z" aria-label="Emoji Minesweeper" style="font-weight:900;font-size:28px;font-family:Nunito;-inkscape-font-specification:&quot;Nunito Heavy&quot;;letter-spacing:-.63px;fill:#fff;stroke-width:14.184;stroke-linejoin:round;paint-order:markers stroke fill;fill-opacity:1"/></svg>